<svg id="Layer_1" data-name="Layer 1" xmlns="http://www.w3.org/2000/svg" viewBox="0 0 24.89 41.45"><defs><style>.cls-1{fill:#fdd7ad;}.cls-1,.cls-3,.cls-4{stroke:#ed6d63;stroke-miterlimit:10;}.cls-1,.cls-4{stroke-linecap:round;}.cls-2{fill:#fdb8ad;}.cls-3,.cls-4{fill:none;}</style></defs><title>allergy-specialist</title><g id="icon_1" data-name="icon 1"><path class="cls-1" d="M5.67,13.64A.7.7,0,0,0,6.54,13V5.24S6.54,2.3,10.25,3A.61.61,0,0,0,11,2.52c.22-.66,1-1.64,3.16-1.64A2,2,0,0,1,16.25,2.3a.74.74,0,0,0,.87.44,2.35,2.35,0,0,1,2.51.32,3.71,3.71,0,0,1,1.09,2.51c0,.44.32.66.76.66,1.31-.11,3.6-.11,3.6,2.28V23.78s0,3.93-1.86,5.23a.68.68,0,0,0-.32.66v10.9a.75.75,0,0,1-.77.77H10.47c-.44,0-.66-.33-.66-.77V29.89a.69.69,0,0,0-.54-.66c-.87-.32-3.16-1.85-7.09-9.81h0c-.11-.11-2.18-4.36,0-5.45A5,5,0,0,1,5.67,13.64Z" transform="translate(-0.69 -0.38)"/><path class="cls-2" d="M24.53,23.24a1.07,1.07,0,0,1-1.09-1.1c0-1.09,0-3.27-3.27-3.27s-3.27,2.18-3.27,2.18a3.41,3.41,0,0,1-1.09,2.19c-1.09,1.09-2.18,3.27-1.09,4.36s4.36,1.09,5.45,2.18a3.38,3.38,0,0,0,2.18,1.09V29.78h0a7.34,7.34,0,0,0,2.18-5.24v-1.3Z" transform="translate(-0.69 -0.38)"/><path class="cls-3" d="M16.36,3.06" transform="translate(-0.69 -0.38)"/><line class="cls-4" x1="15.67" y1="15.77" x2="15.67" y2="2.68"/><line class="cls-4" x1="20.03" y1="16.86" x2="20.03" y2="5.95"/><line class="cls-4" x1="10.22" y1="15.77" x2="10.22" y2="2.68"/><line class="cls-4" x1="5.86" y1="19.04" x2="5.86" y2="5.95"/><circle class="cls-2" cx="8.58" cy="21.76" r="0.55"/><circle class="cls-2" cx="9.13" cy="20.13" r="0.55"/><circle class="cls-2" cx="14.58" cy="19.04" r="0.55"/><circle class="cls-2" cx="14.03" cy="21.76" r="1.09"/><circle class="cls-2" cx="9.13" cy="25.58" r="1.64"/><circle class="cls-2" cx="12.4" cy="25.58" r="0.55"/><circle class="cls-2" cx="12.4" cy="28.85" r="0.55"/><circle class="cls-2" cx="12.4" cy="32.12" r="0.55"/><circle class="cls-2" cx="15.67" cy="33.21" r="0.55"/><circle class="cls-2" cx="19.49" cy="31.58" r="1.09"/><circle class="cls-2" cx="11.85" cy="35.94" r="2.18"/><circle class="cls-2" cx="18.94" cy="37.57" r="0.55"/></g></svg>