<?xml version="1.0" encoding="utf-8"?>
<!-- Generator: Adobe Illustrator 23.0.1, SVG Export Plug-In . SVG Version: 6.00 Build 0)  -->
<svg version="1.1" id="Layer_1" xmlns="http://www.w3.org/2000/svg" xmlns:xlink="http://www.w3.org/1999/xlink" x="0px" y="0px"
	 viewBox="0 0 50.4 60" style="enable-background:new 0 0 50.4 60;" xml:space="preserve">
<style type="text/css">
	.st0{display:none;}
	.st1{display:inline;}
	.st2{fill:#FDD7AD;stroke:#ED6D63;stroke-linecap:round;stroke-miterlimit:10;}
	.st3{fill:#FDB8AD;}
	.st4{fill:none;stroke:#ED6D63;stroke-miterlimit:10;}
	.st5{fill:none;stroke:#ED6D63;stroke-linecap:round;stroke-miterlimit:10;}
	.st6{fill:none;stroke:#1341A3;stroke-miterlimit:10;}
	.st7{fill:#EF5361;}
	.st8{fill:#1341A3;}
	.st9{fill:#E4E8F1;}
	.st10{fill:#FDD7AD;stroke:#ED6D63;stroke-miterlimit:10;}
	.st11{fill:none;stroke:#1341A3;stroke-width:1.5;stroke-miterlimit:10;}
	.st12{fill:#65B54E;}
	.st13{fill:#477F37;}
	.st14{display:inline;fill:#ED6D63;}
	.st15{display:inline;fill:#FFD3DD;}
	
		.st16{clip-path:url(#SVGID_4_);fill:none;stroke:#E4E8F1;stroke-width:2;stroke-linecap:round;stroke-linejoin:round;stroke-miterlimit:10;}
	.st17{display:inline;fill:#EF5361;}
	.st18{display:inline;fill:#1341A3;}
	.st19{display:inline;fill:none;stroke:#1341A3;stroke-width:2;stroke-linecap:round;stroke-miterlimit:10;}
	.st20{display:inline;fill:none;stroke:#1341A3;stroke-width:1.5;stroke-miterlimit:10;}
	.st21{clip-path:url(#SVGID_7_);fill:#EF5361;}
	.st22{display:inline;fill:none;stroke:#E4E8F1;stroke-linecap:round;stroke-miterlimit:10;}
	
		.st23{clip-path:url(#SVGID_9_);fill:none;stroke:#E4E8F1;stroke-width:2;stroke-linecap:round;stroke-linejoin:round;stroke-miterlimit:10;}
	.st24{display:inline;fill:#E4E8F1;}
	.st25{clip-path:url(#SVGID_13_);fill:#0F367C;}
	.st26{clip-path:url(#SVGID_15_);fill:#5CA547;}
	
		.st27{display:inline;fill:#FDD7AD;stroke:#ED6D63;stroke-width:2;stroke-linecap:round;stroke-linejoin:round;stroke-miterlimit:10;}
	.st28{display:inline;fill:none;stroke:#ED6D63;stroke-width:2;stroke-linecap:round;stroke-miterlimit:10;}
	
		.st29{display:inline;fill:#FDD7AD;stroke:#FF736C;stroke-width:2;stroke-linecap:round;stroke-linejoin:round;stroke-miterlimit:10;}
	.st30{display:inline;fill:none;stroke:#FF736C;stroke-width:2;stroke-linecap:round;stroke-linejoin:round;stroke-miterlimit:10;}
	.st31{display:inline;fill:none;stroke:#FF736C;stroke-width:2;stroke-linecap:round;stroke-miterlimit:10;}
	.st32{display:inline;fill:none;stroke:#E4E8F1;stroke-width:2;stroke-linecap:round;stroke-miterlimit:10;}
	.st33{display:inline;fill:none;stroke:#1341A3;stroke-width:2.5;stroke-miterlimit:10;}
	.st34{display:inline;fill:#89D7F4;}
	.st35{fill:#ED6D63;}
	.st36{clip-path:url(#SVGID_18_);fill:#FDD7AD;}
	.st37{display:inline;fill:#3A3A3A;}
	.st38{display:inline;fill:none;stroke:#1341A3;stroke-miterlimit:10;}
	.st39{display:inline;fill:#C1434E;}
	.st40{display:inline;fill:#65B54E;}
	.st41{display:inline;fill:none;stroke:#559842;stroke-width:0.5;stroke-linecap:round;stroke-miterlimit:10;}
	.st42{fill:none;stroke:#E4E8F1;stroke-linecap:round;stroke-miterlimit:10;stroke-dasharray:2.0138,2.0138;}
	.st43{fill:#FDD7AD;stroke:#ED6D63;stroke-linecap:round;stroke-linejoin:round;stroke-miterlimit:10;}
	.st44{display:inline;fill:none;stroke:#EF5361;stroke-width:3;stroke-miterlimit:10;}
	.st45{display:inline;fill:none;stroke:#1341A3;stroke-width:4;stroke-miterlimit:10;}
	.st46{display:inline;fill:none;stroke:#1341A3;stroke-width:3;stroke-miterlimit:10;}
	.st47{display:inline;fill:none;stroke:#E4E8F1;stroke-width:1.2;stroke-miterlimit:10;}
	.st48{display:inline;fill:none;stroke:#E4E8F1;stroke-width:1.2;stroke-linecap:round;stroke-miterlimit:10;}
	.st49{display:inline;fill:#1341A3;stroke:#E4E8F1;stroke-width:2;stroke-miterlimit:10;}
	.st50{display:inline;fill:none;stroke:#1341A3;stroke-width:2.5;stroke-linecap:round;stroke-miterlimit:10;}
	.st51{fill:#FF9289;stroke:#ED6D63;stroke-width:1.2;stroke-miterlimit:10;}
	.st52{fill:none;stroke:#ED6D63;stroke-width:1.2;stroke-linecap:round;stroke-miterlimit:10;}
	.st53{fill:#FF9289;stroke:#ED6D63;stroke-miterlimit:10;}
	.st54{display:inline;fill:#FF9289;stroke:#ED6D63;stroke-width:2;stroke-miterlimit:10;}
	.st55{display:inline;fill:none;stroke:#E4E8F1;stroke-width:2;stroke-miterlimit:10;}
	.st56{display:inline;fill:none;stroke:#E4E8F1;stroke-width:2;stroke-linejoin:round;stroke-miterlimit:10;}
	.st57{display:inline;fill:none;stroke:#1341A3;stroke-width:2;stroke-miterlimit:10;}
	.st58{font-family:'Montserrat-Bold';}
	.st59{font-size:8.4097px;}
	.st60{font-size:6.761px;}
	.st61{font-size:5.5917px;}
	.st62{font-size:4.6914px;}
	.st63{display:inline;fill:none;stroke:#1341A3;stroke-width:1.5;stroke-linecap:round;stroke-miterlimit:10;}
	.st64{display:inline;clip-path:url(#SVGID_21_);fill:#EF5361;}
	.st65{display:inline;fill:none;stroke:#E4E8F1;stroke-width:2;stroke-linecap:round;stroke-linejoin:round;stroke-miterlimit:10;}
	.st66{clip-path:url(#SVGID_23_);fill:none;stroke:#E4E8F1;stroke-width:1.5;stroke-linecap:round;stroke-miterlimit:10;}
	
		.st67{display:inline;fill:none;stroke:#1341A3;stroke-width:1.5;stroke-linecap:round;stroke-linejoin:round;stroke-miterlimit:10;}
	.st68{display:inline;fill:#1341A3;stroke:#89D7F4;stroke-width:2;stroke-miterlimit:10;}
	.st69{fill:#89D7F4;}
	.st70{clip-path:url(#SVGID_25_);fill:#1341A3;}
	.st71{clip-path:url(#SVGID_28_);fill:none;stroke:#E4E8F1;stroke-linecap:round;stroke-miterlimit:10;}
	.st72{display:inline;fill:none;stroke:#E4E8F1;stroke-width:1.5;stroke-linecap:round;stroke-miterlimit:10;}
	
		.st73{display:inline;fill:none;stroke:#1341A3;stroke-width:2.5;stroke-linecap:round;stroke-linejoin:round;stroke-miterlimit:10;}
	.st74{clip-path:url(#SVGID_30_);fill:none;stroke:#E4E8F1;stroke-width:3;stroke-miterlimit:10;}
	.st75{display:inline;fill:#1341A3;stroke:#E4E8F1;stroke-width:2.5;stroke-miterlimit:10;}
	.st76{display:inline;fill:#E6EAF2;}
	.st77{display:inline;fill:none;stroke:#E6EAF2;stroke-width:1.5;stroke-linecap:round;stroke-miterlimit:10;}
	.st78{display:inline;fill:none;stroke:#E4E8F1;stroke-width:0.5;stroke-linecap:round;stroke-miterlimit:10;}
	.st79{display:inline;fill:none;stroke:#E4E8F1;stroke-width:0.8;stroke-linecap:round;stroke-miterlimit:10;}
	.st80{display:inline;fill:#D84B58;}
	.st81{display:inline;fill:#579B43;}
</style>
<g id="icon_1" class="st0">
	<g class="st1">
		<path class="st2" d="M16.8,23.3c0.4,0.1,0.8-0.2,0.8-0.6v-7.1c0,0,0-2.7,3.4-2.1c0.3,0.1,0.6-0.1,0.7-0.4c0.2-0.6,0.9-1.5,2.9-1.5
			c1.2,0,1.7,0.7,1.9,1.3c0.1,0.3,0.5,0.5,0.8,0.4c0.7-0.2,1.7-0.4,2.3,0.3c0.8,0.8,0.9,1.5,1,2.3c0,0.4,0.3,0.6,0.7,0.6
			c1.2-0.1,3.3-0.1,3.3,2.1v14c0,0,0,3.6-1.7,4.8c-0.2,0.1-0.3,0.3-0.3,0.6v10c0,0.4-0.3,0.7-0.7,0.7H21.2c-0.4,0-0.6-0.3-0.6-0.7
			v-9.8c0-0.3-0.2-0.5-0.5-0.6c-0.8-0.3-2.9-1.7-6.5-9l0,0c-0.1-0.1-2-4,0-5C14.8,23,16,23.1,16.8,23.3z"/>
		<path class="st3" d="M34.1,32.1c0,0-1,0-1-1c0-1,0-3-3-3s-3,2-3,2s0,1-1,2c-1,1-2,3-1,4s4,1,5,2s2,1,2,1v-1l0,0c1.3-1.3,2-3,2-4.8
			v-0.2V32.1z"/>
		<path class="st4" d="M26.6,13.6"/>
		<line class="st5" x1="26.6" y1="25.6" x2="26.6" y2="13.6"/>
		<line class="st5" x1="30.6" y1="26.6" x2="30.6" y2="16.6"/>
		<line class="st5" x1="21.6" y1="25.6" x2="21.6" y2="13.6"/>
		<line class="st5" x1="17.6" y1="28.6" x2="17.6" y2="16.6"/>
		<circle class="st3" cx="20.1" cy="31.1" r="0.5"/>
		<circle class="st3" cx="20.6" cy="29.6" r="0.5"/>
		<circle class="st3" cx="25.6" cy="28.6" r="0.5"/>
		<circle class="st3" cx="25.1" cy="31.1" r="1"/>
		<circle class="st3" cx="20.6" cy="34.6" r="1.5"/>
		<circle class="st3" cx="23.6" cy="34.6" r="0.5"/>
		<circle class="st3" cx="23.6" cy="37.6" r="0.5"/>
		<circle class="st3" cx="23.6" cy="40.6" r="0.5"/>
		<circle class="st3" cx="26.6" cy="41.6" r="0.5"/>
		<circle class="st3" cx="30.1" cy="40.1" r="1"/>
		<circle class="st3" cx="23.1" cy="44.1" r="2"/>
		<circle class="st3" cx="29.6" cy="45.6" r="0.5"/>
	</g>
</g>
<g id="icon_2" class="st0">
	<g class="st1">
		<path class="st6" d="M32.6,22.1c0,0-4.3,0.5-4.6,3.5s-0.3,7.2-0.3,7.2L25.5,33l0.3-6.7l0,0c0-0.2-0.2-3.7,2.8-5.6
			c1.7-1.1,4.4-1.1,4.4-1.1"/>
		<path class="st6" d="M17.2,19.6c0,0,3.6,0.9,5.3,2.9c1.3,1.5,1.2,3.5,1.2,5.8c0,1.6,0,3,0,4.7h-1.9v-6.3c0,0,0.2-2.3-2.2-3.7
			c-0.8-0.5-2.3-1-4.2-0.9"/>
		<path class="st7" d="M33.7,15.1c0,0,2.5-1,4.2,0.6c1.3,1.2,2.5,2.9,2.5,7.1s-3,5.4-3.6,5.7c-0.2,0.1-3.8,1.1-4.9-2.3
			c-0.5-1.5,0.2-4.6,0.2-4.6s0.1-0.9-0.3-2.1C31.2,18.2,31.5,16,33.7,15.1z"/>
		<path class="st7" d="M21.3,31.8h7c0,0,2.7,0.3,2.6,3.4s-1.8,4.1-1.8,4.1s-1.8,1.4-2,3.3c-0.2,1.8-0.2,2.9-0.2,2.9h-4
			c0,0,0-2.3-0.1-2.9s-1-2.6-1.8-3.5c-0.4-0.4-2.1-2-1.9-4.5C19.2,32.9,21.3,31.8,21.3,31.8z"/>
		<path class="st7" d="M16.2,15.1c0,0-2.5-1-4.2,0.6c-1.4,1.2-2.5,2.9-2.5,7.1s3,5.4,3.6,5.7c0.1,0.1,3.8,1.1,4.9-2.3
			c0.5-1.5-0.1-4.6-0.1-4.6s-0.1-0.9,0.4-2.1C18.7,18.2,18.3,16,16.2,15.1z"/>
	</g>
</g>
<g id="icon_3" class="st0">
	<g class="st1">
		
			<rect x="14.7" y="24.5" transform="matrix(0.6787 -0.7344 0.7344 0.6787 -12.4502 28.6261)" class="st8" width="23.5" height="8.1"/>
		
			<rect x="16.3" y="36.2" transform="matrix(0.6787 -0.7344 0.7344 0.6787 -22.3121 25.1857)" class="st8" width="2.6" height="3.8"/>
		<path class="st8" d="M17.2,38.6L17.2,38.6c0.2,0.2,0.2,0.4,0,0.6L10.9,46c-0.1,0.2-0.4,0.2-0.6,0l0,0c-0.2-0.2-0.2-0.4,0-0.6
			l6.3-6.8C16.7,38.4,17,38.4,17.2,38.6z"/>
		<path class="st8" d="M38.7,23.7l-8.4-7.8c-0.3-0.2-0.3-0.6,0-0.9l0,0c0.2-0.3,0.7-0.3,0.9,0l8.4,7.7c0.3,0.2,0.3,0.6,0,0.9l0,0
			C39.3,23.9,38.9,23.9,38.7,23.7z"/>
		<path class="st8" d="M40.1,19.5l-5.8-5.4c-0.3-0.3-0.3-0.7,0-1l0,0c0.3-0.3,0.7-0.3,1,0l5.9,5.4c0.3,0.3,0.3,0.7,0,1l0,0
			C40.9,19.8,40.4,19.8,40.1,19.5z"/>
		
			<rect x="35.6" y="15.6" transform="matrix(0.6787 -0.7344 0.7344 0.6787 -0.8789 32.5659)" class="st8" width="2.3" height="3.4"/>
		<path class="st9" d="M30.5,21.8l-1.8-1.7l0.7-0.7l1.8,1.7c0.2,0.2,0.2,0.5,0,0.7l0,0C31,22,30.7,22,30.5,21.8z"/>
		<path class="st9" d="M28.3,24.2l-1.9-1.7l0.6-0.7l1.8,1.7c0.2,0.2,0.2,0.5,0,0.7l0,0C28.8,24.4,28.5,24.4,28.3,24.2z"/>
		<path class="st9" d="M26.1,26.6l-1.9-1.7l0.6-0.7l1.9,1.7c0.2,0.2,0.2,0.5,0,0.7l0,0C26.6,26.8,26.3,26.8,26.1,26.6z"/>
		<path class="st9" d="M23.9,29L22,27.3l0.6-0.7l1.9,1.7c0.2,0.2,0.2,0.5,0,0.7l0,0C24.4,29.2,24.1,29.2,23.9,29z"/>
		<path class="st9" d="M21.6,31.5l-1.9-1.7l0.6-0.7l1.9,1.7c0.2,0.2,0.2,0.5,0,0.7l0,0C22.1,31.6,21.8,31.6,21.6,31.5z"/>
		<path class="st9" d="M19.4,33.9l-1.9-1.7l0.6-0.7l1.9,1.7c0.2,0.2,0.2,0.5,0,0.7l0,0C19.9,34,19.6,34.1,19.4,33.9z"/>
	</g>
</g>
<g id="icon_4" class="st0">
	<g class="st1">
		<path class="st10" d="M20.2,14.5c0,0,1.3,0.1,2,0.1c1.1,0.1,7.9,0.8,8.3,8.5c0.4,7.2-3.3,9.4-4.4,10.9c-0.8,1-1.5,2-1,5
			c0.6,3.6-1.8,6.5-4.5,7s-8,0.3-8.8-5.5c-0.8-5.7-1.3-11.6-1.6-13.9c-0.4-3.2-0.1-8,3.6-10.4C16.8,14.2,19.7,14.5,20.2,14.5z"/>
		<path class="st4" d="M23.3,29.1c0,0,4.9-7.4-0.9-9.5c-4.4-1.6-6.6,0.6-7.6,3.1c-0.2,0.5-0.6,2-0.7,3.9c-0.2,2.5-0.1,5.9,1.3,8.6
			c2.5,4.9,5.1,2.1,5.1,2.1s2.4-2.9,0.6-7s-6.7-3.7-6.7-3.7"/>
		<line class="st11" x1="35.4" y1="22.4" x2="41.5" y2="19.1"/>
		<line class="st11" x1="37.4" y1="30.2" x2="45.4" y2="30.2"/>
		<line class="st11" x1="35.4" y1="37.3" x2="42.1" y2="41"/>
	</g>
</g>
<g id="icon_5" class="st0">
	<g class="st1">
		<path class="st8" d="M6.3,34.3L11,43l-1.9,1.2c0,0-0.9,0.7-1.4-0.3c-0.5-0.9-3.9-7-3.9-7s-0.5-0.6,0.3-1.2
			C4.9,35.2,6.3,34.3,6.3,34.3z"/>
		<path class="st8" d="M12.5,42.1l2.7-1.5l11.4,2.3c0,0,3.6,0.8,5.8,0s13-5.5,13-5.5s1.8-0.5,1.1-2.3C45.8,33.4,44,34,44,34
			l-8.4,3.6c-0.1,0-0.2,0-0.2,0.1c-0.9,0.4-2.9,0.2-4.8,0c-2.1-0.1-7.2-0.4-7.2-0.4s-0.5,0-0.5-0.6c0.1-0.6,1.7-0.4,1.7-0.4l8.4,0.4
			c0,0,0.2,0,0.5-0.1c0.5-0.2,1.3-0.8,1.1-1.9c-0.2-1.6-1.2-2.1-2.7-2.1c-1.5,0-7.9-1.3-9.3-1.9c-1.3-0.5-3.6-1.7-5.9-1.4
			c-2.2,0.3-3.8,0.9-5.6,2c-1.9,1.1-3.4,2.1-3.4,2.1L12.5,42.1z"/>
		<path class="st8" d="M36.1,34.2v1.7l7.2-2.7c0,0-0.6-1-2.4-0.5C39,33.1,36.1,34.2,36.1,34.2z"/>
		<path class="st8" d="M35.6,33l4.5-1.3c0,0-0.7-0.6-2.9-0.2S34.7,32,34.7,32L35.6,33z"/>
		<path class="st12" d="M24.7,30.1c0,0,6.6,0.3,9.5-3.3S37.6,20,37,16c0,0-3.7-1.3-8.5,1c-2.4,1.2-6.1,3.9-5.8,11.4l3.8-2L24.7,30.1
			z"/>
		<path class="st12" d="M26.6,16.8c0,0-4.3,2.1-4.8,7.1c0,0-3-1.8-1.9-8.1C19.9,15.8,24.2,15.1,26.6,16.8z"/>
		<polygon class="st13" points="25.6,28.1 28.2,25.4 31.3,24.7 28.9,24.7 32.2,21 33.3,20.6 32.5,20.6 34.8,18.1 33.4,19.3 
			33.3,18.9 33.1,19.5 30.1,22.3 29.9,21 29.5,22.7 24.7,27.3 26.5,26.3 		"/>
	</g>
</g>
<g id="icon_6" class="st0">
	<path class="st14" d="M17.1,18.1c0,0,0.5,4.1,5.7,3.9c0,0,0.5-4.3,3.8-5.2c3.3-0.9,9,0.6,11.4,4.1c2.4,3.4,4.7,8.3-0.7,17.6
		c-4.1,7.2-15.8,8.8-18.1,5.3C18.7,43,18.8,42,18.8,42s-1.7,0.5-1.9,2.1c-0.2,1.5-0.6,1.6-0.9,1.6c-0.4,0-3.8,0-3.8,0
		s-0.8-0.4-0.6-1.5c0.2-1.2,1.4-6.9,6.8-7.3c3.1-0.3,3.9,0,4-3c0.1-2.6,0-6.4,0-6.4s-5.3,0.5-7.9-2.7s-2.9-7.1-2.9-7.1s0-1,0.9-1
		s3.7,0,3.7,0s0.6,0.1,0.7,1L17.1,18.1z"/>
	<path class="st15" d="M27.3,32.1c0,0,3.5,0.6,5.7-0.3c2.1-1,2.9-1.7,3.8-1.4c0.9,0.4,1.3,1.4,0.9,3.6c-0.4,2.2-3.9,7-8.8,8.9
		s-7.5,0.9-8.5-1.4c-0.4-0.9,0.1-2.1,2.3-3.2c2.2-1.1,1.9-2.8,1.8-3.8s-0.2-2.3,0.6-2.5C25.8,31.8,27.3,32.1,27.3,32.1z"/>
	<circle class="st14" cx="27.4" cy="35.4" r="0.9"/>
	<circle class="st14" cx="32" cy="36.3" r="0.4"/>
	<circle class="st14" cx="27.5" cy="38.5" r="0.4"/>
	<circle class="st14" cx="28" cy="41.2" r="0.3"/>
	<circle class="st14" cx="24.2" cy="40.9" r="0.5"/>
</g>
<g id="icon_7" class="st0">
	<g class="st1">
		<g>
			<g>
				<path id="SVGID_1_" class="st7" d="M25.7,18.9c0,0,4.1-3,8.2-2.8c4.1,0.2,7.4,2.1,8.7,5.5c1.4,3.4,0.7,8.1-4,14.2
					S25.7,48.9,25.7,48.9s-9.2-7.2-14.1-14.5S7.4,22.6,9.4,20.1s5.2-4.3,8.3-4C20.8,16.4,22.7,17,25.7,18.9z"/>
			</g>
			<g>
				<g>
					<g>
						<g>
							<g>
								<g>
									<g>
										<g>
											<defs>
												<path id="SVGID_2_" d="M25.7,18.9c0,0,4.1-3,8.2-2.8c4.1,0.2,7.4,2.1,8.7,5.5c1.4,3.4,0.7,8.1-4,14.2
													S25.7,48.9,25.7,48.9s-9.2-7.2-14.1-14.5S7.4,22.6,9.4,20.1s5.2-4.3,8.3-4C20.8,16.4,22.7,17,25.7,18.9z"/>
											</defs>
											<clipPath id="SVGID_4_">
												<use xlink:href="#SVGID_2_"  style="overflow:visible;"/>
											</clipPath>
											<polyline class="st16" points="10.1,33.4 16.5,33.4 19.1,31 22.8,36.3 28,27.1 32.5,33.5 41.2,33.4 											"/>
										</g>
									</g>
								</g>
							</g>
						</g>
					</g>
				</g>
			</g>
		</g>
	</g>
</g>
<g id="icon_8" class="st0">
	<path class="st17" d="M13.1,42v2.7c0,0-0.2,2.3,2.2,0.8c1.2-0.8,1.2-1.8,2.6-1.8s1-0.9,1.9-1.1c0.9-0.2,1-1.3,1-1.3
		s0.1-0.9,1.5-0.4c0.7,0.3,2-0.8,2.4-0.8c0.3-0.1,1.3-0.5,1.9,0c0.6,0.5,0,0.9,0.8,1.2c0.4,0.1,1.2-0.7,1.7-0.4s0.8,1.6,1.6,2.1
		s1.9,0.2,2.2,0.4s1.3,2.9,3.2,2.6c1.9-0.2,2-1.6,1.5-3.7c-0.5-2.1-8.6-8.5-8.6-8.5s-4-1.5-6.4,0.4C20.1,35.8,13.1,42,13.1,42z"/>
	<path class="st18" d="M31.9,17.7c0,0,5.5,3.8,6.8,11.5c0.9,5.4,0.9,8.9,0,11.9c-0.9,2.9-4,1.6-4.7,0.8S28.8,38,28.8,38
		s-3.1-2.4-2.6-6.4S28,19.8,28,19.8S28.5,15.7,31.9,17.7z"/>
	<path class="st18" d="M22,22l1.2-1.5c0,0,0.5-0.5,0.4-1.4s0-7,0-7s-0.1-0.5,0.8-0.5s1.6,0,1.6,0s0.3,0.2,0.3,0.6c0,0.5,0,7,0,7
		s0.2,1.9,1.8,2.3c1.6,0.5,2.1,2.7,2.1,2.7l-1,0.7l-1.5-0.3l-1.3-1.5c0,0-0.6-0.6-0.9-0.7s-0.8,0-1.3,0.4s-1.7,1.5-1.7,1.5l-0.7-1.6
		L22,22z"/>
	<path class="st18" d="M18.3,17.7c0,0-5.5,3.8-6.8,11.5c-0.9,5.4-0.9,8.9,0,11.9s4,1.6,4.7,0.8s5.2-3.9,5.2-3.9s3.1-2.4,2.6-6.4
		s-1.8-11.8-1.8-11.8S21.7,15.7,18.3,17.7z"/>
</g>
<g id="icon_9" class="st0">
	<path class="st14" d="M19.6,30.4c0,0,2.2-1.1,2.3-3.2c0.1-2.3-0.8-3.5-1.8-4.8s-2.4-5.9,0.6-7.9s6.1-1,7.2,0
		c0.6,0.6,2.5,3.3,1.3,6.5c-0.8,2.1-2.4,3.4-2.6,5s0.1,3.1,2.3,4.4l0.9,0.7H19.2L19.6,30.4z"/>
	<path class="st18" d="M34.5,34.1h-20c-1,0-1.9-0.8-1.9-1.9l0,0c0-1,0.8-1.9,1.9-1.9h20c1,0,1.9,0.8,1.9,1.9l0,0
		C36.3,33.3,35.5,34.1,34.5,34.1z"/>
	<path class="st18" d="M24.4,36.3L24.4,36.3c-0.8,0-1.5-0.7-1.5-1.5v-2.1c0-0.8,0.7-1.5,1.5-1.5l0,0c0.8,0,1.5,0.7,1.5,1.5v2.1
		C26,35.6,25.3,36.3,24.4,36.3z"/>
	<path class="st18" d="M20.7,33.7c0,0-2.6,3.6-1.2,7.3c1.4,3.8,4.2,4.2,4.9,4.2s5.5-0.6,5.5-6.8c0-2.3-1.6-4.9-1.6-4.9h2.6
		c0,0,1.4,1.2,2,3.4c0.5,1.8,1.1,5.1-1.9,8.9s-9.5,2.6-11.4,1.4c-2-1.4-4.4-3.9-4-8.6c0.3-3.4,2.6-5.5,2.6-5.5L20.7,33.7z"/>
</g>
<g id="icon_10" class="st0">
	<path class="st18" d="M20.7,49.4c0.1,0.9,0.9,0.7,1.3,0.7h9.4c0,0,0.7,0.3,0.7-1v-4.9c0-0.1,0-0.2,0-0.3c0.2-0.7,0.9-3.4,1.7-4.3
		c1.3-1.5,1.3-5.2,1.3-5.2l0.2-17.3c0,0-0.1-1.7-1.7-1.8c-1.6-0.1-1.7,1.5-1.7,1.5l-0.2,7.9c0,0-0.1,0.8-0.6,0.8
		c-0.6,0-0.7-0.6-0.6-1s0.1-11.3,0.1-11.3s-0.1-1.2-1.8-1.3s-1.6,1.7-1.6,1.7v10c0,0,0,0.8-0.6,0.7c-0.7,0-0.5-1.2-0.5-1.2V12
		c0,0-0.1-1.4-2-1.4s-1.8,2-1.8,2l-0.2,11.3c0,0,0,0.5-0.5,0.5s-0.4-1-0.4-1v-9c0,0,0-1.6-1.7-1.5c-1.1,0-1.3,0.8-1.3,1.6v8
		c0,0.2,0,0.3,0.1,0.5l0.3,0.8c0,0.1,0.1,0.2,0.1,0.3l2.5,3.5c0,0,0.5,0.6,0.9,0.5s3.8,0.6,5,1.1c1,0.5,2,0.7,2,0.7s0.9,0.4,0.5,1.5
		c-0.2,0.6-1.7,0.3-1.7,0.3l-1.1-0.3v0.3l3.8,4.6c0,0,0.4,0.7-0.2,1.1c-0.6,0.4-1.1-0.2-1.1-0.2l-2.4-3.1c0,0-0.5-0.1-0.4,0.3
		c0.1,0.5,3.3,4.1,3.3,4.1s0.3,0.6-0.2,1c-0.2,0.2-0.8,0.3-1.2-0.1c-0.3-0.3-3.1-4-3.1-4s-0.5-0.2-0.4,0.3l2.8,3.6
		c0,0,0.4,0.7,0,1.1c-0.4,0.4-0.9,0.2-1.3-0.3c-0.4-0.4-3.1-3.9-3.1-3.9s-0.5-0.2-0.5,0.3l2.2,2.8c0,0,0.4,0.6-0.1,1s-1,0.3-1.5-0.3
		c-0.5-0.5-4.2-5.5-4.8-6.3c-0.1-0.1-0.1-0.2-0.1-0.2c-0.2-0.4-0.6-1.5-0.6-2.4c0-0.3-0.1-0.5-0.2-0.8l-3.3-4.4c0,0-1.1-1.2-2.6-0.3
		c-1.5,0.9-0.5,3-0.4,3.3s5.1,8,5.1,8s2,2.9,2.7,3.9c0.7,1.1,1.7,2.1,1.6,4.4c-0.1,1.7-0.1,2.9-0.1,3.5
		C20.7,48.8,20.7,49.4,20.7,49.4z"/>
</g>
<g id="icon_11" class="st0">
	<circle class="st18" cx="8" cy="33.4" r="3.3"/>
	<circle class="st18" cx="24.5" cy="16.4" r="3.4"/>
	<path class="st18" d="M21.2,18.7c0,0,1.3,2.3,3.6,2c2.2-0.3,3-1.8,3-1.8s1.2,0,1.6,0.5c0.4,0.4,0.7,0.5,1.1,1.8
		C30.9,22.5,32,26,32,26l4.3,1.7c0,0,0,0,0.1,0c0.3,0.1,2.1,1.1,2.2,1.2l-5.9,0.8l-2.5-0.9c0,0-0.6-0.2-1.1-1.6
		c-0.5-1.5-1.1-2.6-1.1-2.6l0.1,3.9l-6.5,0.1l-2.5-2.5L19,23.2l-1.3,2.9l3.1,2.9c0,0,1.2,0.9,0.5,2.2c-0.7,1.3-2.7,0.2-2.7,0.2
		l-4-3.7c0,0-0.7-0.8,0-2.4s1.9-4.4,1.9-4.4s1-2.1,2.8-2.2C21,18.6,21.2,18.7,21.2,18.7z"/>
	<path class="st18" d="M14.3,33.6l-0.2,4.1l-1.7,4.6c0,0-0.9,2.2,0.9,2.4s2.1-0.9,2.3-1.5c0.2-0.6,1.5-4.6,1.5-4.6l0.2-2.6l0.6-2.5
		v3.6l6.6,0.1v6c0,0,0.1,1.6,1.8,1.6c2,0,10.8,0,10.8,0s1.3-0.3,1.1-1.8s-0.6-1.9-1.5-1.9s-8.3,0.1-8.3,0.1l0.1-6.4l17.6-2
		c0,0,1.9-0.4,1.5-2c-0.4-1.6-1.4-1.6-2.3-1.6c-0.9,0-17,2-17,2s0.1-1.5-1.2-1.6s-4.7,0-4.7,0s0.3,2.5-1.3,3.1
		c-1.6,0.6-2.6-0.1-3.6-1s-1.9-2-1.9-2h-2c0,0-1.5,0.4-1.6,1.6c-0.1,1.3,0,4.2,0,4.2s0.2,1.2,1.2,1.4L14.3,33.6z"/>
	<path class="st18" d="M18.1,38.2h2l1.2,3.4c0,0,0.7,2.5-0.7,3.1c-1.4,0.6-2.4-0.3-2.8-1.6s-0.4-1.9-0.4-1.9L18.1,38.2z"/>
	<polygon class="st18" points="29.3,35.8 32.3,35.8 30.5,40 29.3,40 	"/>
</g>
<g id="icon_12" class="st0">
	<path class="st19" d="M25.9,13.6c0,0-4,7.5-0.8,15.8s1.7,13.9-1.2,17.4"/>
	<path class="st19" d="M39.2,20.6c0,0-1.6,7.2-13.9,9.5c-8.9,1.6-10.7,4.4-13.9,8.7"/>
	<line class="st20" x1="26" y1="15" x2="38.4" y2="22.5"/>
	<line class="st20" x1="24.2" y1="18.8" x2="35.3" y2="25.4"/>
	<line class="st20" x1="23.9" y1="23.7" x2="30.9" y2="28.3"/>
	<line class="st20" x1="19.7" y1="32.2" x2="26.8" y2="36.3"/>
	<line class="st20" x1="15.3" y1="34.7" x2="26.5" y2="40.8"/>
	<line class="st20" x1="12.6" y1="37.7" x2="25.1" y2="45"/>
</g>
<g id="icon_13" class="st0">
	<g class="st1">
		<g>
			<path id="SVGID_3_" class="st8" d="M34.4,42.6L33.8,43c-3,2.1-7.1,1.4-9.3-1.5L14.2,26.9c-2.1-3-1.4-7.1,1.5-9.3l0.6-0.4
				c3-2.1,7.1-1.4,9.3,1.5L36,33.2C38.1,36.3,37.4,40.4,34.4,42.6z"/>
		</g>
		<g>
			<g>
				<g>
					<g>
						<g>
							<g>
								<g>
									<g>
										<defs>
											<path id="SVGID_6_" d="M26.8,45.5l-0.6-0.5c-2.8-2.3-3.1-6.5-0.8-9.4l11.7-13.6c2.3-2.8,6.5-3.1,9.4-0.8l0.6,0.5
												c2.8,2.3,3.1,6.5,0.8,9.4L36.2,44.7C33.9,47.6,29.7,47.9,26.8,45.5z"/>
										</defs>
										<clipPath id="SVGID_7_">
											<use xlink:href="#SVGID_6_"  style="overflow:visible;"/>
										</clipPath>
										
											<rect x="15.6" y="29.5" transform="matrix(0.814 -0.5809 0.5809 0.814 -17.391 23.9717)" class="st21" width="26.2" height="19.3"/>
									</g>
								</g>
							</g>
						</g>
					</g>
				</g>
			</g>
		</g>
	</g>
	<path class="st22" d="M16.9,21c0,0-2.2,1.2-0.4,3.9"/>
</g>
<g id="icon_14">
	<path class="st7" d="M1.2,31.1h0.1h39.3l-11.2-6.2c0,0-2.8-1.3-4.9-0.4c-2.2,0.9-3,1.7-4.4,1.2c-1.7-0.9-3-1.2-3-1.2
		s-2.5-0.6-4.2,0.3C11,25.6,1.2,31.1,1.2,31.1z"/>
	<path class="st8" d="M40.7,31.1l-9.4,7.8c0,0-3,2.2-5.8,1.9c-2.8-0.3-2.5-1-3.8-1.5c-1.2-0.4-2-0.4-3.6,0.6
		c-0.9,0.6-1.7,1.2-3.6,0.9c-1.9-0.3-3.8-1.7-5.2-3c-1.5-1.3-7.8-6.7-7.8-6.7L40.7,31.1z"/>
	<path class="st8" d="M41.5,17.3c0,0,0.1,2.9-2.5,3.3c0,0,2.3,0.1,2.5,3c0,0,0.1-3,2.6-3C44.1,20.7,41.5,20.2,41.5,17.3z"/>
	<path class="st8" d="M37.2,8.5c0,0,0.1,2.2-1.9,2.5c0,0,1.7,0.1,1.9,2.3c0,0,0.1-2.2,2-2.2C39.2,10.9,37.3,10.6,37.2,8.5z"/>
	<path class="st8" d="M44,1.2c0,0,0.1,3-2.6,3.3c0,0,2.5,0.1,2.6,3.2c0,0,0.1-3,2.8-3C46.7,4.7,44.1,4.3,44,1.2z"/>
	<g id="icon_3_1_">
		<g>
			
				<rect x="36.9" y="41.4" transform="matrix(0.7214 -0.6925 0.6925 0.7214 -22.954 41.0085)" class="st8" width="5.2" height="15.2"/>
			
				<rect x="32.4" y="42" transform="matrix(0.7214 -0.6925 0.6925 0.7214 -20.3157 35.2159)" class="st8" width="2.5" height="1.7"/>
			<path class="st8" d="M33.4,42.6L33.4,42.6c-0.1,0.1-0.3,0.1-0.4,0l-4.1-4.4c-0.1-0.1-0.1-0.3,0-0.4l0,0c0.1-0.1,0.3-0.1,0.4,0
				l4.1,4.4C33.4,42.3,33.4,42.4,33.4,42.6z"/>
			<path class="st8" d="M42.1,57.1l5.4-5.1c0.1-0.1,0.4-0.1,0.6,0l0,0c0.1,0.1,0.1,0.4,0,0.6l-5.4,5.1c-0.1,0.1-0.4,0.1-0.6,0l0,0
				C42,57.5,42,57.2,42.1,57.1z"/>
			<path class="st8" d="M44.7,58.1l3.8-3.6c0.1-0.1,0.4-0.1,0.6,0l0,0c0.1,0.1,0.1,0.4,0,0.6l-3.8,3.6c-0.1,0.1-0.4,0.1-0.6,0l0,0
				C44.6,58.7,44.6,58.4,44.7,58.1z"/>
			
				<rect x="45.1" y="55.3" transform="matrix(0.7214 -0.6925 0.6925 0.7214 -25.9497 47.64)" class="st8" width="2.2" height="1.5"/>
			<path class="st9" d="M43.6,51.9l1.2-1.2l0.4,0.4L44,52.3c-0.1,0.1-0.3,0.1-0.4,0l0,0C43.4,52.2,43.4,52,43.6,51.9z"/>
			<path class="st9" d="M42.1,50.3l1.2-1l0.4,0.4l-1.2,1.2c-0.1,0.1-0.3,0.1-0.4,0l0,0C42,50.7,42,50.4,42.1,50.3z"/>
			<path class="st9" d="M40.7,48.8l1.2-1.2l0.4,0.4l-1.2,1.2c-0.1,0.1-0.3,0.1-0.4,0l0,0C40.5,49.1,40.5,49,40.7,48.8z"/>
			<path class="st9" d="M39.2,47.4l1.2-1.2l0.4,0.4l-1.2,1.2c-0.1,0.1-0.3,0.1-0.4,0l0,0C39.1,47.7,39.1,47.4,39.2,47.4z"/>
			<path class="st9" d="M37.8,45.8l1.2-1.2l0.4,0.4l-1.2,1.2c-0.1,0.1-0.3,0.1-0.4,0l0,0C37.6,46.1,37.6,45.9,37.8,45.8z"/>
			<path class="st9" d="M36.3,44.2l1.2-1.2l0.4,0.4l-1.2,1.2c-0.1,0.1-0.3,0.1-0.4,0l0,0C36.2,44.6,36.2,44.3,36.3,44.2z"/>
		</g>
	</g>
</g>
<g id="icon_15_1_" class="st0">
	<g class="st1">
		<g>
			<g>
				<path id="SVGID_5_" class="st7" d="M18.7,21c0,0,5.1-3.8,10.2-3.4c5.1,0.3,9.2,2.6,10.8,6.7c1.6,4.1,0.8,10.2-4.9,17.7
					c-5.9,7.5-16.1,16.2-16.1,16.2s-11.5-8.8-17.5-18s-5.2-14.7-2.8-17.9s6.4-5.4,10.3-4.9C12.6,17.9,14.9,18.7,18.7,21z"/>
			</g>
			<g>
				<g>
					<g>
						<g>
							<g>
								<g>
									<g>
										<g>
											<defs>
												<path id="SVGID_8_" d="M18.7,21c0,0,5.1-3.8,10.2-3.4c5.1,0.3,9.2,2.6,10.8,6.7c1.6,4.1,0.8,10.2-4.9,17.7
													c-5.9,7.5-16.1,16.2-16.1,16.2s-11.5-8.8-17.5-18s-5.2-14.7-2.8-17.9s6.4-5.4,10.3-4.9C12.6,17.9,14.9,18.7,18.7,21z"/>
											</defs>
											<clipPath id="SVGID_9_">
												<use xlink:href="#SVGID_8_"  style="overflow:visible;"/>
											</clipPath>
											<polyline class="st23" points="-0.7,39 7.2,39 10.5,35.9 15.1,42.6 21.4,31.2 27,39 37.8,39 											"/>
										</g>
									</g>
								</g>
							</g>
						</g>
					</g>
				</g>
			</g>
		</g>
	</g>
	<path class="st18" d="M37.2,2.7L23.9,25.6c-0.7,1.1,0.2,2.6,1.5,2.6h26.7c1.3,0,2.3-1.5,1.5-2.6L40.3,2.7C39.6,1.5,38,1.5,37.2,2.7
		z"/>
	<path class="st24" d="M38.8,20.4L38.8,20.4c-0.5,0-1-0.5-1-1V10c0-0.5,0.5-1,1-1l0,0c0.5,0,1,0.5,1,1v9.3
		C39.8,19.9,39.5,20.4,38.8,20.4z"/>
	<path class="st24" d="M38.8,25.1L38.8,25.1c-0.5,0-1-0.5-1-1v-0.5c0-0.5,0.5-1,1-1l0,0c0.5,0,1,0.5,1,1v0.5
		C39.8,24.6,39.5,25.1,38.8,25.1z"/>
</g>
<g id="icon_16" class="st0">
	<path class="st24" d="M30.2,12.2c0,0,6.4-1.4,9.4,0c3.6,1.7,6.4,6.1,4.4,13.6c-2,7.5-3.6,13.7-4.1,20.2c-0.6,6.4-5.2,10.6-8.1,11.1
		c-3,0.6-5.2-2.5-4.5-4.8c0.6-2.3,1.4-9.2,1.2-10.9c-0.3-3.3-1.9-5.9-4.5-5.9s-3.9,1.4-4.5,3c-0.6,1.7-1.7,8.1-0.9,11.1
		c0.6,3,0.3,7.3-2.5,7.5S7.8,54.1,5.8,41.6s-3.1-15.3-3.6-17c-1.6-5.8,0-13.1,6.4-13.6c6.4-0.5,11.6,2.3,13.7,2.5
		C24.4,13.9,27.8,12.7,30.2,12.2z"/>
	<path class="st17" d="M18.6,18.5c0,0,3.7,2,5.3,1.4c1.6-0.8,5-2.7,9.1-0.6c4.1,2,4.1,4.4,4.1,4.4s1.2,4.4-0.9,8s-1.6,10.8-1.6,10.8
		s0.2,2.5-1.1,2.5c-1.1,0-1.9-2.3-1.9-2.8s-1.2-9.4-7.2-10.5c-5.9-1.1-7,4.5-7.8,6.6c-0.5,1.4-0.9,5.6-0.9,5.6s-0.3,2-1.4,1.9
		c-1.1-0.2-1.4-2.3-1.4-7.3s-1.6-5.6-2.3-8.6c-0.8-3-0.6-8.1,2.3-10.3C15.6,17.2,18.6,18.5,18.6,18.5z"/>
	<path class="st18" d="M0.6,3.3c0,0,0.2,3.3-2.8,3.6c0,0,2.7,0.2,2.8,3.4c0,0,0.2-3.3,3-3.3C3.6,6.9,0.8,6.6,0.6,3.3z"/>
	<path class="st18" d="M48,45.3c0,0,0.2,3.3-2.8,3.7c0,0,2.7,0.2,2.8,3.4c0,0,0.2-3.4,3-3.4C51,49.1,48.1,48.6,48,45.3z"/>
	<path class="st18" d="M51,2.9c0,0,0,1.7-1.4,2c0,0,1.4,0,1.4,1.9c0,0,0.2-1.9,1.6-1.9C52.5,4.9,51,4.6,51,2.9z"/>
</g>
<g id="icon_17" class="st0">
	<path class="st18" d="M24.2,1.3c0,0,9.8-1.5,15.7,2.5c5.8,3.8,9.6,7.9,10.6,14s-0.4,13.4-3.2,17.9s-4.5,7.4-4.9,8.1
		c-0.2,0.8-1.5,4.3-0.6,9.2s1.5,5.7,1.5,5.7l-27,0.6v-5.7c0,0-8.5,0.2-10.6-1.5c-2.1-1.7-2.1-3.6-1.5-4.7c0.4-1.1,0-1.3,0-1.5
		c0,0-1.1-0.6-1.1-1.7c0-0.8,0.8-0.9,0.8-0.9s-0.2-0.4-0.4-0.4c-0.2-0.2-1.1-0.4-1.1-1.3s0.6-4.9,0.6-4.9s-3-0.4-3.4-2.3
		c-0.2-1.9,1.3-4.1,2.1-5.1s4-4.7,4-4.7S4.4,15,7.6,10.7S14,2.4,24.2,1.3z"/>
	<circle class="st24" cx="18" cy="28.8" r="2.1"/>
	<circle class="st24" cx="24.2" cy="31.4" r="1.1"/>
	<circle class="st24" cx="21.8" cy="36.1" r="1.3"/>
	<circle class="st24" cx="19.1" cy="40.9" r="1.9"/>
	<circle class="st24" cx="13.8" cy="36.1" r="1.1"/>
	<circle class="st24" cx="13.5" cy="31.2" r="1.1"/>
</g>
<g id="icon_18" class="st0">
	<path class="st18" d="M37.1,42.8H10.5c-1.9,0-3.5-1.6-3.5-3.5V4.7c0-1.9,1.6-3.5,3.5-3.5h26.6c1.9,0,3.5,1.6,3.5,3.5v34.5
		C40.7,41.2,39.1,42.8,37.1,42.8z"/>
	<path class="st24" d="M32.4,25H15.5c-1.9,0-3.5-1.6-3.5-3.5V9.3c0-1.9,1.6-3.5,3.5-3.5h16.9c1.9,0,3.5,1.6,3.5,3.5v12.2
		C35.9,23.6,34.3,25,32.4,25z"/>
	<path class="st24" d="M25.5,36.6H22c-1.8,0-3.2-1.4-3.2-3.2l0,0c0-1.8,1.4-3.2,3.2-3.2h3.5c1.8,0,3.2,1.4,3.2,3.2l0,0
		C28.5,35,27.1,36.6,25.5,36.6z"/>
	<path class="st18" d="M24.5,50.9H23c-1.9,0-3.5-1.6-3.5-3.5v-5.8c0-1.9,1.6-3.5,3.5-3.5h1.4c1.9,0,3.5,1.6,3.5,3.5v5.8
		C28,49.1,26.4,50.9,24.5,50.9z"/>
	<path class="st18" d="M23.7,59L23.7,59c-0.5,0-0.9-0.4-0.9-0.9v-8.3c0-0.5,0.4-0.9,0.9-0.9l0,0c0.5,0,0.9,0.4,0.9,0.9v8.3
		C24.6,58.8,24.3,59,23.7,59z"/>
	<path class="st17" d="M37.1,12.3c0,0,3.3,2.5,5.1,5.5c1.4,2.6,1.9,7.9-3.3,9.2c-4.8,1.2-7.6-3.2-7.6-5.3
		C31.5,20.4,31.8,16,37.1,12.3z"/>
	<path class="st22" d="M39.8,18.3c0,0,2.8,4.1,0.5,6.3"/>
</g>
<g id="icon_19" class="st0">
	<g class="st1">
		<g>
			<path id="SVGID_10_" class="st8" d="M34.1,56H2c-2.1,0-3.7-1.7-3.7-3.7V12.9c0-2.1,1.7-3.7,3.7-3.7h32.1c2.1,0,3.7,1.7,3.7,3.7
				v39.3C37.8,54.3,36.1,56,34.1,56z"/>
		</g>
		<g>
			<g>
				<g>
					<g>
						<g>
							<g>
								<defs>
									<path id="SVGID_11_" d="M34.1,56H2c-2.1,0-3.7-1.7-3.7-3.7V12.9c0-2.1,1.7-3.7,3.7-3.7h32.1c2.1,0,3.7,1.7,3.7,3.7v39.3
										C37.8,54.3,36.1,56,34.1,56z"/>
								</defs>
								<clipPath id="SVGID_13_">
									<use xlink:href="#SVGID_11_"  style="overflow:visible;"/>
								</clipPath>
								<path class="st25" d="M26.4,15.9H9.8c-1.9,0-3.4-1.5-3.4-3.4v-2.4c0-1.9,1.5-3.4,3.4-3.4h16.6c1.9,0,3.4,1.5,3.4,3.4v2.4
									C29.6,14.4,28.3,15.9,26.4,15.9z"/>
							</g>
						</g>
					</g>
				</g>
			</g>
		</g>
	</g>
	<path class="st18" d="M18.8,12.7l-1.1,0.4c-2.1,0-3.2,1.7-3.2-0.4V6.6c0-2.1,1.7-3.7,3.7-3.7l0,0c2.1,0,3.7,1.7,3.7,3.7v6.2
		C21.8,14.8,20.6,12.7,18.8,12.7z"/>
	<path class="st24" d="M29.6,51.5H6.7c-2.1,0-3.7-1.7-3.7-3.7V18.5c0-2.1,1.7-3.7,3.7-3.7h23.1c2.1,0,3.7,1.7,3.7,3.7v29.3
		C33.3,49.8,31.6,51.5,29.6,51.5z"/>
	<path class="st18" d="M25.7,14H10.4C8.5,14,7,12.5,7,10.7V9.8c0-1.9,1.5-3.4,3.4-3.4h15.3c1.9,0,3.4,1.5,3.4,3.4v0.9
		C29,12.5,27.5,14,25.7,14z"/>
	<path class="st24" d="M23.8,12.7H12.6c-0.6,0-1.1-0.6-1.1-1.1l0,0c0-0.6,0.6-1.1,1.1-1.1h11.2c0.6,0,1.1,0.6,1.1,1.1l0,0
		C24.9,12.2,24.4,12.7,23.8,12.7z"/>
	<path class="st24" d="M18.4,7.1h-0.7c-0.4,0-0.7-0.4-0.7-0.7l0,0c0-0.4,0.4-0.7,0.7-0.7h0.7c0.4,0,0.7,0.4,0.7,0.7l0,0
		C19.3,6.8,19,7.1,18.4,7.1z"/>
	<path class="st18" d="M26.6,24.7H10.8c-0.6,0-1.1-0.6-1.1-1.1l0,0c0-0.6,0.6-1.1,1.1-1.1h15.8c0.6,0,1.1,0.6,1.1,1.1l0,0
		C27.7,24.3,27.2,24.7,26.6,24.7z"/>
	<path class="st18" d="M26.6,31H10.8c-0.6,0-1.1-0.6-1.1-1.1l0,0c0-0.6,0.6-1.1,1.1-1.1h15.8c0.6,0,1.1,0.6,1.1,1.1l0,0
		C27.7,30.4,27.2,31,26.6,31z"/>
	<path class="st18" d="M26.6,37.3H10.8c-0.6,0-1.1-0.6-1.1-1.1l0,0c0-0.6,0.6-1.1,1.1-1.1h15.8c0.6,0,1.1,0.6,1.1,1.1l0,0
		C27.7,36.8,27.2,37.3,26.6,37.3z"/>
	<path class="st17" d="M39.8,37.3c0,0,3.2-1.5,6.2-0.9c3,0.6,6.5,3.2,6,11s-5.6,9.5-6.9,9.9c-1.3,0.2-3.5,0-5-0.6
		c-0.2,0-1.3,0.2-1.9,0.4c-0.4,0.2-3.9,1.1-6.9-2.6c-3-3.7-4.3-7.6-3.4-11.9c0.9-4.3,4.7-6.7,8-6.2C37.4,36.4,39.5,37.3,39.8,37.3z"
		/>
	<g class="st1">
		<g>
			<path id="SVGID_12_" class="st12" d="M49.7,26.9c0,0,0.2,4.3-1.7,6.2c-2.8,2.6-6.9,1.9-7.1,1.9c0,0-0.7-4.5,2.2-6.5
				C45.8,26.7,49.7,26.9,49.7,26.9z"/>
		</g>
		<g>
			<g>
				<g>
					<g>
						<g>
							<g>
								<defs>
									<path id="SVGID_14_" d="M49.7,26.9c0,0,0.2,4.3-1.7,6.2c-2.8,2.6-6.9,1.9-7.1,1.9c0,0-0.7-4.5,2.2-6.5
										C45.8,26.7,49.7,26.9,49.7,26.9z"/>
								</defs>
								<clipPath id="SVGID_15_">
									<use xlink:href="#SVGID_14_"  style="overflow:visible;"/>
								</clipPath>
								<polygon class="st26" points="51.2,25.8 40.2,35.3 43.9,36.8 52.9,30.8 								"/>
							</g>
						</g>
					</g>
				</g>
			</g>
		</g>
	</g>
</g>
<g id="icon_20" class="st0">
	<path class="st18" d="M24.8,4.3c0,0,10.6-0.7,13.2,8.6c0.3,1.1,0.2,6.2-0.7,8.5c0,0,0,0.5,0.8,0.3s2.3,0.2,1.3,3.1
		c-1,2.9-2.4,4.6-2.4,4.6s-1.1,0.2-1.1-0.3c0-0.5-0.3,0.3-1,1.8c-0.7,1.5-1.3,4.1-3.6,6.3v3.1c0,0,0.2,2.8,3.4,4.2
		c3.3,1.5,5.5,2.3,7.2,2.3c1.8,0,10.4,3.3,11.9,6.7c0.7,1.3,1,2.3-1.1,2.4c-2,0-55.7,0-55.7,0s-1.8-0.2-0.2-2.3S0,48.1,8.7,46.8
		c1-0.2,9.6-2.1,10.1-5c0.5-2.8,0.2-4.2,0.2-4.2s-2.6-2.8-4.2-8.3c0,0-0.3-0.2-0.5,0.2c-0.2,0.3-1.5,0.3-2.4-1.8c-1-2-1.8-4.2-1-5.4
		c1-1,1.8-0.3,1.8-0.3s0.2,0,0.2-0.3c0-0.3-1.5-7.2-0.5-9.6C13.1,9.2,15.7,5,24.8,4.3z"/>
	<path class="st17" d="M24.3,41.6c0,0,0.8-1,1.8-0.2c0,0,1-3.6,2.3-4.2c0.7-0.3,0.7,0.3,0.7,1.1s1.1,2.6,1.1,3.9s-0.2,3.1-2.3,3.1
		c-1,0-1.6-0.5-1.8-0.8c-0.2-0.3-1-0.3-1.5,0c-0.7,0.3-1.6,1.8-3.3,0.3c-1.6-1.5-0.3-5.5-0.2-5.7c0-0.2,0.3-0.7,0.3-2
		c0-0.5,0.7-0.3,1.6,0.8C24,39,24.3,40.5,24.3,41.6z"/>
</g>
<g id="icon_21" class="st0">
	<path class="st24" d="M31.8,15.1c0,0,6-1.3,8.9,0c3.4,1.6,6,5.8,4.1,12.8s-3.4,13-3.8,19c-0.6,6-4.9,10-7.7,10.5
		C30.4,58,28.4,55,29,52.8c0.6-2.2,1.3-8.7,1.2-10.3c-0.3-3.1-1.8-5.6-4.3-5.6c-2.5,0-3.7,1.3-4.3,2.8c-0.6,1.6-1.6,7.7-0.9,10.5
		c0.6,2.8,0.3,6.9-2.4,7.1c-2.7,0.1-7.7-2.7-9.6-14.5s-3-14.5-3.4-16.1c-1.5-5.5,0-12.4,6-12.8c6-0.4,10.9,2.2,13,2.4
		C26.3,16.7,29.6,15.5,31.8,15.1z"/>
	<path class="st17" d="M20.9,21c0,0,3.5,1.9,5,1.3c1.5-0.7,4.7-2.5,8.6-0.6c3.8,1.9,3.8,4.1,3.8,4.1s1.2,4.1-0.9,7.5
		c-2.1,3.4-1.5,10.2-1.5,10.2s0.1,2.4-1,2.4c-1,0-1.8-2.2-1.8-2.7s-1.2-8.9-6.8-9.9c-5.6-1-6.6,4.3-7.4,6.2
		c-0.4,1.3-0.9,5.3-0.9,5.3s-0.3,1.9-1.3,1.8c-1-0.1-1.3-2.2-1.3-6.9s-1.5-5.3-2.2-8.1s-0.6-7.7,2.2-9.7C18.1,19.8,20.9,21,20.9,21z
		"/>
	<path class="st18" d="M33.5,36L33.5,36c-0.4,0.1-1,0-1.2-0.4L17.6,3.9c-0.1-0.4,0-1,0.4-1.2l0,0c0.4-0.1,1,0,1.2,0.4L34,34.8
		C34.1,35.3,34,35.9,33.5,36z"/>
	<path class="st24" d="M31,23.6l-5.5,2.5c-0.3,0.1-0.7,0-0.7-0.3l0,0c-0.1-0.3,0-0.7,0.3-0.7l5.5-2.5c0.3-0.1,0.7,0,0.7,0.3l0,0
		C31.5,23.2,31.3,23.5,31,23.6z"/>
	<path class="st24" d="M32.7,27l-5.5,2.5c-0.3,0.1-0.7,0-0.7-0.3l0,0c-0.1-0.3,0-0.7,0.3-0.7l5.5-2.5c0.3-0.1,0.7,0,0.7,0.3l0,0
		C33.1,26.6,33,26.9,32.7,27z"/>
	<path class="st24" d="M34.1,30.4l-5.5,2.5c-0.3,0.1-0.7,0-0.7-0.3l0,0c-0.1-0.3,0-0.7,0.3-0.7l5.5-2.5c0.3-0.1,0.7,0,0.7,0.3l0,0
		C34.6,30,34.4,30.3,34.1,30.4z"/>
</g>
<g id="icon_22_1_" class="st0">
	<circle class="st18" cx="24.9" cy="22.4" r="6.3"/>
	<path class="st18" d="M12.5,44.1h25.1c0,0,1.5-11.3-4.9-13.4s-13.2-0.8-15-0.2s-4.1,1-4.9,7.5C12.5,42.1,12.5,44.1,12.5,44.1z"/>
	<path class="st24" d="M20.6,37.4v-0.7c0-0.8,0.7-1.5,1.5-1.5h6.2c0.8,0,1.5,0.7,1.5,1.5v0.7c0,0.8-0.7,1.5-1.5,1.5h-6.2
		C21.3,38.9,20.6,38.2,20.6,37.4z"/>
	<path class="st24" d="M24.9,32.4h0.7c0.8,0,1.5,0.7,1.5,1.5v6.2c0,0.8-0.7,1.5-1.5,1.5h-0.7c-0.8,0-1.5-0.7-1.5-1.5v-6.2
		C23.4,33.1,24.1,32.4,24.9,32.4z"/>
</g>
<g id="icon_23" class="st0">
	<path class="st27" d="M36,2.2C22.3,4.8,26.3,14.9,26.3,18s-0.9,3.1-1.1,4.7C25,24.3,27,24.9,27,24.9s-0.7,4-6.5,0.4
		S5.6,26.1,4.3,26.1s1.1-4.7,1.1-4.7C4.3,20,2.2,21.1,0.2,24c-2.4,3.4-2,7.6-1.6,7.8c0.4,0.2,6.9-0.2,10-0.9s4.5-0.9,4-0.2
		c-0.5,0.7-2,3.4-2.7,3.8C8.9,34.8-5.6,50.9,8,56.2s23.2-1.3,26.8-4.2c4-3.3,10.7-8,13-11.8c2.4-3.8,0.7-9.6,0.4-11.6
		c-0.4-2,2.9-7.1,3.6-11.6C52.5,12.6,49.8-0.3,36,2.2z"/>
	<path class="st28" d="M19.7,35.7c0,0,1.1,6.2-2.7,9.1"/>
	<path class="st28" d="M11.2,33.2c0,0,2.9-4,3.3-5.6"/>
	<path class="st28" d="M19.7,25.4c0,0-4,9.6,2,11.8c6,2.2,15.6,1.1,15.6,1.1"/>
	<path class="st28" d="M26.6,26.3c0,0,1.6,0.7,2.4,3.1"/>
	<path class="st28" d="M25,31c0,0,11-4.2,19.9-1.1"/>
	<path class="st28" d="M40,13.8c0,0,4.2-0.2,3.6,3.4s-2.4,6.3-6.2,3.4"/>
</g>
<g id="icon_24" class="st0">
	<path class="st29" d="M17.8,30.9c0,0-0.2-12-1.1-13.9c0,0,1.5-0.2,1.9-1.5c0,0,2.6,2.8,3.4,2.6c0.7-0.2,7.9-6.2,7.7-7.7
		c-0.2-1.5-3-6.4-4.7-6.7c-1.5-0.4-1.5-1.5-4.9,0c-3.4,1.5-9.9,3.9-9.9,3.9S6.8,9,5.9,12.5s-7.3,27.5-7.3,27.5s-0.9,6,3.6,6.4
		c0,0,9.7,14,33.5,8.1c0,0,12.9,4.1,14.8,2.1c2.1-2.1,1.1-5.1,1.1-5.1l0.2-19.1c0,0-0.2-3.9-3.7-4.7c-3.6-0.9-10.9-1.7-14.6,2.8
		C33.2,30.5,23.5,26.4,17.8,30.9z"/>
	<path class="st30" d="M13.9,17c0,0,3.9,0.4,5.1-3"/>
	<path class="st30" d="M36.8,36.5c0,0-2.2-6-6.4-6.9"/>
	<path class="st31" d="M17.8,29.9c0,0,0,6-3.2,6.9"/>
	<path class="st31" d="M9.6,43.1c0,0,7.3,9,18.9,6.2"/>
</g>
<g id="icon_25" class="st0">
	<path class="st18" d="M26.8,59.1H24c-7,0-12.9-5.7-12.9-12.9V12h28.4v34.2C39.5,53.2,33.8,59.1,26.8,59.1z"/>
	<path class="st18" d="M40.1,9h-30C9,9,8,8.1,8,6.9V3.3c0-1.1,1-2.1,2.1-2.1h30c1.1,0,2.1,1,2.1,2.1v3.6C42.2,8.1,41.3,9,40.1,9z"/>
	<path class="st32" d="M19.4,44.6c0,0,0-11.6,6-11.6s6,8,6,11.6"/>
	<line class="st32" x1="20" y1="40.2" x2="31.2" y2="40.2"/>
	<path class="st32" d="M31.3,20c0,0,0,11.6-6,11.6s-6-8-6-11.6"/>
	<line class="st32" x1="30.8" y1="24.5" x2="19.8" y2="24.5"/>
</g>
<g id="icon_26" class="st0">
	<path class="st18" d="M31.9,19.3H18.4c-2.2,0-4-1.8-4-4v-6c0-2.2,1.8-4,4-4h13.5c2.2,0,4,1.8,4,4v6C35.9,17.4,34.1,19.3,31.9,19.3z
		"/>
	<path class="st18" d="M47.6,54.8H2.7c-3.5,0-6.3-2.8-6.3-6.3V19.9c0-3.5,2.8-6.3,6.3-6.3h44.9c3.5,0,6.3,2.8,6.3,6.3v28.5
		C54,52.1,51.1,54.8,47.6,54.8z"/>
	<path class="st24" d="M13.6,35.5v-3.2c0-1.8,1.5-3.5,3.5-3.5h16.3c1.8,0,3.5,1.5,3.5,3.5v3.2c0,1.8-1.5,3.5-3.5,3.5H17.1
		C15.1,39,13.6,37.3,13.6,35.5z"/>
	<path class="st24" d="M26.8,45.5h-3.2c-1.8,0-3.5-1.5-3.5-3.5V25.6c0-1.8,1.5-3.5,3.5-3.5h3.2c1.8,0,3.5,1.5,3.5,3.5V42
		C30.3,44,28.8,45.5,26.8,45.5z"/>
	<rect x="14.3" y="12.4" class="st24" width="21.7" height="1"/>
	<path class="st24" d="M26.8,45.5h-3.2c-1.8,0-3.5-1.5-3.5-3.5V25.6c0-1.8,1.5-3.5,3.5-3.5h3.2c1.8,0,3.5,1.5,3.5,3.5V42
		C30.3,44,28.8,45.5,26.8,45.5z"/>
</g>
<g id="icon_27" class="st0">
	<circle class="st18" cx="24.7" cy="14.5" r="12.8"/>
	<path class="st18" d="M-0.4,58.4h50.8c0,0,3-22.9-9.9-27.1s-26.7-1.6-30.4-0.4c-3.6,1.2-8.3,2-9.9,15.2
		C-0.4,54.4-0.4,58.4-0.4,58.4z"/>
	<path class="st24" d="M16.2,44.7v-1.4c0-1.6,1.4-3,3-3h12.6c1.6,0,3,1.4,3,3v1.4c0,1.6-1.4,3-3,3H19.2
		C17.6,47.7,16.2,46.3,16.2,44.7z"/>
	<path class="st24" d="M24.7,34.7h1.4c1.6,0,3,1.4,3,3v12.6c0,1.6-1.4,3-3,3h-1.4c-1.6,0-3-1.4-3-3V37.8
		C21.7,36,23.1,34.7,24.7,34.7z"/>
</g>
<g id="icon_28" class="st0">
	<path class="st18" d="M44.8,27.1"/>
	<path class="st18" d="M39.3,1v58.3h10.4V12.5C49.6,12.5,48.8,3.6,39.3,1z"/>
	<polygon class="st24" points="44.8,27.1 49.6,29.2 49.6,24.5 	"/>
	<polygon class="st24" points="39.3,30.2 49.6,35.2 49.6,39.6 39.3,34 	"/>
	<polygon class="st24" points="39.3,37.6 49.6,43 49.6,47 39.3,41.6 	"/>
	<circle class="st33" cx="7.1" cy="9.7" r="6.4"/>
	<circle class="st33" cx="26" cy="9.3" r="6.4"/>
	<path class="st18" d="M11.6,15.4l-0.1,26.2c0,0,1.4,13.9,5.2,17.7c0,0,5.8-8.4,5.4-17.9l0-25.8l-2.8-5.7l-0.9-0.1l0.2,12l-3.8,0.2
		L14.7,9.7l-1.5-0.4L11.6,15.4z"/>
	<circle class="st24" cx="16.8" cy="27.5" r="1.8"/>
</g>
<g id="icon_29" class="st0">
	<path class="st18" d="M37.3,7.4c0,3.6-2.9,6.3-6.3,6.3c-3.6,0-6.3-2.9-6.3-6.3s2.9-6.3,6.3-6.3S37.3,3.8,37.3,7.4z"/>
	<path class="st18" d="M7.6,19.3l12.9-6.9c0,0,1.1-0.6,2.4,0c1.3,0.6,7,2.6,7,2.6s1.3,0,2,2.9c0.7,3,2.4,8.2,2.4,8.2l6.7,2.7
		c0,0,2.6,1.3,1.7,4.3c-0.9,3-4.9,1.4-4.9,1.4l-8.6-3.9c0,0-0.6-0.1-0.9-1.6c-0.3-1.4-1.7-5.9-1.7-5.9l-3.6,10.8l5,10l-0.7,12.9
		c0,0-0.4,2.3-3,2.3c-2.6,0-3.4-2.2-3.4-3.6c0.1-1.4,1.1-9.5,1.1-9.5l-4.9-9l0.4,9.8l-2.3,9.8c0,0-0.9,2.7-4,2c-3.2-0.7-1.9-5-1.9-5
		l1.7-7.3l-0.9-10.8l0.4-1.3L5.8,22.5C5.9,22.8,5.3,20.5,7.6,19.3z"/>
	<polygon class="st34" points="13.4,23.8 14.9,26.6 17.4,21.6 	"/>
	<path class="st18" d="M36.3,33.2l5.3,24c0,0,0.3,1.4,1.9,1c1.6-0.3,0.9-2.2,0.9-2.2l-4.9-22.7L36.3,33.2z"/>
</g>
<g id="icon_30" class="st0">
	<g class="st1">
		<g>
			<path id="SVGID_16_" class="st35" d="M49,55.1H1.3c-2,0-3.8-1.7-3.8-3.8V40.5c0-2,1.7-3.8,3.8-3.8H49c2,0,3.8,1.7,3.8,3.8v10.8
				C52.7,53.3,51,55.1,49,55.1z"/>
		</g>
		<g>
			<g>
				<g>
					<g>
						<g>
							<defs>
								<path id="SVGID_17_" d="M49,55.1H1.3c-2,0-3.8-1.7-3.8-3.8V40.5c0-2,1.7-3.8,3.8-3.8H49c2,0,3.8,1.7,3.8,3.8v10.8
									C52.7,53.3,51,55.1,49,55.1z"/>
							</defs>
							<clipPath id="SVGID_18_">
								<use xlink:href="#SVGID_17_"  style="overflow:visible;"/>
							</clipPath>
							<rect x="-5.9" y="33.7" class="st36" width="60" height="7.7"/>
						</g>
					</g>
				</g>
			</g>
		</g>
	</g>
	<circle class="st34" cx="25.6" cy="41.6" r="5.6"/>
	<path class="st37" d="M22.4,29.1c0,0,2.6-20.8,11-23.8c0,0-5.6,13.6-4.9,23.3c0,0,1.7,1,1.7,2.9c0,2.2-0.9,4.5-4.6,4.5
		c-3.6,0-4.5-1.6-4.6-3C20.7,30.9,21.2,29.5,22.4,29.1z"/>
	<rect x="41.3" y="20.4" class="st18" width="1.4" height="8.8"/>
	<polyline class="st38" points="39,26.5 42,29.3 44.9,26.6 	"/>
	<rect x="7.5" y="20.4" class="st18" width="1.4" height="8.8"/>
	<polyline class="st38" points="5,26.5 8.1,29.3 11.1,26.6 	"/>
</g>
<g id="icon_31" class="st0">
	<ellipse transform="matrix(0.9934 -0.115 0.115 0.9934 -2.0706 1.4838)" class="st17" cx="11.8" cy="18.7" rx="15.5" ry="13.7"/>
	<ellipse class="st17" cx="41.8" cy="21.7" rx="12.1" ry="12.9"/>
	<ellipse transform="matrix(0.9708 -0.2398 0.2398 0.9708 -10.1027 6.6726)" class="st17" cx="22.4" cy="44.9" rx="14.7" ry="10"/>
	<ellipse transform="matrix(0.9554 -0.2952 0.2952 0.9554 -5.7491 4.7834)" class="st24" cx="13" cy="21.4" rx="9.3" ry="8"/>
	<ellipse transform="matrix(0.9666 -0.2564 0.2564 0.9666 -4.6547 10.9251)" class="st24" cx="39.6" cy="23.3" rx="7.5" ry="9.4"/>
	<ellipse transform="matrix(0.9359 -0.3522 0.3522 0.9359 -13.7301 10.4763)" class="st24" cx="21.9" cy="43" rx="9.3" ry="5.3"/>
</g>
<g id="icon_32" class="st0">
	<path class="st39" d="M17,3.8c0,0,7.5-5.3,16.3,0l-1.5,8l-0.5,0.8l-0.8-1.4c0,0-5.6-1.7-10.3,0l-2.5-3.9l-0.3-2.7L17,3.8z"/>
	<path class="st17" d="M17.7,3.3c0,0-1,0.3-1.7,1.5s-3.7,11-3.7,11s-0.5,3.6,0.3,4.6c0.8,1,5.8,7.6,5.8,7.6L3.3,47.7
		c0,0-1.9,1.7-0.7,3.7c1.2,2,5.4,7,5.4,7s1,1.2,2.7-0.5C12.6,56,25,38.7,25,38.7l13.7,18.5c0,0,1.4,1.4,2.7,0s6.4-6.6,6.4-6.6
		s0.7-1.4-0.7-2.5c-1.4-1.2-15.4-20.5-15.4-20.5s4.7-5.8,4.9-6.1c0.2-0.3,1.7-3.7,0.8-6.3c-0.8-2.5-3.4-10.3-3.4-10.3
		s-0.7-1.2-1.9-1.4c0,0-0.8,6.3-7.1,14.8C25.1,18,20.1,13.3,17.7,3.3z"/>
</g>
<g id="icon_33" class="st0">
	<path class="st24" d="M28.7,23.7l10.2-8.2c0,0,0.8-0.5,1.8-3.5c1-3,4.2-7.9,8.9-5.9s3.5,6.7,2.8,7.9c-0.7,1.2-4.2,3.3-6.5,4.3
		s-5.5,5.9-5.5,5.9L28.7,23.7z"/>
	<path class="st40" d="M26.2,24.1c0,0,3-2.5,2.5-8.7c-0.2-1.8,1.2-3.8,1.2-3.8s-13-2.8-15.9,6.2c0,0-1.2-4.8-13.2-4
		c0,0,1.7,3,1.3,4.8c-0.5,1.8-0.3,5,1.3,6.4L26.2,24.1z"/>
	<path class="st41" d="M14.8,24.1c0,0,4-8.5,11.7-10.4"/>
	<path class="st41" d="M3.9,15.9c0,0,6.4,3.2,9,8.2"/>
	<path class="st18" d="M-1.8,23.7h53.7c0,0,1.8-0.5,1.7,0.8s-1.5,18.6-19.4,24.7l-18.4,0.2c0,0-14.7-5-19.1-23.7
		C-3.4,25.9-3.9,23.9-1.8,23.7z"/>
	<ellipse class="st18" cx="25.2" cy="51.3" rx="12" ry="3.2"/>
	<path class="st41" d="M22.8,13.2c0,0-0.2,2.2-1,2.7"/>
	<path class="st41" d="M20.6,16.9c0,0,2.3-0.8,4.7-0.5"/>
	<path class="st41" d="M15.3,23.2c0,0,3.3-2.2,7.7-2"/>
	<path class="st41" d="M18,15.5c0,0,0.7,2.7,0,3.7"/>
	<path class="st41" d="M10.8,17.9c0,0-0.5,1.8,0.7,4.2"/>
	<path class="st41" d="M4.4,18.2c0,0,1.3-0.3,3.2,0"/>
	<path class="st41" d="M6.1,22.2c0,0,4.5-0.3,6.2,1"/>
</g>
<g id="icon_34" class="st0">
	<path class="st18" d="M17.9,17.7h13.9c0,0,2.9,0,4.2,3.7s2.9,4.6,2.9,4.6l3,3c0,0,0.9,2-0.4,3.2c-1.3,1.1-3,0.9-3.6,0.4
		s-4.5-4-4.5-4l-1.7-2.9v7.9l3.9,13.8c0,0,1.1,3.3-2,4.2c-3.2,0.9-4.7-0.9-5.2-2.4c-0.3-1.6-3.9-11.9-3.9-11.9l-3.3,11.6
		c0,0-0.9,3-4.9,2.3c-2.9-0.6-2-4.7-2-4.7L17.7,34l0.1-8l-1.7,2.7l-4.6,4.7c0,0-1.9,1.6-3.6-0.3c-1.6-1.6,0.3-4.3,0.3-4.3l3.4-3.9
		l2.7-5.3C14.6,19.7,15.3,17.7,17.9,17.7z"/>
	<circle class="st18" cx="24.8" cy="13.7" r="6.3"/>
	<g class="st1">
		<circle class="st42" cx="24.9" cy="30.1" r="27.6"/>
	</g>
</g>
<g id="icon_35" class="st0">
	<path class="st18" d="M9.6,12.7c0,0,7.2-4.3,15.7-4l4.5-5.7c0,0,3.2-3.6,4.7,0.4l1.1,6.4c0,0,9.1,2.5,10.4,7l4.5-0.8
		c0,0,2.3-0.4,2.8,0.9c0.6,1.3-0.4,2.6-0.4,2.6l-2.6,4c0,0,2.5,13.6-4.2,20l2.1,8.1c0,0,0.8,2.8-0.4,3.8c-1.1,0.9-3,0.6-4.3-0.4
		c-1.3-1.1-5.7-4.3-5.7-4.3s-5.3,4-16.6,2.8l-3.8,4c0,0-1.1,1.1-2.8,0.8c-1.7-0.4-1.9-4.3-1.9-4.3l-0.2-3.2c0,0-3.8-0.9-7.2-5.1
		l-6.6,1.1c0,0-3.8,0-1.5-4.5l3-5.1c0,0-3-9.5,0.8-15.7L-3,12.3c0,0-0.6-2.8,0.6-3.4c1.1-0.6,3.8,0.4,3.8,0.4L9.6,12.7z"/>
	<line class="st32" x1="12.5" y1="21" x2="19.3" y2="26"/>
	<line class="st32" x1="28.7" y1="25.6" x2="38" y2="21"/>
	<path class="st32" d="M17.6,40.9c0,0,2.6-4.3,7.6-4s6.8,5.1,6.8,5.1"/>
</g>
<g id="icon_36" class="st0">
	<g id="icon_23_1_" class="st1">
		<path class="st43" d="M30,14c-7.5,1.4-5.4,7-5.4,8.7s-0.5,1.7-0.6,2.6c-0.1,0.9,1,1.2,1,1.2s-0.4,2.2-3.6,0.3
			c-3.2-2-8.2,0.5-8.9,0.5c-0.6,0,0.6-2.6,0.6-2.6c-0.6-0.8-1.8-0.3-2.9,1.4c-1.3,1.9-1.2,4.2-0.9,4.3c0.3,0.1,3.8-0.1,5.5-0.5
			s2.6-0.5,2.2-0.1c-0.3,0.4-1.2,1.9-1.5,2c-0.5,0.3-8.4,9.1-1,12c7.5,2.9,12.8-0.6,14.8-2.3c2.2-1.8,5.9-4.3,7.2-6.5
			c1.3-2,0.4-5.2,0.3-6.4c-0.3-1.2,1.5-3.8,2-6.4C39.1,19.6,37.7,12.6,30,14z"/>
		<path class="st5" d="M21,32.4c0,0,0.6,3.5-1.5,5"/>
		<path class="st5" d="M16.3,31c0,0,1.5-2.2,1.8-3.1"/>
		<path class="st5" d="M21,26.8c0,0-2.2,5.2,1.2,6.5c3.3,1.2,8.6,0.6,8.6,0.6"/>
		<path class="st5" d="M24.9,27.3c0,0,0.9,0.4,1.3,1.7"/>
		<path class="st5" d="M24,29.8c0,0,6.1-2.3,11-0.6"/>
		<path class="st5" d="M32.2,20.4c0,0,2.3-0.1,2,1.9c-0.3,2-1.3,3.5-3.5,1.9"/>
	</g>
	<circle class="st44" cx="25.1" cy="30.1" r="25.9"/>
	<line class="st44" x1="39.4" y1="10.3" x2="10.3" y2="50.3"/>
</g>
<g id="icon_37" class="st0">
	<circle class="st45" cx="31.2" cy="24.2" r="20.7"/>
	<circle class="st45" cx="19.1" cy="36" r="20.7"/>
	<path class="st46" d="M13,16.6"/>
	<path class="st18" d="M25,16.6l8.8,5l5.4,4.7l1.5,7.4c0,0-0.8,5.7-1.5,6.1c-0.7,0.3-1.9,2.9-1.9,2.9s-5.2,2.5-5.4,2.4
		c-0.2-0.3-9.3-2.2-9.3-2.2l-5.4-3.7l-5.1-8.8L10.3,21l2-3.4l3.4-1.5L25,16.6z"/>
</g>
<g id="icon_38" class="st0">
	<circle class="st18" cx="21.8" cy="7" r="5.6"/>
	<path class="st18" d="M16.2,12.9l10.7-0.1c0,0,3.6,0.4,5.1,5.9l-5.8,6.9l0.6,7.2l2.5,5.1l0.1,16.7c0,0,0.9,3.9-2.7,3.9
		c-2.9,0-3.2-2.2-3.2-3.6c0-1.6-0.1-18.8-0.1-18.8S22.8,35,21.7,35c-1.2,0.1-1.3,1.4-1.3,1.4v19.9c0,0-0.1,2.2-2.9,2.3
		s-3.2-2.7-3.2-2.7l-0.1-29.3l-2.5,5.8c0,0-0.7,2.6-3.9,1.6c-2.6-0.9-0.9-4.9-0.9-4.9l6.2-13.7C13,15.4,14.2,12.9,16.2,12.9z"/>
	<circle class="st24" cx="32.9" cy="29" r="11"/>
	<circle class="st14" cx="29.3" cy="31.1" r="4.3"/>
	<rect x="28.7" y="26.6" transform="matrix(0.2802 -0.9599 0.9599 0.2802 -8.8707 50.4022)" class="st24" width="1" height="8.9"/>
	<path class="st17" d="M36,35.5L36,35.5c-1.4,0-2.7-1.2-2.7-2.7v-8.1c0-1.4,1.2-2.7,2.7-2.7l0,0c1.4,0,2.7,1.2,2.7,2.7v8.1
		C38.7,34.3,37.5,35.5,36,35.5z"/>
	<rect x="33.4" y="28.2" class="st24" width="5.3" height="1.2"/>
</g>
<g id="icon_39" class="st0">
	<path class="st18" d="M13.5,2.8l22.6-0.2c0,0,3.4,16.4-10.9,16.4C12.8,19,13.5,11.2,13.5,2.8z"/>
	<polygon class="st18" points="16.6,42.1 33.3,42.1 36,55.3 39.4,55.3 39.4,58.2 10.2,58.2 10.2,54.8 13.9,54.8 	"/>
	<rect x="16.9" y="32.3" class="st18" width="16.2" height="6.2"/>
	<path class="st18" d="M19.2,21.3c0,0-2.8,0.9-2.5,7.3L13.5,29l0.2,7.1c0,0-1.6-1.1-2.7-4.3l-3.2,1.1c0,0,2.5,5.5,3.7,6.6l1.8-1.4
		l-1.2,9.6c0,0-11.6-6.1-11.7-22.3C0.2,15.8,10.2,8,10.2,8s0.4,5.5,2.8,7.8c0,0-2.7-0.5-5,5.9l3,1.4c0,0,0.9-4.1,3.2-5.5
		C13.9,17.6,16.6,20.6,19.2,21.3z"/>
	<path class="st18" d="M30.5,21.3c0,0,2.8,0.9,2.5,7.3l3.2,0.4L36,36.1c0,0,1.6-1.1,2.7-4.3l3.2,1.1c0,0-2.5,5.5-3.7,6.6L36.3,38
		l1.4,9.6c0,0,11.6-6.1,11.7-22.3C49.7,15.8,39.7,8,39.7,8s-0.4,5.5-2.8,7.8c0,0,2.7-0.5,5,5.9l-3,1.4c0,0-0.9-4.1-3.2-5.5
		C35.6,17.6,33.1,20.6,30.5,21.3z"/>
</g>
<g id="icon_40" class="st0">
	<circle class="st18" cx="25" cy="11.6" r="9.5"/>
	<path class="st18" d="M33.5,44.9c0,0,0-0.4-0.9-0.3c-0.9,0-6.7,0.6-9.5-5.6s-5.6-4-5.7-3.3c-0.1,0.6-0.1,2,0.4,4.2
		c0.6,2.2,1.6,4.9-0.1,5c-1.7,0.1-4.6,0.6-5.3,0.7c-0.7,0.3-1.4,0.7,0.1,1.6s3.9,1.6,6,1.7c2.3,0.1,9.5,0.1,10,3.7
		c0.4,2.9-1.9,5-5.5,5.5c-4.4,0.4-11.9-0.3-17.1-5.6C0.9,47.3,2.9,41,3.6,39c0.7-2,4.3-12.2,9.3-16.1c1.3-0.9,2.6-1.4,5.6-1.6
		S34,21.2,34,21.2s5.5,0.6,8.6,6.6c3.3,6,4.6,9.8,4.6,9.8s0.9,3.2-0.1,5.2c-1,2-4.2,6.3-4.9,6.9c-0.6,0.6-4.3,4.9-9.8,3
		c-2.9-1-2.3-4-2.2-4.4c0.1-0.6,1-2,2.4-2.9C33.8,45,33.5,44.9,33.5,44.9z"/>
	<circle class="st34" cx="31.6" cy="36.7" r="6.6"/>
</g>
<g id="icon_41" class="st0">
	<path class="st18" d="M34.8,4.5c0,0-4.2,11.8-10.8,12.1s-13,3.9-13,3.9s-0.5-4.6-3.6-6.3l0.2-6C7.5,8.1,19.4-0.7,34.8,4.5z"/>
	<path class="st18" d="M36.9,4.8c0,0-2.8,9.3-7.5,11.6c0,0,8.6,1.6,9.7,4.1c0,0,1.6-4.9,3.5-6.4l0.3-5.7C42.9,8.4,39.7,6.1,36.9,4.8
		z"/>
	<path class="st18" d="M5.5,2.8L5.8,15c0,0,3.3,3.1,3.5,7.5c0.2,4.2,0.2,11.2,0.2,11.2S9.2,35,7.5,35.1c-1.7,0.2-2-2.4-2-2.4v-7.1
		c0,0-0.2-0.5-0.9-0.5S3.6,25.7,3.6,26s0,9.4,0,9.4l5,9.6c0,0,0.6,1.9-0.8,2.8c-1.6,0.8-2.7-0.5-2.7-0.5L-2.1,34
		c0,0-0.3-0.9-0.3-3.1s0-28.3,0-28.3L5.5,2.8z"/>
	<path class="st18" d="M11.6,22.7L11.4,34c0,0-0.5,3.6-4.6,3.1l3.5,7.1c0,0,1.1,3.3-0.5,4.1c0,0,6.4,9.4,14,9.4
		c7.7-0.2,13.8-4.9,16.5-9.1c0,0-1.7-2.4-0.2-5c1.6-2.7,3.6-6.6,3.6-6.6s-3.5,1.1-4.9-2.8V22.5C38.8,22.5,25.3,12.8,11.6,22.7z"/>
	<path class="st32" d="M14.3,35.1c0,0,0.2,2.2,1.9,2.2c1.3,0,2-0.3,2.2-2.2"/>
	<path class="st32" d="M32,35.1c0,0,0.2,2.2,1.9,2.2c1.3,0,2-0.3,2.2-2.2"/>
	<polyline class="st32" points="23.2,36.7 23.2,40.6 27,40.6 	"/>
	<path class="st32" d="M17.7,44.7c0,0,3.3,4.6,7.2,4.4c3.8-0.2,7.1-4.2,7.1-4.4"/>
	<path class="st18" d="M45.1,2.6l-0.3,12.3c0,0-3.3,3.1-3.5,7.5s-0.2,11.2-0.2,11.2s0.2,1.3,1.9,1.4c1.7,0.2,2-2.4,2-2.4v-7.1
		c0,0,0.2-0.5,0.9-0.5s0.9,0.5,0.9,0.8s0,9.4,0,9.4l-5,9.6c0,0-0.6,1.9,0.8,2.8c1.4,0.8,2.5-0.3,2.5-0.5c0-0.2,7.2-13.4,7.2-13.4
		s0.3-0.9,0.3-3.1s0-28.3,0-28.3L45.1,2.6z"/>
</g>
<g id="icon_42" class="st0">
	<path class="st14" d="M18.5,23.1l-0.2,13c0,0,0.6,4.3-3.7,4.3S1,42-1.4,51.5C-2.2,54.3-2.2,55.6-2,56c0.2,0.4,0,1.5,1.5,1.5
		c1.5,0,6.9,0,6.9,0s1.1-0.2,1.5-2c0.4-1.9,1.9-4.6,3.7-4.8c0,0-0.2,6.7,7.8,6.9c8,0.2,27.9-6.1,31.4-22.5c2.6-11.7,2-19.5-4.6-25.5
		c-6.7-6.1-15.1-7.2-19.7-6.3c-4.8,0.9-7.6,6.3-7.6,9.7c0,0-7.1,0.7-10.2-5.2C7.9,6,7.9,4.1,7.9,4.1s0-1.5-1.5-1.5s-6.7,0-6.7,0
		s-2,0.2-1.7,2.6C-1.6,7.6,0.8,20.3,10.5,22C14.4,22.9,17.7,23.1,18.5,23.1z"/>
</g>
<g id="icon_43" class="st0">
	<circle class="st18" cx="25" cy="8.9" r="6.8"/>
	<path class="st18" d="M14.3,21h21.6c0,0-1.2-3.7-5.1-3.9s-11.5,0-11.5,0S14.6,17.3,14.3,21z"/>
	<path class="st18" d="M39.8,47.2H10.5c-2.1,0-3.7-1.7-3.7-3.7V26.2c0-2.1,1.7-3.7,3.7-3.7h29.4c2.1,0,3.7,1.7,3.7,3.7v17.1
		C43.5,45.3,41.8,47.2,39.8,47.2z"/>
	<path class="st18" d="M17.3,48.5h6.8v7.2c0,0-0.1,2.3-2,2.3c-1.9,0-2.8,0-2.8,0s-2.1-0.1-2.1-2.8C17.1,53.2,17.3,48.5,17.3,48.5z"
		/>
	<path class="st18" d="M25.9,48.5h6.8v7.2c0,0-0.1,2.3-2,2.3s-2.8,0-2.8,0s-2.1-0.4-2.1-2.8C25.9,53.2,25.9,48.5,25.9,48.5z"/>
	<path class="st24" d="M19.7,45.4l10.5-0.1c0,0-0.8-1.7-1.9-1.9c-1.2-0.1-2.1,0.1-2.7,0.8c-0.5,0.7-1.1,0.5-1.5,0.1
		c-0.4-0.5-1.7-1.1-2.5-0.9C21,43.8,19.7,44.6,19.7,45.4z"/>
	<path class="st47" d="M23,40.9L23.1,29c0,0-0.1-2.5,1.6-2.7c1.9-0.1,1.9,2.5,1.9,2.5v11.9"/>
	<path class="st48" d="M33.1,45.3c0,0-1.3-5.1-6.5-4.4"/>
	<path class="st48" d="M27,38.6h5.9c0,0,3.7-0.4,4.5-3.6"/>
	<path class="st48" d="M27,34.1h4.1c0,0,3.6-0.3,4.3-3.5"/>
	<path class="st22" d="M26.9,29.8l3.1-0.1h0.1c0.4-0.1,2.7-0.3,3.3-2.9"/>
	<path class="st48" d="M16.6,45.2c0,0,1.3-5.1,6.5-4.4"/>
	<path class="st48" d="M22.9,38.5H17c0,0-3.7-0.4-4.5-3.6"/>
	<path class="st48" d="M23,34h-4.1c0,0-3.6-0.3-4.3-3.5"/>
	<path class="st22" d="M23,29.7l-3.1-0.1h-0.1c-0.4-0.1-2.7-0.3-3.3-2.9"/>
</g>
<g id="icon_44" class="st0">
	<path class="st49" d="M9.6,8.2c0,0,4.6-6,13.5-4.6c0,0,12.4-4,17.9,4.7c0,0,10,2.9,9.7,13c0,0,5.7,7.8,0.2,17.3
		c0,0-1.1,11.3-11.3,13.7c0,0-3.1,7.5-15.3,4.4c0,0-8.4,3.1-14.4-4.4c0,0-8-2.7-9.9-11.7c0,0-6.9-13,0.4-19.3
		C0.3,21.1,0.5,11.8,9.6,8.2z"/>
	<path class="st32" d="M50.1,21.3c0,0-5.1-12.4-22.1,0.2"/>
	<path class="st32" d="M50.3,21.7c0,0,0.4,10.8-8.9,13.7"/>
	<path class="st32" d="M43.9,43.6c0,0,5.3-2.6,7.3-6"/>
	<path class="st32" d="M18.2,8.4c0,0,4.2-4.4,6.9-5.1"/>
	<path class="st32" d="M31.3,51.2c0,0,5.3,1.8,9.3,0.7"/>
	<path class="st32" d="M27.3,57.3c0,0-13.7-2.4-12-13.1c0.7-4,3.5-8.9,3.5-8.9s-6.7,2-9.7,0.2"/>
	<path class="st32" d="M-1.5,37c0,0,4,5.7,7.7,6.7"/>
	<path class="st32" d="M-1.1,23c0,0,5.7-8,23.7-1.1"/>
</g>
<g id="icon_45" class="st0">
	<g class="st1">
		<path class="st8" d="M26.1,16.2c-1.9,0-3.7,0.3-5.5,1.1c0.2,0.5,0.3,1.1,0.3,1.6c0,3.4-2.8,6.2-6.2,6.2c-0.6,0-1.3-0.2-1.8-0.3
			c-0.8,1.8-1.3,3.7-1.3,5.8c0,1,0.2,1.8,0.3,2.8c0.8-0.5,1.8-0.8,2.9-0.8c3.2,0,5.8,2.6,5.8,5.8c0,1.8-0.8,3.4-2.1,4.5
			c2.3,1.5,4.9,2.3,7.6,2.3c1.3,0,2.6-0.2,3.9-0.5c-1-1.3-1.6-2.9-1.6-4.7c0-4.1,3.4-7.5,7.5-7.5c1.6,0,3.2,0.5,4.4,1.5
			c0.3-1.1,0.3-2.1,0.3-3.2C40.5,22.7,34,16.2,26.1,16.2z"/>
	</g>
	<circle class="st18" cx="35.6" cy="40" r="4.7"/>
	<circle class="st18" cx="14.7" cy="38.4" r="3.1"/>
	<circle class="st18" cx="14.7" cy="19.1" r="3.4"/>
	<path class="st18" d="M37.6,18.3c0-0.2,0-0.5,0-0.6c0-4.5-3.7-8.1-8.1-8.1c-3.2,0-5.8,1.8-7.3,4.5c1.3-0.3,2.6-0.5,4.1-0.5
		C30.8,13.4,34.8,15.4,37.6,18.3z"/>
	<path class="st18" d="M47.3,16.7l-4.4,4.2c-0.8,0.8-2.1,0.3-2.4-0.6L39,14.4l-1.5-5.8c-0.3-1.1,0.8-2.1,1.8-1.8l5.8,1.6L51,10
		c1.1,0.3,1.5,1.6,0.6,2.4L47.3,16.7z"/>
	<path class="st19" d="M47.3,16.7c0,0,9.2,10.5,1.9,25.3S25.9,55.9,25.9,55.9"/>
	<path class="st18" d="M3.1,43.7l4.4-4.2c0.8-0.8,2.1-0.3,2.4,0.6l1.5,5.8l1.5,5.8c0.3,1.1-0.8,2.1-1.8,1.8L5.2,52l-5.8-1.6
		c-1.1-0.3-1.5-1.6-0.6-2.4L3.1,43.7z"/>
	<path class="st19" d="M3.1,43.7c0,0-8.7-12.6-2.1-25.3C9.5,1.8,24.3,4.4,24.3,4.4"/>
</g>
<g id="icon_46" class="st0">
	<path class="st18" d="M19.1,51.3H4.4c-1,0-2.1-0.9-2.1-2.1l0,0c0-1,0.9-2.1,2.1-2.1h14.7c1,0,2.1,0.9,2.1,2.1l0,0
		C21.1,50.2,20.2,51.3,19.1,51.3z"/>
	<path class="st18" d="M49.9,57.4H0.4c-1,0-1.9-0.9-1.9-1.9l0,0c0-1,0.9-1.9,1.9-1.9h49.5c1,0,1.9,0.9,1.9,1.9l0,0
		C51.9,56.5,51.2,57.4,49.9,57.4z"/>
	<path class="st18" d="M16.3,40.4l-6.8-4.2c-1.7-1-2.4-3.5-1.2-5.2L21.4,9.4c1-1.7,3.5-2.4,5.2-1.2l6.8,4.2c1.7,1,2.4,3.5,1.2,5.2
		L21.6,39.2C20.5,41.1,18.1,41.6,16.3,40.4z"/>
	<path class="st18" d="M10.4,42.9L10.4,42.9c-1.2-0.7-1.4-2.1-0.9-3l2.6-4.4c0.5-1,1.9-1.4,3-0.7l0.2,0.2c1,0.5,1.4,1.9,0.7,3
		l-2.6,4.2C12.7,42.9,11.4,43.2,10.4,42.9z"/>
	<path class="st18" d="M34.7,10.7l-6.6-4c-0.7-0.3-0.9-1.2-0.5-1.9l0.7-1.2c0.3-0.7,1.2-0.9,1.9-0.5l6.6,4c0.7,0.3,0.9,1.2,0.5,1.9
		l-0.7,1.2C36.3,10.8,35.4,11,34.7,10.7z"/>
	<path class="st50" d="M34.9,27.6c0,0,14,4.9,11.9,14.2c-1.6,7.2-5.4,12.4-5.4,12.4"/>
</g>
<g id="icon_47" class="st0">
	<path class="st18" d="M2,49.8l-4.7-8.7c-0.4-0.9-0.1-1.9,0.7-2.3l2.1-1.1l6.3,11.4L4,50.4C3.3,50.6,2.4,50.4,2,49.8z"/>
	<path class="st18" d="M2.1,36.1L8,47.6l3.7-2l16.7,3.4c0,0,2.7,0.7,7-0.9s16.7-7,16.7-7s1.6-0.9,1-2.7c-0.6-1.9-2-1.9-3.6-1.3
		C48,37.6,39,41.6,39,41.6s-1.3,0.6-3.6,0.6c-2.1,0-13-0.7-13-0.7s-0.6,0-0.6-0.9c0.1-0.9,1.9-0.6,1.9-0.6l11.6,0.4
		c0,0,2.1-0.3,2.1-2.4s-1.4-2.6-2.3-2.7c-0.9-0.1-8.3-0.3-18.3-4.4c-1.7-0.7-7.1,0.6-8.9,1.6C6.3,33.5,2.1,36.1,2.1,36.1z"/>
	<path class="st18" d="M39.4,37.4c0,0,0.1,1.6,0,2l9.3-3.4c0,0-0.6-1.4-3-0.7C43.3,35.9,39.4,37.4,39.4,37.4z"/>
	<path class="st18" d="M37.6,34.4l1.1,1.3l6-1.7c0,0-1-0.9-3.7-0.3C38.1,34.1,37.6,34.4,37.6,34.4z"/>
	<path class="st40" d="M42,9.8c0,0,1.4,17.3-16.6,16.4c0,0,3-5.7,10-8.9c0,0-9.4,0.7-14.3,13.6c0,0-0.3,0.7-1,0.6
		c-0.7-0.3-0.7-1-0.6-1.9c0.1-0.9,1-3.1,2.4-4.1c0,0-1.7-10.3,11-11C36,14.5,40.3,11.8,42,9.8z"/>
</g>
<g id="icon_48" class="st0">
	<path class="st17" d="M24.5,1.6h5.1V19c0,0,0,4.2,7.2,3.7l2.3,2.8l-2.6,0.3c0,0-4.4,0.7-5.8-0.9c-1.4-1.6-1,1.2-1,1.2v32.2h-5.2
		l-1.7-33c0,0-0.9,3.7-9.1,2.8l-1-2.3l0.3-0.7c0,0,4,1,9.3-1.4c1.9-0.9,1.9-7.2,1.9-7.2L24.5,1.6z"/>
	<path class="st18" d="M36.5,29.7c0,0-10.1,2.6-11.7-6.8V1.6h-4.7v26.7c0,0,0.9,3.3-6.3,3.8l-2.1,2.1l1.2,1l1.4,0.3l3.1-0.9
		c0,0,2.6-0.9,2.8,1c0,1.7,0,22.9,0,22.9l4.7-0.2V29.7c0,0,3.1,4.5,11.2,3.7l1.2-2.8L36.5,29.7z"/>
	<path class="st17" d="M38.8,10.5c0,0,6.3-2.8,10.3,1.9s6.3,18.7,1.6,27.8s-10.1,6.6-12.6,5.6c-2.6-1-4.4-5.2-3.3-8.4
		c0.9-3.1,1.9-5.9,1.7-7c-0.3-1-1-3.8-0.5-4.9c0.5-1,0.7-3,0.2-3.5c-0.5-0.5-1.7-1.9-1.7-3.3C34.4,17.5,34.1,13.3,38.8,10.5z"/>
	<path class="st17" d="M11.4,12.6c0,0-6.3-2.8-10.3,1.9s-6.3,18.2-1.6,27.1S9.8,47.9,12.1,47c2.3-0.9,4.4-5.1,3.3-8
		s-1.9-5.8-1.7-6.8c0.3-1,1-3.7,0.5-4.7c-0.5-1-0.7-3-0.2-3.5c0.5-0.5,1.7-1.9,1.7-3.1S16.1,15.2,11.4,12.6z"/>
</g>
<g id="icon_49" class="st0">
	<g id="brain" class="st1">
		<path class="st51" d="M14.5,23.5c0,0-2.4-3,0.5-5.2c0,0,0.7-3.2,3.9-2.7c0,0,1.5-3.5,5.1-2.5c0,0,3-2.2,4.9,0c0,0,3.9-1.3,5.2,1.5
			c0,0,3.5,0.2,3.9,3c0,0,4.6,4.6-0.2,7.6L14.5,23.5z"/>
		<path class="st52" d="M15.7,16.8c0,0-1.3,2.4,0.8,3.4"/>
		<path class="st52" d="M19.4,14.6c0,0-2.2,4.6,2.9,5.4"/>
		<path class="st52" d="M24,21.8c0,0,3.4-4.7-1.7-6.1"/>
		<path class="st52" d="M27.8,17.1c0,0,0,2.4-2.7,2.5"/>
		<path class="st52" d="M27.7,12.4c0,0.2,1.9,0.3,2.2,3.9"/>
		<path class="st52" d="M28.7,23c0,0,0.3-3.4,4-3.2"/>
		<path class="st52" d="M36.1,22.5c0,0-3.2-0.2-3.2-3.7"/>
		<path class="st52" d="M18.9,22c0,0,0.2,1.7,1.5,2"/>
		<path class="st53" d="M14.5,23.7c0,0-2.9,2.5-0.3,5.2c0,0,0.2,3.2,3.4,3.2c0,0,1,3.7,4.7,3.2c0,0,2.7,2.5,4.9,0.7
			c0,0,3.7,1.9,5.4-0.7c0,0,3.5,0.2,4.2-2.5c0,0,5.2-3.9,0.8-7.6L14.5,23.7z"/>
		<path class="st5" d="M14.8,30.4c0,0-1-2.5,1.3-3.2"/>
		<path class="st5" d="M18.2,33.3c0,0-1.5-4.7,3.7-5.1"/>
		<path class="st5" d="M23.6,26.7c0,0,2.7,5.1-2.5,5.7"/>
		<path class="st5" d="M26.7,32c0,0,0.3-2.2-2.4-2.9"/>
		<path class="st5" d="M26,36.7c0-0.2,1.9,0,2.7-3.5"/>
		<path class="st5" d="M28.5,26.2c0,0-0.2,3.4,3.5,3.7"/>
		<path class="st5" d="M35.6,27.6c0,0-3.2-0.2-3.5,3.2"/>
		<path class="st5" d="M20.9,25.9c0,0,0.3-1.7,1.9-1.7"/>
		<path class="st5" d="M32.1,27.4c0,0,0.7-2,2.4-2.5"/>
	</g>
	<path class="st18" d="M19.4,7.5c-8.3,1.2-11,4.6-13.8,8.3c-2.9,3.9-1.9,12.3-1.9,12.3s-2.9,3.4-3.5,4.2c-0.7,0.8-2,2.9-1.9,4.6
		c0.3,1.7,3,2,3,2S1,42.4,1,43.3c0,0.8,0.8,1,1,1.2c0.2,0,0.3,0.3,0.3,0.3s-0.7,0.2-0.7,0.8c0,1,1,1.5,1,1.5c0,0.2,0.3,0.3,0,1.3
		c-0.5,1-0.5,2.7,1.3,4.2c1.9,1.5,9.4,1.3,9.4,1.3v5.1l24.1-0.5c0,0-0.5-0.7-1.3-5.1c-0.8-4.4,0.3-7.6,0.5-8.3
		c0.3-0.7,1.9-3.2,4.4-7.3c1.7-2.7,2.7-6.6,3-10.5c-0.2,0-0.3,0-0.3,0C30.5,26.7,20.1,18,19.4,7.5z"/>
	<path class="st18" d="M19.9,7.2c0,0,8.6,14.7,32.1,8.6C52,15.8,42.3-10.6,19.9,7.2z"/>
</g>
<g id="icon_50" class="st0">
	<path class="st54" d="M25.2,4.7c0,0,5.9-5.4,10.8,0.2c0,0,6.8,0.9,6.1,7.7c0,0,7.7,2.6,6.1,10.3c0,0,4.9,6.1,0.9,10.3
		c0,0,3.3,8-2.3,11.2c0,0,0,7.5-5.8,8.6c0,0-8.9,10.3-15.9,0.7L25.2,4.7z"/>
	<path class="st28" d="M39.7,6.5c0,0-5.2-2.4-7,2.4"/>
	<path class="st28" d="M44.5,13.9c0,0-9.4-3.8-10.6,6.9"/>
	<path class="st28" d="M30.1,24.5c0,0,10.3,6.3,12.4-4.5"/>
	<path class="st28" d="M40.6,31.7c0,0-4.7,0.3-5.6-5.2"/>
	<path class="st28" d="M50.5,30.9c-0.2,0-0.1,4-7.6,5.2"/>
	<path class="st28" d="M28.3,34.5c0,0,7.2,0,7.3,7.9"/>
	<path class="st28" d="M30.4,49.8c0,0,0-6.8,7.2-7.2"/>
	<path class="st28" d="M29.2,13.7c0,0-3.5,0.5-4,3.5"/>
	<path class="st54" d="M25,4.7c0,0-5.9-5.4-10.8,0.2c0,0-6.8,0.9-6.1,7.7c0,0-7.7,2.6-6.1,10.3c0,0-4.9,6.1-0.9,10.3
		c0,0-3.3,8,2.3,11.2c0,0,0,7.5,5.8,8.6c0,0,8.9,10.3,15.9,0.7V4.7z"/>
	<path class="st28" d="M10.7,6.5c0,0,5.2-2.4,7,2.4"/>
	<path class="st28" d="M5.4,14c0,0,9.8-3.8,11,6.8"/>
	<path class="st28" d="M19.9,24.5c0,0-10.3,6.3-12.4-4.5"/>
	<path class="st28" d="M9.4,31.7c0,0,4.7,0.3,5.6-5.2"/>
	<path class="st28" d="M-0.4,30.4c0.1,0.1,0.2,4.4,7.7,5.6"/>
	<path class="st28" d="M21.8,34.5c0,0-7.2,0-7.3,7.9"/>
	<path class="st28" d="M19.8,49.8c0,0,0-6.8-7.2-7.2"/>
	<path class="st28" d="M21.1,18.7c0,0,3.5,0.5,4,3.5"/>
	<path class="st28" d="M19.6,42.2c0,0,4.4,1,5.4,4.5"/>
</g>
<g id="icon_51" class="st0">
	<circle class="st18" cx="25.1" cy="30.1" r="28.9"/>
	<circle class="st55" cx="24.8" cy="30.7" r="8"/>
	<path class="st56" d="M20.8,22.8l-5.2-9.5c0,0,10.1-4.7,17.8-0.1l-5,9.6"/>
	<path class="st56" d="M33.4,30.5l10.8,0.1c0,0-0.7,11.1-8.4,15.6l-5.9-9"/>
	<path class="st56" d="M19.7,37.6l-6.2,8.9c0,0-8.7-7-8-15.8L16.2,31"/>
</g>
<g id="icon_52" class="st0">
	<path class="st18" d="M46.7,58.1h-43c-3.7,0-6.8-3.1-6.8-6.8V8.8C-3.1,5.1,0,2,3.7,2h42.8c3.7,0,6.8,3.1,6.8,6.8v42.4
		C53.4,55.1,50.4,58.1,46.7,58.1z"/>
	<path class="st24" d="M15.1,23.5H36l7.4-10.4c0,0-17.8-15.6-35.8,0.2L15.1,23.5z"/>
	<path class="st17" d="M25,30.5c0,0,2.9-4.3,8.4-2.9c5.7,1.6,6.3,5.9,6.3,5.9s2,11.7-14.1,20.1c0,0-16.6-5.9-15.4-18.8
		c0.4-5.1,4.3-7.6,6.3-7.8C19,27,22.5,27.2,25,30.5z"/>
	<circle class="st57" cx="25.2" cy="22.5" r="4.1"/>
	<line class="st19" x1="30.9" y1="12.5" x2="27.2" y2="18.6"/>
	<path class="st18" d="M24.8,46.7L24.8,46.7c-1,0-1.7-0.7-1.7-1.7v-8.6c0-1,0.7-1.7,1.7-1.7l0,0c1,0,1.7,0.7,1.7,1.7v8.6
		C26.7,45.9,25.7,46.7,24.8,46.7z"/>
	<path class="st18" d="M30.9,40.5L30.9,40.5c0,1-0.7,1.7-1.7,1.7h-8.6c-1,0-1.7-0.7-1.7-1.7l0,0c0-1,0.7-1.7,1.7-1.7h8.6
		C30.2,38.8,30.9,39.5,30.9,40.5z"/>
</g>
<g id="icon_53" class="st0">
	<path class="st18" d="M50,17.8l-1.4,4.6c0,0-1,2.7-4.9,2.7s-6.3-1-6.6,1.7c-0.5,2.7-1.7,9-9.6,9.6c0,0-0.5,0.5,0.3,0.7
		c0.8,0.2,4.2-0.2,5.7-1c1.5-0.8,3.4,0.3,4.4,2.7c1,2.4,1.5,2.7,2,2.5c0.5,0,2.5-0.5,3,0s1.2,1.5-0.7,2.7c-1.9,1.4-3.7,0.8-4.9-0.5
		c-1.2-1.4-1.9-1.9-2.5-2c-0.7-0.2-2.4,0-2.5,1.5c-0.2,1.5-2.7,6.9-9,6.3c-6.1-0.7-9.3-3.4-10.5-7.9s0.8-9.3,1.4-10.6
		c0.7-2.4,0.5-3.4-0.3-4.7c-0.8-1.4-2.4-1-2.9-5.2c-0.7-4.1,2.7-8.1,5.2-9.6c0,0,2.7-1.9,5.7-1.2s5.6,2,7.4,4.2
		c2.2,2.4,2,5.7,0.2,8.4c-0.3,0.5-0.5,0.8-0.2,1.4c0.3,0.5,0.8,3.2-1,3.7c-1.9,0.5-3.9,0.5-4.4,1.2c-0.5,0.7-0.2,1.2,0.5,1.7
		c0.7,0.5,1.9,0.7,2,0.7s0-0.7,0-1.2c0-0.5,1-1,1.9-0.2c0.8,0.8,1.5,1.7,1,2.9c-0.3,1.2-0.7,0.7,0.2,0.8c0.7,0.2,0.3-0.3,1.2-0.7
		c0.7-0.3,1.2-0.3,1.4-0.8c0.3-0.5,1.9-5.9,2.4-6.6c0.5-0.7,1-2.9,7.1-4.4c3-0.7,3.2-2.4,2.7-5.1c-0.5-2-1.5-5.7-2-7.4
		c-4.7-3.7-10.8-6.1-17.2-6.1C9.8,2.4-2.6,14.9-2.6,30.1c0,15.4,12.5,27.7,27.7,27.7s27.7-12.2,27.7-27.5
		C52.8,25.7,51.8,21.5,50,17.8z"/>
</g>
<g id="icon_54" class="st0">
	<path class="st18" d="M0.8,10.6c0,0,1.6-3.8,5.2-2.5s3.8,4.1,3.6,6.3c-0.2,2.2,0.5,5.6,0.5,5.6s2,4,4.1,0.7C17,16.8,24,6.5,24,6.5
		s2.5-3.6,6.3-1.4c3.8,2,1.1,6.5,1.1,6.5L26,22.3l12.4-11.5c0,0,3.8-2.5,6.3,0.9S44,18,44,18L33.6,29.2l10.1-5c0,0,4.1-1.4,5.6,1.8
		c1.4,3.2-0.2,5.2-1.1,5.9c-0.9,0.7-12.2,8.3-12.2,8.3l7.2-1.6c0,0,4.7-0.9,5.4,2.9c0.7,3.8-1.6,5-2.9,5.4
		C44.5,47.3,23.7,55,23.7,55s-9.5,3.4-17.3-3.6c-6.8-6.1-5.8-17.1-5.8-17.1S0.3,11.7,0.8,10.6z"/>
	<circle class="st24" cx="11.3" cy="34.7" r="2.5"/>
	<circle class="st24" cx="24.9" cy="34.7" r="2.5"/>
	<path class="st22" d="M8.6,40.5c0,0,2.2,7.2,8.8,7.4s9.2-4.7,9.9-7.2"/>
</g>
<g id="icon_55" class="st0">
	<path class="st18" d="M35.4,45.7H14.8c-2.1,0-3.7-1.7-3.7-3.7V18.3c0-2.1,1.7-3.7,3.7-3.7h20.5c2.1,0,3.7,1.7,3.7,3.7v23.6
		C39.1,44,37.4,45.7,35.4,45.7z"/>
	<text transform="matrix(1 0 0 1 22.3673 23.8884)" class="st24 st58 st59">E</text>
	<text transform="matrix(1 0 0 1 19.0144 30.3695)" class="st24 st58 st60">F</text>
	<text transform="matrix(1 0 0 1 27.2497 30.3695)" class="st24 st58 st60">P</text>
	<text transform="matrix(1 0 0 1 29.3084 36.0818)" class="st24 st58 st61">Z</text>
	<text transform="matrix(1 0 0 1 23.0141 36.0818)" class="st24 st58 st61">O</text>
	<text transform="matrix(1 0 0 1 17.3672 36.0818)" class="st24 st58 st61">T</text>
	<text transform="matrix(1 0 0 1 15.6028 41.4934)" class="st24 st58 st62">L</text>
	<text transform="matrix(1 0 0 1 20.7204 41.4934)" class="st24 st58 st62">P</text>
	<text transform="matrix(1 0 0 1 25.544 41.4934)" class="st24 st58 st62">E</text>
	<text transform="matrix(1 0 0 1 30.838 41.4934)" class="st24 st58 st62">D</text>
</g>
<g id="icon_56" class="st0">
	<path class="st18" d="M8.7,54.1L-3.1,41.4l27.6-25.4c3.6-3.2,9.1-3,12.3,0.6l0,0c3.2,3.6,3,9.1-0.6,12.3L8.7,54.1z"/>
	<rect x="23.2" y="25.8" transform="matrix(0.7362 -0.6768 0.6768 0.7362 -11.9308 23.9558)" class="st24" width="3" height="3"/>
	<rect x="23.2" y="25.8" transform="matrix(0.7362 -0.6768 0.6768 0.7362 -11.9308 23.9558)" class="st24" width="3" height="3"/>
	<rect x="18.5" y="30.1" transform="matrix(0.7362 -0.6768 0.6768 0.7362 -16.1232 21.9026)" class="st24" width="3" height="3"/>
	<rect x="14" y="27.4" transform="matrix(0.7362 -0.6768 0.6768 0.7362 -20.3474 20.082)" class="st24" width="3.2" height="17.4"/>
	<polyline class="st19" points="36.3,17 48.2,6.1 53.3,6.2 	"/>
</g>
<g id="icon_57" class="st0">
	<path class="st18" d="M17.6,52.9l0.1-2.5c0-0.4,0.6-0.7,0.9-0.4l2,1.3l2,1.3c0.4,0.3,0.3,0.9,0,1l-2.2,1l-2.2,1.2
		c-0.4,0.3-0.9,0-0.9-0.6L17.6,52.9z"/>
	<path class="st63" d="M18.2,52.9c0,0-18.5-3.3-19.8-19.8C-2,19,7.4,12.1,7.4,12.1"/>
	<path class="st24" d="M30.6,16.5c0,0,4.3-1,6.3,0c2.5,1.2,4.3,4.2,3,9.2c-1.3,5-2.5,9.4-2.7,13.7c-0.4,4.3-3.5,7.2-5.5,7.5
		c-2,0.4-3.5-1.7-3-3.3c0.4-1.6,1-6.2,0.9-7.4c-0.1-2.2-1.3-4-3-4c-1.7,0-2.6,1-3,2c-0.4,1.2-1.2,5.5-0.6,7.5c0.4,2,0.1,5-1.7,5
		c-1.9,0.1-5.5-1.9-6.9-10.4c-1.4-8.5-2.2-10.4-2.5-11.5c-1-3.9,0-8.9,4.3-9.2s7.8,1.6,9.4,1.7C26.7,17.7,29,16.8,30.6,16.5z"/>
	<path class="st17" d="M22.8,20.7c0,0,2.6,1.4,3.6,1c1-0.6,3.5-1.7,6.2-0.4c2.7,1.4,2.7,3,2.7,3s0.9,3-0.6,5.3c-1.4,2.5-1,7.4-1,7.4
		s0.1,1.7-0.7,1.7c-0.7,0-1.3-1.6-1.3-1.9c0-0.3-0.9-6.3-4.9-7.1c-4-0.7-4.8,3-5.3,4.5c-0.3,1-0.6,3.8-0.6,3.8s-0.1,1.4-1,1.3
		c-0.7-0.1-1-1.6-1-5c0-3.5-1-3.8-1.6-5.8c-0.6-2-0.4-5.5,1.6-7.1C20.8,19.8,22.8,20.7,22.8,20.7z"/>
	<path class="st18" d="M31.2,7.3v2.5c0,0.4-0.4,0.7-0.9,0.6l-2.2-1.2L26,8c-0.4-0.1-0.4-0.9,0-1l2-1.3l2-1.3c0.4-0.3,0.9,0,0.9,0.4
		L31.2,7.3z"/>
	<path class="st63" d="M30.6,7.3c0,0,18.6,2.2,21.1,18.5c1.4,14.1-7.5,21.6-7.5,21.6"/>
</g>
<g id="icon_58" class="st0">
	<path class="st24" d="M28.6,6.2c0,0,6.9-1.5,10.2,0c3.9,1.9,6.9,6.8,4.8,14.9c-2.1,8.1-3.9,15-4.4,22.2c-0.8,6.9-5.6,11.8-8.9,12.2
		c-3.3,0.8-5.6-2.7-5-5.4c0.8-2.5,1.5-10.2,1.4-12c-0.4-3.7-2.1-6.6-5-6.6s-4.2,1.5-5,3.3c-0.8,1.9-1.9,8.9-1,12.2
		c0.8,3.3,0.4,8.1-2.7,8.3c-3.1,0.2-8.9-3.1-11.2-16.8s-3.5-16.8-3.9-18.7c-1.7-6.4,0-14.5,6.9-14.9c6.9-0.6,12.7,2.5,15,2.7
		C22.2,8.1,26.1,6.5,28.6,6.2z"/>
	<path class="st17" d="M15.8,12.9c0,0,4.1,2.3,5.8,1.5c1.7-0.8,5.4-2.9,10-0.8c4.4,2.3,4.4,4.8,4.4,4.8s1.4,4.8-1,8.7
		C32.8,31,33.4,39,33.4,39s0.2,2.7-1.2,2.7c-1.2,0-2.1-2.5-2.1-3.1c0-0.6-1.4-10.2-7.9-11.6c-6.6-1.4-7.7,5-8.5,7.1
		c-0.6,1.5-1,6.2-1,6.2s-0.4,2.3-1.5,2.1c-1.2-0.2-1.5-2.5-1.5-8.1c0-5.4-1.7-6.2-2.5-9.5C6.4,21.6,6.4,16,9.7,13.5
		C12.6,11.6,15.8,12.9,15.8,12.9z"/>
	<circle class="st18" cx="41.1" cy="39.3" r="12"/>
	<path class="st24" d="M41.7,46.1H40c-1,0-1.7-0.8-1.7-1.7v-9.8c0-1,0.8-1.7,1.7-1.7h1.7c1,0,1.7,0.8,1.7,1.7v9.8
		C43.4,45.3,42.7,46.1,41.7,46.1z"/>
	<path class="st24" d="M34.4,40.3v-1.7c0-1,0.8-1.7,1.7-1.7h9.8c1,0,1.7,0.8,1.7,1.7v1.7c0,1-0.8,1.7-1.7,1.7h-9.8
		C35.1,42,34.4,41.3,34.4,40.3z"/>
</g>
<g id="icon_59" class="st0">
	<path class="st18" d="M20.1,1.9h14L27,17.1c0,0,3.1,2.8,2.4,6.1c-0.6,3.1-2.1,5.1-7.2,4.5c-2.1-0.3-4.6-2.8-5.4-3
		c-0.6-0.1-2.2-0.7-3.9-0.6c-1.6,0.3-6.1-0.4-6.1-6.7c0-4.6,4.6-7,8.6-5.7L20.1,1.9z"/>
	<path class="st18" d="M16.1,58.3h13.6l-3-13c0,0,4.8-1.9,3.4-7.5s-7.6-4.2-8.6-3.7c-1,0.6-1.9,1.6-4.5,1c-2.5-0.6-5.7-0.6-7.3,1.9
		c-1.3,2.1-1.3,7.8,4,9.5L16.1,58.3z"/>
	<path class="st18" d="M42.6,31.9h-3.1c-0.9,0-1.6-0.7-1.6-1.6l0,0c0-0.9,0.7-1.6,1.6-1.6h3.1c0.9,0,1.6,0.7,1.6,1.6l0,0
		C44.3,31.1,43.5,31.9,42.6,31.9z"/>
	<path class="st18" d="M40.1,23.2l-2.2,2.2c-0.6,0.6-1.6,0.6-2.2,0l0,0c-0.6-0.6-0.6-1.6,0-2.2l2.2-2.2c0.6-0.6,1.6-0.6,2.2,0l0,0
		C40.7,21.6,40.7,22.6,40.1,23.2z"/>
	<path class="st18" d="M37.6,39.2l-2.1-2.4c-0.6-0.6-0.6-1.6,0.1-2.2l0,0c0.6-0.6,1.6-0.6,2.2,0.1l2.1,2.4c0.6,0.6,0.6,1.6-0.1,2.2
		l0,0C39.2,39.9,38.2,39.8,37.6,39.2z"/>
</g>
<g id="icon_60" class="st0">
	<circle class="st18" cx="18.8" cy="14.2" r="6"/>
	<circle class="st18" cx="41.5" cy="39.8" r="6.8"/>
	<path class="st18" d="M-2.9,51.6v2.8c0,0,0,0.8,0.9,0.8s35.6,0,35.6,0s-2.4-1.7-2.5-2.4l-31.5-0.3C-0.5,52.6-1.9,52.7-2.9,51.6z"/>
	<path class="st18" d="M31.6,51l2.5,2.4c0,0,0.8,1.6,3.3,1.6s14.2,0,14.2,0s1.7-0.8,1.7-3s-1.6-3.1-3.8-3.1c-2.2,0-11.5,0-11.5,0
		s-7.9-8.8-9.3-9H-0.8c0,0-1.9,0-2,1.9c-0.2,1.7,0,7.1,0,7.1s0,2.4,1.6,2.4S31.6,51,31.6,51z"/>
	<path class="st18" d="M14.1,37.8c0,0,1.3-2.7,3-3.6c1.7-0.9,1.7-3.1,1.6-3.6l3,2.8l9.4,4.1c0,0,2.4,0.6,3-1.1
		c0.6-1.9,0.3-2.8-0.9-3.5c-1.3-0.6-8.7-3.3-8.7-3.3L18,23.3c0,0-1.3-0.9-2.8-1.3c-1.4-0.3-3.9-0.6-3.9-0.6s-2-0.3-3,2
		S2.6,37,2.6,37S2,38.4,2.9,38.4s10.4,0,10.4,0S13.9,38.4,14.1,37.8z"/>
	<path class="st18" d="M11.4,12.1c0,0,0.8-3.6,4.6-5c0,0-0.8-2.5-4.2-2C8.3,5.5,8.9,9.5,9.2,9.9C9.4,10.4,10,11.8,11.4,12.1z"/>
</g>
<g id="icon_61" class="st0">
	<defs>
		<path id="SVGID_20_" d="M24.2,2.2c0,0,9.5-1.4,15.2,2.3c5.7,3.6,9.3,7.7,10.2,13.6c0.9,5.9-0.4,13.1-3,17.3
			c-2.7,4.5-4.5,7.2-4.8,7.9c-0.2,0.7-1.4,4.3-0.5,8.9c0.9,4.8,1.4,5.5,1.4,5.5l-26.1,0.5v-5.5c0,0-8.2,0.2-10.2-1.4
			c-2-1.6-2-3.4-1.4-4.6c0.4-1.1,0-1.3,0-1.4c0,0-1.1-0.5-1.1-1.6c0-0.7,0.7-0.9,0.7-0.9s-0.2-0.4-0.4-0.4C4,42.2,3.1,42,3.1,41.2
			s0.5-4.8,0.5-4.8S0.8,36,0.4,34.2c-0.2-1.8,1.3-4.1,2-5c0.7-0.9,3.8-4.6,3.8-4.6s-1.1-9.1,2-13.4C11.3,7,14.4,3.3,24.2,2.2z"/>
	</defs>
	<use xlink:href="#SVGID_20_"  style="display:inline;overflow:visible;fill:#1341A3;"/>
	<clipPath id="SVGID_21_" class="st1">
		<use xlink:href="#SVGID_20_"  style="overflow:visible;"/>
	</clipPath>
	<path class="st64" d="M1,35.6c0,0,3-5.9,7.3-8.2c4.3-2.5,9.8-1.6,12.2-0.9s7,3.9,12.7,2c1.6-0.5,5.2-2.3,5.5-3c0,0,1.4-0.4,1.6,0.7
		c0.2,1.3-0.7,2.5-2.9,4.3c-2.1,1.8-3.4,8.9-6.8,27.7h-3c0,0,0.4-15.4-2.9-21.1c-3-5.5-8.4-12.9-22.3-1.1l-0.4,0.4L1,35.6z"/>
</g>
<g id="icon_62" class="st0">
	<circle class="st18" cx="25.3" cy="32.4" r="23.6"/>
	<circle class="st18" cx="5" cy="33.9" r="8.3"/>
	<circle class="st18" cx="45.3" cy="33.9" r="8.3"/>
	<rect x="30.8" y="5.4" class="st18" width="3.3" height="8"/>
	<rect x="23.5" y="4.2" class="st18" width="3.3" height="8"/>
	<rect x="16.2" y="5.6" class="st18" width="3.3" height="8"/>
	<path class="st65" d="M13.5,29.5h23c0,0,1.5,16.9-10.9,17C11.2,46.6,13.3,30.1,13.5,29.5z"/>
	<polyline class="st55" points="21,30.3 21,36.1 28.8,36.1 28.8,30.1 	"/>
</g>
<g id="icon_63" class="st0">
	<g class="st1">
		<g>
			<circle id="SVGID_19_" class="st8" cx="25.3" cy="33.5" r="23.1"/>
		</g>
		<g>
			<g>
				<g>
					<defs>
						<circle id="SVGID_22_" cx="25.3" cy="33.5" r="23.1"/>
					</defs>
					<clipPath id="SVGID_23_">
						<use xlink:href="#SVGID_22_"  style="overflow:visible;"/>
					</clipPath>
					<path class="st66" d="M30.4,10.2c0,0,5.7,10.2-1.1,13.5s-11.8-0.6-12.7-6.8"/>
				</g>
			</g>
		</g>
	</g>
	<path class="st18" d="M4.5,38.6H1.1c-2.7,0-4.9-2.3-4.9-4.9l0,0c0-2.7,2.3-4.9,4.9-4.9h3.4c2.7,0,4.9,2.3,4.9,4.9l0,0
		C9.4,36.3,7.1,38.6,4.5,38.6z"/>
	<path class="st18" d="M49.2,38.6h-3.4c-2.7,0-4.9-2.3-4.9-4.9l0,0c0-2.7,2.3-4.9,4.9-4.9h3.4c2.7,0,4.9,2.3,4.9,4.9l0,0
		C54.1,36.3,51.9,38.6,49.2,38.6z"/>
	<path class="st67" d="M16.2,3.6c0,0,0,7.2,8,9.3c0,0-15.4,2.5-17.1-7.6"/>
	<path class="st32" d="M32,34.3c0,0,0.4-4.4,4-4.4s4.9,3.8,4.9,3.8"/>
	<path class="st32" d="M9.6,34.3c0,0,0.4-4.4,4-4.4s4.9,3.8,4.9,3.8"/>
	<path class="st32" d="M17.9,43.7c0,0,3,4.2,7.2,4c5.1-0.2,7-4,7-4"/>
</g>
<g id="icon_64" class="st0">
	<circle class="st45" cx="24.6" cy="43.4" r="13.4"/>
	<ellipse class="st68" cx="25.1" cy="32.3" rx="19.3" ry="7.2"/>
	<g class="st1">
		<path class="st8" d="M28.7,33.8c0,0-5.4-0.2-6.7-0.2c-2.2,0-3.7-2.2-3.7-5.4c0-1.7-1.7-4.9-2.4-5.9C13.7,19,13,15.3,14,11.3
			C14.7,8,18.7,3.1,25,2.9h0.3c6,0,10.2,3.9,11.6,7.6c1.2,3.4,0.8,10.2-2.4,13.1c-2.7,2.4-3.4,6.7-3.4,7.2
			C30.8,33,29.5,33.8,28.7,33.8L28.7,33.8L28.7,33.8z"/>
		<path class="st69" d="M25.5,4.4c5.7,0,9.4,3.6,10.4,6.6c1.2,3,0.7,9.4-1.8,11.6c-2.5,2.4-3.5,6.2-3.9,8.1c-0.2,1.8-1.5,2-1.5,2
			s-5.4-0.2-6.7-0.2c-1.3,0-2.4-1.5-2.4-4s-2.5-6.6-2.5-6.6c-2.5-3.9-2.4-7.6-1.7-10.1c0.7-2.7,3.9-7.2,9.7-7.4c0.1,0,0.2,0,0.2,0
			 M25.5,1.7c-0.2,0-0.3,0-0.3,0C18.1,1.9,13.7,7.3,13,11c-1,4.4-0.3,8.4,2,12.1c0.8,1.3,2.2,4,2.2,5.2c0,4.5,2.5,6.6,4.9,6.6
			c1,0,5.2,0.2,6.7,0.2H29h0.2c1.2-0.2,3.4-1.2,3.7-4.2c0.2-1.5,1-4.7,3-6.4c3.7-3.2,4-10.8,2.7-14.4C36.9,6.1,32.2,1.7,25.5,1.7
			L25.5,1.7z"/>
	</g>
</g>
<g id="icon_65" class="st0">
	<path class="st17" d="M24.9,5.1c0,0,3.2-4.7,9.1-3.2c6.1,1.8,6.9,6.5,6.9,6.5s2.4,12.8-15.6,21.9c0,0-18.1-6.5-16.9-20.5
		c0.6-5.5,4.7-8.3,7.1-8.5C18.4,1.1,22.2,1.5,24.9,5.1z"/>
	<path class="st18" d="M38.9,58.9H11.3c-5.9,0-10.6-4.7-10.6-10.6l0,0c0-5.9,4.7-10.6,10.6-10.6h27.6c5.9,0,10.6,4.7,10.6,10.6l0,0
		C49.6,54.1,44.8,58.9,38.9,58.9z"/>
	<rect x="23.4" y="37.4" class="st24" width="3.5" height="21.5"/>
</g>
<g id="icon_66" class="st0">
	<path class="st18" d="M47.2,58.5H2.9c-1,0-1.6-0.8-1.6-1.6l0,0c0-1,0.8-1.6,1.6-1.6h44.3c1,0,1.6,0.8,1.6,1.6l0,0
		C48.9,57.7,48.3,58.5,47.2,58.5z"/>
	<path class="st18" d="M40.5,58.3H9.7c-2.7,0-4.9-2.3-4.9-4.9l0,0c0-2.7,2.3-4.9,4.9-4.9h30.6c2.7,0,4.9,2.3,4.9,4.9l0,0
		C45.4,56.1,43.1,58.3,40.5,58.3z"/>
	<path class="st18" d="M23.5,45.4H3.1c-1,0-1.8-0.8-1.8-1.8l0,0c0-1,0.8-1.8,1.8-1.8h20.3c1,0,1.8,0.8,1.8,1.8l0,0
		C25.3,44.6,24.5,45.4,23.5,45.4z"/>
	<rect x="11.6" y="44.4" class="st18" width="9.8" height="5.5"/>
	<path class="st18" d="M26.1,36.2L14,24.3L30.6,7.5c1.2-1.2,3.1-1.2,4.3,0l7.8,7.6c1.2,1.2,1.2,3.1,0,4.3L26.1,36.2z"/>
	<rect x="19.1" y="17.3" transform="matrix(0.7032 -0.711 0.711 0.7032 -14.5288 23.24)" class="st18" width="2.9" height="23.4"/>
	<rect x="39.9" y="3.6" transform="matrix(0.7032 -0.711 0.711 0.7032 8.1326 33.2578)" class="st18" width="8" height="6.6"/>
	<path class="st18" d="M13.8,29.6l6.4,6.6c0,0-3.9,1.2-5.7-0.8C12.8,33.3,13.4,31.5,13.8,29.6z"/>
	<path class="st46" d="M39,29c0,0,5.1,6.8,2.1,15"/>
</g>
<g id="icon_67" class="st0">
	<path class="st18" d="M35.4,41.2v12.6l2.7,0.2c0,0,2.3-0.8,2.3-2.9s0-8,0-8S39.6,41,37.9,41C36.1,41.2,35.4,41.2,35.4,41.2z"/>
	<path class="st18" d="M22.6,38.2l7.8-0.2c0,0,1.5-0.2,1.7,2.1c0.2,2.3,0.4,14.5,0.4,14.5s0.2,2.7-1.9,2.9
		c-2.1,0.2-24.4-0.4-24.4-0.4s-1.5,0.6-2.1-4.4S-0.1,20-0.1,20s-0.2-1.9,1.9-2.3c2.1-0.4,14.5-3.4,14.5-3.4s2.9-0.6,3.4,2.3
		C20.1,20,22.6,38.2,22.6,38.2z"/>
	<path class="st18" d="M1,14.3l15.5-3.6L15.9,4c0,0,0-1.9-2.9-1.3S1.6,4.8,1.6,4.8s-1.7,0.4-1.5,2.7S1,14.3,1,14.3z"/>
	<path class="st18" d="M48.7,47.7h-3.6c-0.8,0-1.7-0.8-1.7-1.7l0,0c0-0.8,0.8-1.7,1.7-1.7h3.6c0.8,0,1.7,0.8,1.7,1.7l0,0
		C50.3,47.1,49.5,47.7,48.7,47.7z"/>
	<path class="st18" d="M48.9,40.1l-3.4,1.3c-0.8,0.4-1.9,0-2.1-0.8l0,0c-0.4-0.8,0-1.9,0.8-2.1l3.4-1.3c0.8-0.4,1.9,0,2.1,0.8l0,0
		C50.1,38.9,49.7,39.7,48.9,40.1z"/>
	<path class="st18" d="M47.6,55.3L44.3,54c-0.8-0.2-1.3-1.3-1.1-2.1l0,0c0.2-0.8,1.3-1.3,2.1-1.1l3.4,1.3c0.8,0.2,1.3,1.3,1.1,2.1
		l0,0C49.3,55.1,48.5,55.5,47.6,55.3z"/>
	<path class="st24" d="M0.6,24.4L1,27.5l10.1-2.3c0,0,1.3-0.6,0.8-2.1c-0.4-1.5-2.3-0.8-2.3-0.8L0.6,24.4z"/>
	<path class="st24" d="M1.4,30.5l0.4,3.2l10.3-2.3c0,0,1.3-0.6,0.8-2.1c-0.4-1.5-2.3-0.8-2.3-0.8L1.4,30.5z"/>
</g>
<g id="icon_68" class="st0">
	<path class="st18" d="M15.2,18.7c0,0,8.5-5.5,17.4-1.9s7.7,9.5,7.2,12.1s-2.6,4.9-3.1,9.5c-0.2,2,0.5,5.1,1.2,6.3s1.4,9.7-3.9,12.1
		c-6.5,2.9-11.1,0-14.2-5.8c-3.2-5.6-8-18.4-8.5-21.7C11,26.2,10.8,21.3,15.2,18.7z"/>
	<circle class="st18" cx="11.5" cy="12.7" r="4.9"/>
	<circle class="st18" cx="19.8" cy="8" r="4.9"/>
	<circle class="st18" cx="29.7" cy="6.9" r="4.9"/>
	<circle class="st18" cx="38.8" cy="10.2" r="4.9"/>
	<path class="st24" d="M25.5,23.7c0,0,1.5-2.2,4.4-1.5c2.9,0.9,3.2,3.2,3.2,3.2s1,6.1-7.5,10.4c0,0-8.7-3.1-8-9.9
		c0.2-2.7,2.2-3.9,3.4-4.1C22.4,21.8,24.3,22,25.5,23.7z"/>
</g>
<g id="icon_69" class="st0">
	<path class="st24" d="M31.9,5.1c0,0,6.3-1.3,9.1,0c3.6,1.7,6.3,5.9,4.2,13.3c-2.1,7.4-3.6,13.3-4,19.6c-0.6,6.3-5.1,10.3-7.8,10.7
		c-2.9,0.6-5.1-2.5-4.4-4.6c0.6-2.3,1.3-8.8,1.3-10.5c-0.2-3.2-1.9-5.7-4.4-5.7s-3.8,1.3-4.4,2.9c-0.6,1.7-1.7,7.8-0.8,10.7
		c0.6,2.9,0.2,7.2-2.5,7.4c-2.7,0.2-7.8-2.7-9.9-14.9S5.1,19,4.5,17.5C3,11.8,4.5,4.9,10.8,4.2S22,6.5,24.1,6.7
		C26.4,6.7,29.8,5.5,31.9,5.1z"/>
	<path class="st17" d="M20.7,11c0,0,3.6,1.9,5.1,1.3c1.5-0.8,4.8-2.5,8.8-0.6c4,1.9,4,4.2,4,4.2s1.3,4.2-0.8,7.8
		c-2.1,3.6-1.5,10.5-1.5,10.5s0.2,2.5-1.1,2.5c-1.1,0-1.9-2.3-1.9-2.7s-1.3-9.1-6.9-10.1c-5.7-1.1-6.7,4.4-7.6,6.3
		c-0.4,1.3-0.8,5.5-0.8,5.5s-0.2,1.9-1.3,1.9c-1.1-0.2-1.3-2.3-1.3-7.2s-1.5-5.5-2.3-8.4s-0.6-7.8,2.3-10.1
		C17.8,9.9,20.7,11,20.7,11z"/>
	<path class="st14" d="M0.7,34.3c0,0,2.9-0.4,5.1,6.5c2.1,7.6,8.4,11.4,10.3,11.8s7.8,1.9,8.6-3.4c1.1-5.3,0.6-3.4,0.6-3.4
		s0.2,5.7,2.9,6.5c2.7,0.8,7.8,1.1,11.2-2.5s5.9-10.1,6.1-11.8c0-1.7,0.8-4,4.4-4.2c3.6-0.2,3.4,4.2,3.4,5.5s0,14.5,0,14.5
		s0.2,2.1-2.5,2.1s-52.2,0-52.2,0s-1.7-0.4-1.7-1.9c0-1.5,0-17.3,0-17.3S-2.7,34.3,0.7,34.3z"/>
	<circle class="st34" cx="24.7" cy="20" r="1.7"/>
	<circle class="st34" cx="34.4" cy="27.8" r="1.7"/>
	<circle class="st34" cx="17.3" cy="24.8" r="1.7"/>
</g>
<g id="icon_70" class="st0">
	<path class="st18" d="M42.9,56.5H6.4c-1.9,0-3.5-1.6-3.5-3.5V28.2c0-1.9,1.6-3.5,3.5-3.5h36.5c1.9,0,3.5,1.6,3.5,3.5v24.6
		C46.7,54.9,45.1,56.5,42.9,56.5z"/>
	<path class="st18" d="M22.2,4.3c1.4-1.1,3.5-1.1,5,0l15.4,11.2l9.7,7.1c2.8,1.9,1.1,5.8-2.5,5.8H24.7H-0.5c-3.5,0-5.3-3.9-2.5-5.8
		l9.7-7.1L22.2,4.3z"/>
	<path class="st24" d="M26.1,47.8h-3c-1.1,0-1.9-0.9-1.9-1.9V28.4c0-1.1,0.9-1.9,1.9-1.9h3c1.1,0,1.9,0.9,1.9,1.9v17.5
		C28.2,47,27.3,47.8,26.1,47.8z"/>
	<path class="st24" d="M35.5,35.4v3c0,1.1-0.9,1.9-1.9,1.9H15.8c-1.1,0-1.9-0.9-1.9-1.9v-3c0-1.1,0.9-1.9,1.9-1.9h17.7
		C34.6,33.3,35.5,34.2,35.5,35.4z"/>
</g>
<g id="icon_71" class="st0">
	<circle class="st18" cx="19.2" cy="8.2" r="5.6"/>
	<path class="st18" d="M21.1,30.7V19.1c0,0-0.8-2.5-2.5-2.9c-1.7-0.3-2.9-0.2-4.4,1.5c-1.7,1.7-6.8,6.6-6.8,6.6s-2.5,2.4-0.8,4.6
		c1.9,2.2,5.9,6.4,5.9,6.4S8.4,48.7,8,49.4c-0.3,0.7-1.5,2.9-1.9,3.2c-0.3,0.3-1,2.5,1,4.1c1.9,1.5,4.2,1,5.3-0.3
		c1-1.4,5.4-9,6.9-17.5l9.3-0.2v6.1c0,0-0.2,1.9,0.8,1.7c1,0,6.3-0.2,6.3-0.2s0.7-0.2,0.5-2.4c-0.2-2.4,0-10.3,0-10.3
		s-0.5-2.7-3.2-2.9C30.1,30.7,21.1,30.7,21.1,30.7z"/>
	<path class="st18" d="M20.1,57.5l23.7-0.2c0,0,1.4-0.3,1.2-1.9c-0.2-1.5-0.5-9-10-9.5l-6.8,0.2c0,0-8.5,0.3-9.7,8.8
		C18.6,56.5,18.9,57.4,20.1,57.5z"/>
</g>
<g id="icon_72" class="st0">
	<g class="st1">
		<g>
			<g>
				<g>
					<defs>
						<path id="SVGID_24_" d="M5.3,19.3l0.5,17.4c0,0,1.2,9.5,9.3,16.2s9,5.8,9.5,5.8s4.9,0,11.4-7.6s8.4-12.7,8.4-16.5
							s0.7-15.5,0.7-15.5s2.1-2.6,2.6-3.7s3-7.2-3.5-11.3S15.8,1.3,13.7,1.5S5.3,1.3,2.4,8.9c-1.2,3.3-0.4,5.8,1.1,7.7
							C4.7,18.8,5.3,19.3,5.3,19.3z"/>
					</defs>
					<clipPath id="SVGID_25_">
						<use xlink:href="#SVGID_24_"  style="overflow:visible;"/>
					</clipPath>
					<path class="st70" d="M5.3,18.9l0.5,17.4c0,0,1.2,9.5,9.3,16.2s9,5.8,9.5,5.8s4.9,0,11.4-7.6s8.4-12.7,8.4-16.5
						s0.7-15.5,0.7-15.5s2.1-2.6,2.6-3.7c0.4-1.1,3-7.2-3.5-11.3S15.8,1,13.7,1.2S5.3,1,2.4,8.6c-1.2,3.3-0.4,5.8,1.1,7.7
						C4.7,18.2,5.3,18.9,5.3,18.9z"/>
				</g>
			</g>
		</g>
		<g>
			<g>
				<g>
					<defs>
						<path id="SVGID_27_" d="M5.3,19.3l0.5,17.4c0,0,1.2,9.5,9.3,16.2s9,5.8,9.5,5.8s4.9,0,11.4-7.6s8.4-12.7,8.4-16.5
							s0.7-15.5,0.7-15.5s2.1-2.6,2.6-3.7s3-7.2-3.5-11.3S15.8,1.3,13.7,1.5S5.3,1.3,2.4,8.9c-1.2,3.3-0.4,5.8,1.1,7.7
							C4.7,18.8,5.3,19.3,5.3,19.3z"/>
					</defs>
					<clipPath id="SVGID_28_">
						<use xlink:href="#SVGID_27_"  style="overflow:visible;"/>
					</clipPath>
					<path class="st71" d="M4.9,20.5c0,0,10.7-6.5,19.7-6.2c9.7,0.4,16,3,20.4,6.3"/>
				</g>
			</g>
		</g>
	</g>
	<path class="st18" d="M3.7,22.3L3.5,34.4c0,0-3.5,0-3.7-4s0-5.8,0-5.8S0.5,21.9,3.7,22.3z"/>
	<path class="st18" d="M46.6,22.4l0.2,12.1c0,0,3.5,0,3.7-4s0-5.8,0-5.8S49.8,22.1,46.6,22.4z"/>
	<line class="st72" x1="13.2" y1="22.1" x2="18.6" y2="22.1"/>
	<line class="st72" x1="31.3" y1="22.1" x2="36.6" y2="22.1"/>
	<polyline class="st72" points="23,31.9 23.2,40.6 27.2,40.4 	"/>
	<line class="st72" x1="21.4" y1="46.5" x2="28.1" y2="46.5"/>
	<line class="st72" x1="24.8" y1="50.2" x2="24.8" y2="55"/>
	<polyline class="st72" points="21.8,52.9 24.8,55.7 27.6,53.4 	"/>
	<path class="st72" d="M11.6,26.7c0,0,0.9,3.7,4.2,3.9c3.3,0,4.4-3.7,4.4-3.7"/>
	<path class="st72" d="M29.9,26.7c0,0,0.9,3.7,4.2,3.9c3.3,0,4.4-3.7,4.4-3.7"/>
	<path class="st72" d="M19.3,39.5c0,0-0.5,4.2-5.5,4.7"/>
	<polyline class="st72" points="14.4,41.3 13.5,44.3 15.8,46.4 	"/>
	<path class="st72" d="M18.8,33.7c0,0-3.3,5.6-9.8,2.6"/>
	<polyline class="st72" points="10.4,34.2 8.6,36 9.3,39.2 	"/>
	<path class="st72" d="M30.8,39.2c0,0,0.5,4.2,5.5,4.7"/>
	<polyline class="st72" points="35.7,40.9 36.4,43.9 34.3,46.2 	"/>
	<path class="st72" d="M31.1,33.5c0,0,3.3,5.6,9.8,2.6"/>
	<polyline class="st72" points="39.6,34.1 41.3,36 40.6,39.2 	"/>
	<line class="st72" x1="42.9" y1="12.2" x2="40.3" y2="17.2"/>
	<line class="st72" x1="33.9" y1="9.4" x2="32.3" y2="14.5"/>
	<line class="st72" x1="24.8" y1="8.6" x2="24.8" y2="13.8"/>
	<line class="st72" x1="16" y1="9.4" x2="17.6" y2="14.7"/>
	<line class="st72" x1="6.8" y1="12.8" x2="9.3" y2="17.3"/>
</g>
<g id="icon_73" class="st0">
	<path class="st18" d="M25.3,1.3l25.6,7.4c0,0,2.6,0,2.4,3.4c-0.2,3.4-0.8,34.5-28,46.9c0,0-27-10.4-28.2-47.3c0,0-0.2-2.2,2.6-3
		C2.5,7.7,25.3,1.3,25.3,1.3z"/>
	<path class="st24" d="M27.5,42h-3.8c-1.6,0-2.8-1.2-2.8-2.8V19.1c0-1.6,1.2-2.8,2.8-2.8h3.8c1.6,0,2.8,1.2,2.8,2.8v20.2
		C30.1,40.8,28.9,42,27.5,42z"/>
	<path class="st24" d="M38.5,27v3.8c0,1.6-1.2,2.8-2.8,2.8H15.5c-1.6,0-2.8-1.2-2.8-2.8V27c0-1.6,1.2-2.8,2.8-2.8h20.2
		C37.3,24.2,38.5,25.4,38.5,27z"/>
</g>
<g id="icon_74" class="st0">
	<path class="st18" d="M24.2,1.6c0,0,9.7-1.6,15.5,2.4c5.7,3.7,9.6,7.8,10.4,13.7S49.8,31,47,35.5c-2.8,4.5-4.5,7.3-4.9,8
		c-0.2,0.7-1.6,4.3-0.5,9.2c0.9,4.9,1.6,5.6,1.6,5.6l-26.8,0.5v-5.6c0,0-8.3,0.2-10.4-1.6c-2.1-1.7-2.1-3.5-1.6-4.7
		c0.3-1,0-1.4,0-1.6c0,0-1-0.5-1-1.7c0-0.7,0.7-0.9,0.7-0.9s-0.2-0.3-0.3-0.3c-0.2-0.2-1-0.3-1-1.4c0-0.9,0.5-4.9,0.5-4.9
		s-3-0.3-3.3-2.3c-0.2-1.9,1.4-4.2,2.1-5c0.7-0.9,4-4.7,4-4.7s-1-9.4,2.1-13.6S14.2,2.8,24.2,1.6z"/>
	<path class="st72" d="M28.8,22.1c-0.5,0.2,0,4.9,4.5,3c2.8-1.2,3.5-6.4-0.3-8.3c-3.3-1.7-7.7-2.1-9.7,2.4
		c-2.3,4.7,0.3,8.9,2.8,10.4s10.4,3.5,13.9-3c3.5-6.6,1.7-13.2-3-15.3c-2.3-1-15-7-20,8.7"/>
</g>
<g id="icon_75" class="st0">
	<circle class="st18" cx="26.2" cy="20.1" r="18.1"/>
	<polygon class="st18" points="9.1,15.9 1.6,19.9 11.3,25.8 	"/>
	<path class="st18" d="M-0.9,57.8L51,58c0,0,3,0.2,2.3-4c-0.8-4.4-3.2-12.4-15.8-12.6c-12.6,0-26.3,0-26.3,0S-1.6,41.6-2.6,55.3
		C-2.4,57-2.2,57.8-0.9,57.8z"/>
	<rect x="17.6" y="18.4" class="st24" width="3.4" height="3.6"/>
	<rect x="23.9" y="18.4" class="st24" width="3.4" height="3.6"/>
	<rect x="30.4" y="18.4" class="st24" width="3.4" height="3.6"/>
</g>
<g id="icon_77" class="st0">
	<path class="st18" d="M27.6,26.3h-4.3V4.8c0-1.3,0.9-2.2,2.2-2.2l0,0c1.3,0,2.2,0.9,2.2,2.2C27.6,4.8,27.6,26.3,27.6,26.3z"/>
	<path class="st18" d="M21.6,28.9c0,0,2.2-1.4,3.1-1.4c1.1,0,2-0.2,4.7,1.4l0.5-2.5L27,25.2l-3.3-0.2c0,0-2.2,1.1-2.7,1.3
		c-0.4,0.4-0.2,2.2-0.2,2.2L21.6,28.9z"/>
	<path class="st18" d="M33.7,10.1c0,0,5.8-2.2,12.6,7.4c6,8.5,9,17.2,6.5,31.4c-1.3,6.5-1.4,9-4.7,8.3c-3.3-0.7-13.4-4.9-14.3-5.4
		s-5.1-2.5-4.7-9.2s0-24.4,0-24.4S29.7,10.6,33.7,10.1z"/>
	<line class="st32" x1="32.8" y1="29" x2="46.9" y2="36.4"/>
	<line class="st32" x1="37" y1="30.5" x2="43.1" y2="26"/>
	<line class="st32" x1="39.3" y1="25.4" x2="39.8" y2="28"/>
	<line class="st32" x1="45.4" y1="35.4" x2="47.8" y2="33"/>
	<polyline class="st32" points="41.1,34.3 41.3,39.3 44.2,42.2 	"/>
	<line class="st32" x1="38.6" y1="41.9" x2="41.3" y2="39.3"/>
	<path class="st18" d="M17.1,10.1c0,0-5.8-2.2-12.6,7.4c-6,8.5-9,17.2-6.5,31.4c1.3,6.5,1.4,9,4.7,8.3s13.4-4.9,14.3-5.4
		c0.9-0.7,5.1-2.5,4.7-9.2c-0.4-6.7,0-24.4,0-24.4S21.1,10.8,17.1,10.1z"/>
	<line class="st32" x1="18" y1="29.2" x2="3.9" y2="36.6"/>
	<line class="st32" x1="13.8" y1="30.5" x2="7.7" y2="26.1"/>
	<line class="st32" x1="11.5" y1="25.6" x2="11" y2="28.1"/>
	<line class="st32" x1="5.4" y1="35.4" x2="3" y2="33.2"/>
	<polyline class="st32" points="9.7,34.5 9.5,39.3 6.6,42.4 	"/>
	<line class="st32" x1="12.2" y1="42" x2="9.5" y2="39.3"/>
</g>
<g id="icon_78" class="st0">
	<path class="st18" d="M13.7,1.4l23.5-0.2c0,0,3.5,17-11.3,17C13,18.2,13.7,10.1,13.7,1.4z"/>
	<polygon class="st18" points="16.9,42.3 34.3,42.3 37.1,56 40.6,56 40.6,59 10.2,59 10.2,55.5 14.1,55.5 	"/>
	<rect x="17.2" y="32.1" class="st18" width="16.8" height="6.5"/>
	<path class="st18" d="M19.6,20.6c0,0-3,0.9-2.6,7.6l-3.3,0.4l0.2,7.4c0,0-1.7-1.1-2.8-4.4l-3.3,1.1c0,0,2.6,5.7,3.9,6.9l1.9-1.5
		l-1.3,10c0,0-12-6.3-12.2-23.1c-0.2-10,10.2-18.1,10.2-18.1s0.4,5.7,3,8.1c0,0-2.8-0.6-5.2,6.1l3.1,1.5c0,0,0.9-4.3,3.3-5.7
		C14.1,16.8,16.9,19.9,19.6,20.6z"/>
	<path class="st18" d="M31.3,20.6c0,0,3,0.9,2.6,7.6l3.3,0.4L37.1,36c0,0,1.7-1.1,2.8-4.4l3.3,1.1c0,0-2.6,5.7-3.9,6.9L37.4,38
		l1.5,10c0,0,12-6.3,12.2-23.1c0.2-10-10.2-18.1-10.2-18.1s-0.4,5.7-3,8.1c0,0,2.8-0.6,5.2,6.1L40,22.5c0,0-0.9-4.3-3.3-5.7
		C36.7,16.8,34.1,19.9,31.3,20.6z"/>
</g>
<g id="icon_86" class="st0">
	<path class="st18" d="M0.6,54.3h-1.8c-0.9,0-1.6-0.7-1.6-1.6V23c0-0.9,0.7-1.6,1.6-1.6h1.8c0.9,0,1.6,0.7,1.6,1.6v29.7
		C2.2,53.6,1.5,54.3,0.6,54.3z"/>
	<rect x="1.1" y="40.6" class="st18" width="52" height="5"/>
	<path class="st18" d="M51.3,54.3h-1.2c-1.1,0-1.8-0.9-1.8-1.8v-6.8c0-1.1,0.9-1.8,1.8-1.8h1.2c1.1,0,1.8,0.9,1.8,1.8v6.8
		C53.1,53.4,52.2,54.3,51.3,54.3z"/>
	<circle class="st18" cx="16.2" cy="20.8" r="5"/>
	<circle class="st18" cx="10.2" cy="32.4" r="5"/>
	<path class="st18" d="M15.5,41.1l8-16.2c0,0,1.1-2.7,4.3-1.4c3.2,1.2,19.6,7.7,19.6,7.7s5.3,2.1,5.5,6.8V44L15.5,41.1z"/>
	<path class="st17" d="M44.9,17.4c0,0,1.1-1.6,2.8-1.1c2,0.5,2.1,2.1,2.1,2.1s0.7,4.1-5,7.1c0,0-5.9-2.1-5.5-6.6
		c0.2-1.8,1.6-2.7,2.3-2.7C42.8,16.2,44,16.4,44.9,17.4z"/>
	<path class="st17" d="M41.5,6.8c0,0,0.7-1.2,2.1-0.7c1.4,0.4,1.6,1.6,1.6,1.6s0.5,3-3.7,5.3c0,0-4.5-1.6-4.1-5c0.2-1.4,1.1-2,1.8-2
		C39.9,5.9,40.8,5.9,41.5,6.8z"/>
	<path class="st17" d="M32.4,13.5c0,0,0.7-1.2,2.1-0.7c1.4,0.4,1.6,1.6,1.6,1.6s0.5,3-3.7,5.3c0,0-4.5-1.6-4.1-5
		c0.2-1.4,1.1-2,1.8-2C30.8,12.6,31.7,12.6,32.4,13.5z"/>
</g>
<g id="icon_88" class="st0">
	<path class="st18" d="M14.1,57.3L14.1,57.3c-7.6,0-14-6.4-14-14V16.8c0-7.6,6.4-14,14-14l0,0c7.6,0,14,6.4,14,14v26.5
		C28.1,51.1,21.7,57.3,14.1,57.3z"/>
	<rect x="0.1" y="28.9" class="st24" width="28" height="3.4"/>
	<polyline class="st73" points="34.2,24 41.2,24 35.1,30.6 42.1,30.6 	"/>
	<polyline class="st73" points="42.5,10.9 49.3,10.9 43.2,17.4 50.2,17.4 	"/>
</g>
<g id="icon_89" class="st0">
	<path class="st18" d="M3.6,11.1l5.1-4.2c1.1-0.9,2.6-0.7,3.5,0.4l10.9,12.8c0.9,1.1,0.7,2.6-0.4,3.5l-5.1,4.2
		c-1.1,0.9-2.6,0.7-3.5-0.4L3.2,14.6C2.4,13.4,2.5,12,3.6,11.1z"/>
	<path class="st18" d="M3.2,1.9L3.2,1.9C3.9,1.4,5,1.4,5.5,2.1l4,4.8c0.5,0.7,0.5,1.8-0.2,2.3l0,0C8.7,9.7,7.6,9.7,7.1,9l-4-4.8
		C2.5,3.7,2.5,2.6,3.2,1.9z"/>
	<path class="st18" d="M-0.3,4.9L-0.3,4.9C0.4,4.4,1.5,4.4,2,5.1l4,4.8c0.5,0.7,0.5,1.8-0.2,2.3l0,0c-0.7,0.5-1.8,0.5-2.3-0.2
		l-4-4.8C-1,6.7-1,5.6-0.3,4.9z"/>
	<path class="st18" d="M35.4,27.8c0,0-0.7,4-6,8.4S21,41.9,18,40.7c-3-1.4-4.4-2.3-5.3-3.7c-0.9-1.4-1.9-3.2-2.1-4
		c-0.2-0.7-0.4-1.9,2.1-4c2.5-2.1,5.3-4.4,5.3-4.4l7.9-6.9c0,0,1.4-1.1,3.9,0.5c2.5,1.6,3,1.9,3.5,2.8c0.7,1.6,2.1,4.4,2.1,4.4
		S35.6,26.8,35.4,27.8z"/>
	<path class="st50" d="M39.7,31.2c0,0-1.2,15.5-18,14.8"/>
	<path class="st50" d="M46.4,32.2c0,0-3,21.3-24.8,20.2"/>
	<path class="st50" d="M52,32c0,0-1.6,26-31.2,26.6"/>
</g>
<g id="icon_90" class="st0">
	<circle class="st18" cx="8.6" cy="33.4" r="6.1"/>
	<path class="st18" d="M-0.6,57.7H18c0,0,1.7,0.4,1.7-3.1c0.2-3.3,0.2-5.9,0.2-5.9s-0.7-6.3-9.2-6.3c-3.5,0-6.8,0.2-6.8,0.2
		s-6.3,0.4-6.3,7s0,7.2,0,7.2S-2.3,57.7-0.6,57.7z"/>
	<circle class="st18" cx="42.3" cy="33.4" r="6.1"/>
	<path class="st18" d="M33.1,57.7h18.6c0,0,1.7,0.4,1.7-3.1c0.2-3.3,0.2-5.9,0.2-5.9s-0.7-6.3-9.2-6.3c-3.5,0-6.8,0.2-6.8,0.2
		s-6.3,0.4-6.3,7s0,7.2,0,7.2S31.5,57.7,33.1,57.7z"/>
	<ellipse class="st18" cx="25.4" cy="12.4" rx="14.2" ry="10"/>
	<path class="st18" d="M13.8,17.9L12.3,22c0,0-0.6,2.2,0.2,2.4c0.9,0.2,1.8-0.2,2.9-1.1c1.1-0.9,3.7-2.6,3.7-2.6L13.8,17.9z"/>
	<path class="st18" d="M31.7,20.9l4.8,3.1c0,0,0.9,0.7,1.8,0.4c0.9-0.4,0.2-2.2,0.2-2.6c0-0.4-1.5-4.4-1.5-4.4L31.7,20.9z"/>
	<path class="st24" d="M29.3,9.8h-8.1c-0.6,0-0.9-0.4-0.9-0.9l0,0c0-0.6,0.4-0.9,0.9-0.9h8.1c0.6,0,0.9,0.4,0.9,0.9l0,0
		C30.2,9.4,29.8,9.8,29.3,9.8z"/>
	<path class="st24" d="M30.5,13.3H19.9c-0.6,0-0.9-0.4-0.9-0.9l0,0c0-0.6,0.4-0.9,0.9-0.9h10.7c0.6,0,0.9,0.4,0.9,0.9l0,0
		C31.5,12.9,31.1,13.3,30.5,13.3z"/>
	<path class="st24" d="M29.3,16.4h-8.1c-0.6,0-0.9-0.4-0.9-0.9l0,0c0-0.6,0.4-0.9,0.9-0.9h8.1c0.6,0,0.9,0.4,0.9,0.9l0,0
		C30.2,16.1,29.8,16.4,29.3,16.4z"/>
</g>
<g id="icon_91" class="st0">
	<path class="st18" d="M11.4,58.5l10.7-0.2c0,0,1.8-3,5.4-2.8c1.8,0,2.4-0.2,2.6-1.8c0-1.8,0.2-3.4,0.2-3.4s-0.2-0.8-2.2-1
		c-2.2-0.2-2.8-1.4-3-1.8L11.6,44c0,0-1.6,1.8-3.8,1.6c-2.2-0.2-3.2-0.8-3.4,1.2c-0.2,2-0.6,4.6-0.6,4.6s-0.8,2,2.6,2.6
		c3.4,0.6,3.8,1.6,3.6,2.8S10.6,58.5,11.4,58.5z"/>
	<path class="st18" d="M12.2,41l13.7,3c0,0,1.2-0.8,2.4-0.4c1.2,0.4,3.8,0.6,4-0.4s0.8-3.8,0.8-3.8s-0.2-1.4-1.4-1.6
		c-1.2-0.2-2.6-0.6-3-2.4l-13.1-6c0,0-1,1.6-2.8,1c-1.6-0.6-4-1.6-4.6,0.4c-0.6,1.8-1.4,4.8-1.4,4.8s-0.2,2.2,1.8,2.2
		C10.2,37.8,12,39,12.2,41z"/>
	<path class="st18" d="M17,26.5l12.5,5.4c0,0,1.4,0,2.2,0.2c0.8,0,2.4,1,2.8,1.2s1.8-0.2,2.4-1.2c0.6-1,1.6-2.4,1.6-2.4
		s0.4-1.2-0.8-2.2c-1.2-1-2.4-1.2-3-3.4S23.9,16,23.9,16s-2.2,1.2-4,0.2c-1.8-1-2.4-2.2-3.6-0.6c-1.2,1.6-3.2,4.4-3.2,4.4
		s-0.8,1.8,0.8,2.8C15.6,23.7,17.4,24.1,17,26.5z"/>
	<path class="st18" d="M25.5,13l10.9,8.1c0,0,2.4,0.2,3.6,1.4c1.2,1.2,2.2,1.4,3.4,0.4c1.2-1,3-3.2,3-3.2s0.6-1.2-0.6-2.6
		c-1.2-1.4-3-2.4-1.8-5c0.4-0.8,0-1.2-0.4-1.4s-6.8-6.2-6.8-6.2s-1.2-1.2-3.2-0.4S29.5,2,29.5,2s-1-0.8-2.2,0.2c-1.2,1-4.2,4-4.2,4
		s-1,1.2,0.2,2.6c1.2,1.4,2.6,1.8,2.4,4C25.5,13,25.5,13,25.5,13z"/>
	<path class="st24" d="M19.9,52.7l-6.4-1c-1-0.2-1.8-1.2-1.6-2.2l0,0c0.2-1,1.2-1.8,2.2-1.6l6.4,1c1,0.2,1.8,1.2,1.6,2.2l0,0
		C22.1,52.1,21.1,52.9,19.9,52.7z"/>
	<path class="st24" d="M22.5,39.6l-6.2-1.8c-1-0.4-1.6-1.4-1.4-2.4l0,0c0.4-1,1.4-1.6,2.4-1.4l6.2,1.8c1,0.4,1.6,1.4,1.4,2.4l0,0
		C24.7,39.4,23.7,40,22.5,39.6z"/>
	<path class="st24" d="M35.5,16.7l-4.8-4.4c-0.8-0.8-0.8-2-0.2-2.8l0,0c0.8-0.8,2-0.8,2.8-0.2l4.8,4.4c0.8,0.8,0.8,2,0.2,2.8l0,0
		C37.4,17.5,36.2,17.5,35.5,16.7z"/>
	<path class="st24" d="M27.3,28.1l-5.6-3.2c-1-0.6-1.2-1.8-0.8-2.8l0,0c0.6-1,1.8-1.2,2.8-0.8l5.6,3.2c1,0.6,1.2,1.8,0.8,2.8l0,0
		C29.5,28.3,28.3,28.7,27.3,28.1z"/>
</g>
<g id="icon_92" class="st0">
	<ellipse class="st18" cx="25.1" cy="30.1" rx="28" ry="28.4"/>
	<path class="st24" d="M7.2,12.8c0,0,5.5-4.5,10.6-2.4s7.3,7.3,4.7,13s-10.4,5.3-11.8,4.7C9.2,27.3-0.5,22.4,7.2,12.8z"/>
	<path class="st24" d="M4.5,32.8c0,0,8.3-7.5,15.8,2.2c4.9,6.5-2,13.2-3.5,13.6c-2,0.4-9.3,2-13-5.1C0.7,38.8,3.1,33.8,4.5,32.8z"/>
	<path class="st24" d="M30.1,26.5c0,0,15.4-0.2,16.3,0c1.2,0.2,3.2,1.8,2,5.7c-1.2,3.9-6.3,8.9-11.2,8.3c-5.1-0.6-10-6.5-9.8-11
		C27.5,27.3,28.7,26.5,30.1,26.5z"/>
	<path class="st24" d="M30.1,25c0,0,15.4,0.2,16.3,0c1-0.2,3.2-1.8,2-5.7c-1-3.7-6.3-8.9-11.2-8.3c-5.1,0.6-10,6.5-9.8,11
		C27.7,24.2,28.9,25,30.1,25z"/>
	<circle class="st24" cx="22.8" cy="7.1" r="2.2"/>
	<circle class="st24" cx="1.5" cy="27.5" r="2.2"/>
	<circle class="st24" cx="30.6" cy="47.2" r="2.2"/>
	<circle class="st24" cx="42.1" cy="43.1" r="2"/>
	<circle class="st24" cx="24.7" cy="52.9" r="2.2"/>
	<circle class="st18" cx="14.1" cy="17.9" r="3"/>
	<circle class="st18" cx="12.1" cy="38.4" r="3"/>
	<path class="st20" d="M34.2,25.4c0,0-0.6-6.9,3.5-7.5s4.5,4.1,4.5,7.3s0.6,7.1-1.6,8.5c-2.6,1.8-6.5,0.6-6.5-3.7
		C34.2,25.8,34.2,25.4,34.2,25.4z"/>
</g>
<g id="icon_93" class="st0">
	<g class="st1">
		<g>
			<circle id="SVGID_26_" class="st8" cx="25.1" cy="30.1" r="27.8"/>
		</g>
		<g>
			<g>
				<defs>
					<circle id="SVGID_29_" cx="25.1" cy="30.1" r="27.8"/>
				</defs>
				<clipPath id="SVGID_30_">
					<use xlink:href="#SVGID_29_"  style="overflow:visible;"/>
				</clipPath>
				<line class="st74" x1="42.9" y1="8" x2="6.5" y2="51.6"/>
			</g>
		</g>
	</g>
	<path class="st75" d="M15.1,38.5l1.5,6.2h17L35,39c0,0,5.7-4.6,5.8-9.5c0-5.8-2.2-11.9-8.4-15.2c-6.8-3.7-14.6-1.6-18.6,2.6
		C11.1,19.5,5.6,29.7,15.1,38.5z"/>
	<rect x="15.3" y="25.2" class="st24" width="3.3" height="6.9"/>
	<rect x="31.2" y="25.2" class="st24" width="3.3" height="6.9"/>
	<rect x="23.3" y="31.9" class="st24" width="3.3" height="3.3"/>
	<rect x="20.2" y="40.3" class="st24" width="3.1" height="4.9"/>
	<rect x="26.6" y="40.3" class="st24" width="3.1" height="4.9"/>
</g>
<g id="icon_94" class="st0">
	<path class="st18" d="M6.3,2.1h37.1c0,0,3.4-0.2,3.4,3.4c0,4.6,1.2,12.4,1.6,13.8s1.6,12.5,1.6,19.4s3.2,9.7,3.4,14
		c0.2,4.2,1.2,5.7-1.8,5.7c-3,0-53.4,0-53.4,0s-2.5-0.2-1.4-5.8c1.2-5.7,3-8.1,3.5-15.4c0.4-3.9-0.2-14.1,1.4-18.7
		C3.3,13.6,3.6,5.6,3.6,4.7C3.8,3.7,3.8,2.1,6.3,2.1z"/>
	<path class="st76" d="M25.9,7.6h-1.8c-0.9,0-1.6-0.7-1.6-1.6l0,0c0-0.9,0.7-1.6,1.6-1.6h1.8c0.9,0,1.6,0.7,1.6,1.6l0,0
		C27.5,6.9,26.8,7.6,25.9,7.6z"/>
	<rect x="23.6" y="46.8" class="st76" width="3.4" height="11.3"/>
	<path class="st77" d="M31.9,33.2L29.3,36v7.6c0,0,0.2,3.9-3.5,3.9c-3.4,0-4.6-1.8-4.6-3.2c0-1.4,0-8.8,0-8.8l-2.5-2.3"/>
</g>
<g id="icon_95" class="st0">
	<path class="st18" d="M11.5,2.8L24,2.5c0,0,2.8-0.6,2.2,3.7c-0.6,4.3-3.4,29.3-3.5,30.8c-0.2,1.5,0,7.1,4.5,8.6
		c4.5,1.5,16.4,6.7,15.1,9.3c-1.3,2.6-3.9,3.2-6.5,2.4c-2.8-0.6-13.1-4.1-21.5-1.5c-4.1,1.3-6.5-2.6-6.3-4.9
		c0.2-2.1,2.8-5.6,3.2-7.3c0.2-1.7,0.6-4.3-0.4-9C9.8,30.3,7.2,13.7,8.1,8.4C9.1,3.4,9.2,2.8,11.5,2.8z"/>
	<path class="st22" d="M18.2,9c0,0-5.2,4.7-4.5,14s3.9,9,3.7,18.3c-0.2,6.2-0.9,8.8-0.9,8.8"/>
	<path class="st22" d="M17.8,43.6c0,0,2.2,5.8,5,7.8"/>
	<path class="st22" d="M15.6,13.9c0,0,3.4,3.5,3.4,8s1.9,7.5,1.9,7.5"/>
	<path class="st22" d="M10,15.4c0,0,0.7,6.2,3.5,9"/>
	<path class="st78" d="M15.4,31c0,0-0.7,4.5-1.3,6.7"/>
	<path class="st79" d="M20.1,47.3c0,0,8.2,0.7,11.2,2.8"/>
	<path class="st78" d="M27,49.2c0,0-0.2,3.2,2.6,4.5"/>
	<path class="st78" d="M30.7,49.9c0,0,0.4,2.6,2.6,2.6"/>
</g>
<g id="icon_96" class="st0">
	<path class="st18" d="M6.1,2.2h37.2c0,0,3.6-0.4,2.5,3.3c-0.4,1-0.8,10.7,1.9,16.7C50.4,28,53,36.5,50,51.6
		c-1.1,5.7-1.5,6.1-4.6,6.3c-3.1,0-41.8,0-41.8,0s-2.3,0.6-3.1-3.1s-3.8-20.9,0-30.5c1.3-3.4,2.7-9.4,2.9-13.6S3.2,3.5,3.2,3.5
		S3.4,2.2,6.1,2.2z"/>
	<path class="st72" d="M20.5,32.4c0,0-0.8,19.3,4,19.3s4.4-19,4.4-19"/>
	<path class="st72" d="M36.6,39.9c0,0-2.1,5.7-7.9,5.2"/>
	<rect x="23.1" y="51" class="st24" width="2.7" height="6.9"/>
	<circle class="st17" cx="21.2" cy="45.1" r="3.3"/>
	<circle class="st17" cx="28.5" cy="39.5" r="4.4"/>
	<circle class="st80" cx="28.3" cy="39.7" r="2.3"/>
</g>
<g id="icon_97" class="st0">
	<path class="st18" d="M2.5,52.5L2.5,52.5c-6.3-6.3-6.1-16.3,0-22.6L25.3,7.3c6.3-6.3,16.3-6.1,22.6,0l0,0c6.3,6.3,6.1,16.3,0,22.6
		L25.1,52.5C18.8,58.8,8.6,58.6,2.5,52.5z"/>
	
		<rect x="22.4" y="13.9" transform="matrix(0.7098 -0.7044 0.7044 0.7098 -13.7613 26.3419)" class="st24" width="5.3" height="31.9"/>
	<path class="st81" d="M22.4,43.9c0,0,1,13.5,12.9,13.7c12,0.2,13.5-11,13.3-13.7c0,0,0.6-1.5-1.5-1.5c-1.9,0-6.5,1.3-8,3.4
		l-5.7,2.9l-2.1-3.8c0,0-3-2.3-7.4-2.5C24.1,42.2,22.4,41.8,22.4,43.9z"/>
	<path class="st40" d="M36.1,37.5c0,0,9.7,8.6,0.4,19.2c0,0-1,1-1.7,0.2S26,47,34.4,37.7C34.4,37.7,35.2,36.5,36.1,37.5z"/>
</g>
<g id="icon_98" class="st0">
	<circle class="st18" cx="24.9" cy="8.7" r="6.8"/>
	<path class="st18" d="M10,48.9l10-3.9L8.1,40.8c0,0-3.1-0.9-4.1,1.7c-1.1,3,1.5,4.4,1.8,4.6C6.5,47.5,10,48.9,10,48.9z"/>
	<path class="st18" d="M31,56.1l7.7-3.1c0,0,1.5,3.3-0.6,4.4C36.3,58.7,34.3,58.3,31,56.1z"/>
	<path class="st18" d="M44.8,46.9L14.9,58c-1.7,0.6-3.5-0.2-4.2-1.8v-0.2c-0.6-1.7,0.2-3.5,1.8-4.2l29.9-11.1
		c1.7-0.6,3.5,0.2,4.2,1.8v0.2C47.2,44.5,46.5,46.4,44.8,46.9z"/>
	<path class="st18" d="M17.9,27.7l0.2,12.7l7.2,3l7-3V27.5l3.9,7.4c0,0,1.1,2.4,2.8,2.4c1.7,0,12.4-0.2,12.4-0.2s2.6-0.2,2.4-3.5
		c0-3.5-3.3-3.3-3.3-3.3l-8.7,0.2L36,18.7c0,0-0.9-2.8-4.6-2.8s-12.9,0.2-12.9,0.2s-2.8,0-4.2,3.3C12.9,22.8,9,30.1,9,30.1h-10
		c0,0-2.2,0-2.4,3.3c-0.2,3.3,2.4,3.7,3.3,3.7c0.7,0,11.1-0.2,11.1-0.2s2.2,0,3.5-2.6C15.7,31.8,17.9,27.7,17.9,27.7z"/>
</g>
</svg>
