<?xml version="1.0" encoding="utf-8"?>
<!-- Generator: Adobe Illustrator 16.0.0, SVG Export Plug-In . SVG Version: 6.00 Build 0)  -->
<!DOCTYPE svg PUBLIC "-//W3C//DTD SVG 1.1//EN" "http://www.w3.org/Graphics/SVG/1.1/DTD/svg11.dtd">
<svg version="1.1" id="Layer_1" xmlns="http://www.w3.org/2000/svg" xmlns:xlink="http://www.w3.org/1999/xlink" x="0px" y="0px"
	 width="120px" height="47px" viewBox="0 0 120 47" enable-background="new 0 0 120 47" xml:space="preserve">
<g id="Layer_7">
	<path fill="#1B479E" d="M1.68,9.595h5.995v23.903H1.68V9.595z"/>
	<path fill="#1B479E" d="M40.871,1.328h5.995v32.17h-5.995V1.328z"/>
	<path fill="#1B479E" d="M4.658,1.328c1.656,0,3.017,1.361,3.017,3.016c0,1.656-1.361,2.979-3.017,2.979
		C3.042,7.323,1.681,6,1.681,4.344C1.681,2.689,3.042,1.328,4.658,1.328z"/>
	<path fill="#1B479E" d="M81.091,9.595h5.957v23.903h-5.957V9.595z"/>
	<path fill="#1B479E" d="M84.069,1.328c1.694,0,2.979,1.361,2.979,3.016c0,1.656-1.284,2.979-2.979,2.979
		c-1.618,0-2.979-1.323-2.979-2.979C81.091,2.689,82.451,1.328,84.069,1.328z"/>
	<path fill="#1B479E" d="M49.326,9.595h5.995v23.903h-5.995V9.595z"/>
	<path fill="#1B479E" d="M72.729,10.579c-1.366-0.634-2.94-0.983-4.543-0.983c-1.602,0-3.1,0.349-4.468,0.983V9.595h-5.994v10.462
		v13.44h5.994v-13.44c0-2.464,2.044-4.506,4.468-4.506c2.501,0,4.543,2.042,4.543,4.506v13.44h5.957v-13.44
		C78.687,15.883,76.271,12.281,72.729,10.579z"/>
	<path fill="#1B479E" d="M52.305,1.328c1.655,0,3.016,1.361,3.016,3.016c0,1.656-1.361,2.979-3.016,2.979
		c-1.617,0-2.979-1.323-2.979-2.979C49.326,2.689,50.688,1.328,52.305,1.328z"/>
	<polygon fill="#45C3F2" points="118.68,9.595 113.43,9.595 113.43,4.344 107.473,4.344 107.473,9.595 102.223,9.595 
		102.223,15.552 107.473,15.552 107.473,20.802 113.43,20.802 113.43,15.552 118.68,15.552 	"/>
	<path fill="#1B479E" d="M113.422,22.291h-5.949h-0.092c-0.353,2.964-2.868,5.25-5.941,5.25c-3.31,0-5.957-2.724-5.957-5.995
		c0-3.035,2.288-5.551,5.25-5.941V9.603c-6.276,0.396-11.206,5.595-11.206,11.944c0,6.584,5.291,11.952,11.913,11.952
		c2.175,0,4.228-0.575,6.033-1.602v13.005h5.957V22.291H113.422z"/>
	<g>
		<path fill="#1B479E" d="M33.963,23.836c-0.184,0.275-0.409,0.508-0.639,0.737c-1.931,1.933-4.453,2.968-7.142,2.968
			c-2.728,0-5.25-1.035-7.143-2.968c-1.931-1.892-2.967-4.452-2.967-7.142c0-2.689,1.036-5.249,2.967-7.142
			c1.893-1.893,4.415-2.967,7.143-2.967c2.689,0,5.211,1.074,7.142,2.967c0.23,0.23,0.456,0.463,0.639,0.738l4.557-3.933
			c-2.965-3.496-7.412-5.766-12.338-5.766c-8.904,0-16.104,7.238-16.104,16.104s7.2,16.066,16.104,16.066
			c4.926,0,9.374-2.194,12.338-5.729L33.963,23.836z"/>
	</g>
	<g>
		<path fill="#1B479E" d="M3.974,38.756H1.68v-0.931h5.662v0.931H5.044v6.146h-1.07V38.756z"/>
		<path fill="#1B479E" d="M13.452,41.489v3.412h-0.979V41.7c0-0.797-0.511-1.363-1.246-1.363c-0.801,0-1.442,0.568-1.442,1.256
			v3.309H8.764v-7.193h1.021v2.64c0.297-0.483,0.97-0.914,1.67-0.914C12.646,39.434,13.452,40.326,13.452,41.489z"/>
		<path fill="#1B479E" d="M19.152,43.535l0.631,0.677c-0.5,0.472-1.418,0.807-2.163,0.807c-1.484,0-2.74-1.149-2.74-2.837
			c0-1.597,1.194-2.748,2.674-2.748c1.608,0,2.529,1.249,2.529,3.177h-4.175c0.158,0.828,0.793,1.498,1.708,1.498
			C18.183,44.108,18.817,43.873,19.152,43.535z M15.913,41.807h3.195c-0.114-0.884-0.625-1.463-1.539-1.463
			C16.762,40.344,16.082,40.909,15.913,41.807z"/>
		<path fill="#1B479E" d="M31.494,37.824l-3.029,7.077h-1.184l-3.029-7.077h1.146l2.456,5.719l2.457-5.719H31.494z"/>
		<path fill="#1B479E" d="M32.64,38.06c0-0.335,0.241-0.583,0.625-0.583c0.3,0,0.583,0.248,0.583,0.583
			c0,0.339-0.283,0.663-0.583,0.663C32.881,38.723,32.64,38.398,32.64,38.06z M32.75,39.55h0.987v5.352H32.75V39.55z"/>
		<path fill="#1B479E" d="M38.525,39.434v0.903c-1.09,0-1.884,0.582-1.991,1.501v3.063h-0.987V39.55h0.987v1.025
			C36.876,39.885,37.611,39.434,38.525,39.434z"/>
		<path fill="#1B479E" d="M42.638,44.664c-0.286,0.231-0.683,0.354-1.076,0.354c-0.807,0-1.38-0.579-1.38-1.473v-3.099h-0.801V39.55
			h0.801v-1.4h0.979v1.4h1.256v0.897h-1.256v3.074c0,0.352,0.273,0.594,0.563,0.594c0.228,0,0.41-0.104,0.524-0.218L42.638,44.664z"
			/>
		<path fill="#1B479E" d="M48.59,39.55v5.352h-0.987v-0.79c-0.334,0.556-0.969,0.907-1.704,0.907c-1.152,0-1.998-0.894-1.998-2.056
			V39.55h1.018v3.202c0,0.797,0.473,1.362,1.208,1.362c0.742,0,1.373-0.465,1.476-1.132V39.55H48.59L48.59,39.55z"/>
		<path fill="#1B479E" d="M54.804,41.696v3.205h-1.018v-0.775c-0.397,0.565-1.097,0.894-1.77,0.894c-1.1,0-1.949-0.677-1.949-1.708
			c0-1.038,0.966-1.732,2.118-1.732c0.517,0,1.087,0.113,1.601,0.249v-0.132c0-0.679-0.293-1.372-1.37-1.372
			c-0.518,0-1.032,0.144-1.49,0.376l-0.352-0.708c0.749-0.355,1.429-0.559,2.005-0.559C54.007,39.434,54.804,40.344,54.804,41.696z
			 M53.786,43.204v-0.693c-0.41-0.121-0.917-0.221-1.435-0.221c-0.732,0-1.312,0.438-1.312,1.011s0.515,0.918,1.194,0.918
			C52.872,44.218,53.614,43.88,53.786,43.204z"/>
		<path fill="#1B479E" d="M56.522,37.708h1.021v7.193h-1.021V37.708z"/>
		<path fill="#1B479E" d="M68.411,37.824v7.077H67.38v-3.095h-3.874v3.095h-1.031v-7.077h1.031v2.975h3.874v-2.975H68.411z"/>
		<path fill="#1B479E" d="M69.896,42.186c0-1.493,1.267-2.753,2.84-2.753c1.494,0,2.757,1.26,2.757,2.753
			c0,1.57-1.263,2.833-2.757,2.833C71.162,45.019,69.896,43.756,69.896,42.186z M74.467,42.186c0-0.951-0.804-1.849-1.731-1.849
			c-1.011,0-1.814,0.897-1.814,1.849c0,1.108,0.803,1.929,1.814,1.929C73.663,44.115,74.467,43.294,74.467,42.186z"/>
		<path fill="#1B479E" d="M76.62,44.222l0.465-0.7c0.57,0.365,1.153,0.597,1.819,0.597c0.579,0,0.945-0.245,0.945-0.687
			c0-0.469-0.485-0.596-1.163-0.811c-1.245-0.341-1.828-0.686-1.828-1.584c-0.003-0.935,0.801-1.604,1.939-1.604
			c0.687,0,1.377,0.231,1.949,0.661l-0.455,0.708c-0.476-0.335-1.036-0.469-1.494-0.469c-0.556,0-0.922,0.228-0.922,0.589
			c0,0.442,0.339,0.561,1.17,0.805c0.901,0.314,1.821,0.563,1.821,1.601c0,1.021-0.817,1.691-1.965,1.691
			C78.107,45.019,77.214,44.697,76.62,44.222z"/>
		<path fill="#1B479E" d="M87.716,42.186c0,1.688-1.034,2.833-2.415,2.833c-0.883,0-1.483-0.435-1.926-1.035v2.65h-1.021V39.55
			h1.021v0.914c0.442-0.596,1.043-1.031,1.926-1.031C86.682,39.434,87.716,40.579,87.716,42.186z M86.688,42.186
			c0-1.055-0.687-1.849-1.697-1.849c-0.928,0-1.615,0.794-1.615,1.849c0,1.132,0.688,1.929,1.615,1.929
			C86.001,44.115,86.688,43.317,86.688,42.186z"/>
		<path fill="#1B479E" d="M89.089,38.06c0-0.335,0.242-0.583,0.588-0.583c0.338,0,0.658,0.248,0.658,0.583
			c0,0.339-0.32,0.663-0.658,0.663C89.331,38.723,89.089,38.398,89.089,38.06z M89.2,39.55h1.024v5.352H89.2V39.55z"/>
		<path fill="#1B479E" d="M94.8,44.664c-0.325,0.231-0.684,0.354-1.039,0.354c-0.808,0-1.456-0.579-1.456-1.473v-3.099h-0.8V39.55
			h0.8v-1.4h1.018v1.4h1.256v0.897h-1.256v3.074c0,0.352,0.234,0.594,0.563,0.594c0.228,0,0.449-0.104,0.563-0.218L94.8,44.664z"/>
		<path fill="#1B479E" d="M100.523,41.696v3.205h-0.941v-0.775c-0.435,0.565-1.136,0.894-1.809,0.894
			c-1.138,0-1.948-0.677-1.948-1.708c0-1.038,0.928-1.732,2.155-1.732c0.479,0,1.049,0.113,1.602,0.249v-0.132
			c0-0.679-0.331-1.372-1.371-1.372c-0.555,0-1.107,0.144-1.565,0.376l-0.353-0.708c0.787-0.355,1.467-0.559,2.044-0.559
			C99.727,39.434,100.523,40.344,100.523,41.696z M99.582,43.204v-0.693c-0.448-0.121-0.994-0.221-1.474-0.221
			c-0.693,0-1.35,0.438-1.35,1.011s0.552,0.918,1.231,0.918C98.668,44.218,99.37,43.88,99.582,43.204z"/>
		<path fill="#1B479E" d="M102.242,37.708h1.021v7.193h-1.021V37.708z"/>
	</g>
</g>
<g id="Layer_6">
</g>
</svg>
