<?xml version="1.0" encoding="utf-8"?>
<!-- Generator: Adobe Illustrator 16.0.0, SVG Export Plug-In . SVG Version: 6.00 Build 0)  -->
<!DOCTYPE svg PUBLIC "-//W3C//DTD SVG 1.1//EN" "http://www.w3.org/Graphics/SVG/1.1/DTD/svg11.dtd">
<svg version="1.1" id="Layer_1" xmlns="http://www.w3.org/2000/svg" xmlns:xlink="http://www.w3.org/1999/xlink" x="0px" y="0px"
	 width="236px" height="236px" viewBox="0 0 236 236" enable-background="new 0 0 236 236" xml:space="preserve">
<g id="Layer_7">
	<g>
		<polygon fill="#45C3F2" points="184,50.532 160.645,50.532 160.645,27.222 133.984,27.222 133.984,50.532 110.682,50.532 
			110.682,77.193 133.984,77.193 133.984,100.549 160.645,100.549 160.645,77.193 184,77.193 		"/>
		<path fill="#1B479E" d="M160.52,107.215h-26.536h-0.249c-1.54,13.169-12.83,23.354-26.413,23.354
			c-14.669,0-26.661-11.992-26.661-26.714c0-13.583,10.217-24.817,23.356-26.413V50.657C76.091,52.372,54,75.541,54,103.855
			c0,29.507,23.869,53.376,53.322,53.376c9.713,0,18.794-2.657,26.662-7.223v57.76h26.661V107.215H160.52z"/>
	</g>
</g>
</svg>
