<?xml version="1.0" encoding="utf-8"?>
<!-- Generator: Adobe Illustrator 23.0.1, SVG Export Plug-In . SVG Version: 6.00 Build 0)  -->
<svg version="1.1" id="Layer_1" xmlns="http://www.w3.org/2000/svg" xmlns:xlink="http://www.w3.org/1999/xlink" x="0px" y="0px"
	 viewBox="0 0 60 60" style="enable-background:new 0 0 60 60;" xml:space="preserve">
<style type="text/css">
	.st0{display:none;}
	.st1{display:inline;}
	.st2{fill:#FDD7AD;stroke:#ED6D63;stroke-linecap:round;stroke-miterlimit:10;}
	.st3{fill:#FDB8AD;}
	.st4{fill:none;stroke:#ED6D63;stroke-miterlimit:10;}
	.st5{fill:none;stroke:#ED6D63;stroke-linecap:round;stroke-miterlimit:10;}
	.st6{fill:none;stroke:#1341A3;stroke-miterlimit:10;}
	.st7{fill:#EF5361;}
	.st8{fill:#1341A3;}
	.st9{fill:#E4E8F1;}
	.st10{fill:#FDD7AD;stroke:#ED6D63;stroke-miterlimit:10;}
	.st11{fill:none;stroke:#1341A3;stroke-width:1.5;stroke-miterlimit:10;}
	.st12{fill:#65B54E;}
	.st13{fill:#477F37;}
	.st14{display:inline;fill:#ED6D63;}
	.st15{display:inline;fill:#FFD3DD;}
	
		.st16{clip-path:url(#SVGID_4_);fill:none;stroke:#E4E8F1;stroke-width:2;stroke-linecap:round;stroke-linejoin:round;stroke-miterlimit:10;}
	.st17{display:inline;fill:#EF5361;}
	.st18{display:inline;fill:#1341A3;}
	.st19{display:inline;fill:none;stroke:#1341A3;stroke-width:2;stroke-linecap:round;stroke-miterlimit:10;}
	.st20{display:inline;fill:none;stroke:#1341A3;stroke-width:1.5;stroke-miterlimit:10;}
	.st21{clip-path:url(#SVGID_7_);fill:#EF5361;}
	.st22{display:inline;fill:none;stroke:#E4E8F1;stroke-linecap:round;stroke-miterlimit:10;}
	
		.st23{clip-path:url(#SVGID_9_);fill:none;stroke:#E4E8F1;stroke-width:2;stroke-linecap:round;stroke-linejoin:round;stroke-miterlimit:10;}
	.st24{display:inline;fill:#E4E8F1;}
	.st25{clip-path:url(#SVGID_13_);fill:#0F367C;}
	.st26{clip-path:url(#SVGID_15_);fill:#5CA547;}
	.st27{display:inline;fill:#FDD7AD;stroke:#ED6D63;stroke-linecap:round;stroke-linejoin:round;stroke-miterlimit:10;}
	.st28{display:inline;fill:none;stroke:#ED6D63;stroke-linecap:round;stroke-miterlimit:10;}
	.st29{display:inline;fill:#FDD7AD;stroke:#FF736C;stroke-linecap:round;stroke-linejoin:round;stroke-miterlimit:10;}
	.st30{display:inline;fill:none;stroke:#FF736C;stroke-linecap:round;stroke-linejoin:round;stroke-miterlimit:10;}
	.st31{display:inline;fill:none;stroke:#FF736C;stroke-linecap:round;stroke-miterlimit:10;}
	.st32{display:inline;fill:none;stroke:#E4E8F1;stroke-width:1.5;stroke-linecap:round;stroke-miterlimit:10;}
	.st33{display:inline;fill:none;stroke:#1341A3;stroke-width:1.7;stroke-miterlimit:10;}
	.st34{display:inline;fill:#89D7F4;}
	.st35{fill:#ED6D63;}
	.st36{clip-path:url(#SVGID_18_);fill:#FDD7AD;}
	.st37{display:inline;fill:#3A3A3A;}
	.st38{display:inline;fill:none;stroke:#1341A3;stroke-miterlimit:10;}
	.st39{display:inline;fill:#C1434E;}
	.st40{display:inline;fill:#65B54E;}
	.st41{display:inline;fill:none;stroke:#559842;stroke-width:0.5;stroke-linecap:round;stroke-miterlimit:10;}
	.st42{fill:none;stroke:#E4E8F1;stroke-linecap:round;stroke-miterlimit:10;stroke-dasharray:2.0138,2.0138;}
	.st43{fill:#FDD7AD;stroke:#ED6D63;stroke-linecap:round;stroke-linejoin:round;stroke-miterlimit:10;}
	.st44{display:inline;fill:none;stroke:#EF5361;stroke-width:3;stroke-miterlimit:10;}
	.st45{display:inline;fill:none;stroke:#1341A3;stroke-width:3;stroke-miterlimit:10;}
	.st46{display:inline;fill:none;stroke:#E4E8F1;stroke-width:1.2;stroke-miterlimit:10;}
	.st47{display:inline;fill:none;stroke:#E4E8F1;stroke-width:1.2;stroke-linecap:round;stroke-miterlimit:10;}
	.st48{display:inline;fill:#1341A3;stroke:#E4E8F1;stroke-width:2;stroke-miterlimit:10;}
	.st49{display:inline;fill:none;stroke:#E4E8F1;stroke-width:2;stroke-linecap:round;stroke-miterlimit:10;}
	.st50{display:inline;fill:none;stroke:#1341A3;stroke-width:2.5;stroke-linecap:round;stroke-miterlimit:10;}
	.st51{fill:#FF9289;stroke:#ED6D63;stroke-width:1.2;stroke-miterlimit:10;}
	.st52{fill:none;stroke:#ED6D63;stroke-width:1.2;stroke-linecap:round;stroke-miterlimit:10;}
	.st53{fill:#FF9289;stroke:#ED6D63;stroke-miterlimit:10;}
	.st54{display:inline;fill:#FF9289;stroke:#ED6D63;stroke-width:2;stroke-miterlimit:10;}
	.st55{display:inline;fill:none;stroke:#ED6D63;stroke-width:2;stroke-linecap:round;stroke-miterlimit:10;}
	.st56{display:inline;fill:none;stroke:#E4E8F1;stroke-width:2;stroke-miterlimit:10;}
	.st57{display:inline;fill:none;stroke:#E4E8F1;stroke-width:2;stroke-linejoin:round;stroke-miterlimit:10;}
	.st58{display:inline;fill:none;stroke:#1341A3;stroke-width:2;stroke-miterlimit:10;}
	.st59{font-family:'Montserrat-Bold';}
	.st60{font-size:8.4097px;}
	.st61{font-size:6.761px;}
	.st62{font-size:5.5917px;}
	.st63{font-size:4.6914px;}
	.st64{display:inline;fill:none;stroke:#1341A3;stroke-width:1.5;stroke-linecap:round;stroke-miterlimit:10;}
	.st65{display:inline;clip-path:url(#SVGID_21_);fill:#EF5361;}
	.st66{display:inline;fill:none;stroke:#E4E8F1;stroke-width:2;stroke-linecap:round;stroke-linejoin:round;stroke-miterlimit:10;}
	.st67{clip-path:url(#SVGID_23_);fill:none;stroke:#E4E8F1;stroke-width:1.5;stroke-linecap:round;stroke-miterlimit:10;}
	
		.st68{display:inline;fill:none;stroke:#1341A3;stroke-width:1.5;stroke-linecap:round;stroke-linejoin:round;stroke-miterlimit:10;}
	.st69{display:inline;fill:none;stroke:#1341A3;stroke-width:4;stroke-miterlimit:10;}
	.st70{display:inline;fill:#1341A3;stroke:#89D7F4;stroke-width:2;stroke-miterlimit:10;}
	.st71{fill:#89D7F4;}
	.st72{clip-path:url(#SVGID_25_);fill:#1341A3;}
	.st73{clip-path:url(#SVGID_28_);fill:none;stroke:#E4E8F1;stroke-linecap:round;stroke-miterlimit:10;}
	
		.st74{display:inline;fill:none;stroke:#1341A3;stroke-width:2.5;stroke-linecap:round;stroke-linejoin:round;stroke-miterlimit:10;}
	.st75{clip-path:url(#SVGID_30_);fill:none;stroke:#E4E8F1;stroke-width:3;stroke-miterlimit:10;}
	.st76{display:inline;fill:#1341A3;stroke:#E4E8F1;stroke-width:2.5;stroke-miterlimit:10;}
	.st77{display:inline;fill:#E6EAF2;}
	.st78{display:inline;fill:none;stroke:#E6EAF2;stroke-width:1.5;stroke-linecap:round;stroke-miterlimit:10;}
	.st79{display:inline;fill:none;stroke:#E4E8F1;stroke-width:0.5;stroke-linecap:round;stroke-miterlimit:10;}
	.st80{display:inline;fill:none;stroke:#E4E8F1;stroke-width:0.8;stroke-linecap:round;stroke-miterlimit:10;}
	.st81{display:inline;fill:#D84B58;}
	.st82{display:inline;fill:#579B43;}
</style>
<g id="icon_1" class="st0">
	<g class="st1">
		<path class="st2" d="M21.7,23.3c0.4,0.1,0.8-0.2,0.8-0.6v-7.1c0,0,0-2.7,3.4-2.1c0.3,0.1,0.6-0.1,0.7-0.4c0.2-0.6,0.9-1.5,2.9-1.5
			c1.2,0,1.7,0.7,1.9,1.3c0.1,0.3,0.5,0.5,0.8,0.4c0.7-0.2,1.7-0.4,2.3,0.3c0.8,0.8,0.9,1.5,1,2.3c0,0.4,0.3,0.6,0.7,0.6
			c1.2-0.1,3.3-0.1,3.3,2.1v14c0,0,0,3.6-1.7,4.8c-0.2,0.1-0.3,0.3-0.3,0.6v10c0,0.4-0.3,0.7-0.7,0.7H26.1c-0.4,0-0.6-0.3-0.6-0.7
			v-9.8c0-0.3-0.2-0.5-0.5-0.6c-0.8-0.3-2.9-1.7-6.5-9l0,0c-0.1-0.1-2-4,0-5C19.7,23,20.9,23.1,21.7,23.3z"/>
		<path class="st3" d="M39,32.1c0,0-1,0-1-1c0-1,0-3-3-3s-3,2-3,2s0,1-1,2c-1,1-2,3-1,4s4,1,5,2s2,1,2,1v-1l0,0c1.3-1.3,2-3,2-4.8
			v-0.2V32.1z"/>
		<path class="st4" d="M31.5,13.6"/>
		<line class="st5" x1="31.5" y1="25.6" x2="31.5" y2="13.6"/>
		<line class="st5" x1="35.5" y1="26.6" x2="35.5" y2="16.6"/>
		<line class="st5" x1="26.5" y1="25.6" x2="26.5" y2="13.6"/>
		<line class="st5" x1="22.5" y1="28.6" x2="22.5" y2="16.6"/>
		<circle class="st3" cx="25" cy="31.1" r="0.5"/>
		<circle class="st3" cx="25.5" cy="29.6" r="0.5"/>
		<circle class="st3" cx="30.5" cy="28.6" r="0.5"/>
		<circle class="st3" cx="30" cy="31.1" r="1"/>
		<circle class="st3" cx="25.5" cy="34.6" r="1.5"/>
		<circle class="st3" cx="28.5" cy="34.6" r="0.5"/>
		<circle class="st3" cx="28.5" cy="37.6" r="0.5"/>
		<circle class="st3" cx="28.5" cy="40.6" r="0.5"/>
		<circle class="st3" cx="31.5" cy="41.6" r="0.5"/>
		<circle class="st3" cx="35" cy="40.1" r="1"/>
		<circle class="st3" cx="28" cy="44.1" r="2"/>
		<circle class="st3" cx="34.5" cy="45.6" r="0.5"/>
	</g>
</g>
<g id="icon_2" class="st0">
	<g class="st1">
		<path class="st6" d="M37.5,22.1c0,0-4.3,0.5-4.6,3.5s-0.3,7.2-0.3,7.2L30.4,33l0.3-6.7l0,0c0-0.2-0.2-3.7,2.8-5.6
			c1.7-1.1,4.4-1.1,4.4-1.1"/>
		<path class="st6" d="M22.1,19.6c0,0,3.6,0.9,5.3,2.9c1.3,1.5,1.2,3.5,1.2,5.8c0,1.6,0,3,0,4.7h-1.9v-6.3c0,0,0.2-2.3-2.2-3.7
			c-0.8-0.5-2.3-1-4.2-0.9"/>
		<path class="st7" d="M38.6,15.1c0,0,2.5-1,4.2,0.6c1.3,1.2,2.5,2.9,2.5,7.1s-3,5.4-3.6,5.7c-0.2,0.1-3.8,1.1-4.9-2.3
			c-0.5-1.5,0.2-4.6,0.2-4.6s0.1-0.9-0.3-2.1C36.1,18.2,36.4,16,38.6,15.1z"/>
		<path class="st7" d="M26.2,31.8h7c0,0,2.7,0.3,2.6,3.4S34,39.3,34,39.3s-1.8,1.4-2,3.3c-0.2,1.8-0.2,2.9-0.2,2.9h-4
			c0,0,0-2.3-0.1-2.9s-1-2.6-1.8-3.5c-0.4-0.4-2.1-2-1.9-4.5C24.1,32.9,26.2,31.8,26.2,31.8z"/>
		<path class="st7" d="M21.1,15.1c0,0-2.5-1-4.2,0.6c-1.4,1.2-2.5,2.9-2.5,7.1s3,5.4,3.6,5.7c0.1,0.1,3.8,1.1,4.9-2.3
			c0.5-1.5-0.1-4.6-0.1-4.6s-0.1-0.9,0.4-2.1C23.6,18.2,23.2,16,21.1,15.1z"/>
	</g>
</g>
<g id="icon_3" class="st0">
	<g class="st1">
		
			<rect x="19.6" y="24.5" transform="matrix(0.6787 -0.7344 0.7344 0.6787 -10.9005 32.1685)" class="st8" width="23.5" height="8.1"/>
		
			<rect x="21.2" y="36.2" transform="matrix(0.6787 -0.7344 0.7344 0.6787 -20.7623 28.7281)" class="st8" width="2.6" height="3.8"/>
		<path class="st8" d="M22.1,38.6L22.1,38.6c0.2,0.2,0.2,0.4,0,0.6L15.8,46c-0.1,0.2-0.4,0.2-0.6,0l0,0c-0.2-0.2-0.2-0.4,0-0.6
			l6.3-6.8C21.6,38.4,21.9,38.4,22.1,38.6z"/>
		<path class="st8" d="M43.6,23.7l-8.4-7.8c-0.3-0.2-0.3-0.6,0-0.9l0,0c0.2-0.3,0.7-0.3,0.9,0l8.4,7.7c0.3,0.2,0.3,0.6,0,0.9l0,0
			C44.2,23.9,43.8,23.9,43.6,23.7z"/>
		<path class="st8" d="M45,19.5l-5.8-5.4c-0.3-0.3-0.3-0.7,0-1l0,0c0.3-0.3,0.7-0.3,1,0l5.9,5.4c0.3,0.3,0.3,0.7,0,1l0,0
			C45.8,19.8,45.3,19.8,45,19.5z"/>
		<rect x="40.5" y="15.6" transform="matrix(0.6787 -0.7344 0.7344 0.6787 0.6709 36.1084)" class="st8" width="2.3" height="3.4"/>
		<path class="st9" d="M35.4,21.8l-1.8-1.7l0.7-0.7l1.8,1.7c0.2,0.2,0.2,0.5,0,0.7l0,0C35.9,22,35.6,22,35.4,21.8z"/>
		<path class="st9" d="M33.2,24.2l-1.9-1.7l0.6-0.7l1.8,1.7c0.2,0.2,0.2,0.5,0,0.7l0,0C33.7,24.4,33.4,24.4,33.2,24.2z"/>
		<path class="st9" d="M31,26.6l-1.9-1.7l0.6-0.7l1.9,1.7c0.2,0.2,0.2,0.5,0,0.7l0,0C31.5,26.8,31.2,26.8,31,26.6z"/>
		<path class="st9" d="M28.8,29l-1.9-1.7l0.6-0.7l1.9,1.7c0.2,0.2,0.2,0.5,0,0.7l0,0C29.3,29.2,29,29.2,28.8,29z"/>
		<path class="st9" d="M26.5,31.5l-1.9-1.7l0.6-0.7l1.9,1.7c0.2,0.2,0.2,0.5,0,0.7l0,0C27,31.6,26.7,31.6,26.5,31.5z"/>
		<path class="st9" d="M24.3,33.9l-1.9-1.7l0.6-0.7l1.9,1.7c0.2,0.2,0.2,0.5,0,0.7l0,0C24.8,34,24.5,34.1,24.3,33.9z"/>
	</g>
</g>
<g id="icon_4" class="st0">
	<g class="st1">
		<path class="st10" d="M25.1,14.5c0,0,1.3,0.1,2,0.1c1.1,0.1,7.9,0.8,8.3,8.5c0.4,7.2-3.3,9.4-4.4,10.9c-0.8,1-1.5,2-1,5
			c0.6,3.6-1.8,6.5-4.5,7s-8,0.3-8.8-5.5c-0.8-5.7-1.3-11.6-1.6-13.9c-0.4-3.2-0.1-8,3.6-10.4C21.7,14.2,24.6,14.5,25.1,14.5z"/>
		<path class="st4" d="M28.2,29.1c0,0,4.9-7.4-0.9-9.5c-4.4-1.6-6.6,0.6-7.6,3.1c-0.2,0.5-0.6,2-0.7,3.9c-0.2,2.5-0.1,5.9,1.3,8.6
			c2.5,4.9,5.1,2.1,5.1,2.1s2.4-2.9,0.6-7s-6.7-3.7-6.7-3.7"/>
		<line class="st11" x1="40.3" y1="22.4" x2="46.4" y2="19.1"/>
		<line class="st11" x1="42.3" y1="30.2" x2="50.3" y2="30.2"/>
		<line class="st11" x1="40.3" y1="37.3" x2="47" y2="41"/>
	</g>
</g>
<g id="icon_5" class="st0">
	<g class="st1">
		<path class="st8" d="M11.2,34.3l4.7,8.7L14,44.2c0,0-0.9,0.7-1.4-0.3c-0.5-0.9-3.9-7-3.9-7S8.2,36.3,9,35.7
			C9.8,35.2,11.2,34.3,11.2,34.3z"/>
		<path class="st8" d="M17.4,42.1l2.7-1.5l11.4,2.3c0,0,3.6,0.8,5.8,0s13-5.5,13-5.5s1.8-0.5,1.1-2.3c-0.7-1.7-2.5-1.1-2.5-1.1
			l-8.4,3.6c-0.1,0-0.2,0-0.2,0.1c-0.9,0.4-2.9,0.2-4.8,0c-2.1-0.1-7.2-0.4-7.2-0.4s-0.5,0-0.5-0.6c0.1-0.6,1.7-0.4,1.7-0.4l8.4,0.4
			c0,0,0.2,0,0.5-0.1c0.5-0.2,1.3-0.8,1.1-1.9c-0.2-1.6-1.2-2.1-2.7-2.1s-7.9-1.3-9.3-1.9c-1.3-0.5-3.6-1.7-5.9-1.4
			c-2.2,0.3-3.8,0.9-5.6,2c-1.9,1.1-3.4,2.1-3.4,2.1L17.4,42.1z"/>
		<path class="st8" d="M41,34.2v1.7l7.2-2.7c0,0-0.6-1-2.4-0.5C43.9,33.1,41,34.2,41,34.2z"/>
		<path class="st8" d="M40.5,33l4.5-1.3c0,0-0.7-0.6-2.9-0.2S39.6,32,39.6,32L40.5,33z"/>
		<path class="st12" d="M29.6,30.1c0,0,6.6,0.3,9.5-3.3S42.5,20,41.9,16c0,0-3.7-1.3-8.5,1c-2.4,1.2-6.1,3.9-5.8,11.4l3.8-2
			L29.6,30.1z"/>
		<path class="st12" d="M31.5,16.8c0,0-4.3,2.1-4.8,7.1c0,0-3-1.8-1.9-8.1C24.8,15.8,29.1,15.1,31.5,16.8z"/>
		<polygon class="st13" points="30.5,28.1 33.1,25.4 36.2,24.7 33.8,24.7 37.1,21 38.2,20.6 37.4,20.6 39.7,18.1 38.3,19.3 
			38.2,18.9 38,19.5 35,22.3 34.8,21 34.4,22.7 29.6,27.3 31.4,26.3 		"/>
	</g>
</g>
<g id="icon_6" class="st0">
	<path class="st14" d="M22,18.1c0,0,0.5,4.1,5.7,3.9c0,0,0.5-4.3,3.8-5.2c3.3-0.9,9,0.6,11.4,4.1c2.4,3.4,4.7,8.3-0.7,17.6
		c-4.1,7.2-15.8,8.8-18.1,5.3C23.6,43,23.7,42,23.7,42s-1.7,0.5-1.9,2.1c-0.2,1.5-0.6,1.6-0.9,1.6c-0.4,0-3.8,0-3.8,0
		s-0.8-0.4-0.6-1.5c0.2-1.2,1.4-6.9,6.8-7.3c3.1-0.3,3.9,0,4-3c0.1-2.6,0-6.4,0-6.4S22,28,19.4,24.8s-2.9-7.1-2.9-7.1s0-1,0.9-1
		s3.7,0,3.7,0s0.6,0.1,0.7,1L22,18.1z"/>
	<path class="st15" d="M32.2,32.1c0,0,3.5,0.6,5.7-0.3c2.1-1,2.9-1.7,3.8-1.4c0.9,0.4,1.3,1.4,0.9,3.6c-0.4,2.2-3.9,7-8.8,8.9
		s-7.5,0.9-8.5-1.4c-0.4-0.9,0.1-2.1,2.3-3.2c2.2-1.1,1.9-2.8,1.8-3.8S29.2,32.2,30,32C30.7,31.8,32.2,32.1,32.2,32.1z"/>
	<circle class="st14" cx="32.3" cy="35.4" r="0.9"/>
	<circle class="st14" cx="36.9" cy="36.3" r="0.4"/>
	<circle class="st14" cx="32.4" cy="38.5" r="0.4"/>
	<circle class="st14" cx="32.9" cy="41.2" r="0.3"/>
	<circle class="st14" cx="29.1" cy="40.9" r="0.5"/>
</g>
<g id="icon_7" class="st0">
	<g class="st1">
		<g>
			<g>
				<path id="SVGID_1_" class="st7" d="M30.6,18.9c0,0,4.1-3,8.2-2.8c4.1,0.2,7.4,2.1,8.7,5.5c1.4,3.4,0.7,8.1-4,14.2
					S30.6,48.9,30.6,48.9s-9.2-7.2-14.1-14.5s-4.2-11.8-2.2-14.3s5.2-4.3,8.3-4C25.7,16.4,27.6,17,30.6,18.9z"/>
			</g>
			<g>
				<g>
					<g>
						<g>
							<g>
								<g>
									<g>
										<g>
											<defs>
												<path id="SVGID_2_" d="M30.6,18.9c0,0,4.1-3,8.2-2.8c4.1,0.2,7.4,2.1,8.7,5.5c1.4,3.4,0.7,8.1-4,14.2
													S30.6,48.9,30.6,48.9s-9.2-7.2-14.1-14.5s-4.2-11.8-2.2-14.3s5.2-4.3,8.3-4C25.7,16.4,27.6,17,30.6,18.9z"/>
											</defs>
											<clipPath id="SVGID_4_">
												<use xlink:href="#SVGID_2_"  style="overflow:visible;"/>
											</clipPath>
											<polyline class="st16" points="15,33.4 21.4,33.4 24,31 27.7,36.3 32.9,27.1 37.4,33.5 46.1,33.4 											"/>
										</g>
									</g>
								</g>
							</g>
						</g>
					</g>
				</g>
			</g>
		</g>
	</g>
</g>
<g id="icon_8" class="st0">
	<path class="st17" d="M18,42v2.7c0,0-0.2,2.3,2.2,0.8c1.2-0.8,1.2-1.8,2.6-1.8s1-0.9,1.9-1.1c0.9-0.2,1-1.3,1-1.3s0.1-0.9,1.5-0.4
		c0.7,0.3,2-0.8,2.4-0.8c0.3-0.1,1.3-0.5,1.9,0c0.6,0.5,0,0.9,0.8,1.2c0.4,0.1,1.2-0.7,1.7-0.4s0.8,1.6,1.6,2.1s1.9,0.2,2.2,0.4
		s1.3,2.9,3.2,2.6c1.9-0.2,2-1.6,1.5-3.7c-0.5-2.1-8.6-8.5-8.6-8.5s-4-1.5-6.4,0.4C25,35.8,18,42,18,42z"/>
	<path class="st18" d="M36.8,17.7c0,0,5.5,3.8,6.8,11.5c0.9,5.4,0.9,8.9,0,11.9c-0.9,2.9-4,1.6-4.7,0.8S33.7,38,33.7,38
		s-3.1-2.4-2.6-6.4s1.8-11.8,1.8-11.8S33.4,15.7,36.8,17.7z"/>
	<path class="st18" d="M26.9,22l1.2-1.5c0,0,0.5-0.5,0.4-1.4s0-7,0-7s-0.1-0.5,0.8-0.5s1.6,0,1.6,0s0.3,0.2,0.3,0.6c0,0.5,0,7,0,7
		s0.2,1.9,1.8,2.3c1.6,0.5,2.1,2.7,2.1,2.7l-1,0.7l-1.5-0.3l-1.3-1.5c0,0-0.6-0.6-0.9-0.7s-0.8,0-1.3,0.4s-1.7,1.5-1.7,1.5l-0.7-1.6
		L26.9,22z"/>
	<path class="st18" d="M23.2,17.7c0,0-5.5,3.8-6.8,11.5c-0.9,5.4-0.9,8.9,0,11.9c0.9,3,4,1.6,4.7,0.8s5.2-3.9,5.2-3.9
		s3.1-2.4,2.6-6.4s-1.8-11.8-1.8-11.8S26.6,15.7,23.2,17.7z"/>
</g>
<g id="icon_9" class="st0">
	<path class="st14" d="M24.5,30.4c0,0,2.2-1.1,2.3-3.2c0.1-2.3-0.8-3.5-1.8-4.8s-2.4-5.9,0.6-7.9s6.1-1,7.2,0
		c0.6,0.6,2.5,3.3,1.3,6.5c-0.8,2.1-2.4,3.4-2.6,5s0.1,3.1,2.3,4.4l0.9,0.7H24.1L24.5,30.4z"/>
	<path class="st18" d="M39.4,34.1h-20c-1,0-1.9-0.8-1.9-1.9l0,0c0-1,0.8-1.9,1.9-1.9h20c1,0,1.9,0.8,1.9,1.9l0,0
		C41.2,33.3,40.4,34.1,39.4,34.1z"/>
	<path class="st18" d="M29.3,36.3L29.3,36.3c-0.8,0-1.5-0.7-1.5-1.5v-2.1c0-0.8,0.7-1.5,1.5-1.5l0,0c0.8,0,1.5,0.7,1.5,1.5v2.1
		C30.9,35.6,30.2,36.3,29.3,36.3z"/>
	<path class="st18" d="M25.6,33.7c0,0-2.6,3.6-1.2,7.3c1.4,3.8,4.2,4.2,4.9,4.2s5.5-0.6,5.5-6.8c0-2.3-1.6-4.9-1.6-4.9h2.6
		c0,0,1.4,1.2,2,3.4c0.5,1.8,1.1,5.1-1.9,8.9s-9.5,2.6-11.4,1.4c-2-1.4-4.4-3.9-4-8.6c0.3-3.4,2.6-5.5,2.6-5.5L25.6,33.7z"/>
</g>
<g id="icon_10" class="st0">
	<path class="st18" d="M25.6,49.4c0.1,0.9,0.9,0.7,1.3,0.7h9.4c0,0,0.7,0.3,0.7-1v-4.9c0-0.1,0-0.2,0-0.3c0.2-0.7,0.9-3.4,1.7-4.3
		c1.3-1.5,1.3-5.2,1.3-5.2l0.2-17.3c0,0-0.1-1.7-1.7-1.8c-1.6-0.1-1.7,1.5-1.7,1.5l-0.2,7.9c0,0-0.1,0.8-0.6,0.8
		c-0.6,0-0.7-0.6-0.6-1s0.1-11.3,0.1-11.3s-0.1-1.2-1.8-1.3s-1.6,1.7-1.6,1.7v10c0,0,0,0.8-0.6,0.7c-0.7,0-0.5-1.2-0.5-1.2V12
		c0,0-0.1-1.4-2-1.4s-1.8,2-1.8,2L27,23.9c0,0,0,0.5-0.5,0.5s-0.4-1-0.4-1v-9c0,0,0-1.6-1.7-1.5c-1.1,0-1.3,0.8-1.3,1.6v8
		c0,0.2,0,0.3,0.1,0.5l0.3,0.8c0,0.1,0.1,0.2,0.1,0.3l2.5,3.5c0,0,0.5,0.6,0.9,0.5s3.8,0.6,5,1.1c1,0.5,2,0.7,2,0.7s0.9,0.4,0.5,1.5
		c-0.2,0.6-1.7,0.3-1.7,0.3l-1.1-0.3v0.3l3.8,4.6c0,0,0.4,0.7-0.2,1.1c-0.6,0.4-1.1-0.2-1.1-0.2l-2.4-3.1c0,0-0.5-0.1-0.4,0.3
		c0.1,0.5,3.3,4.1,3.3,4.1s0.3,0.6-0.2,1c-0.2,0.2-0.8,0.3-1.2-0.1c-0.3-0.3-3.1-4-3.1-4s-0.5-0.2-0.4,0.3l2.8,3.6
		c0,0,0.4,0.7,0,1.1c-0.4,0.4-0.9,0.2-1.3-0.3c-0.4-0.4-3.1-3.9-3.1-3.9s-0.5-0.2-0.5,0.3l2.2,2.8c0,0,0.4,0.6-0.1,1s-1,0.3-1.5-0.3
		c-0.5-0.5-4.2-5.5-4.8-6.3c-0.1-0.1-0.1-0.2-0.1-0.2c-0.2-0.4-0.6-1.5-0.6-2.4c0-0.3-0.1-0.5-0.2-0.8l-3.3-4.4c0,0-1.1-1.2-2.6-0.3
		c-1.5,0.9-0.5,3-0.4,3.3s5.1,8,5.1,8s2,2.9,2.7,3.9c0.7,1.1,1.7,2.1,1.6,4.4c-0.1,1.7-0.1,2.9-0.1,3.5
		C25.6,48.8,25.6,49.4,25.6,49.4z"/>
</g>
<g id="icon_11" class="st0">
	<circle class="st18" cx="12.9" cy="33.4" r="3.3"/>
	<circle class="st18" cx="29.4" cy="16.4" r="3.4"/>
	<path class="st18" d="M26.1,18.7c0,0,1.3,2.3,3.6,2c2.2-0.3,3-1.8,3-1.8s1.2,0,1.6,0.5c0.4,0.4,0.7,0.5,1.1,1.8
		c0.4,1.3,1.5,4.8,1.5,4.8l4.3,1.7c0,0,0,0,0.1,0c0.3,0.1,2.1,1.1,2.2,1.2l-5.9,0.8l-2.5-0.9c0,0-0.6-0.2-1.1-1.6
		c-0.5-1.5-1.1-2.6-1.1-2.6l0.1,3.9l-6.5,0.1L24,26.1l-0.1-2.9l-1.3,2.9l3.1,2.9c0,0,1.2,0.9,0.5,2.2c-0.7,1.3-2.7,0.2-2.7,0.2
		l-4-3.7c0,0-0.7-0.8,0-2.4s1.9-4.4,1.9-4.4s1-2.1,2.8-2.2C25.9,18.6,26.1,18.7,26.1,18.7z"/>
	<path class="st18" d="M19.2,33.6L19,37.7l-1.7,4.6c0,0-0.9,2.2,0.9,2.4s2.1-0.9,2.3-1.5c0.2-0.6,1.5-4.6,1.5-4.6l0.2-2.6l0.6-2.5
		v3.6l6.6,0.1v6c0,0,0.1,1.6,1.8,1.6c2,0,10.8,0,10.8,0s1.3-0.3,1.1-1.8s-0.6-1.9-1.5-1.9s-8.3,0.1-8.3,0.1l0.1-6.4l17.6-2
		c0,0,1.9-0.4,1.5-2c-0.4-1.6-1.4-1.6-2.3-1.6c-0.9,0-17,2-17,2s0.1-1.5-1.2-1.6s-4.7,0-4.7,0s0.3,2.5-1.3,3.1
		c-1.6,0.6-2.6-0.1-3.6-1s-1.9-2-1.9-2h-2c0,0-1.5,0.4-1.6,1.6c-0.1,1.3,0,4.2,0,4.2s0.2,1.2,1.2,1.4L19.2,33.6z"/>
	<path class="st18" d="M23,38.2h2l1.2,3.4c0,0,0.7,2.5-0.7,3.1c-1.4,0.6-2.4-0.3-2.8-1.6s-0.4-1.9-0.4-1.9L23,38.2z"/>
	<polygon class="st18" points="34.2,35.8 37.2,35.8 35.4,40 34.2,40 	"/>
</g>
<g id="icon_12" class="st0">
	<path class="st19" d="M30.8,13.6c0,0-4,7.5-0.8,15.8s1.7,13.9-1.2,17.4"/>
	<path class="st19" d="M44.1,20.6c0,0-1.6,7.2-13.9,9.5c-8.9,1.6-10.7,4.4-13.9,8.7"/>
	<line class="st20" x1="30.9" y1="15" x2="43.3" y2="22.5"/>
	<line class="st20" x1="29.1" y1="18.8" x2="40.2" y2="25.4"/>
	<line class="st20" x1="28.8" y1="23.7" x2="35.8" y2="28.3"/>
	<line class="st20" x1="24.6" y1="32.2" x2="31.7" y2="36.3"/>
	<line class="st20" x1="20.2" y1="34.7" x2="31.4" y2="40.8"/>
	<line class="st20" x1="17.5" y1="37.7" x2="30" y2="45"/>
</g>
<g id="icon_13" class="st0">
	<g class="st1">
		<g>
			<path id="SVGID_3_" class="st8" d="M39.3,42.6L38.7,43c-3,2.1-7.1,1.4-9.3-1.5L19.1,26.9c-2.1-3-1.4-7.1,1.5-9.3l0.6-0.4
				c3-2.1,7.1-1.4,9.3,1.5l10.4,14.5C43,36.3,42.3,40.4,39.3,42.6z"/>
		</g>
		<g>
			<g>
				<g>
					<g>
						<g>
							<g>
								<g>
									<g>
										<defs>
											<path id="SVGID_6_" d="M31.6,45.5L31,45.1c-2.8-2.3-3.1-6.5-0.8-9.4l11.7-13.6c2.3-2.8,6.5-3.1,9.4-0.8l0.6,0.5
												c2.8,2.3,3.1,6.5,0.8,9.4L41.1,44.7C38.7,47.6,34.5,47.9,31.6,45.5z"/>
										</defs>
										<clipPath id="SVGID_7_">
											<use xlink:href="#SVGID_6_"  style="overflow:visible;"/>
										</clipPath>
										
											<rect x="20.5" y="29.5" transform="matrix(0.814 -0.5809 0.5809 0.814 -16.4937 26.7737)" class="st21" width="26.2" height="19.3"/>
									</g>
								</g>
							</g>
						</g>
					</g>
				</g>
			</g>
		</g>
	</g>
	<path class="st22" d="M21.8,21c0,0-2.2,1.2-0.4,3.9"/>
</g>
<g id="icon_14" class="st0">
	<path class="st17" d="M14,29.6h0.1h27.1l-7.7-4.3c0,0-1.9-0.9-3.4-0.3s-2.1,1.2-3,0.8C25.9,25.2,25,25,25,25s-1.7-0.4-2.9,0.2
		C20.8,25.8,14,29.6,14,29.6z"/>
	<path class="st18" d="M41.2,29.6L34.7,35c0,0-2.1,1.5-4,1.3c-1.9-0.2-1.7-0.7-2.6-1c-0.8-0.3-1.4-0.3-2.5,0.4
		c-0.6,0.4-1.2,0.8-2.5,0.6s-2.6-1.2-3.6-2.1c-1-0.9-5.4-4.6-5.4-4.6L41.2,29.6z"/>
	<path class="st18" d="M41.8,20.1c0,0,0.1,2-1.7,2.3c0,0,1.6,0.1,1.7,2.1c0,0,0.1-2.1,1.8-2.1C43.6,22.4,41.8,22.1,41.8,20.1z"/>
	<path class="st18" d="M38.8,14c0,0,0.1,1.5-1.3,1.7c0,0,1.2,0.1,1.3,1.6c0,0,0.1-1.5,1.4-1.5C40.2,15.7,38.9,15.5,38.8,14z"/>
	<path class="st18" d="M43.5,9c0,0,0.1,2.1-1.8,2.3c0,0,1.7,0.1,1.8,2.2c0,0,0.1-2.1,1.9-2.1C45.4,11.4,43.6,11.1,43.5,9z"/>
	<g id="icon_3_1_" class="st1">
		<g>
			
				<rect x="38.6" y="36.7" transform="matrix(0.7214 -0.6925 0.6925 0.7214 -17.8001 39.6303)" class="st8" width="3.6" height="10.5"/>
			
				<rect x="35.5" y="37.1" transform="matrix(0.7214 -0.6925 0.6925 0.7214 -15.9825 35.6396)" class="st8" width="1.7" height="1.2"/>
			<path class="st8" d="M36.2,37.5L36.2,37.5c-0.1,0.1-0.2,0.1-0.3,0l-2.8-3c-0.1-0.1-0.1-0.2,0-0.3l0,0c0.1-0.1,0.2-0.1,0.3,0
				l2.8,3C36.2,37.3,36.2,37.4,36.2,37.5z"/>
			<path class="st8" d="M42.2,47.5l3.7-3.5c0.1-0.1,0.3-0.1,0.4,0l0,0c0.1,0.1,0.1,0.3,0,0.4l-3.7,3.5c-0.1,0.1-0.3,0.1-0.4,0l0,0
				C42.1,47.8,42.1,47.6,42.2,47.5z"/>
			<path class="st8" d="M44,48.2l2.6-2.5c0.1-0.1,0.3-0.1,0.4,0l0,0c0.1,0.1,0.1,0.3,0,0.4l-2.6,2.5c-0.1,0.1-0.3,0.1-0.4,0l0,0
				C43.9,48.6,43.9,48.4,44,48.2z"/>
			<rect x="44.3" y="46.3" transform="matrix(0.7214 -0.6925 0.6925 0.7214 -19.864 44.1991)" class="st8" width="1.5" height="1"/>
			<path class="st9" d="M43.2,43.9l0.8-0.8l0.3,0.3l-0.8,0.8c-0.1,0.1-0.2,0.1-0.3,0l0,0C43.1,44.1,43.1,44,43.2,43.9z"/>
			<path class="st9" d="M42.2,42.8l0.8-0.7l0.3,0.3l-0.8,0.8c-0.1,0.1-0.2,0.1-0.3,0l0,0C42.1,43.1,42.1,42.9,42.2,42.8z"/>
			<path class="st9" d="M41.2,41.8L42,41l0.3,0.3l-0.8,0.8c-0.1,0.1-0.2,0.1-0.3,0l0,0C41.1,42,41.1,41.9,41.2,41.8z"/>
			<path class="st9" d="M40.2,40.8L41,40l0.3,0.3l-0.8,0.8c-0.1,0.1-0.2,0.1-0.3,0l0,0C40.1,41,40.1,40.8,40.2,40.8z"/>
			<path class="st9" d="M39.2,39.7l0.8-0.8l0.3,0.3L39.5,40c-0.1,0.1-0.2,0.1-0.3,0l0,0C39.1,39.9,39.1,39.8,39.2,39.7z"/>
			<path class="st9" d="M38.2,38.6l0.8-0.8l0.3,0.3l-0.8,0.8c-0.1,0.1-0.2,0.1-0.3,0l0,0C38.1,38.9,38.1,38.7,38.2,38.6z"/>
		</g>
	</g>
</g>
<g id="icon_15_1_" class="st0">
	<g class="st1">
		<g>
			<g>
				<path id="SVGID_5_" class="st7" d="M26.6,23.2c0,0,3.1-2.3,6.2-2.1c3.1,0.2,5.6,1.6,6.6,4.1s0.5,6.2-3,10.8
					c-3.6,4.6-9.8,9.9-9.8,9.9s-7-5.4-10.7-11s-3.2-9-1.7-10.9s3.9-3.3,6.3-3C22.9,21.3,24.3,21.8,26.6,23.2z"/>
			</g>
			<g>
				<g>
					<g>
						<g>
							<g>
								<g>
									<g>
										<g>
											<defs>
												<path id="SVGID_8_" d="M26.6,23.2c0,0,3.1-2.3,6.2-2.1c3.1,0.2,5.6,1.6,6.6,4.1s0.5,6.2-3,10.8
													c-3.6,4.6-9.8,9.9-9.8,9.9s-7-5.4-10.7-11s-3.2-9-1.7-10.9s3.9-3.3,6.3-3C22.9,21.3,24.3,21.8,26.6,23.2z"/>
											</defs>
											<clipPath id="SVGID_9_">
												<use xlink:href="#SVGID_8_"  style="overflow:visible;"/>
											</clipPath>
											<polyline class="st23" points="14.8,34.2 19.6,34.2 21.6,32.3 24.4,36.4 28.3,29.4 31.7,34.2 38.3,34.2 											"/>
										</g>
									</g>
								</g>
							</g>
						</g>
					</g>
				</g>
			</g>
		</g>
	</g>
	<path class="st18" d="M37.9,12l-8.1,14c-0.4,0.7,0.1,1.6,0.9,1.6H47c0.8,0,1.4-0.9,0.9-1.6l-8.1-14C39.4,11.3,38.4,11.3,37.9,12z"
		/>
	<path class="st24" d="M38.9,22.8L38.9,22.8c-0.3,0-0.6-0.3-0.6-0.6v-5.7c0-0.3,0.3-0.6,0.6-0.6l0,0c0.3,0,0.6,0.3,0.6,0.6v5.7
		C39.5,22.5,39.3,22.8,38.9,22.8z"/>
	<path class="st24" d="M38.9,25.7L38.9,25.7c-0.3,0-0.6-0.3-0.6-0.6v-0.3c0-0.3,0.3-0.6,0.6-0.6l0,0c0.3,0,0.6,0.3,0.6,0.6v0.3
		C39.5,25.4,39.3,25.7,38.9,25.7z"/>
</g>
<g id="icon_16" class="st0">
	<path class="st24" d="M35.1,17c0,0,4.1-0.9,6,0c2.3,1.1,4.1,3.9,2.8,8.7s-2.3,8.8-2.6,12.9c-0.4,4.1-3.3,6.8-5.2,7.1
		c-1.9,0.4-3.3-1.6-2.9-3.1c0.4-1.5,0.9-5.9,0.8-7c-0.2-2.1-1.2-3.8-2.9-3.8c-1.7,0-2.5,0.9-2.9,1.9c-0.4,1.1-1.1,5.2-0.6,7.1
		c0.4,1.9,0.2,4.7-1.6,4.8s-5.2-1.8-6.5-9.8s-2-9.8-2.3-10.9c-1-3.7,0-8.4,4.1-8.7c4.1-0.3,7.4,1.5,8.8,1.6
		C31.4,18.1,33.6,17.3,35.1,17z"/>
	<path class="st17" d="M27.7,21c0,0,2.4,1.3,3.4,0.9c1-0.5,3.2-1.7,5.8-0.4c2.6,1.3,2.6,2.8,2.6,2.8s0.8,2.8-0.6,5.1s-1,6.9-1,6.9
		s0.1,1.6-0.7,1.6c-0.7,0-1.2-1.5-1.2-1.8s-0.8-6-4.6-6.7s-4.5,2.9-5,4.2c-0.3,0.9-0.6,3.6-0.6,3.6s-0.2,1.3-0.9,1.2
		c-0.7-0.1-0.9-1.5-0.9-4.7s-1-3.6-1.5-5.5S22.1,23,24,21.6C25.8,20.2,27.7,21,27.7,21z"/>
	<path class="st18" d="M16.2,11.3c0,0,0.1,2.1-1.8,2.3c0,0,1.7,0.1,1.8,2.2c0,0,0.1-2.1,1.9-2.1C18.1,13.6,16.3,13.4,16.2,11.3z"/>
	<path class="st18" d="M46.5,38.2c0,0,0.1,2.1-1.8,2.4c0,0,1.7,0.1,1.8,2.2c0,0,0.1-2.2,1.9-2.2C48.4,40.6,46.6,40.3,46.5,38.2z"/>
	<path class="st18" d="M48.4,11c0,0,0,1.1-0.9,1.3c0,0,0.9,0,0.9,1.2c0,0,0.1-1.2,1-1.2C49.4,12.3,48.4,12.1,48.4,11z"/>
</g>
<g id="icon_17" class="st0">
	<path class="st18" d="M29.5,14.8c0,0,5.2-0.8,8.3,1.3c3.1,2,5.1,4.2,5.6,7.4s-0.2,7.1-1.7,9.5s-2.4,3.9-2.6,4.3
		c-0.1,0.4-0.8,2.3-0.3,4.9s0.8,3,0.8,3l-14.3,0.3v-3c0,0-4.5,0.1-5.6-0.8c-1.1-0.9-1.1-1.9-0.8-2.5c0.2-0.6,0-0.7,0-0.8
		c0,0-0.6-0.3-0.6-0.9c0-0.4,0.4-0.5,0.4-0.5s-0.1-0.2-0.2-0.2c-0.1-0.1-0.6-0.2-0.6-0.7s0.3-2.6,0.3-2.6s-1.6-0.2-1.8-1.2
		c-0.1-1,0.7-2.2,1.1-2.7s2.1-2.5,2.1-2.5s-0.6-5,1.1-7.3S24.1,15.4,29.5,14.8z"/>
	<circle class="st24" cx="26.2" cy="29.4" r="1.1"/>
	<circle class="st24" cx="29.5" cy="30.8" r="0.6"/>
	<circle class="st24" cx="28.2" cy="33.3" r="0.7"/>
	<circle class="st24" cx="26.8" cy="35.8" r="1"/>
	<circle class="st24" cx="24" cy="33.3" r="0.6"/>
	<circle class="st24" cx="23.8" cy="30.7" r="0.6"/>
</g>
<g id="icon_18" class="st0">
	<path class="st18" d="M36.8,37.3H21.7c-1.1,0-2-0.9-2-2V15.7c0-1.1,0.9-2,2-2h15.1c1.1,0,2,0.9,2,2v19.6
		C38.8,36.4,37.9,37.3,36.8,37.3z"/>
	<path class="st24" d="M34.1,27.2h-9.6c-1.1,0-2-0.9-2-2v-6.9c0-1.1,0.9-2,2-2h9.6c1.1,0,2,0.9,2,2v6.9
		C36.1,26.4,35.2,27.2,34.1,27.2z"/>
	<path class="st24" d="M30.2,33.8h-2c-1,0-1.8-0.8-1.8-1.8l0,0c0-1,0.8-1.8,1.8-1.8h2c1,0,1.8,0.8,1.8,1.8l0,0
		C31.9,32.9,31.1,33.8,30.2,33.8z"/>
	<path class="st18" d="M29.6,41.9h-0.8c-1.1,0-2-0.9-2-2v-3.3c0-1.1,0.9-2,2-2h0.8c1.1,0,2,0.9,2,2v3.3
		C31.6,40.9,30.7,41.9,29.6,41.9z"/>
	<path class="st18" d="M29.2,46.5L29.2,46.5c-0.3,0-0.5-0.2-0.5-0.5v-4.7c0-0.3,0.2-0.5,0.5-0.5l0,0c0.3,0,0.5,0.2,0.5,0.5V46
		C29.7,46.4,29.5,46.5,29.2,46.5z"/>
	<path class="st17" d="M36.8,20c0,0,1.9,1.4,2.9,3.1c0.8,1.5,1.1,4.5-1.9,5.2c-2.7,0.7-4.3-1.8-4.3-3C33.6,24.6,33.8,22.1,36.8,20z"
		/>
	<path class="st22" d="M38.3,23.4c0,0,1.6,2.3,0.3,3.6"/>
</g>
<g id="icon_19" class="st0">
	<g class="st1">
		<g>
			<path id="SVGID_10_" class="st8" d="M34.8,44H17.6c-1.1,0-2-0.9-2-2V20.9c0-1.1,0.9-2,2-2h17.2c1.1,0,2,0.9,2,2V42
				C36.8,43.1,35.9,44,34.8,44z"/>
		</g>
		<g>
			<g>
				<g>
					<g>
						<g>
							<g>
								<defs>
									<path id="SVGID_11_" d="M34.8,44H17.6c-1.1,0-2-0.9-2-2V20.9c0-1.1,0.9-2,2-2h17.2c1.1,0,2,0.9,2,2V42
										C36.8,43.1,35.9,44,34.8,44z"/>
								</defs>
								<clipPath id="SVGID_13_">
									<use xlink:href="#SVGID_11_"  style="overflow:visible;"/>
								</clipPath>
								<path class="st25" d="M30.7,22.5h-8.9c-1,0-1.8-0.8-1.8-1.8v-1.3c0-1,0.8-1.8,1.8-1.8h8.9c1,0,1.8,0.8,1.8,1.8v1.3
									C32.4,21.7,31.7,22.5,30.7,22.5z"/>
							</g>
						</g>
					</g>
				</g>
			</g>
		</g>
	</g>
	<path class="st18" d="M26.6,20.8L26,21c-1.1,0-1.7,0.9-1.7-0.2v-3.3c0-1.1,0.9-2,2-2l0,0c1.1,0,2,0.9,2,2v3.3
		C28.2,21.9,27.6,20.8,26.6,20.8z"/>
	<path class="st24" d="M32.4,41.6H20.1c-1.1,0-2-0.9-2-2V23.9c0-1.1,0.9-2,2-2h12.4c1.1,0,2,0.9,2,2v15.7
		C34.4,40.7,33.5,41.6,32.4,41.6z"/>
	<path class="st18" d="M30.3,21.5h-8.2c-1,0-1.8-0.8-1.8-1.8v-0.5c0-1,0.8-1.8,1.8-1.8h8.2c1,0,1.8,0.8,1.8,1.8v0.5
		C32.1,20.7,31.3,21.5,30.3,21.5z"/>
	<path class="st24" d="M29.3,20.8h-6c-0.3,0-0.6-0.3-0.6-0.6l0,0c0-0.3,0.3-0.6,0.6-0.6h6c0.3,0,0.6,0.3,0.6,0.6l0,0
		C29.9,20.5,29.6,20.8,29.3,20.8z"/>
	<path class="st24" d="M26.4,17.8H26c-0.2,0-0.4-0.2-0.4-0.4l0,0c0-0.2,0.2-0.4,0.4-0.4h0.4c0.2,0,0.4,0.2,0.4,0.4l0,0
		C26.9,17.6,26.7,17.8,26.4,17.8z"/>
	<path class="st18" d="M30.8,27.2h-8.5c-0.3,0-0.6-0.3-0.6-0.6l0,0c0-0.3,0.3-0.6,0.6-0.6h8.5c0.3,0,0.6,0.3,0.6,0.6l0,0
		C31.4,27,31.1,27.2,30.8,27.2z"/>
	<path class="st18" d="M30.8,30.6h-8.5c-0.3,0-0.6-0.3-0.6-0.6l0,0c0-0.3,0.3-0.6,0.6-0.6h8.5c0.3,0,0.6,0.3,0.6,0.6l0,0
		C31.4,30.3,31.1,30.6,30.8,30.6z"/>
	<path class="st18" d="M30.8,34h-8.5c-0.3,0-0.6-0.3-0.6-0.6l0,0c0-0.3,0.3-0.6,0.6-0.6h8.5c0.3,0,0.6,0.3,0.6,0.6l0,0
		C31.4,33.7,31.1,34,30.8,34z"/>
	<path class="st17" d="M37.9,34c0,0,1.7-0.8,3.3-0.5s3.5,1.7,3.2,5.9s-3,5.1-3.7,5.3c-0.7,0.1-1.9,0-2.7-0.3c-0.1,0-0.7,0.1-1,0.2
		c-0.2,0.1-2.1,0.6-3.7-1.4c-1.6-2-2.3-4.1-1.8-6.4s2.5-3.6,4.3-3.3C36.6,33.5,37.7,34,37.9,34z"/>
	<g class="st1">
		<g>
			<path id="SVGID_12_" class="st12" d="M43.2,28.4c0,0,0.1,2.3-0.9,3.3c-1.5,1.4-3.7,1-3.8,1c0,0-0.4-2.4,1.2-3.5
				C41.1,28.3,43.2,28.4,43.2,28.4z"/>
		</g>
		<g>
			<g>
				<g>
					<g>
						<g>
							<g>
								<defs>
									<path id="SVGID_14_" d="M43.2,28.4c0,0,0.1,2.3-0.9,3.3c-1.5,1.4-3.7,1-3.8,1c0,0-0.4-2.4,1.2-3.5
										C41.1,28.3,43.2,28.4,43.2,28.4z"/>
								</defs>
								<clipPath id="SVGID_15_">
									<use xlink:href="#SVGID_14_"  style="overflow:visible;"/>
								</clipPath>
								<polygon class="st26" points="44,27.8 38.1,32.9 40.1,33.7 44.9,30.5 								"/>
							</g>
						</g>
					</g>
				</g>
			</g>
		</g>
	</g>
</g>
<g id="icon_20" class="st0">
	<path class="st18" d="M29.8,14.3c0,0,6.5-0.4,8.1,5.3c0.2,0.7,0.1,3.8-0.4,5.2c0,0,0,0.3,0.5,0.2c0.5-0.1,1.4,0.1,0.8,1.9
		c-0.6,1.8-1.5,2.8-1.5,2.8s-0.7,0.1-0.7-0.2s-0.2,0.2-0.6,1.1c-0.4,0.9-0.8,2.5-2.2,3.9v1.9c0,0,0.1,1.7,2.1,2.6
		c2,0.9,3.4,1.4,4.4,1.4c1.1,0,6.4,2,7.3,4.1c0.4,0.8,0.6,1.4-0.7,1.5c-1.2,0-34.2,0-34.2,0s-1.1-0.1-0.1-1.4s2-3.4,7.3-4.2
		c0.6-0.1,5.9-1.3,6.2-3.1c0.3-1.7,0.1-2.6,0.1-2.6s-1.6-1.7-2.6-5.1c0,0-0.2-0.1-0.3,0.1c-0.1,0.2-0.9,0.2-1.5-1.1
		c-0.6-1.2-1.1-2.6-0.6-3.3c0.6-0.6,1.1-0.2,1.1-0.2s0.1,0,0.1-0.2s-0.9-4.4-0.3-5.9C22.6,17.3,24.2,14.7,29.8,14.3z"/>
	<path class="st17" d="M29.5,37.2c0,0,0.5-0.6,1.1-0.1c0,0,0.6-2.2,1.4-2.6c0.4-0.2,0.4,0.2,0.4,0.7s0.7,1.6,0.7,2.4
		c0,0.8-0.1,1.9-1.4,1.9c-0.6,0-1-0.3-1.1-0.5s-0.6-0.2-0.9,0c-0.4,0.2-1,1.1-2,0.2c-1-0.9-0.2-3.4-0.1-3.5c0-0.1,0.2-0.4,0.2-1.2
		c0-0.3,0.4-0.2,1,0.5C29.3,35.6,29.5,36.5,29.5,37.2z"/>
</g>
<g id="icon_21" class="st0">
	<path class="st24" d="M34.5,19.9c0,0,4.1-0.9,6,0c2.3,1.1,4.1,3.9,2.8,8.7s-2.3,8.8-2.6,12.9c-0.4,4.1-3.3,6.8-5.2,7.1
		c-1.9,0.4-3.3-1.6-2.9-3.1c0.4-1.5,0.9-5.9,0.8-7c-0.2-2.1-1.2-3.8-2.9-3.8c-1.7,0-2.5,0.9-2.9,1.9c-0.4,1.1-1.1,5.2-0.6,7.1
		c0.4,1.9,0.2,4.7-1.6,4.8s-5.2-1.8-6.5-9.8s-2-9.8-2.3-10.9c-1-3.7,0-8.4,4.1-8.7s7.4,1.5,8.8,1.6C30.8,21,33,20.2,34.5,19.9z"/>
	<path class="st17" d="M27.1,23.9c0,0,2.4,1.3,3.4,0.9c1-0.5,3.2-1.7,5.8-0.4c2.6,1.3,2.6,2.8,2.6,2.8s0.8,2.8-0.6,5.1s-1,6.9-1,6.9
		s0.1,1.6-0.7,1.6c-0.7,0-1.2-1.5-1.2-1.8s-0.8-6-4.6-6.7c-3.8-0.7-4.5,2.9-5,4.2c-0.3,0.9-0.6,3.6-0.6,3.6s-0.2,1.3-0.9,1.2
		c-0.7-0.1-0.9-1.5-0.9-4.7s-1-3.6-1.5-5.5s-0.4-5.2,1.5-6.6C25.2,23.1,27.1,23.9,27.1,23.9z"/>
	<path class="st18" d="M35.7,34.1L35.7,34.1c-0.3,0.1-0.7,0-0.8-0.3l-10-21.5c-0.1-0.3,0-0.7,0.3-0.8l0,0c0.3-0.1,0.7,0,0.8,0.3
		l10,21.5C36.1,33.6,36,34,35.7,34.1z"/>
	<path class="st24" d="M34,25.7l-3.7,1.7c-0.2,0.1-0.5,0-0.5-0.2l0,0c-0.1-0.2,0-0.5,0.2-0.5l3.7-1.7c0.2-0.1,0.5,0,0.5,0.2l0,0
		C34.3,25.4,34.2,25.6,34,25.7z"/>
	<path class="st24" d="M35.1,28l-3.7,1.7c-0.2,0.1-0.5,0-0.5-0.2l0,0c-0.1-0.2,0-0.5,0.2-0.5l3.7-1.7c0.2-0.1,0.5,0,0.5,0.2l0,0
		C35.4,27.7,35.3,27.9,35.1,28z"/>
	<path class="st24" d="M36.1,30.3L32.4,32c-0.2,0.1-0.5,0-0.5-0.2l0,0c-0.1-0.2,0-0.5,0.2-0.5l3.7-1.7c0.2-0.1,0.5,0,0.5,0.2l0,0
		C36.4,30,36.3,30.2,36.1,30.3z"/>
</g>
<g id="icon_22_1_" class="st0">
	<circle class="st18" cx="29.8" cy="22.4" r="6.3"/>
	<path class="st18" d="M17.4,44.1h25.1c0,0,1.5-11.3-4.9-13.4s-13.2-0.8-15-0.2s-4.1,1-4.9,7.5C17.4,42.1,17.4,44.1,17.4,44.1z"/>
	<path class="st24" d="M25.5,37.4v-0.7c0-0.8,0.7-1.5,1.5-1.5h6.2c0.8,0,1.5,0.7,1.5,1.5v0.7c0,0.8-0.7,1.5-1.5,1.5H27
		C26.2,38.9,25.5,38.2,25.5,37.4z"/>
	<path class="st24" d="M29.8,32.4h0.7c0.8,0,1.5,0.7,1.5,1.5v6.2c0,0.8-0.7,1.5-1.5,1.5h-0.7c-0.8,0-1.5-0.7-1.5-1.5v-6.2
		C28.3,33.1,29,32.4,29.8,32.4z"/>
</g>
<g id="icon_23" class="st0">
	<path class="st27" d="M36,14.7c-7.6,1.4-5.4,7-5.4,8.7S30.1,25.1,30,26s1,1.2,1,1.2s-0.4,2.2-3.6,0.2s-8.2,0.5-8.9,0.5
		s0.6-2.6,0.6-2.6c-0.6-0.8-1.8-0.2-2.9,1.4c-1.3,1.9-1.1,4.2-0.9,4.3c0.2,0.1,3.8-0.1,5.5-0.5s2.5-0.5,2.2-0.1s-1.1,1.9-1.5,2.1
		c-0.5,0.2-8.5,9.1-1,12s12.8-0.7,14.8-2.3c2.2-1.8,5.9-4.4,7.2-6.5s0.4-5.3,0.2-6.4s1.6-3.9,2-6.4C45.1,20.4,43.6,13.3,36,14.7z"/>
	<path class="st28" d="M27,33.2c0,0,0.6,3.4-1.5,5"/>
	<path class="st28" d="M22.3,31.8c0,0,1.6-2.2,1.8-3.1"/>
	<path class="st28" d="M27,27.5c0,0-2.2,5.3,1.1,6.5s8.6,0.6,8.6,0.6"/>
	<path class="st28" d="M30.8,28c0,0,0.9,0.4,1.3,1.7"/>
	<path class="st28" d="M29.9,30.6c0,0,6.1-2.3,11-0.6"/>
	<path class="st28" d="M38.2,21.1c0,0,2.3-0.1,2,1.9s-1.3,3.5-3.4,1.9"/>
</g>
<g id="icon_24" class="st0">
	<path class="st29" d="M26.1,30.5c0,0-0.1-6.4-0.6-7.4c0,0,0.8-0.1,1-0.8c0,0,1.4,1.5,1.8,1.4s4.2-3.3,4.1-4.1s-1.6-3.4-2.5-3.6
		c-0.8-0.2-0.8-0.8-2.6,0c-1.8,0.8-5.3,2.1-5.3,2.1s-1.8,0.7-2.3,2.6s-3.9,14.7-3.9,14.7s-0.5,3.2,1.9,3.4c0,0,5.2,7.5,17.9,4.3
		c0,0,6.9,2.2,7.9,1.1c1.1-1.1,0.6-2.7,0.6-2.7l0.1-10.2c0,0-0.1-2.1-2-2.5c-1.9-0.5-5.8-0.9-7.8,1.5C34.3,30.3,29.1,28.1,26.1,30.5
		z"/>
	<path class="st30" d="M24,23.1c0,0,2.1,0.2,2.7-1.6"/>
	<path class="st30" d="M36.2,33.5c0,0-1.2-3.2-3.4-3.7"/>
	<path class="st31" d="M26.1,30c0,0,0,3.2-1.7,3.7"/>
	<path class="st31" d="M21.7,37c0,0,3.9,4.8,10.1,3.3"/>
</g>
<g id="icon_25" class="st0">
	<path class="st18" d="M31,47.9h-1.7c-4.3,0-7.9-3.5-7.9-7.9V19h17.4v21C38.8,44.3,35.3,47.9,31,47.9z"/>
	<path class="st18" d="M39.2,17.2H20.8c-0.7,0-1.3-0.6-1.3-1.3v-2.2c0-0.7,0.6-1.3,1.3-1.3h18.4c0.7,0,1.3,0.6,1.3,1.3v2.2
		C40.5,16.6,39.9,17.2,39.2,17.2z"/>
	<path class="st32" d="M26.5,39c0,0,0-7.1,3.7-7.1s3.7,4.9,3.7,7.1"/>
	<line class="st32" x1="26.7" y1="36.3" x2="33.6" y2="36.3"/>
	<path class="st32" d="M33.8,23.9c0,0,0,7.1-3.7,7.1s-3.7-4.9-3.7-7.1"/>
	<line class="st32" x1="33.6" y1="26.7" x2="26.7" y2="26.7"/>
</g>
<g id="icon_26" class="st0">
	<path class="st18" d="M34.1,23.6H26c-1.3,0-2.4-1.1-2.4-2.4v-3.6c0-1.3,1.1-2.4,2.4-2.4h8.1c1.3,0,2.4,1.1,2.4,2.4v3.6
		C36.5,22.5,35.4,23.6,34.1,23.6z"/>
	<path class="st18" d="M43.5,44.9H16.6c-2.1,0-3.8-1.7-3.8-3.8V24c0-2.1,1.7-3.8,3.8-3.8h26.9c2.1,0,3.8,1.7,3.8,3.8v17.1
		C47.3,43.3,45.6,44.9,43.5,44.9z"/>
	<path class="st24" d="M23.1,33.3v-1.9c0-1.1,0.9-2.1,2.1-2.1H35c1.1,0,2.1,0.9,2.1,2.1v1.9c0,1.1-0.9,2.1-2.1,2.1h-9.8
		C24,35.4,23.1,34.4,23.1,33.3z"/>
	<path class="st24" d="M31,39.3h-1.9c-1.1,0-2.1-0.9-2.1-2.1v-9.8c0-1.1,0.9-2.1,2.1-2.1H31c1.1,0,2.1,0.9,2.1,2.1v9.8
		C33.1,38.4,32.2,39.3,31,39.3z"/>
	<rect x="23.5" y="19.5" class="st24" width="13" height="0.6"/>
	<path class="st24" d="M31,39.3h-1.9c-1.1,0-2.1-0.9-2.1-2.1v-9.8c0-1.1,0.9-2.1,2.1-2.1H31c1.1,0,2.1,0.9,2.1,2.1v9.8
		C33.1,38.4,32.2,39.3,31,39.3z"/>
</g>
<g id="icon_27" class="st0">
	<circle class="st18" cx="29.8" cy="22.4" r="6.3"/>
	<path class="st18" d="M17.4,44.1h25.1c0,0,1.5-11.3-4.9-13.4s-13.2-0.8-15-0.2c-1.8,0.6-4.1,1-4.9,7.5
		C17.4,42.1,17.4,44.1,17.4,44.1z"/>
	<path class="st24" d="M25.6,37.3v-0.7c0-0.8,0.7-1.5,1.5-1.5h6.2c0.8,0,1.5,0.7,1.5,1.5v0.7c0,0.8-0.7,1.5-1.5,1.5h-6.2
		C26.3,38.8,25.6,38.1,25.6,37.3z"/>
	<path class="st24" d="M29.8,32.4h0.7c0.8,0,1.5,0.7,1.5,1.5v6.2c0,0.8-0.7,1.5-1.5,1.5h-0.7c-0.8,0-1.5-0.7-1.5-1.5v-6.2
		C28.3,33,29,32.4,29.8,32.4z"/>
</g>
<g id="icon_28" class="st0">
	<path class="st18" d="M39.9,28.6"/>
	<path class="st18" d="M37.1,15.5v29.3h5.2V21.3C42.3,21.3,41.9,16.8,37.1,15.5z"/>
	<polygon class="st24" points="39.9,28.6 42.3,29.7 42.3,27.3 	"/>
	<polygon class="st24" points="37.1,30.2 42.3,32.7 42.3,34.9 37.1,32.1 	"/>
	<polygon class="st24" points="37.1,33.9 42.3,36.6 42.3,38.6 37.1,35.9 	"/>
	<circle class="st33" cx="20.9" cy="19.9" r="3.2"/>
	<circle class="st33" cx="30.8" cy="19.7" r="3.2"/>
	<path class="st18" d="M23.2,23.1v12.8c0,0,0.7,7,2.6,8.9c0,0,2.9-4.2,2.7-9V23.2L27.1,20l-0.4,0.4V26l-1.9,0.1v-6.2L24,19.7
		L23.2,23.1z"/>
	<circle class="st24" cx="25.8" cy="28.8" r="0.9"/>
</g>
<g id="icon_29" class="st0">
	<path class="st18" d="M38.5,14.3c0,2.5-2,4.4-4.4,4.4c-2.5,0-4.4-2-4.4-4.4s2-4.4,4.4-4.4S38.5,11.8,38.5,14.3z"/>
	<path class="st18" d="M17.8,22.6l9-4.8c0,0,0.8-0.4,1.7,0s4.9,1.8,4.9,1.8s0.9,0,1.4,2c0.5,2.1,1.7,5.7,1.7,5.7l4.7,1.9
		c0,0,1.8,0.9,1.2,3s-3.4,1-3.4,1l-6-2.7c0,0-0.4-0.1-0.6-1.1c-0.2-1-1.2-4.1-1.2-4.1l-2.5,7.5l3.5,7l-0.5,9c0,0-0.3,1.6-2.1,1.6
		c-1.8,0-2.4-1.5-2.4-2.5c0.1-1,0.8-6.6,0.8-6.6L24.6,35l0.3,6.8l-1.6,6.8c0,0-0.6,1.9-2.8,1.4s-1.3-3.5-1.3-3.5l1.2-5.1l-0.6-7.5
		l0.3-0.9l-3.6-8.2C16.6,25,16.2,23.4,17.8,22.6z"/>
	<polygon class="st34" points="21.8,25.7 22.9,27.7 24.6,24.2 	"/>
	<path class="st18" d="M37.8,32.3L41.5,49c0,0,0.2,1,1.3,0.7c1.1-0.2,0.6-1.5,0.6-1.5L40,32.4L37.8,32.3z"/>
</g>
<g id="icon_30" class="st0">
	<g class="st1">
		<g>
			<path id="SVGID_16_" class="st35" d="M46.5,47.4h-33c-1.4,0-2.6-1.2-2.6-2.6v-7.5c0-1.4,1.2-2.6,2.6-2.6h33
				c1.4,0,2.6,1.2,2.6,2.6v7.5C49.1,46.2,47.9,47.4,46.5,47.4z"/>
		</g>
		<g>
			<g>
				<g>
					<g>
						<g>
							<defs>
								<path id="SVGID_17_" d="M46.5,47.4h-33c-1.4,0-2.6-1.2-2.6-2.6v-7.5c0-1.4,1.2-2.6,2.6-2.6h33c1.4,0,2.6,1.2,2.6,2.6v7.5
									C49.1,46.2,47.9,47.4,46.5,47.4z"/>
							</defs>
							<clipPath id="SVGID_18_">
								<use xlink:href="#SVGID_17_"  style="overflow:visible;"/>
							</clipPath>
							<rect x="8.5" y="32.6" class="st36" width="41.5" height="5.3"/>
						</g>
					</g>
				</g>
			</g>
		</g>
	</g>
	<circle class="st34" cx="30.3" cy="38.1" r="3.9"/>
	<path class="st37" d="M28.1,29.4c0,0,1.8-14.4,7.6-16.5c0,0-3.9,9.4-3.4,16.1c0,0,1.2,0.7,1.2,2c0,1.5-0.6,3.1-3.2,3.1
		c-2.5,0-3.1-1.1-3.2-2.1C26.9,30.7,27.3,29.7,28.1,29.4z"/>
	<rect x="41.2" y="23.4" class="st18" width="1" height="6.1"/>
	<polyline class="st38" points="39.6,27.6 41.7,29.6 43.7,27.7 	"/>
	<rect x="17.8" y="23.4" class="st18" width="1" height="6.1"/>
	<polyline class="st38" points="16.1,27.6 18.2,29.6 20.3,27.7 	"/>
</g>
<g id="icon_31" class="st0">
	<ellipse transform="matrix(0.9934 -0.115 0.115 0.9934 -2.4139 2.5335)" class="st17" cx="20.8" cy="22.2" rx="10.7" ry="9.5"/>
	<ellipse class="st17" cx="41.5" cy="24.3" rx="8.4" ry="8.9"/>
	<ellipse transform="matrix(0.9708 -0.2398 0.2398 0.9708 -8.8427 7.9008)" class="st17" cx="28" cy="40.3" rx="10.2" ry="6.9"/>
	<ellipse transform="matrix(0.9554 -0.2952 0.2952 0.9554 -6.1507 7.433)" class="st24" cx="21.5" cy="24.1" rx="6.4" ry="5.5"/>
	<ellipse transform="matrix(0.9666 -0.2564 0.2564 0.9666 -5.1742 11.0905)" class="st24" cx="39.9" cy="25.4" rx="5.2" ry="6.5"/>
	<ellipse transform="matrix(0.9359 -0.3522 0.3522 0.9359 -11.9543 12.2684)" class="st24" cx="27.7" cy="39" rx="6.4" ry="3.7"/>
</g>
<g id="icon_32" class="st0">
	<path class="st39" d="M25.2,14.6c0,0,4.4-3.1,9.6,0l-0.9,4.7l-0.3,0.5L33.1,19c0,0-3.3-1-6.1,0l-1.5-2.3l-0.2-1.6L25.2,14.6z"/>
	<path class="st17" d="M25.6,14.3c0,0-0.6,0.2-1,0.9s-2.2,6.5-2.2,6.5s-0.3,2.1,0.2,2.7s3.4,4.5,3.4,4.5l-8.9,11.6
		c0,0-1.1,1-0.4,2.2c0.7,1.2,3.2,4.1,3.2,4.1s0.6,0.7,1.6-0.3c1.1-1.1,8.4-11.3,8.4-11.3L38,46.1c0,0,0.8,0.8,1.6,0s3.8-3.9,3.8-3.9
		s0.4-0.8-0.4-1.5s-9.1-12.1-9.1-12.1s2.8-3.4,2.9-3.6c0.1-0.2,1-2.2,0.5-3.7s-2-6.1-2-6.1s-0.4-0.7-1.1-0.8c0,0-0.5,3.7-4.2,8.7
		C30,23,27,20.2,25.6,14.3z"/>
</g>
<g id="icon_33" class="st0">
	<path class="st24" d="M33.5,23.7l10.2-8.2c0,0,0.8-0.5,1.8-3.5s4.2-7.9,8.9-5.9s3.5,6.7,2.8,7.9s-4.2,3.3-6.5,4.3s-5.5,5.9-5.5,5.9
		L33.5,23.7z"/>
	<path class="st40" d="M31,24.1c0,0,3-2.5,2.5-8.7c-0.2-1.8,1.2-3.8,1.2-3.8s-13-2.8-15.9,6.2c0,0-1.2-4.8-13.2-4c0,0,1.7,3,1.3,4.8
		c-0.5,1.8-0.3,5,1.3,6.4L31,24.1z"/>
	<path class="st41" d="M19.6,24.1c0,0,4-8.5,11.7-10.4"/>
	<path class="st41" d="M8.8,15.9c0,0,6.4,3.2,9,8.2"/>
	<path class="st18" d="M3.1,23.7h53.7c0,0,1.8-0.5,1.7,0.8c-0.2,1.3-1.5,18.6-19.4,24.7l-18.4,0.2c0,0-14.7-5-19.1-23.7
		C1.4,25.9,0.9,23.9,3.1,23.7z"/>
	<ellipse class="st18" cx="30" cy="51.3" rx="12" ry="3.2"/>
	<path class="st41" d="M27.6,13.2c0,0-0.2,2.2-1,2.7"/>
	<path class="st41" d="M25.5,16.9c0,0,2.3-0.8,4.7-0.5"/>
	<path class="st41" d="M20.1,23.2c0,0,3.3-2.2,7.7-2"/>
	<path class="st41" d="M22.8,15.5c0,0,0.7,2.7,0,3.7"/>
	<path class="st41" d="M15.6,17.9c0,0-0.5,1.8,0.7,4.2"/>
	<path class="st41" d="M9.3,18.2c0,0,1.3-0.3,3.2,0"/>
	<path class="st41" d="M10.9,22.2c0,0,4.5-0.3,6.2,1"/>
</g>
<g id="icon_34" class="st0">
	<path class="st18" d="M24.9,21.5h9.7c0,0,2,0,2.9,2.6s2,3.2,2,3.2l2.1,2.1c0,0,0.6,1.4-0.3,2.2c-0.9,0.8-2.1,0.6-2.5,0.3
		c-0.4-0.3-3.1-2.8-3.1-2.8l-1.2-2v5.5l2.7,9.6c0,0,0.8,2.3-1.4,2.9s-3.3-0.6-3.6-1.7c-0.2-1.1-2.7-8.3-2.7-8.3l-2.3,8.1
		c0,0-0.6,2.1-3.4,1.6c-2-0.4-1.4-3.3-1.4-3.3l2.4-8.7l0.1-5.6l-1.2,1.9l-3.2,3.3c0,0-1.3,1.1-2.5-0.2c-1.1-1.1,0.2-3,0.2-3l2.4-2.7
		l1.9-3.7C22.6,22.9,23.1,21.5,24.9,21.5z"/>
	<circle class="st18" cx="29.7" cy="18.7" r="4.4"/>
	<g class="st1">
		<circle class="st42" cx="29.8" cy="30.1" r="19.2"/>
	</g>
</g>
<g id="icon_35" class="st0">
	<path class="st18" d="M21.8,20.9c0,0,3.8-2.3,8.3-2.1l2.4-3c0,0,1.7-1.9,2.5,0.2l0.6,3.4c0,0,4.8,1.3,5.5,3.7l2.4-0.4
		c0,0,1.2-0.2,1.5,0.5s-0.2,1.4-0.2,1.4l-1.4,2.1c0,0,1.3,7.2-2.2,10.6l1.1,4.3c0,0,0.4,1.5-0.2,2c-0.6,0.5-1.6,0.3-2.3-0.2
		c-0.7-0.6-3-2.3-3-2.3S34,43.2,28,42.6l-2,2.1c0,0-0.6,0.6-1.5,0.4c-0.9-0.2-1-2.3-1-2.3l-0.1-1.7c0,0-2-0.5-3.8-2.7L16.1,39
		c0,0-2,0-0.8-2.4l1.6-2.7c0,0-1.6-5,0.4-8.3l-2.2-4.9c0,0-0.3-1.5,0.3-1.8s2,0.2,2,0.2L21.8,20.9z"/>
	<line class="st32" x1="23.3" y1="25.3" x2="26.9" y2="27.9"/>
	<line class="st32" x1="31.9" y1="27.7" x2="36.8" y2="25.3"/>
	<path class="st32" d="M26,35.8c0,0,1.4-2.3,4-2.1s3.6,2.7,3.6,2.7"/>
</g>
<g id="icon_36" class="st0">
	<g id="icon_23_1_" class="st1">
		<path class="st43" d="M33.8,17.5c-5.9,1.1-4.2,5.5-4.2,6.8s-0.4,1.3-0.5,2s0.8,0.9,0.8,0.9s-0.3,1.7-2.8,0.2
			c-2.5-1.6-6.4,0.4-7,0.4c-0.5,0,0.5-2,0.5-2c-0.5-0.6-1.4-0.2-2.3,1.1c-1,1.5-0.9,3.3-0.7,3.4c0.2,0.1,3-0.1,4.3-0.4
			s2-0.4,1.7-0.1c-0.2,0.3-0.9,1.5-1.2,1.6c-0.4,0.2-6.6,7.1-0.8,9.4c5.9,2.3,10-0.5,11.6-1.8c1.7-1.4,4.6-3.4,5.6-5.1
			c1-1.6,0.3-4.1,0.2-5c-0.2-0.9,1.2-3,1.6-5C40.9,21.9,39.8,16.4,33.8,17.5z"/>
		<path class="st5" d="M26.8,31.9c0,0,0.5,2.7-1.2,3.9"/>
		<path class="st5" d="M23.1,30.8c0,0,1.2-1.7,1.4-2.4"/>
		<path class="st5" d="M26.8,27.5c0,0-1.7,4.1,0.9,5.1c2.6,0.9,6.7,0.5,6.7,0.5"/>
		<path class="st5" d="M29.8,27.9c0,0,0.7,0.3,1,1.3"/>
		<path class="st5" d="M29.1,29.9c0,0,4.8-1.8,8.6-0.5"/>
		<path class="st5" d="M35.5,22.5c0,0,1.8-0.1,1.6,1.5s-1,2.7-2.7,1.5"/>
	</g>
	<circle class="st44" cx="30" cy="30.1" r="20.3"/>
	<line class="st44" x1="41.2" y1="14.6" x2="18.4" y2="45.9"/>
</g>
<g id="icon_37" class="st0">
	<circle class="st45" cx="33.6" cy="26.6" r="12.3"/>
	<circle class="st45" cx="26.4" cy="33.6" r="12.3"/>
	<path class="st45" d="M22.8,22.1"/>
	<path class="st18" d="M29.9,22.1l5.2,3l3.2,2.8l0.9,4.4c0,0-0.5,3.4-0.9,3.6c-0.4,0.2-1.1,1.7-1.1,1.7S34.1,39.1,34,39
		c-0.1-0.2-5.3-2.9-5.3-2.9l-3.4-0.6l-2.5-5.4l-1.6-5.4l1.2-2l2-0.9L29.9,22.1z"/>
</g>
<g id="icon_38" class="st0">
	<circle class="st18" cx="27.7" cy="14.1" r="3.9"/>
	<path class="st18" d="M23.8,18.2l7.4-0.1c0,0,2.5,0.3,3.5,4.1l-4,4.8l0.4,5l1.7,3.5l0.1,11.6c0,0,0.6,2.7-1.9,2.7
		c-2,0-2.2-1.5-2.2-2.5c0-1.1-0.1-13-0.1-13s-0.3-0.8-1.1-0.8c-0.8,0.1-0.9,1-0.9,1v13.8c0,0-0.1,1.5-2,1.6S22.5,48,22.5,48
		l-0.1-20.3l-1.7,4c0,0-0.5,1.8-2.7,1.1c-1.8-0.6-0.6-3.4-0.6-3.4l4.3-9.5C21.6,19.9,22.4,18.2,23.8,18.2z"/>
	<circle class="st24" cx="35.4" cy="29.3" r="7.6"/>
	<circle class="st14" cx="32.9" cy="30.8" r="3"/>
	
		<rect x="32.4" y="27.7" transform="matrix(0.2802 -0.9599 0.9599 0.2802 -5.9743 53.6036)" class="st24" width="0.7" height="6.2"/>
	<path class="st17" d="M37.5,33.8L37.5,33.8c-1,0-1.9-0.8-1.9-1.9v-5.6c0-1,0.8-1.9,1.9-1.9l0,0c1,0,1.9,0.8,1.9,1.9v5.6
		C39.4,33,38.6,33.8,37.5,33.8z"/>
	<rect x="35.7" y="28.8" class="st24" width="3.7" height="0.8"/>
</g>
<g id="icon_39" class="st0">
	<path class="st18" d="M23.4,14.9l12.7-0.1c0,0,1.9,9.2-6.1,9.2C23,24,23.4,19.6,23.4,14.9z"/>
	<polygon class="st18" points="25.1,37 34.5,37 36,44.4 37.9,44.4 37.9,46 21.5,46 21.5,44.1 23.6,44.1 	"/>
	<rect x="25.3" y="31.5" class="st18" width="9.1" height="3.5"/>
	<path class="st18" d="M26.6,25.3c0,0-1.6,0.5-1.4,4.1l-1.8,0.2l0.1,4c0,0-0.9-0.6-1.5-2.4l-1.8,0.6c0,0,1.4,3.1,2.1,3.7l1-0.8
		l-0.7,5.4c0,0-6.5-3.4-6.6-12.5c-0.1-5.4,5.5-9.8,5.5-9.8s0.2,3.1,1.6,4.4c0,0-1.5-0.3-2.8,3.3l1.7,0.8c0,0,0.5-2.3,1.8-3.1
		C23.6,23.2,25.1,24.9,26.6,25.3z"/>
	<path class="st18" d="M32.9,25.3c0,0,1.6,0.5,1.4,4.1l1.8,0.2l-0.1,4c0,0,0.9-0.6,1.5-2.4l1.8,0.6c0,0-1.4,3.1-2.1,3.7l-1-0.8
		l0.8,5.4c0,0,6.5-3.4,6.6-12.5c0.1-5.4-5.5-9.8-5.5-9.8s-0.2,3.1-1.6,4.4c0,0,1.5-0.3,2.8,3.3l-1.7,0.8c0,0-0.5-2.3-1.8-3.1
		C35.8,23.2,34.4,24.9,32.9,25.3z"/>
</g>
<g id="icon_40" class="st0">
	<circle class="st18" cx="29.9" cy="17.2" r="6.6"/>
	<path class="st18" d="M35.8,40.4c0,0,0-0.3-0.6-0.2c-0.6,0-4.7,0.4-6.6-3.9s-3.9-2.8-4-2.3c-0.1,0.4-0.1,1.4,0.3,2.9
		s1.1,3.4-0.1,3.5s-3.2,0.4-3.7,0.5c-0.5,0.2-1,0.5,0.1,1.1s2.7,1.1,4.2,1.2c1.6,0.1,6.6,0.1,7,2.6c0.3,2-1.3,3.5-3.8,3.8
		c-3.1,0.3-8.3-0.2-11.9-3.9c-3.6-3.6-2.2-8-1.7-9.4s3-8.5,6.5-11.2c0.9-0.6,1.8-1,3.9-1.1s10.8-0.1,10.8-0.1s3.8,0.4,6,4.6
		c2.3,4.2,3.2,6.8,3.2,6.8s0.6,2.2-0.1,3.6c-0.7,1.4-2.9,4.4-3.4,4.8c-0.4,0.4-3,3.4-6.8,2.1c-2-0.7-1.6-2.8-1.5-3.1
		c0.1-0.4,0.7-1.4,1.7-2C36,40.5,35.8,40.4,35.8,40.4z"/>
	<circle class="st34" cx="34.5" cy="34.7" r="4.6"/>
</g>
<g id="icon_41" class="st0">
	<path class="st18" d="M36.2,13.8c0,0-2.7,7.5-6.9,7.7S21,24,21,24s-0.3-2.9-2.3-4l0.1-3.8C18.8,16.1,26.4,10.5,36.2,13.8z"/>
	<path class="st18" d="M37.5,14c0,0-1.8,5.9-4.8,7.4c0,0,5.5,1,6.2,2.6c0,0,1-3.1,2.2-4.1l0.2-3.6C41.3,16.3,39.3,14.8,37.5,14z"/>
	<path class="st18" d="M17.5,12.7l0.2,7.8c0,0,2.1,2,2.2,4.8C20,28,20,32.4,20,32.4s-0.1,0.8-1.2,0.9c-1.1,0.1-1.3-1.5-1.3-1.5v-4.5
		c0,0-0.1-0.3-0.6-0.3s-0.6,0.3-0.6,0.5s0,6,0,6l3.2,6.1c0,0,0.4,1.2-0.5,1.8c-1,0.5-1.7-0.3-1.7-0.3l-4.6-8.5c0,0-0.2-0.6-0.2-2
		s0-18,0-18L17.5,12.7z"/>
	<path class="st18" d="M21.4,25.4l-0.1,7.2c0,0-0.3,2.3-2.9,2l2.2,4.5c0,0,0.7,2.1-0.3,2.6c0,0,4.1,6,8.9,6
		c4.9-0.1,8.8-3.1,10.5-5.8c0,0-1.1-1.5-0.1-3.2s2.3-4.2,2.3-4.2s-2.2,0.7-3.1-1.8v-7.4C38.7,25.3,30.1,19.1,21.4,25.4z"/>
	<path class="st22" d="M23.1,33.3c0,0,0.1,1.4,1.2,1.4c0.8,0,1.3-0.2,1.4-1.4"/>
	<path class="st22" d="M34.4,33.3c0,0,0.1,1.4,1.2,1.4c0.8,0,1.3-0.2,1.4-1.4"/>
	<polyline class="st22" points="28.8,34.3 28.8,36.8 31.2,36.8 	"/>
	<path class="st32" d="M25.3,39.4c0,0,2.1,2.9,4.6,2.8c2.4-0.1,4.5-2.7,4.5-2.8"/>
	<path class="st18" d="M42.7,12.6l-0.2,7.8c0,0-2.1,2-2.2,4.8s-0.1,7.1-0.1,7.1s0.1,0.8,1.2,0.9c1.1,0.1,1.3-1.5,1.3-1.5v-4.5
		c0,0,0.1-0.3,0.6-0.3s0.6,0.3,0.6,0.5s0,6,0,6l-3.2,6.1c0,0-0.4,1.2,0.5,1.8c0.9,0.5,1.6-0.2,1.6-0.3s4.6-8.5,4.6-8.5
		s0.2-0.6,0.2-2s0-18,0-18L42.7,12.6z"/>
</g>
<g id="icon_42">
	<path class="st35" d="M23.3,23.1l-0.2,13c0,0,0.6,4.3-3.7,4.3S5.8,42,3.4,51.5c-0.7,2.8-0.7,4.1-0.6,4.5c0.2,0.4,0,1.5,1.5,1.5
		c1.5,0,6.9,0,6.9,0s1.1-0.2,1.5-2c0.4-1.9,1.9-4.6,3.7-4.8c0,0-0.2,6.7,7.8,6.9c8,0.2,27.9-6.1,31.4-22.5c2.6-11.7,2-19.5-4.6-25.5
		c-6.7-6.1-15.1-7.2-19.7-6.3c-4.8,0.9-7.6,6.3-7.6,9.7c0,0-7.1,0.7-10.2-5.2c-0.7-1.7-0.7-3.5-0.7-3.5s0-1.5-1.5-1.5s-6.7,0-6.7,0
		s-2,0.2-1.7,2.6C3.2,7.6,5.6,20.3,15.3,22C19.2,22.9,22.6,23.1,23.3,23.1z"/>
</g>
<g id="icon_43" class="st0">
	<circle class="st18" cx="29.8" cy="8.9" r="6.8"/>
	<path class="st18" d="M19.1,21h21.6c0,0-1.2-3.7-5.1-3.9s-11.5,0-11.5,0S19.4,17.3,19.1,21z"/>
	<path class="st18" d="M44.6,47.2H15.3c-2.1,0-3.7-1.7-3.7-3.7V26.2c0-2.1,1.7-3.7,3.7-3.7h29.4c2.1,0,3.7,1.7,3.7,3.7v17.1
		C48.4,45.3,46.6,47.2,44.6,47.2z"/>
	<path class="st18" d="M22.1,48.5h6.8v7.2c0,0-0.1,2.3-2,2.3c-1.9,0-2.8,0-2.8,0S22,57.9,22,55.2C22,53.2,22.1,48.5,22.1,48.5z"/>
	<path class="st18" d="M30.8,48.5h6.8v7.2c0,0-0.1,2.3-2,2.3s-2.8,0-2.8,0s-2.1-0.4-2.1-2.8C30.8,53.2,30.8,48.5,30.8,48.5z"/>
	<path class="st24" d="M24.5,45.4L35,45.3c0,0-0.8-1.7-1.9-1.9c-1.2-0.1-2.1,0.1-2.7,0.8s-1.1,0.5-1.5,0.1c-0.4-0.5-1.7-1.1-2.5-0.9
		C25.8,43.8,24.5,44.6,24.5,45.4z"/>
	<path class="st46" d="M27.8,40.9L28,29c0,0-0.1-2.5,1.6-2.7c1.9-0.1,1.9,2.5,1.9,2.5v11.9"/>
	<path class="st47" d="M38,45.3c0,0-1.3-5.1-6.5-4.4"/>
	<path class="st47" d="M31.8,38.6h5.9c0,0,3.7-0.4,4.5-3.6"/>
	<path class="st47" d="M31.8,34.1H36c0,0,3.6-0.3,4.3-3.5"/>
	<path class="st22" d="M31.7,29.8l3.1-0.1h0.1c0.4-0.1,2.7-0.3,3.3-2.9"/>
	<path class="st47" d="M21.4,45.2c0,0,1.3-5.1,6.5-4.4"/>
	<path class="st47" d="M27.7,38.5h-5.9c0,0-3.7-0.4-4.5-3.6"/>
	<path class="st47" d="M27.8,34h-4.1c0,0-3.6-0.3-4.3-3.5"/>
	<path class="st22" d="M27.8,29.7l-3.1-0.1h-0.1c-0.4-0.1-2.7-0.3-3.3-2.9"/>
</g>
<g id="icon_44" class="st0">
	<path class="st48" d="M14.5,8.2c0,0,4.6-6,13.5-4.6c0,0,12.4-4,17.9,4.7c0,0,10,2.9,9.7,13c0,0,5.7,7.8,0.2,17.3
		c0,0-1.1,11.3-11.3,13.7c0,0-3.1,7.5-15.3,4.4c0,0-8.4,3.1-14.4-4.4c0,0-8-2.7-9.9-11.7c0,0-6.9-13,0.4-19.3
		C5.2,21.1,5.3,11.8,14.5,8.2z"/>
	<path class="st49" d="M55,21.3c0,0-5.1-12.4-22.1,0.2"/>
	<path class="st49" d="M55.1,21.7c0,0,0.4,10.8-8.9,13.7"/>
	<path class="st49" d="M48.8,43.6c0,0,5.3-2.6,7.3-6"/>
	<path class="st49" d="M23,8.4c0,0,4.2-4.4,6.9-5.1"/>
	<path class="st49" d="M36.2,51.2c0,0,5.3,1.8,9.3,0.7"/>
	<path class="st49" d="M32.2,57.3c0,0-13.7-2.4-12-13.1c0.7-4,3.5-8.9,3.5-8.9s-6.7,2-9.7,0.2"/>
	<path class="st49" d="M3.3,37c0,0,4,5.7,7.7,6.7"/>
	<path class="st49" d="M3.7,23c0,0,5.7-8,23.7-1.1"/>
</g>
<g id="icon_45" class="st0">
	<g class="st1">
		<path class="st8" d="M30.9,16.2c-1.9,0-3.7,0.3-5.5,1.1c0.2,0.5,0.3,1.1,0.3,1.6c0,3.4-2.8,6.2-6.2,6.2c-0.6,0-1.3-0.2-1.8-0.3
			c-0.8,1.8-1.3,3.7-1.3,5.8c0,1,0.2,1.8,0.3,2.8c0.8-0.5,1.8-0.8,2.9-0.8c3.2,0,5.8,2.6,5.8,5.8c0,1.8-0.8,3.4-2.1,4.5
			c2.3,1.5,4.9,2.3,7.6,2.3c1.3,0,2.6-0.2,3.9-0.5c-1-1.3-1.6-2.9-1.6-4.7c0-4.1,3.4-7.5,7.5-7.5c1.6,0,3.2,0.5,4.4,1.5
			c0.3-1.1,0.3-2.1,0.3-3.2C45.3,22.7,38.8,16.2,30.9,16.2z"/>
	</g>
	<circle class="st18" cx="40.5" cy="40" r="4.7"/>
	<circle class="st18" cx="19.6" cy="38.4" r="3.1"/>
	<circle class="st18" cx="19.6" cy="19.1" r="3.4"/>
	<path class="st18" d="M42.4,18.3c0-0.2,0-0.5,0-0.6c0-4.5-3.7-8.1-8.1-8.1c-3.2,0-5.8,1.8-7.3,4.5c1.3-0.3,2.6-0.5,4.1-0.5
		C35.6,13.4,39.6,15.4,42.4,18.3z"/>
	<path class="st18" d="M52.1,16.7l-4.4,4.2c-0.8,0.8-2.1,0.3-2.4-0.6l-1.5-5.8l-1.5-5.8c-0.3-1.1,0.8-2.1,1.8-1.8L50,8.4l5.8,1.6
		c1.1,0.3,1.5,1.6,0.6,2.4L52.1,16.7z"/>
	<path class="st19" d="M52.1,16.7c0,0,9.2,10.5,1.9,25.3S30.7,55.9,30.7,55.9"/>
	<path class="st18" d="M7.9,43.7l4.4-4.2c0.8-0.8,2.1-0.3,2.4,0.6l1.5,5.8l1.5,5.8c0.3,1.1-0.8,2.1-1.8,1.8L10,52l-5.8-1.6
		C3,50,2.7,48.7,3.5,47.9L7.9,43.7z"/>
	<path class="st19" d="M7.9,43.7c0,0-8.7-12.6-2.1-25.3C14.4,1.8,29.1,4.4,29.1,4.4"/>
</g>
<g id="icon_46" class="st0">
	<path class="st18" d="M24,51.3H9.3c-1,0-2.1-0.9-2.1-2.1l0,0c0-1,0.9-2.1,2.1-2.1H24c1,0,2.1,0.9,2.1,2.1l0,0
		C25.9,50.2,25,51.3,24,51.3z"/>
	<path class="st18" d="M54.8,57.4H5.2c-1,0-1.9-0.9-1.9-1.9l0,0c0-1,0.9-1.9,1.9-1.9h49.5c1,0,1.9,0.9,1.9,1.9l0,0
		C56.7,56.5,56,57.4,54.8,57.4z"/>
	<path class="st18" d="M21.2,40.4l-6.8-4.2c-1.7-1-2.4-3.5-1.2-5.2L26.2,9.4c1-1.7,3.5-2.4,5.2-1.2l6.8,4.2c1.7,1,2.4,3.5,1.2,5.2
		L26.4,39.2C25.4,41.1,22.9,41.6,21.2,40.4z"/>
	<path class="st18" d="M15.2,42.9L15.2,42.9c-1.2-0.7-1.4-2.1-0.9-3l2.6-4.4c0.5-1,1.9-1.4,3-0.7l0.2,0.2c1,0.5,1.4,1.9,0.7,3
		l-2.6,4.2C17.5,42.9,16.3,43.2,15.2,42.9z"/>
	<path class="st18" d="M39.5,10.7l-6.6-4c-0.7-0.3-0.9-1.2-0.5-1.9l0.7-1.2C33.4,2.8,34.3,2.6,35,3l6.6,4c0.7,0.3,0.9,1.2,0.5,1.9
		l-0.7,1.2C41.1,10.8,40.2,11,39.5,10.7z"/>
	<path class="st50" d="M39.7,27.6c0,0,14,4.9,11.9,14.2C50,49,46.2,54.2,46.2,54.2"/>
</g>
<g id="icon_47" class="st0">
	<path class="st18" d="M6.8,49.8l-4.7-8.7c-0.4-0.9-0.1-1.9,0.7-2.3l2.1-1.1l6.3,11.4l-2.4,1.3C8.1,50.6,7.2,50.4,6.8,49.8z"/>
	<path class="st18" d="M6.9,36.1l5.9,11.6l3.7-2l16.7,3.4c0,0,2.7,0.7,7-0.9s16.7-7,16.7-7s1.6-0.9,1-2.7c-0.6-1.9-2-1.9-3.6-1.3
		c-1.6,0.4-10.6,4.4-10.6,4.4s-1.3,0.6-3.6,0.6c-2.1,0-13-0.7-13-0.7s-0.6,0-0.6-0.9c0.1-0.9,1.9-0.6,1.9-0.6l11.6,0.4
		c0,0,2.1-0.3,2.1-2.4s-1.4-2.6-2.3-2.7c-0.9-0.1-8.3-0.3-18.3-4.4c-1.7-0.7-7.1,0.6-8.9,1.6C11.1,33.5,6.9,36.1,6.9,36.1z"/>
	<path class="st18" d="M44.2,37.4c0,0,0.1,1.6,0,2l9.3-3.4c0,0-0.6-1.4-3-0.7C48.1,35.9,44.2,37.4,44.2,37.4z"/>
	<path class="st18" d="M42.4,34.4l1.1,1.3l6-1.7c0,0-1-0.9-3.7-0.3C42.9,34.1,42.4,34.4,42.4,34.4z"/>
	<path class="st40" d="M46.8,9.8c0,0,1.4,17.3-16.6,16.4c0,0,3-5.7,10-8.9c0,0-9.4,0.7-14.3,13.6c0,0-0.3,0.7-1,0.6
		c-0.7-0.3-0.7-1-0.6-1.9c0.1-0.9,1-3.1,2.4-4.1c0,0-1.7-10.3,11-11C40.8,14.5,45.1,11.8,46.8,9.8z"/>
</g>
<g id="icon_48" class="st0">
	<path class="st17" d="M29.3,1.6h5.1V19c0,0,0,4.2,7.2,3.7l2.3,2.8l-2.6,0.3c0,0-4.4,0.7-5.8-0.9c-1.4-1.6-1,1.2-1,1.2v32.2h-5.2
		l-1.7-33c0,0-0.9,3.7-9.1,2.8l-1-2.3l0.3-0.7c0,0,4,1,9.3-1.4c1.9-0.9,1.9-7.2,1.9-7.2L29.3,1.6z"/>
	<path class="st18" d="M41.4,29.7c0,0-10.1,2.6-11.7-6.8V1.6h-4.7v26.7c0,0,0.9,3.3-6.3,3.8l-2.1,2.1l1.2,1l1.4,0.3l3.1-0.9
		c0,0,2.6-0.9,2.8,1c0,1.7,0,22.9,0,22.9l4.7-0.2V29.7c0,0,3.1,4.5,11.2,3.7l1.2-2.8L41.4,29.7z"/>
	<path class="st17" d="M43.6,10.5c0,0,6.3-2.8,10.3,1.9s6.3,18.7,1.6,27.8s-10.1,6.6-12.6,5.6c-2.6-1-4.4-5.2-3.3-8.4
		c0.9-3.1,1.9-5.9,1.7-7c-0.3-1-1-3.8-0.5-4.9c0.5-1,0.7-3,0.2-3.5c-0.5-0.5-1.7-1.9-1.7-3.3C39.3,17.5,38.9,13.3,43.6,10.5z"/>
	<path class="st17" d="M16.2,12.6c0,0-6.3-2.8-10.3,1.9s-6.3,18.2-1.6,27.1s10.3,6.3,12.6,5.4c2.3-0.9,4.4-5.1,3.3-8
		s-1.9-5.8-1.7-6.8c0.3-1,1-3.7,0.5-4.7c-0.5-1-0.7-3-0.2-3.5c0.5-0.5,1.7-1.9,1.7-3.1S20.9,15.2,16.2,12.6z"/>
</g>
<g id="icon_49" class="st0">
	<g id="brain" class="st1">
		<path class="st51" d="M19.3,23.5c0,0-2.4-3,0.5-5.2c0,0,0.7-3.2,3.9-2.7c0,0,1.5-3.5,5.1-2.5c0,0,3-2.2,4.9,0c0,0,3.9-1.3,5.2,1.5
			c0,0,3.5,0.2,3.9,3c0,0,4.6,4.6-0.2,7.6L19.3,23.5z"/>
		<path class="st52" d="M20.5,16.8c0,0-1.3,2.4,0.8,3.4"/>
		<path class="st52" d="M24.2,14.6c0,0-2.2,4.6,2.9,5.4"/>
		<path class="st52" d="M28.8,21.8c0,0,3.4-4.7-1.7-6.1"/>
		<path class="st52" d="M32.7,17.1c0,0,0,2.4-2.7,2.5"/>
		<path class="st52" d="M32.5,12.4c0,0.2,1.9,0.3,2.2,3.9"/>
		<path class="st52" d="M33.5,23c0,0,0.3-3.4,4-3.2"/>
		<path class="st52" d="M40.9,22.5c0,0-3.2-0.2-3.2-3.7"/>
		<path class="st52" d="M23.7,22c0,0,0.2,1.7,1.5,2"/>
		<path class="st53" d="M19.3,23.7c0,0-2.9,2.5-0.3,5.2c0,0,0.2,3.2,3.4,3.2c0,0,1,3.7,4.7,3.2c0,0,2.7,2.5,4.9,0.7
			c0,0,3.7,1.9,5.4-0.7c0,0,3.5,0.2,4.2-2.5c0,0,5.2-3.9,0.8-7.6L19.3,23.7z"/>
		<path class="st5" d="M19.7,30.4c0,0-1-2.5,1.3-3.2"/>
		<path class="st5" d="M23,33.3c0,0-1.5-4.7,3.7-5.1"/>
		<path class="st5" d="M28.4,26.7c0,0,2.7,5.1-2.5,5.7"/>
		<path class="st5" d="M31.5,32c0,0,0.3-2.2-2.4-2.9"/>
		<path class="st5" d="M30.8,36.7c0-0.2,1.9,0,2.7-3.5"/>
		<path class="st5" d="M33.3,26.2c0,0-0.2,3.4,3.5,3.7"/>
		<path class="st5" d="M40.4,27.6c0,0-3.2-0.2-3.5,3.2"/>
		<path class="st5" d="M25.7,25.9c0,0,0.3-1.7,1.9-1.7"/>
		<path class="st5" d="M36.9,27.4c0,0,0.7-2,2.4-2.5"/>
	</g>
	<path class="st18" d="M24.2,7.5c-8.3,1.2-11,4.6-13.8,8.3c-2.9,3.9-1.9,12.3-1.9,12.3S5.7,31.4,5,32.3c-0.7,0.8-2,2.9-1.9,4.6
		c0.3,1.7,3,2,3,2s-0.3,3.5-0.3,4.4c0,0.8,0.8,1,1,1.2c0.2,0,0.3,0.3,0.3,0.3s-0.7,0.2-0.7,0.8c0,1,1,1.5,1,1.5c0,0.2,0.3,0.3,0,1.3
		c-0.5,1-0.5,2.7,1.3,4.2c1.9,1.5,9.4,1.3,9.4,1.3v5.1l24.1-0.5c0,0-0.5-0.7-1.3-5.1c-0.8-4.4,0.3-7.6,0.5-8.3
		c0.3-0.7,1.9-3.2,4.4-7.3c1.7-2.7,2.7-6.6,3-10.5c-0.2,0-0.3,0-0.3,0C35.4,26.7,24.9,18,24.2,7.5z"/>
	<path class="st18" d="M24.7,7.2c0,0,8.6,14.7,32.1,8.6C56.8,15.8,47.2-10.6,24.7,7.2z"/>
</g>
<g id="icon_50" class="st0">
	<path class="st54" d="M30,4.7c0,0,5.9-5.4,10.8,0.2c0,0,6.8,0.9,6.1,7.7c0,0,7.7,2.6,6.1,10.3c0,0,4.9,6.1,0.9,10.3
		c0,0,3.3,8-2.3,11.2c0,0,0,7.5-5.8,8.6c0,0-8.9,10.3-15.9,0.7L30,4.7z"/>
	<path class="st55" d="M44.5,6.5c0,0-5.2-2.4-7,2.4"/>
	<path class="st55" d="M49.4,13.9c0,0-9.4-3.8-10.6,6.9"/>
	<path class="st55" d="M34.9,24.5c0,0,10.3,6.3,12.4-4.5"/>
	<path class="st55" d="M45.4,31.7c0,0-4.7,0.3-5.6-5.2"/>
	<path class="st55" d="M55.3,30.9c-0.2,0-0.1,4-7.6,5.2"/>
	<path class="st55" d="M33.1,34.5c0,0,7.2,0,7.3,7.9"/>
	<path class="st55" d="M35.2,49.8c0,0,0-6.8,7.2-7.2"/>
	<path class="st55" d="M34,13.7c0,0-3.5,0.5-4,3.5"/>
	<path class="st54" d="M29.8,4.7c0,0-5.9-5.4-10.8,0.2c0,0-6.8,0.9-6.1,7.7c0,0-7.7,2.6-6.1,10.3c0,0-4.9,6.1-0.9,10.3
		c0,0-3.3,8,2.3,11.2c0,0,0,7.5,5.8,8.6c0,0,8.9,10.3,15.9,0.7V4.7z"/>
	<path class="st55" d="M15.5,6.5c0,0,5.2-2.4,7,2.4"/>
	<path class="st55" d="M10.2,14c0,0,9.8-3.8,11,6.8"/>
	<path class="st55" d="M24.7,24.5c0,0-10.3,6.3-12.4-4.5"/>
	<path class="st55" d="M14.3,31.7c0,0,4.7,0.3,5.6-5.2"/>
	<path class="st55" d="M4.4,30.4c0.1,0.1,0.2,4.4,7.7,5.6"/>
	<path class="st55" d="M26.7,34.5c0,0-7.2,0-7.3,7.9"/>
	<path class="st55" d="M24.6,49.8c0,0,0-6.8-7.2-7.2"/>
	<path class="st55" d="M26,18.7c0,0,3.5,0.5,4,3.5"/>
	<path class="st55" d="M24.4,42.2c0,0,4.4,1,5.4,4.5"/>
</g>
<g id="icon_51" class="st0">
	<circle class="st18" cx="30" cy="30.1" r="28.9"/>
	<circle class="st56" cx="29.7" cy="30.7" r="8"/>
	<path class="st57" d="M25.7,22.8l-5.2-9.5c0,0,10.1-4.7,17.8-0.1l-5,9.6"/>
	<path class="st57" d="M38.3,30.5l10.8,0.1c0,0-0.7,11.1-8.4,15.6l-5.9-9"/>
	<path class="st57" d="M24.5,37.6l-6.2,8.9c0,0-8.7-7-8-15.8L21.1,31"/>
</g>
<g id="icon_52" class="st0">
	<path class="st18" d="M51.5,58.1h-43c-3.7,0-6.8-3.1-6.8-6.8V8.8C1.7,5.1,4.8,2,8.5,2h42.8c3.7,0,6.8,3.1,6.8,6.8v42.4
		C58.3,55.1,55.2,58.1,51.5,58.1z"/>
	<path class="st24" d="M20,23.5h20.9l7.4-10.4c0,0-17.8-15.6-35.8,0.2L20,23.5z"/>
	<path class="st17" d="M29.8,30.5c0,0,2.9-4.3,8.4-2.9c5.7,1.6,6.3,5.9,6.3,5.9s2,11.7-14.1,20.1c0,0-16.6-5.9-15.4-18.8
		c0.4-5.1,4.3-7.6,6.3-7.8C23.9,27,27.3,27.2,29.8,30.5z"/>
	<circle class="st58" cx="30" cy="22.5" r="4.1"/>
	<line class="st19" x1="35.7" y1="12.5" x2="32.1" y2="18.6"/>
	<path class="st18" d="M29.6,46.7L29.6,46.7c-1,0-1.7-0.7-1.7-1.7v-8.6c0-1,0.7-1.7,1.7-1.7l0,0c1,0,1.7,0.7,1.7,1.7v8.6
		C31.5,45.9,30.6,46.7,29.6,46.7z"/>
	<path class="st18" d="M35.7,40.5L35.7,40.5c0,1-0.7,1.7-1.7,1.7h-8.6c-1,0-1.7-0.7-1.7-1.7l0,0c0-1,0.7-1.7,1.7-1.7H34
		C35,38.8,35.7,39.5,35.7,40.5z"/>
</g>
<g id="icon_53" class="st0">
	<path class="st18" d="M54.8,17.8l-1.4,4.6c0,0-1,2.7-4.9,2.7s-6.3-1-6.6,1.7c-0.5,2.7-1.7,9-9.6,9.6c0,0-0.5,0.5,0.3,0.7
		c0.8,0.2,4.2-0.2,5.7-1c1.5-0.8,3.4,0.3,4.4,2.7c1,2.4,1.5,2.7,2,2.5c0.5,0,2.5-0.5,3,0c0.5,0.5,1.2,1.5-0.7,2.7
		c-1.9,1.4-3.7,0.8-4.9-0.5c-1.2-1.4-1.9-1.9-2.5-2c-0.7-0.2-2.4,0-2.5,1.5c-0.2,1.5-2.7,6.9-9,6.3c-6.1-0.7-9.3-3.4-10.5-7.9
		s0.8-9.3,1.4-10.6c0.7-2.4,0.5-3.4-0.3-4.7c-0.8-1.4-2.4-1-2.9-5.2c-0.7-4.1,2.7-8.1,5.2-9.6c0,0,2.7-1.9,5.7-1.2s5.6,2,7.4,4.2
		c2.2,2.4,2,5.7,0.2,8.4c-0.3,0.5-0.5,0.8-0.2,1.4c0.3,0.5,0.8,3.2-1,3.7c-1.9,0.5-3.9,0.5-4.4,1.2c-0.5,0.7-0.2,1.2,0.5,1.7
		c0.7,0.5,1.9,0.7,2,0.7c0.2,0,0-0.7,0-1.2c0-0.5,1-1,1.9-0.2c0.8,0.8,1.5,1.7,1,2.9c-0.3,1.2-0.7,0.7,0.2,0.8
		c0.7,0.2,0.3-0.3,1.2-0.7c0.7-0.3,1.2-0.3,1.4-0.8c0.3-0.5,1.9-5.9,2.4-6.6c0.5-0.7,1-2.9,7.1-4.4c3-0.7,3.2-2.4,2.7-5.1
		c-0.5-2-1.5-5.7-2-7.4C42.5,4.7,36.4,2.4,30,2.4C14.6,2.4,2.2,14.9,2.2,30.1c0,15.4,12.5,27.7,27.7,27.7s27.7-12.2,27.7-27.5
		C57.7,25.7,56.6,21.5,54.8,17.8z"/>
</g>
<g id="icon_54" class="st0">
	<path class="st18" d="M5.7,10.6c0,0,1.6-3.8,5.2-2.5s3.8,4.1,3.6,6.3C14.3,16.6,15,20,15,20s2,4,4.1,0.7c2.7-4,9.7-14.2,9.7-14.2
		s2.5-3.6,6.3-1.4c3.8,2,1.1,6.5,1.1,6.5l-5.4,10.8l12.4-11.5c0,0,3.8-2.5,6.3,0.9c2.5,3.4-0.7,6.3-0.7,6.3L38.4,29.2l10.1-5
		c0,0,4.1-1.4,5.6,1.8s-0.2,5.2-1.1,5.9c-0.9,0.7-12.2,8.3-12.2,8.3l7.2-1.6c0,0,4.7-0.9,5.4,2.9c0.7,3.8-1.6,5-2.9,5.4
		C49.3,47.3,28.5,55,28.5,55s-9.5,3.4-17.3-3.6c-6.8-6.1-5.8-17.1-5.8-17.1S5.1,11.7,5.7,10.6z"/>
	<circle class="st24" cx="16.1" cy="34.7" r="2.5"/>
	<circle class="st24" cx="29.8" cy="34.7" r="2.5"/>
	<path class="st22" d="M13.4,40.5c0,0,2.2,7.2,8.8,7.4s9.2-4.7,9.9-7.2"/>
</g>
<g id="icon_55" class="st0">
	<path class="st18" d="M40.3,45.7H19.7C17.6,45.7,16,44,16,42V18.3c0-2.1,1.7-3.7,3.7-3.7h20.5c2.1,0,3.7,1.7,3.7,3.7v23.6
		C44,44,42.3,45.7,40.3,45.7z"/>
	<text transform="matrix(1 0 0 1 27.1909 23.8884)" class="st24 st59 st60">E</text>
	<text transform="matrix(1 0 0 1 23.8379 30.3695)" class="st24 st59 st61">F</text>
	<text transform="matrix(1 0 0 1 32.0732 30.3695)" class="st24 st59 st61">P</text>
	<text transform="matrix(1 0 0 1 34.1319 36.0818)" class="st24 st59 st62">Z</text>
	<text transform="matrix(1 0 0 1 27.8377 36.0818)" class="st24 st59 st62">O</text>
	<text transform="matrix(1 0 0 1 22.1907 36.0818)" class="st24 st59 st62">T</text>
	<text transform="matrix(1 0 0 1 20.4263 41.4934)" class="st24 st59 st63">L</text>
	<text transform="matrix(1 0 0 1 25.5439 41.4934)" class="st24 st59 st63">P</text>
	<text transform="matrix(1 0 0 1 30.3675 41.4934)" class="st24 st59 st63">E</text>
	<text transform="matrix(1 0 0 1 35.6616 41.4934)" class="st24 st59 st63">D</text>
</g>
<g id="icon_56" class="st0">
	<path class="st18" d="M13.5,54.1L1.8,41.4l27.6-25.4c3.6-3.2,9.1-3,12.3,0.6l0,0c3.2,3.6,3,9.1-0.6,12.3L13.5,54.1z"/>
	<rect x="28.1" y="25.8" transform="matrix(0.7362 -0.6768 0.6768 0.7362 -10.6583 27.2203)" class="st24" width="3" height="3"/>
	<rect x="28.1" y="25.8" transform="matrix(0.7362 -0.6768 0.6768 0.7362 -10.6583 27.2203)" class="st24" width="3" height="3"/>
	<rect x="23.3" y="30.1" transform="matrix(0.7362 -0.6768 0.6768 0.7362 -14.8506 25.1671)" class="st24" width="3" height="3"/>
	
		<rect x="18.8" y="27.4" transform="matrix(0.7362 -0.6768 0.6768 0.7362 -19.0748 23.3465)" class="st24" width="3.2" height="17.4"/>
	<polyline class="st19" points="41.1,17 53,6.1 58.1,6.2 	"/>
</g>
<g id="icon_57" class="st0">
	<path class="st18" d="M22.5,52.9l0.1-2.5c0-0.4,0.6-0.7,0.9-0.4l2,1.3l2,1.3c0.4,0.3,0.3,0.9,0,1l-2.2,1l-2.2,1.2
		c-0.4,0.3-0.9,0-0.9-0.6L22.5,52.9z"/>
	<path class="st64" d="M23,52.9c0,0-18.5-3.3-19.8-19.8C2.8,19,12.2,12.1,12.2,12.1"/>
	<path class="st24" d="M35.4,16.5c0,0,4.3-1,6.3,0c2.5,1.2,4.3,4.2,3,9.2c-1.3,5-2.5,9.4-2.7,13.7c-0.4,4.3-3.5,7.2-5.5,7.5
		c-2,0.4-3.5-1.7-3-3.3c0.4-1.6,1-6.2,0.9-7.4c-0.1-2.2-1.3-4-3-4c-1.7,0-2.6,1-3,2c-0.4,1.2-1.2,5.5-0.6,7.5c0.4,2,0.1,5-1.7,5
		c-1.9,0.1-5.5-1.9-6.9-10.4S17,26,16.7,24.9c-1-3.9,0-8.9,4.3-9.2s7.8,1.6,9.4,1.7C31.5,17.7,33.9,16.8,35.4,16.5z"/>
	<path class="st17" d="M27.6,20.7c0,0,2.6,1.4,3.6,1c1-0.6,3.5-1.7,6.2-0.4c2.7,1.4,2.7,3,2.7,3s0.9,3-0.6,5.3c-1.4,2.5-1,7.4-1,7.4
		s0.1,1.7-0.7,1.7c-0.7,0-1.3-1.6-1.3-1.9c0-0.3-0.9-6.3-4.9-7.1c-4-0.7-4.8,3-5.3,4.5c-0.3,1-0.6,3.8-0.6,3.8s-0.1,1.4-1,1.3
		c-0.7-0.1-1-1.6-1-5c0-3.5-1-3.8-1.6-5.8c-0.6-2-0.4-5.5,1.6-7.1C25.6,19.8,27.6,20.7,27.6,20.7z"/>
	<path class="st18" d="M36,7.3v2.5c0,0.4-0.4,0.7-0.9,0.6L33,9.2L30.8,8c-0.4-0.1-0.4-0.9,0-1l2-1.3l2-1.3c0.4-0.3,0.9,0,0.9,0.4
		L36,7.3z"/>
	<path class="st64" d="M35.4,7.3c0,0,18.6,2.2,21.1,18.5C57.9,39.9,49,47.4,49,47.4"/>
</g>
<g id="icon_58" class="st0">
	<path class="st24" d="M33.4,6.2c0,0,6.9-1.5,10.2,0c3.9,1.9,6.9,6.8,4.8,14.9c-2.1,8.1-3.9,15-4.4,22.2c-0.8,6.9-5.6,11.8-8.9,12.2
		c-3.3,0.8-5.6-2.7-5-5.4c0.8-2.5,1.5-10.2,1.4-12c-0.4-3.7-2.1-6.6-5-6.6s-4.2,1.5-5,3.3c-0.8,1.9-1.9,8.9-1,12.2
		c0.8,3.3,0.4,8.1-2.7,8.3c-3.1,0.2-8.9-3.1-11.2-16.8S3.1,21.6,2.7,19.7C1,13.3,2.7,5.2,9.7,4.8c6.9-0.6,12.7,2.5,15,2.7
		C27,8.1,30.9,6.5,33.4,6.2z"/>
	<path class="st17" d="M20.7,12.9c0,0,4.1,2.3,5.8,1.5c1.7-0.8,5.4-2.9,10-0.8c4.4,2.3,4.4,4.8,4.4,4.8s1.4,4.8-1,8.7
		C37.6,31,38.2,39,38.2,39s0.2,2.7-1.2,2.7c-1.2,0-2.1-2.5-2.1-3.1c0-0.6-1.4-10.2-7.9-11.6c-6.6-1.4-7.7,5-8.5,7.1
		c-0.6,1.5-1,6.2-1,6.2s-0.4,2.3-1.5,2.1c-1.2-0.2-1.5-2.5-1.5-8.1c0-5.4-1.7-6.2-2.5-9.5c-0.8-3.3-0.8-8.9,2.5-11.4
		C17.4,11.6,20.7,12.9,20.7,12.9z"/>
	<circle class="st18" cx="45.9" cy="39.3" r="12"/>
	<path class="st24" d="M46.5,46.1h-1.7c-1,0-1.7-0.8-1.7-1.7v-9.8c0-1,0.8-1.7,1.7-1.7h1.7c1,0,1.7,0.8,1.7,1.7v9.8
		C48.2,45.3,47.5,46.1,46.5,46.1z"/>
	<path class="st24" d="M39.2,40.3v-1.7c0-1,0.8-1.7,1.7-1.7h9.8c1,0,1.7,0.8,1.7,1.7v1.7c0,1-0.8,1.7-1.7,1.7h-9.8
		C40,42,39.2,41.3,39.2,40.3z"/>
</g>
<g id="icon_59" class="st0">
	<path class="st18" d="M25,1.9h14l-7.2,15.2c0,0,3.1,2.8,2.4,6.1c-0.6,3.1-2.1,5.1-7.2,4.5c-2.1-0.3-4.6-2.8-5.4-3
		c-0.6-0.1-2.2-0.7-3.9-0.6c-1.6,0.3-6.1-0.4-6.1-6.7c0-4.6,4.6-7,8.6-5.7L25,1.9z"/>
	<path class="st18" d="M20.9,58.3h13.6l-3-13c0,0,4.8-1.9,3.4-7.5s-7.6-4.2-8.6-3.7c-1,0.6-1.9,1.6-4.5,1c-2.5-0.6-5.7-0.6-7.3,1.9
		c-1.3,2.1-1.3,7.8,4,9.5L20.9,58.3z"/>
	<path class="st18" d="M47.5,31.9h-3.1c-0.9,0-1.6-0.7-1.6-1.6l0,0c0-0.9,0.7-1.6,1.6-1.6h3.1c0.9,0,1.6,0.7,1.6,1.6l0,0
		C49.1,31.1,48.4,31.9,47.5,31.9z"/>
	<path class="st18" d="M44.9,23.2l-2.2,2.2c-0.6,0.6-1.6,0.6-2.2,0l0,0c-0.6-0.6-0.6-1.6,0-2.2l2.2-2.2c0.6-0.6,1.6-0.6,2.2,0l0,0
		C45.5,21.6,45.5,22.6,44.9,23.2z"/>
	<path class="st18" d="M42.4,39.2l-2.1-2.4c-0.6-0.6-0.6-1.6,0.1-2.2l0,0c0.6-0.6,1.6-0.6,2.2,0.1l2.1,2.4c0.6,0.6,0.6,1.6-0.1,2.2
		l0,0C44,39.9,43,39.8,42.4,39.2z"/>
</g>
<g id="icon_60" class="st0">
	<circle class="st18" cx="23.6" cy="14.2" r="6"/>
	<circle class="st18" cx="46.3" cy="39.8" r="6.8"/>
	<path class="st18" d="M1.9,51.6v2.8c0,0,0,0.8,0.9,0.8s35.6,0,35.6,0s-2.4-1.7-2.5-2.4L4.5,52.6C4.3,52.6,2.9,52.7,1.9,51.6z"/>
	<path class="st18" d="M36.4,51l2.5,2.4c0,0,0.8,1.6,3.3,1.6c2.5,0,14.2,0,14.2,0s1.7-0.8,1.7-3s-1.6-3.1-3.8-3.1s-11.5,0-11.5,0
		s-7.9-8.8-9.3-9H4c0,0-1.9,0-2,1.9c-0.2,1.7,0,7.1,0,7.1s0,2.4,1.6,2.4S36.4,51,36.4,51z"/>
	<path class="st18" d="M18.9,37.8c0,0,1.3-2.7,3-3.6c1.7-0.9,1.7-3.1,1.6-3.6l3,2.8l9.4,4.1c0,0,2.4,0.6,3-1.1
		c0.6-1.9,0.3-2.8-0.9-3.5c-1.3-0.6-8.7-3.3-8.7-3.3l-6.4-6.3c0,0-1.3-0.9-2.8-1.3c-1.4-0.3-3.9-0.6-3.9-0.6s-2-0.3-3,2
		C12.2,25.8,7.4,37,7.4,37s-0.6,1.4,0.3,1.4c0.9,0,10.4,0,10.4,0S18.8,38.4,18.9,37.8z"/>
	<path class="st18" d="M16.3,12.1c0,0,0.8-3.6,4.6-5c0,0-0.8-2.5-4.2-2c-3.5,0.5-2.8,4.4-2.5,4.9C14.2,10.4,14.8,11.8,16.3,12.1z"/>
</g>
<g id="icon_61" class="st0">
	<defs>
		<path id="SVGID_20_" d="M29,2.2c0,0,9.5-1.4,15.2,2.3c5.7,3.6,9.3,7.7,10.2,13.6s-0.4,13.1-3,17.3c-2.7,4.5-4.5,7.2-4.8,7.9
			c-0.2,0.7-1.4,4.3-0.5,8.9c0.9,4.8,1.4,5.5,1.4,5.5l-26.1,0.5v-5.5c0,0-8.2,0.2-10.2-1.4c-2-1.6-2-3.4-1.4-4.6
			c0.4-1.1,0-1.3,0-1.4c0,0-1.1-0.5-1.1-1.6c0-0.7,0.7-0.9,0.7-0.9S9.2,42.4,9,42.4c-0.2-0.2-1.1-0.4-1.1-1.3s0.5-4.8,0.5-4.8
			S5.6,36,5.3,34.2c-0.2-1.8,1.3-4.1,2-5c0.7-0.9,3.8-4.6,3.8-4.6s-1.1-9.1,2-13.4C16.2,7,19.2,3.3,29,2.2z"/>
	</defs>
	<use xlink:href="#SVGID_20_"  style="display:inline;overflow:visible;fill:#1341A3;"/>
	<clipPath id="SVGID_21_" class="st1">
		<use xlink:href="#SVGID_20_"  style="overflow:visible;"/>
	</clipPath>
	<path class="st65" d="M5.8,35.6c0,0,3-5.9,7.3-8.2c4.3-2.5,9.8-1.6,12.2-0.9s7,3.9,12.7,2c1.6-0.5,5.2-2.3,5.5-3
		c0,0,1.4-0.4,1.6,0.7c0.2,1.3-0.7,2.5-2.9,4.3c-2.1,1.8-3.4,8.9-6.8,27.7h-3c0,0,0.4-15.4-2.9-21.1c-3-5.5-8.4-12.9-22.3-1.1
		l-0.4,0.4L5.8,35.6z"/>
</g>
<g id="icon_62" class="st0">
	<circle class="st18" cx="30.1" cy="32.4" r="23.6"/>
	<circle class="st18" cx="9.8" cy="33.9" r="8.3"/>
	<circle class="st18" cx="50.1" cy="33.9" r="8.3"/>
	<rect x="35.6" y="5.4" class="st18" width="3.3" height="8"/>
	<rect x="28.3" y="4.2" class="st18" width="3.3" height="8"/>
	<rect x="21.1" y="5.6" class="st18" width="3.3" height="8"/>
	<path class="st66" d="M18.4,29.5h23c0,0,1.5,16.9-10.9,17C16,46.6,18.2,30.1,18.4,29.5z"/>
	<polyline class="st56" points="25.8,30.3 25.8,36.1 33.6,36.1 33.6,30.1 	"/>
</g>
<g id="icon_63" class="st0">
	<g class="st1">
		<g>
			<circle id="SVGID_19_" class="st8" cx="30.1" cy="33.5" r="23.1"/>
		</g>
		<g>
			<g>
				<g>
					<defs>
						<circle id="SVGID_22_" cx="30.1" cy="33.5" r="23.1"/>
					</defs>
					<clipPath id="SVGID_23_">
						<use xlink:href="#SVGID_22_"  style="overflow:visible;"/>
					</clipPath>
					<path class="st67" d="M35.3,10.2c0,0,5.7,10.2-1.1,13.5s-11.8-0.6-12.7-6.8"/>
				</g>
			</g>
		</g>
	</g>
	<path class="st18" d="M9.3,38.6H5.9c-2.7,0-4.9-2.3-4.9-4.9l0,0c0-2.7,2.3-4.9,4.9-4.9h3.4c2.7,0,4.9,2.3,4.9,4.9l0,0
		C14.2,36.3,11.9,38.6,9.3,38.6z"/>
	<path class="st18" d="M54,38.6h-3.4c-2.7,0-4.9-2.3-4.9-4.9l0,0c0-2.7,2.3-4.9,4.9-4.9H54c2.7,0,4.9,2.3,4.9,4.9l0,0
		C59,36.3,56.7,38.6,54,38.6z"/>
	<path class="st68" d="M21,3.6c0,0,0,7.2,8,9.3c0,0-15.4,2.5-17.1-7.6"/>
	<path class="st49" d="M36.8,34.3c0,0,0.4-4.4,4-4.4s4.9,3.8,4.9,3.8"/>
	<path class="st49" d="M14.4,34.3c0,0,0.4-4.4,4-4.4s4.9,3.8,4.9,3.8"/>
	<path class="st49" d="M22.8,43.7c0,0,3,4.2,7.2,4c5.1-0.2,7-4,7-4"/>
</g>
<g id="icon_64" class="st0">
	<circle class="st69" cx="29.5" cy="43.4" r="13.4"/>
	<ellipse class="st70" cx="30" cy="32.3" rx="19.3" ry="7.2"/>
	<g class="st1">
		<path class="st8" d="M33.5,33.8c0,0-5.4-0.2-6.7-0.2c-2.2,0-3.7-2.2-3.7-5.4c0-1.7-1.7-4.9-2.4-5.9c-2.2-3.4-2.9-7.1-1.8-11.1
			c0.7-3.4,4.7-8.2,10.9-8.4h0.3c6,0,10.2,3.9,11.6,7.6c1.2,3.4,0.8,10.2-2.4,13.1c-2.7,2.4-3.4,6.7-3.4,7.2
			C35.7,33,34.3,33.8,33.5,33.8L33.5,33.8L33.5,33.8z"/>
		<path class="st71" d="M30.3,4.4c5.7,0,9.4,3.6,10.4,6.6c1.2,3,0.7,9.4-1.8,11.6c-2.5,2.4-3.5,6.2-3.9,8.1c-0.2,1.8-1.5,2-1.5,2
			s-5.4-0.2-6.7-0.2c-1.3,0-2.4-1.5-2.4-4s-2.5-6.6-2.5-6.6c-2.5-3.9-2.4-7.6-1.7-10.1c0.7-2.7,3.9-7.2,9.7-7.4c0.1,0,0.2,0,0.2,0
			 M30.3,1.7c-0.2,0-0.3,0-0.3,0C22.9,1.9,18.5,7.3,17.9,11c-1,4.4-0.3,8.4,2,12.1c0.8,1.3,2.2,4,2.2,5.2c0,4.5,2.5,6.6,4.9,6.6
			c1,0,5.2,0.2,6.7,0.2h0.2H34c1.2-0.2,3.4-1.2,3.7-4.2c0.2-1.5,1-4.7,3-6.4c3.7-3.2,4-10.8,2.7-14.4C41.7,6.1,37,1.7,30.3,1.7
			L30.3,1.7z"/>
	</g>
</g>
<g id="icon_65" class="st0">
	<path class="st17" d="M29.8,5.1c0,0,3.2-4.7,9.1-3.2c6.1,1.8,6.9,6.5,6.9,6.5s2.4,12.8-15.6,21.9c0,0-18.1-6.5-16.9-20.5
		c0.6-5.5,4.7-8.3,7.1-8.5C23.3,1.1,27,1.5,29.8,5.1z"/>
	<path class="st18" d="M43.7,58.9H16.2c-5.9,0-10.6-4.7-10.6-10.6l0,0c0-5.9,4.7-10.6,10.6-10.6h27.6c5.9,0,10.6,4.7,10.6,10.6l0,0
		C54.4,54.1,49.7,58.9,43.7,58.9z"/>
	<rect x="28.2" y="37.4" class="st24" width="3.5" height="21.5"/>
</g>
<g id="icon_66" class="st0">
	<path class="st18" d="M52.1,58.5H7.8c-1,0-1.6-0.8-1.6-1.6l0,0c0-1,0.8-1.6,1.6-1.6h44.3c1,0,1.6,0.8,1.6,1.6l0,0
		C53.7,57.7,53.1,58.5,52.1,58.5z"/>
	<path class="st18" d="M45.3,58.3H14.5c-2.7,0-4.9-2.3-4.9-4.9l0,0c0-2.7,2.3-4.9,4.9-4.9h30.6c2.7,0,4.9,2.3,4.9,4.9l0,0
		C50.2,56.1,48,58.3,45.3,58.3z"/>
	<path class="st18" d="M28.3,45.4H8c-1,0-1.8-0.8-1.8-1.8l0,0c0-1,0.8-1.8,1.8-1.8h20.3c1,0,1.8,0.8,1.8,1.8l0,0
		C30.1,44.6,29.3,45.4,28.3,45.4z"/>
	<rect x="16.4" y="44.4" class="st18" width="9.8" height="5.5"/>
	<path class="st18" d="M30.9,36.2L18.8,24.3L35.5,7.5c1.2-1.2,3.1-1.2,4.3,0l7.8,7.6c1.2,1.2,1.2,3.1,0,4.3L30.9,36.2z"/>
	<rect x="24" y="17.3" transform="matrix(0.7032 -0.711 0.711 0.7032 -13.0971 26.6695)" class="st18" width="2.9" height="23.4"/>
	<rect x="44.7" y="3.6" transform="matrix(0.7032 -0.711 0.711 0.7032 9.5642 36.6873)" class="st18" width="8" height="6.6"/>
	<path class="st18" d="M18.6,29.6l6.4,6.6c0,0-3.9,1.2-5.7-0.8C17.6,33.3,18.2,31.5,18.6,29.6z"/>
	<path class="st45" d="M43.9,29c0,0,5.1,6.8,2.1,15"/>
</g>
<g id="icon_67" class="st0">
	<path class="st18" d="M40.3,41.2v12.6L43,54c0,0,2.3-0.8,2.3-2.9s0-8,0-8S44.5,41,42.8,41C40.9,41.2,40.3,41.2,40.3,41.2z"/>
	<path class="st18" d="M27.4,38.2l7.8-0.2c0,0,1.5-0.2,1.7,2.1c0.2,2.3,0.4,14.5,0.4,14.5s0.2,2.7-1.9,2.9
		c-2.1,0.2-24.4-0.4-24.4-0.4S9.6,57.8,9,52.7C8.3,47.7,4.7,20,4.7,20s-0.2-1.9,1.9-2.3c2.1-0.4,14.5-3.4,14.5-3.4s2.9-0.6,3.4,2.3
		C24.9,20,27.4,38.2,27.4,38.2z"/>
	<path class="st18" d="M5.8,14.3l15.5-3.6L20.7,4c0,0,0-1.9-2.9-1.3S6.4,4.8,6.4,4.8S4.7,5.3,5,7.6C5.2,9.9,5.8,14.3,5.8,14.3z"/>
	<path class="st18" d="M53.5,47.7h-3.6c-0.8,0-1.7-0.8-1.7-1.7l0,0c0-0.8,0.8-1.7,1.7-1.7h3.6c0.8,0,1.7,0.8,1.7,1.7l0,0
		C55.2,47.1,54.3,47.7,53.5,47.7z"/>
	<path class="st18" d="M53.7,40.1l-3.4,1.3c-0.8,0.4-1.9,0-2.1-0.8l0,0c-0.4-0.8,0-1.9,0.8-2.1l3.4-1.3c0.8-0.4,1.9,0,2.1,0.8l0,0
		C55,38.9,54.5,39.7,53.7,40.1z"/>
	<path class="st18" d="M52.4,55.3L49.1,54c-0.8-0.2-1.3-1.3-1.1-2.1l0,0c0.2-0.8,1.3-1.3,2.1-1.1l3.4,1.3c0.8,0.2,1.3,1.3,1.1,2.1
		l0,0C54.1,55.1,53.3,55.5,52.4,55.3z"/>
	<path class="st24" d="M5.4,24.4l0.4,3.2l10.1-2.3c0,0,1.3-0.6,0.8-2.1c-0.4-1.5-2.3-0.8-2.3-0.8L5.4,24.4z"/>
	<path class="st24" d="M6.2,30.5l0.4,3.2l10.3-2.3c0,0,1.3-0.6,0.8-2.1c-0.4-1.5-2.3-0.8-2.3-0.8L6.2,30.5z"/>
</g>
<g id="icon_68" class="st0">
	<path class="st18" d="M20.1,18.7c0,0,8.5-5.5,17.4-1.9s7.7,9.5,7.2,12.1s-2.6,4.9-3.1,9.5c-0.2,2,0.5,5.1,1.2,6.3
		c0.7,1.2,1.4,9.7-3.9,12.1c-6.5,2.9-11.1,0-14.2-5.8c-3.2-5.6-8-18.4-8.5-21.7C15.8,26.2,15.6,21.3,20.1,18.7z"/>
	<circle class="st18" cx="16.3" cy="12.7" r="4.9"/>
	<circle class="st18" cx="24.7" cy="8" r="4.9"/>
	<circle class="st18" cx="34.6" cy="6.9" r="4.9"/>
	<circle class="st18" cx="43.6" cy="10.2" r="4.9"/>
	<path class="st24" d="M30.3,23.7c0,0,1.5-2.2,4.4-1.5c2.9,0.9,3.2,3.2,3.2,3.2s1,6.1-7.5,10.4c0,0-8.7-3.1-8-9.9
		c0.2-2.7,2.2-3.9,3.4-4.1C27.2,21.8,29.1,22,30.3,23.7z"/>
</g>
<g id="icon_69" class="st0">
	<path class="st24" d="M36.7,5.1c0,0,6.3-1.3,9.1,0c3.6,1.7,6.3,5.9,4.2,13.3c-2.1,7.4-3.6,13.3-4,19.6c-0.6,6.3-5.1,10.3-7.8,10.7
		c-2.9,0.6-5.1-2.5-4.4-4.6c0.6-2.3,1.3-8.8,1.3-10.5c-0.2-3.2-1.9-5.7-4.4-5.7s-3.8,1.3-4.4,2.9c-0.6,1.7-1.7,7.8-0.8,10.7
		c0.6,2.9,0.2,7.2-2.5,7.4c-2.7,0.2-7.8-2.7-9.9-14.9S10,19,9.3,17.5c-1.5-5.7,0-12.6,6.3-13.3s11.2,2.3,13.3,2.5
		C31.2,6.7,34.6,5.5,36.7,5.1z"/>
	<path class="st17" d="M25.5,11c0,0,3.6,1.9,5.1,1.3c1.5-0.8,4.8-2.5,8.8-0.6c4,1.9,4,4.2,4,4.2s1.3,4.2-0.8,7.8s-1.5,10.5-1.5,10.5
		s0.2,2.5-1.1,2.5c-1.1,0-1.9-2.3-1.9-2.7s-1.3-9.1-6.9-10.1c-5.7-1.1-6.7,4.4-7.6,6.3c-0.4,1.3-0.8,5.5-0.8,5.5s-0.2,1.9-1.3,1.9
		c-1.1-0.2-1.3-2.3-1.3-7.2s-1.5-5.5-2.3-8.4c-0.8-2.9-0.6-7.8,2.3-10.1C22.6,9.9,25.5,11,25.5,11z"/>
	<path class="st14" d="M5.5,34.3c0,0,2.9-0.4,5.1,6.5c2.1,7.6,8.4,11.4,10.3,11.8c1.9,0.4,7.8,1.9,8.6-3.4c1.1-5.3,0.6-3.4,0.6-3.4
		s0.2,5.7,2.9,6.5c2.7,0.8,7.8,1.1,11.2-2.5s5.9-10.1,6.1-11.8c0-1.7,0.8-4,4.4-4.2s3.4,4.2,3.4,5.5s0,14.5,0,14.5s0.2,2.1-2.5,2.1
		S3.4,56,3.4,56s-1.7-0.4-1.7-1.9c0-1.5,0-17.3,0-17.3S2.2,34.3,5.5,34.3z"/>
	<circle class="st34" cx="29.5" cy="20" r="1.7"/>
	<circle class="st34" cx="39.2" cy="27.8" r="1.7"/>
	<circle class="st34" cx="22.2" cy="24.8" r="1.7"/>
</g>
<g id="icon_70" class="st0">
	<path class="st18" d="M47.8,56.5H11.3c-1.9,0-3.5-1.6-3.5-3.5V28.2c0-1.9,1.6-3.5,3.5-3.5h36.5c1.9,0,3.5,1.6,3.5,3.5v24.6
		C51.5,54.9,49.9,56.5,47.8,56.5z"/>
	<path class="st18" d="M27,4.3c1.4-1.1,3.5-1.1,5,0l15.4,11.2l9.7,7.1c2.8,1.9,1.1,5.8-2.5,5.8H29.5H4.4c-3.5,0-5.3-3.9-2.5-5.8
		l9.7-7.1L27,4.3z"/>
	<path class="st24" d="M30.9,47.8h-3c-1.1,0-1.9-0.9-1.9-1.9V28.4c0-1.1,0.9-1.9,1.9-1.9h3c1.1,0,1.9,0.9,1.9,1.9v17.5
		C33.1,47,32.2,47.8,30.9,47.8z"/>
	<path class="st24" d="M40.3,35.4v3c0,1.1-0.9,1.9-1.9,1.9H20.7c-1.1,0-1.9-0.9-1.9-1.9v-3c0-1.1,0.9-1.9,1.9-1.9h17.7
		C39.4,33.3,40.3,34.2,40.3,35.4z"/>
</g>
<g id="icon_71" class="st0">
	<circle class="st18" cx="24.1" cy="8.2" r="5.6"/>
	<path class="st18" d="M25.9,30.7V19.1c0,0-0.8-2.5-2.5-2.9c-1.7-0.3-2.9-0.2-4.4,1.5c-1.7,1.7-6.8,6.6-6.8,6.6s-2.5,2.4-0.8,4.6
		c1.9,2.2,5.9,6.4,5.9,6.4s-4.1,13.4-4.4,14.1c-0.3,0.7-1.5,2.9-1.9,3.2c-0.3,0.3-1,2.5,1,4.1c1.9,1.5,4.2,1,5.3-0.3
		c1-1.4,5.4-9,6.9-17.5l9.3-0.2v6.1c0,0-0.2,1.9,0.8,1.7c1,0,6.3-0.2,6.3-0.2s0.7-0.2,0.5-2.4c-0.2-2.4,0-10.3,0-10.3
		s-0.5-2.7-3.2-2.9C34.9,30.7,25.9,30.7,25.9,30.7z"/>
	<path class="st18" d="M24.9,57.5l23.7-0.2c0,0,1.4-0.3,1.2-1.9c-0.2-1.5-0.5-9-10-9.5L33,46.2c0,0-8.5,0.3-9.7,8.8
		C23.4,56.5,23.7,57.4,24.9,57.5z"/>
</g>
<g id="icon_72" class="st0">
	<g class="st1">
		<g>
			<g>
				<g>
					<defs>
						<path id="SVGID_24_" d="M10.1,19.3l0.5,17.4c0,0,1.2,9.5,9.3,16.2s9,5.8,9.5,5.8c0.5,0,4.9,0,11.4-7.6s8.4-12.7,8.4-16.5
							S50,19.1,50,19.1s2.1-2.6,2.6-3.7c0.5-1.1,3-7.2-3.5-11.3S20.6,1.3,18.5,1.5S10.1,1.3,7.3,8.9c-1.2,3.3-0.4,5.8,1.1,7.7
							C9.6,18.8,10.1,19.3,10.1,19.3z"/>
					</defs>
					<clipPath id="SVGID_25_">
						<use xlink:href="#SVGID_24_"  style="overflow:visible;"/>
					</clipPath>
					<path class="st72" d="M10.1,18.9l0.5,17.4c0,0,1.2,9.5,9.3,16.2s9,5.8,9.5,5.8c0.5,0,4.9,0,11.4-7.6s8.4-12.7,8.4-16.5
						S50,18.8,50,18.8s2.1-2.6,2.6-3.7c0.4-1.1,3-7.2-3.5-11.3S20.6,1,18.5,1.2S10.1,1,7.3,8.6c-1.2,3.3-0.4,5.8,1.1,7.7
						C9.6,18.2,10.1,18.9,10.1,18.9z"/>
				</g>
			</g>
		</g>
		<g>
			<g>
				<g>
					<defs>
						<path id="SVGID_27_" d="M10.1,19.3l0.5,17.4c0,0,1.2,9.5,9.3,16.2s9,5.8,9.5,5.8c0.5,0,4.9,0,11.4-7.6s8.4-12.7,8.4-16.5
							S50,19.1,50,19.1s2.1-2.6,2.6-3.7c0.5-1.1,3-7.2-3.5-11.3S20.6,1.3,18.5,1.5S10.1,1.3,7.3,8.9c-1.2,3.3-0.4,5.8,1.1,7.7
							C9.6,18.8,10.1,19.3,10.1,19.3z"/>
					</defs>
					<clipPath id="SVGID_28_">
						<use xlink:href="#SVGID_27_"  style="overflow:visible;"/>
					</clipPath>
					<path class="st73" d="M9.7,20.5c0,0,10.7-6.5,19.7-6.2c9.7,0.4,16,3,20.4,6.3"/>
				</g>
			</g>
		</g>
	</g>
	<path class="st18" d="M8.5,22.3L8.3,34.4c0,0-3.5,0-3.7-4s0-5.8,0-5.8S5.3,21.9,8.5,22.3z"/>
	<path class="st18" d="M51.4,22.4l0.2,12.1c0,0,3.5,0,3.7-4s0-5.8,0-5.8S54.6,22.1,51.4,22.4z"/>
	<line class="st32" x1="18" y1="22.1" x2="23.4" y2="22.1"/>
	<line class="st32" x1="36.1" y1="22.1" x2="41.4" y2="22.1"/>
	<polyline class="st32" points="27.8,31.9 28,40.6 32.1,40.4 	"/>
	<line class="st32" x1="26.3" y1="46.5" x2="32.9" y2="46.5"/>
	<line class="st32" x1="29.6" y1="50.2" x2="29.6" y2="55"/>
	<polyline class="st32" points="26.6,52.9 29.6,55.7 32.4,53.4 	"/>
	<path class="st32" d="M16.4,26.7c0,0,0.9,3.7,4.2,3.9c3.3,0,4.4-3.7,4.4-3.7"/>
	<path class="st32" d="M34.7,26.7c0,0,0.9,3.7,4.2,3.9c3.3,0,4.4-3.7,4.4-3.7"/>
	<path class="st32" d="M24.2,39.5c0,0-0.5,4.2-5.5,4.7"/>
	<polyline class="st32" points="19.2,41.3 18.3,44.3 20.6,46.4 	"/>
	<path class="st32" d="M23.6,33.7c0,0-3.3,5.6-9.8,2.6"/>
	<polyline class="st32" points="15.2,34.2 13.4,36 14.1,39.2 	"/>
	<path class="st32" d="M35.6,39.2c0,0,0.5,4.2,5.5,4.7"/>
	<polyline class="st32" points="40.5,40.9 41.2,43.9 39.1,46.2 	"/>
	<path class="st32" d="M35.9,33.5c0,0,3.3,5.6,9.8,2.6"/>
	<polyline class="st32" points="44.4,34.1 46.1,36 45.4,39.2 	"/>
	<line class="st32" x1="47.7" y1="12.2" x2="45.1" y2="17.2"/>
	<line class="st32" x1="38.7" y1="9.4" x2="37.2" y2="14.5"/>
	<line class="st32" x1="29.6" y1="8.6" x2="29.6" y2="13.8"/>
	<line class="st32" x1="20.8" y1="9.4" x2="22.4" y2="14.7"/>
	<line class="st32" x1="11.7" y1="12.8" x2="14.1" y2="17.3"/>
</g>
<g id="icon_73" class="st0">
	<path class="st18" d="M30.1,1.3l25.6,7.4c0,0,2.6,0,2.4,3.4s-0.8,34.5-28,46.9c0,0-27-10.4-28.2-47.3c0,0-0.2-2.2,2.6-3
		C7.3,7.7,30.1,1.3,30.1,1.3z"/>
	<path class="st24" d="M32.3,42h-3.8c-1.6,0-2.8-1.2-2.8-2.8V19.1c0-1.6,1.2-2.8,2.8-2.8h3.8c1.6,0,2.8,1.2,2.8,2.8v20.2
		C34.9,40.8,33.7,42,32.3,42z"/>
	<path class="st24" d="M43.3,27v3.8c0,1.6-1.2,2.8-2.8,2.8H20.3c-1.6,0-2.8-1.2-2.8-2.8V27c0-1.6,1.2-2.8,2.8-2.8h20.2
		C42.1,24.2,43.3,25.4,43.3,27z"/>
</g>
<g id="icon_74" class="st0">
	<path class="st18" d="M29.1,1.6c0,0,9.7-1.6,15.5,2.4c5.7,3.7,9.6,7.8,10.4,13.7S54.6,31,51.8,35.5c-2.8,4.5-4.5,7.3-4.9,8
		c-0.2,0.7-1.6,4.3-0.5,9.2c0.9,4.9,1.6,5.6,1.6,5.6l-26.8,0.5v-5.6c0,0-8.3,0.2-10.4-1.6c-2.1-1.7-2.1-3.5-1.6-4.7
		c0.3-1,0-1.4,0-1.6c0,0-1-0.5-1-1.7c0-0.7,0.7-0.9,0.7-0.9s-0.2-0.3-0.3-0.3c-0.2-0.2-1-0.3-1-1.4c0-0.9,0.5-4.9,0.5-4.9
		s-3-0.3-3.3-2.3c-0.2-1.9,1.4-4.2,2.1-5c0.7-0.9,4-4.7,4-4.7s-1-9.4,2.1-13.6S19,2.8,29.1,1.6z"/>
	<path class="st32" d="M33.6,22.1c-0.5,0.2,0,4.9,4.5,3c2.8-1.2,3.5-6.4-0.3-8.3c-3.3-1.7-7.7-2.1-9.7,2.4
		c-2.3,4.7,0.3,8.9,2.8,10.4s10.4,3.5,13.9-3c3.5-6.6,1.7-13.2-3-15.3c-2.3-1-15-7-20,8.7"/>
</g>
<g id="icon_75" class="st0">
	<circle class="st18" cx="31" cy="20.1" r="18.1"/>
	<polygon class="st18" points="13.9,15.9 6.4,19.9 16.2,25.8 	"/>
	<path class="st18" d="M4,57.8L55.8,58c0,0,3,0.2,2.3-4c-0.8-4.4-3.2-12.4-15.8-12.6c-12.6,0-26.3,0-26.3,0S3.2,41.6,2.3,55.3
		C2.4,57,2.6,57.8,4,57.8z"/>
	<rect x="22.4" y="18.4" class="st24" width="3.4" height="3.6"/>
	<rect x="28.7" y="18.4" class="st24" width="3.4" height="3.6"/>
	<rect x="35.2" y="18.4" class="st24" width="3.4" height="3.6"/>
</g>
<g id="icon_77" class="st0">
	<path class="st18" d="M32.4,26.3h-4.3V4.8c0-1.3,0.9-2.2,2.2-2.2l0,0c1.3,0,2.2,0.9,2.2,2.2C32.4,4.8,32.4,26.3,32.4,26.3z"/>
	<path class="st18" d="M26.4,28.9c0,0,2.2-1.4,3.1-1.4c1.1,0,2-0.2,4.7,1.4l0.5-2.5l-2.9-1.1l-3.3-0.2c0,0-2.2,1.1-2.7,1.3
		c-0.4,0.4-0.2,2.2-0.2,2.2L26.4,28.9z"/>
	<path class="st18" d="M38.5,10.1c0,0,5.8-2.2,12.6,7.4c6,8.5,9,17.2,6.5,31.4c-1.3,6.5-1.4,9-4.7,8.3c-3.3-0.7-13.4-4.9-14.3-5.4
		s-5.1-2.5-4.7-9.2s0-24.4,0-24.4S34.6,10.6,38.5,10.1z"/>
	<line class="st49" x1="37.6" y1="29" x2="51.7" y2="36.4"/>
	<line class="st49" x1="41.8" y1="30.5" x2="47.9" y2="26"/>
	<line class="st49" x1="44.1" y1="25.4" x2="44.7" y2="28"/>
	<line class="st49" x1="50.3" y1="35.4" x2="52.6" y2="33"/>
	<polyline class="st49" points="45.9,34.3 46.1,39.3 49,42.2 	"/>
	<line class="st49" x1="43.4" y1="41.9" x2="46.1" y2="39.3"/>
	<path class="st18" d="M21.9,10.1c0,0-5.8-2.2-12.6,7.4c-6,8.5-9,17.2-6.5,31.4c1.3,6.5,1.4,9,4.7,8.3s13.4-4.9,14.3-5.4
		c0.9-0.7,5.1-2.5,4.7-9.2c-0.4-6.7,0-24.4,0-24.4S25.9,10.8,21.9,10.1z"/>
	<line class="st49" x1="22.8" y1="29.2" x2="8.7" y2="36.6"/>
	<line class="st49" x1="18.7" y1="30.5" x2="12.5" y2="26.1"/>
	<line class="st49" x1="16.3" y1="25.6" x2="15.8" y2="28.1"/>
	<line class="st49" x1="10.2" y1="35.4" x2="7.8" y2="33.2"/>
	<polyline class="st49" points="14.5,34.5 14.3,39.3 11.4,42.4 	"/>
	<line class="st49" x1="17" y1="42" x2="14.3" y2="39.3"/>
</g>
<g id="icon_78" class="st0">
	<path class="st18" d="M18.5,1.4l23.5-0.2c0,0,3.5,17-11.3,17C17.8,18.2,18.5,10.1,18.5,1.4z"/>
	<polygon class="st18" points="21.7,42.3 39.1,42.3 41.9,56 45.4,56 45.4,59 15,59 15,55.5 18.9,55.5 	"/>
	<rect x="22.1" y="32.1" class="st18" width="16.8" height="6.5"/>
	<path class="st18" d="M24.5,20.6c0,0-3,0.9-2.6,7.6l-3.3,0.4l0.2,7.4c0,0-1.7-1.1-2.8-4.4l-3.3,1.1c0,0,2.6,5.7,3.9,6.9l1.9-1.5
		l-1.3,10c0,0-12-6.3-12.2-23.1C4.7,14.9,15,6.8,15,6.8s0.4,5.7,3,8.1c0,0-2.8-0.6-5.2,6.1l3.1,1.5c0,0,0.9-4.3,3.3-5.7
		C18.9,16.8,21.7,19.9,24.5,20.6z"/>
	<path class="st18" d="M36.1,20.6c0,0,3,0.9,2.6,7.6l3.3,0.4L41.9,36c0,0,1.7-1.1,2.8-4.4l3.3,1.1c0,0-2.6,5.7-3.9,6.9L42.2,38
		l1.5,10c0,0,12-6.3,12.2-23.1c0.2-10-10.2-18.1-10.2-18.1s-0.4,5.7-3,8.1c0,0,2.8-0.6,5.2,6.1l-3.1,1.5c0,0-0.9-4.3-3.3-5.7
		C41.5,16.8,38.9,19.9,36.1,20.6z"/>
</g>
<g id="icon_86" class="st0">
	<path class="st18" d="M5.4,54.3H3.6c-0.9,0-1.6-0.7-1.6-1.6V23c0-0.9,0.7-1.6,1.6-1.6h1.8C6.3,21.4,7,22.1,7,23v29.7
		C7,53.6,6.3,54.3,5.4,54.3z"/>
	<rect x="5.9" y="40.6" class="st18" width="52" height="5"/>
	<path class="st18" d="M56.1,54.3h-1.2c-1.1,0-1.8-0.9-1.8-1.8v-6.8c0-1.1,0.9-1.8,1.8-1.8h1.2c1.1,0,1.8,0.9,1.8,1.8v6.8
		C57.9,53.4,57,54.3,56.1,54.3z"/>
	<circle class="st18" cx="21.1" cy="20.8" r="5"/>
	<circle class="st18" cx="15" cy="32.4" r="5"/>
	<path class="st18" d="M20.3,41.1l8-16.2c0,0,1.1-2.7,4.3-1.4c3.2,1.2,19.6,7.7,19.6,7.7s5.3,2.1,5.5,6.8V44L20.3,41.1z"/>
	<path class="st17" d="M49.7,17.4c0,0,1.1-1.6,2.8-1.1c2,0.5,2.1,2.1,2.1,2.1s0.7,4.1-5,7.1c0,0-5.9-2.1-5.5-6.6
		c0.2-1.8,1.6-2.7,2.3-2.7C47.6,16.2,48.8,16.4,49.7,17.4z"/>
	<path class="st17" d="M46.3,6.8c0,0,0.7-1.2,2.1-0.7c1.4,0.4,1.6,1.6,1.6,1.6s0.5,3-3.7,5.3c0,0-4.5-1.6-4.1-5c0.2-1.4,1.1-2,1.8-2
		C44.7,5.9,45.6,5.9,46.3,6.8z"/>
	<path class="st17" d="M37.3,13.5c0,0,0.7-1.2,2.1-0.7c1.4,0.4,1.6,1.6,1.6,1.6s0.5,3-3.7,5.3c0,0-4.5-1.6-4.1-5
		c0.2-1.4,1.1-2,1.8-2C35.7,12.6,36.5,12.6,37.3,13.5z"/>
</g>
<g id="icon_88" class="st0">
	<path class="st18" d="M18.9,57.3L18.9,57.3c-7.6,0-14-6.4-14-14V16.8c0-7.6,6.4-14,14-14l0,0c7.6,0,14,6.4,14,14v26.5
		C32.9,51.1,26.6,57.3,18.9,57.3z"/>
	<rect x="4.9" y="28.9" class="st24" width="28" height="3.4"/>
	<polyline class="st74" points="39.1,24 46.1,24 39.9,30.6 46.9,30.6 	"/>
	<polyline class="st74" points="47.3,10.9 54.1,10.9 48,17.4 55,17.4 	"/>
</g>
<g id="icon_89" class="st0">
	<path class="st18" d="M8.4,11.1l5.1-4.2C14.6,6,16.2,6.2,17,7.2l10.9,12.8c0.9,1.1,0.7,2.6-0.4,3.5l-5.1,4.2
		c-1.1,0.9-2.6,0.7-3.5-0.4L8.1,14.6C7.2,13.4,7.4,12,8.4,11.1z"/>
	<path class="st18" d="M8.1,1.9L8.1,1.9c0.7-0.5,1.8-0.5,2.3,0.2l4,4.8c0.5,0.7,0.5,1.8-0.2,2.3l0,0c-0.7,0.5-1.8,0.5-2.3-0.2
		l-4-4.8C7.4,3.7,7.4,2.6,8.1,1.9z"/>
	<path class="st18" d="M4.5,4.9L4.5,4.9c0.7-0.5,1.8-0.5,2.3,0.2l4,4.8c0.5,0.7,0.5,1.8-0.2,2.3l0,0C10,12.7,8.9,12.7,8.4,12l-4-4.8
		C3.8,6.7,3.8,5.6,4.5,4.9z"/>
	<path class="st18" d="M40.3,27.8c0,0-0.7,4-6,8.4s-8.4,5.6-11.4,4.4c-3-1.4-4.4-2.3-5.3-3.7c-0.9-1.4-1.9-3.2-2.1-4
		c-0.2-0.7-0.4-1.9,2.1-4c2.5-2.1,5.3-4.4,5.3-4.4l7.9-6.9c0,0,1.4-1.1,3.9,0.5c2.5,1.6,3,1.9,3.5,2.8c0.7,1.6,2.1,4.4,2.1,4.4
		S40.4,26.8,40.3,27.8z"/>
	<path class="st50" d="M44.5,31.2c0,0-1.2,15.5-18,14.8"/>
	<path class="st50" d="M51.2,32.2c0,0-3,21.3-24.8,20.2"/>
	<path class="st50" d="M56.8,32c0,0-1.6,26-31.2,26.6"/>
</g>
<g id="icon_90" class="st0">
	<circle class="st18" cx="13.4" cy="33.4" r="6.1"/>
	<path class="st18" d="M4.2,57.7h18.6c0,0,1.7,0.4,1.7-3.1c0.2-3.3,0.2-5.9,0.2-5.9s-0.7-6.3-9.2-6.3c-3.5,0-6.8,0.2-6.8,0.2
		s-6.3,0.4-6.3,7s0,7.2,0,7.2S2.6,57.7,4.2,57.7z"/>
	<circle class="st18" cx="47.2" cy="33.4" r="6.1"/>
	<path class="st18" d="M38,57.7h18.6c0,0,1.7,0.4,1.7-3.1c0.2-3.3,0.2-5.9,0.2-5.9s-0.7-6.3-9.2-6.3c-3.5,0-6.8,0.2-6.8,0.2
		s-6.3,0.4-6.3,7s0,7.2,0,7.2S36.3,57.7,38,57.7z"/>
	<ellipse class="st18" cx="30.2" cy="12.4" rx="14.2" ry="10"/>
	<path class="st18" d="M18.6,17.9L17.1,22c0,0-0.6,2.2,0.2,2.4c0.9,0.2,1.8-0.2,2.9-1.1c1.1-0.9,3.7-2.6,3.7-2.6L18.6,17.9z"/>
	<path class="st18" d="M36.5,20.9l4.8,3.1c0,0,0.9,0.7,1.8,0.4c0.9-0.4,0.2-2.2,0.2-2.6c0-0.4-1.5-4.4-1.5-4.4L36.5,20.9z"/>
	<path class="st24" d="M34.1,9.8H26c-0.6,0-0.9-0.4-0.9-0.9l0,0C25.1,8.3,25.4,8,26,8h8.1C34.6,8,35,8.3,35,8.9l0,0
		C35,9.4,34.6,9.8,34.1,9.8z"/>
	<path class="st24" d="M35.4,13.3H24.7c-0.6,0-0.9-0.4-0.9-0.9l0,0c0-0.6,0.4-0.9,0.9-0.9h10.7c0.6,0,0.9,0.4,0.9,0.9l0,0
		C36.3,12.9,35.9,13.3,35.4,13.3z"/>
	<path class="st24" d="M34.1,16.4H26c-0.6,0-0.9-0.4-0.9-0.9l0,0c0-0.6,0.4-0.9,0.9-0.9h8.1c0.6,0,0.9,0.4,0.9,0.9l0,0
		C35,16.1,34.6,16.4,34.1,16.4z"/>
</g>
<g id="icon_91" class="st0">
	<path class="st18" d="M16.2,58.5L27,58.3c0,0,1.8-3,5.4-2.8c1.8,0,2.4-0.2,2.6-1.8c0-1.8,0.2-3.4,0.2-3.4s-0.2-0.8-2.2-1
		c-2.2-0.2-2.8-1.4-3-1.8L16.4,44c0,0-1.6,1.8-3.8,1.6c-2.2-0.2-3.2-0.8-3.4,1.2c-0.2,2-0.6,4.6-0.6,4.6s-0.8,2,2.6,2.6
		c3.4,0.6,3.8,1.6,3.6,2.8S15.4,58.5,16.2,58.5z"/>
	<path class="st18" d="M17,41l13.7,3c0,0,1.2-0.8,2.4-0.4s3.8,0.6,4-0.4c0.2-1,0.8-3.8,0.8-3.8s-0.2-1.4-1.4-1.6
		c-1.2-0.2-2.6-0.6-3-2.4l-13.1-6c0,0-1,1.6-2.8,1c-1.6-0.6-4-1.6-4.6,0.4c-0.6,1.8-1.4,4.8-1.4,4.8s-0.2,2.2,1.8,2.2
		C15,37.8,16.8,39,17,41z"/>
	<path class="st18" d="M21.8,26.5l12.5,5.4c0,0,1.4,0,2.2,0.2c0.8,0,2.4,1,2.8,1.2s1.8-0.2,2.4-1.2c0.6-1,1.6-2.4,1.6-2.4
		s0.4-1.2-0.8-2.2c-1.2-1-2.4-1.2-3-3.4S28.7,16,28.7,16s-2.2,1.2-4,0.2s-2.4-2.2-3.6-0.6C20,17.1,18,19.9,18,19.9s-0.8,1.8,0.8,2.8
		C20.4,23.7,22.2,24.1,21.8,26.5z"/>
	<path class="st18" d="M30.3,13l10.9,8.1c0,0,2.4,0.2,3.6,1.4c1.2,1.2,2.2,1.4,3.4,0.4c1.2-1,3-3.2,3-3.2s0.6-1.2-0.6-2.6
		c-1.2-1.4-3-2.4-1.8-5c0.4-0.8,0-1.2-0.4-1.4s-6.8-6.2-6.8-6.2s-1.2-1.2-3.2-0.4C36.5,5,34.3,2,34.3,2s-1-0.8-2.2,0.2
		c-1.2,1-4.2,4-4.2,4s-1,1.2,0.2,2.6c1.2,1.4,2.6,1.8,2.4,4C30.3,13,30.3,13,30.3,13z"/>
	<path class="st24" d="M24.8,52.7l-6.4-1c-1-0.2-1.8-1.2-1.6-2.2l0,0c0.2-1,1.2-1.8,2.2-1.6l6.4,1c1,0.2,1.8,1.2,1.6,2.2l0,0
		C27,52.1,26,52.9,24.8,52.7z"/>
	<path class="st24" d="M27.4,39.6l-6.2-1.8c-1-0.4-1.6-1.4-1.4-2.4l0,0c0.4-1,1.4-1.6,2.4-1.4l6.2,1.8c1,0.4,1.6,1.4,1.4,2.4l0,0
		C29.5,39.4,28.5,40,27.4,39.6z"/>
	<path class="st24" d="M40.3,16.7l-4.8-4.4c-0.8-0.8-0.8-2-0.2-2.8l0,0c0.8-0.8,2-0.8,2.8-0.2l4.8,4.4c0.8,0.8,0.8,2,0.2,2.8l0,0
		C42.3,17.5,41.1,17.5,40.3,16.7z"/>
	<path class="st24" d="M32.1,28.1l-5.6-3.2c-1-0.6-1.2-1.8-0.8-2.8l0,0c0.6-1,1.8-1.2,2.8-0.8l5.6,3.2c1,0.6,1.2,1.8,0.8,2.8l0,0
		C34.3,28.3,33.1,28.7,32.1,28.1z"/>
</g>
<g id="icon_92" class="st0">
	<ellipse class="st18" cx="30" cy="30.1" rx="28" ry="28.4"/>
	<path class="st24" d="M12,12.8c0,0,5.5-4.5,10.6-2.4s7.3,7.3,4.7,13S17,28.7,15.6,28.1C14,27.3,4.4,22.4,12,12.8z"/>
	<path class="st24" d="M9.3,32.8c0,0,8.3-7.5,15.8,2.2c4.9,6.5-2,13.2-3.5,13.6c-2,0.4-9.3,2-13-5.1C5.5,38.8,7.9,33.8,9.3,32.8z"/>
	<path class="st24" d="M34.9,26.5c0,0,15.4-0.2,16.3,0c1.2,0.2,3.2,1.8,2,5.7c-1.2,3.9-6.3,8.9-11.2,8.3c-5.1-0.6-10-6.5-9.8-11
		C32.3,27.3,33.5,26.5,34.9,26.5z"/>
	<path class="st24" d="M34.9,25c0,0,15.4,0.2,16.3,0c1-0.2,3.2-1.8,2-5.7c-1-3.7-6.3-8.9-11.2-8.3c-5.1,0.6-10,6.5-9.8,11
		C32.5,24.2,33.7,25,34.9,25z"/>
	<circle class="st24" cx="27.6" cy="7.1" r="2.2"/>
	<circle class="st24" cx="6.3" cy="27.5" r="2.2"/>
	<circle class="st24" cx="35.5" cy="47.2" r="2.2"/>
	<circle class="st24" cx="46.9" cy="43.1" r="2"/>
	<circle class="st24" cx="29.6" cy="52.9" r="2.2"/>
	<circle class="st18" cx="18.9" cy="17.9" r="3"/>
	<circle class="st18" cx="17" cy="38.4" r="3"/>
	<path class="st20" d="M39,25.4c0,0-0.6-6.9,3.5-7.5s4.5,4.1,4.5,7.3s0.6,7.1-1.6,8.5C43,35.4,39,34.2,39,29.9
		C39,25.8,39,25.4,39,25.4z"/>
</g>
<g id="icon_93" class="st0">
	<g class="st1">
		<g>
			<circle id="SVGID_26_" class="st8" cx="30" cy="30.1" r="27.8"/>
		</g>
		<g>
			<g>
				<defs>
					<circle id="SVGID_29_" cx="30" cy="30.1" r="27.8"/>
				</defs>
				<clipPath id="SVGID_30_">
					<use xlink:href="#SVGID_29_"  style="overflow:visible;"/>
				</clipPath>
				<line class="st75" x1="47.7" y1="8" x2="11.3" y2="51.6"/>
			</g>
		</g>
	</g>
	<path class="st76" d="M19.9,38.5l1.5,6.2h17l1.5-5.7c0,0,5.7-4.6,5.8-9.5c0-5.8-2.2-11.9-8.4-15.2c-6.8-3.7-14.6-1.6-18.6,2.6
		C15.9,19.5,10.4,29.7,19.9,38.5z"/>
	<rect x="20.1" y="25.2" class="st24" width="3.3" height="6.9"/>
	<rect x="36" y="25.2" class="st24" width="3.3" height="6.9"/>
	<rect x="28.1" y="31.9" class="st24" width="3.3" height="3.3"/>
	<rect x="25" y="40.3" class="st24" width="3.1" height="4.9"/>
	<rect x="31.4" y="40.3" class="st24" width="3.1" height="4.9"/>
</g>
<g id="icon_94" class="st0">
	<path class="st18" d="M11.1,2.1h37.1c0,0,3.4-0.2,3.4,3.4c0,4.6,1.2,12.4,1.6,13.8c0.4,1.4,1.6,12.5,1.6,19.4s3.2,9.7,3.4,14
		c0.2,4.2,1.2,5.7-1.8,5.7c-3,0-53.4,0-53.4,0s-2.5-0.2-1.4-5.8c1.2-5.7,3-8.1,3.5-15.4c0.4-3.9-0.2-14.1,1.4-18.7
		C8.1,13.6,8.5,5.6,8.5,4.7C8.6,3.7,8.6,2.1,11.1,2.1z"/>
	<path class="st77" d="M30.7,7.6H29c-0.9,0-1.6-0.7-1.6-1.6l0,0c0-0.9,0.7-1.6,1.6-1.6h1.8c0.9,0,1.6,0.7,1.6,1.6l0,0
		C32.3,6.9,31.6,7.6,30.7,7.6z"/>
	<rect x="28.4" y="46.8" class="st77" width="3.4" height="11.3"/>
	<path class="st78" d="M36.7,33.2L34.1,36v7.6c0,0,0.2,3.9-3.5,3.9c-3.4,0-4.6-1.8-4.6-3.2c0-1.4,0-8.8,0-8.8l-2.5-2.3"/>
</g>
<g id="icon_95" class="st0">
	<path class="st18" d="M16.3,2.8l12.5-0.4c0,0,2.8-0.6,2.2,3.7c-0.6,4.3-3.4,29.3-3.5,30.8s0,7.1,4.5,8.6c4.5,1.5,16.4,6.7,15.1,9.3
		c-1.3,2.6-3.9,3.2-6.5,2.4c-2.8-0.6-13.1-4.1-21.5-1.5c-4.1,1.3-6.5-2.6-6.3-4.9c0.2-2.1,2.8-5.6,3.2-7.3c0.2-1.7,0.6-4.3-0.4-9
		c-0.9-4.5-3.5-21.1-2.6-26.3C13.9,3.4,14.1,2.8,16.3,2.8z"/>
	<path class="st22" d="M23,9c0,0-5.2,4.7-4.5,14c0.7,9.3,3.9,9,3.7,18.3c-0.2,6.2-0.9,8.8-0.9,8.8"/>
	<path class="st22" d="M22.7,43.6c0,0,2.2,5.8,5,7.8"/>
	<path class="st22" d="M20.4,13.9c0,0,3.4,3.5,3.4,8s1.9,7.5,1.9,7.5"/>
	<path class="st22" d="M14.8,15.4c0,0,0.7,6.2,3.5,9"/>
	<path class="st79" d="M20.2,31c0,0-0.7,4.5-1.3,6.7"/>
	<path class="st80" d="M24.9,47.3c0,0,8.2,0.7,11.2,2.8"/>
	<path class="st79" d="M31.8,49.2c0,0-0.2,3.2,2.6,4.5"/>
	<path class="st79" d="M35.5,49.9c0,0,0.4,2.6,2.6,2.6"/>
</g>
<g id="icon_96" class="st0">
	<path class="st18" d="M10.9,2.2h37.2c0,0,3.6-0.4,2.5,3.3c-0.4,1-0.8,10.7,1.9,16.7c2.7,5.9,5.4,14.4,2.3,29.5
		c-1.1,5.7-1.5,6.1-4.6,6.3c-3.1,0-41.8,0-41.8,0s-2.3,0.6-3.1-3.1S1.5,34,5.4,24.4C6.7,20.9,8,15,8.2,10.8S8,3.5,8,3.5
		S8.2,2.2,10.9,2.2z"/>
	<path class="st32" d="M25.3,32.4c0,0-0.8,19.3,4,19.3s4.4-19,4.4-19"/>
	<path class="st32" d="M41.4,39.9c0,0-2.1,5.7-7.9,5.2"/>
	<rect x="28" y="51" class="st24" width="2.7" height="6.9"/>
	<circle class="st17" cx="26.1" cy="45.1" r="3.3"/>
	<circle class="st17" cx="33.3" cy="39.5" r="4.4"/>
	<circle class="st81" cx="33.1" cy="39.7" r="2.3"/>
</g>
<g id="icon_97" class="st0">
	<path class="st18" d="M7.3,52.5L7.3,52.5c-6.3-6.3-6.1-16.3,0-22.6L30.1,7.3c6.3-6.3,16.3-6.1,22.6,0l0,0c6.3,6.3,6.1,16.3,0,22.6
		L29.9,52.5C23.6,58.8,13.4,58.6,7.3,52.5z"/>
	
		<rect x="27.3" y="13.9" transform="matrix(0.7098 -0.7044 0.7044 0.7098 -12.3615 29.7396)" class="st24" width="5.3" height="31.9"/>
	<path class="st82" d="M27.2,43.9c0,0,1,13.5,12.9,13.7c12,0.2,13.5-11,13.3-13.7c0,0,0.6-1.5-1.5-1.5c-1.9,0-6.5,1.3-8,3.4
		l-5.7,2.9l-2.1-3.8c0,0-3-2.3-7.4-2.5C29,42.2,27.2,41.8,27.2,43.9z"/>
	<path class="st40" d="M40.9,37.5c0,0,9.7,8.6,0.4,19.2c0,0-1,1-1.7,0.2s-8.7-9.9-0.4-19.2C39.2,37.7,40,36.5,40.9,37.5z"/>
</g>
<g id="icon_98" class="st0">
	<circle class="st18" cx="29.7" cy="8.7" r="6.8"/>
	<path class="st18" d="M14.8,48.9l10-3.9l-11.8-4.2c0,0-3.1-0.9-4.1,1.7c-1.1,3,1.5,4.4,1.8,4.6C11.3,47.5,14.8,48.9,14.8,48.9z"/>
	<path class="st18" d="M35.8,56.1l7.7-3.1c0,0,1.5,3.3-0.6,4.4C41.2,58.7,39.1,58.3,35.8,56.1z"/>
	<path class="st18" d="M49.6,46.9L19.8,58c-1.7,0.6-3.5-0.2-4.2-1.8v-0.2c-0.6-1.7,0.2-3.5,1.8-4.2l29.9-11.1
		c1.7-0.6,3.5,0.2,4.2,1.8v0.2C52,44.5,51.3,46.4,49.6,46.9z"/>
	<path class="st18" d="M22.7,27.7l0.2,12.7l7.2,3l7-3V27.5l3.9,7.4c0,0,1.1,2.4,2.8,2.4c1.7,0,12.4-0.2,12.4-0.2s2.6-0.2,2.4-3.5
		c0-3.5-3.3-3.3-3.3-3.3l-8.7,0.2l-5.7-11.8c0,0-0.9-2.8-4.6-2.8s-12.9,0.2-12.9,0.2s-2.8,0-4.2,3.3c-1.3,3.3-5.2,10.7-5.2,10.7h-10
		c0,0-2.2,0-2.4,3.3s2.4,3.7,3.3,3.7c0.7,0,11.1-0.2,11.1-0.2s2.2,0,3.5-2.6C20.5,31.8,22.7,27.7,22.7,27.7z"/>
</g>
</svg>
