<?xml version="1.0" encoding="utf-8"?>
<!-- Generator: Adobe Illustrator 23.0.1, SVG Export Plug-In . SVG Version: 6.00 Build 0)  -->
<svg version="1.1" id="Layer_1" xmlns="http://www.w3.org/2000/svg" xmlns:xlink="http://www.w3.org/1999/xlink" x="0px" y="0px"
	 viewBox="0 0 40.9 60" style="enable-background:new 0 0 40.9 60;" xml:space="preserve">
<style type="text/css">
	.st0{display:none;}
	.st1{display:inline;}
	.st2{fill:#FDD7AD;stroke:#ED6D63;stroke-linecap:round;stroke-miterlimit:10;}
	.st3{fill:#FDB8AD;}
	.st4{fill:none;stroke:#ED6D63;stroke-miterlimit:10;}
	.st5{fill:none;stroke:#ED6D63;stroke-linecap:round;stroke-miterlimit:10;}
	.st6{fill:none;stroke:#1341A3;stroke-miterlimit:10;}
	.st7{fill:#EF5361;}
	.st8{fill:#1341A3;}
	.st9{fill:#E4E8F1;}
	.st10{fill:#FDD7AD;stroke:#ED6D63;stroke-miterlimit:10;}
	.st11{fill:none;stroke:#1341A3;stroke-width:1.5;stroke-miterlimit:10;}
	.st12{fill:#65B54E;}
	.st13{fill:#477F37;}
	.st14{display:inline;fill:#ED6D63;}
	.st15{display:inline;fill:#FFD3DD;}
	
		.st16{clip-path:url(#SVGID_4_);fill:none;stroke:#E4E8F1;stroke-width:2;stroke-linecap:round;stroke-linejoin:round;stroke-miterlimit:10;}
	.st17{display:inline;fill:#EF5361;}
	.st18{display:inline;fill:#1341A3;}
	.st19{display:inline;fill:none;stroke:#1341A3;stroke-width:2;stroke-linecap:round;stroke-miterlimit:10;}
	.st20{display:inline;fill:none;stroke:#1341A3;stroke-width:1.5;stroke-miterlimit:10;}
	.st21{clip-path:url(#SVGID_7_);fill:#EF5361;}
	.st22{display:inline;fill:none;stroke:#E4E8F1;stroke-linecap:round;stroke-miterlimit:10;}
	
		.st23{clip-path:url(#SVGID_9_);fill:none;stroke:#E4E8F1;stroke-width:2;stroke-linecap:round;stroke-linejoin:round;stroke-miterlimit:10;}
	.st24{display:inline;fill:#E4E8F1;}
	.st25{clip-path:url(#SVGID_13_);fill:#0F367C;}
	.st26{clip-path:url(#SVGID_15_);fill:#5CA547;}
	.st27{display:inline;fill:#FDD7AD;stroke:#ED6D63;stroke-linecap:round;stroke-linejoin:round;stroke-miterlimit:10;}
	.st28{display:inline;fill:none;stroke:#ED6D63;stroke-linecap:round;stroke-miterlimit:10;}
	.st29{display:inline;fill:#FDD7AD;stroke:#FF736C;stroke-linecap:round;stroke-linejoin:round;stroke-miterlimit:10;}
	.st30{display:inline;fill:none;stroke:#FF736C;stroke-linecap:round;stroke-linejoin:round;stroke-miterlimit:10;}
	.st31{display:inline;fill:none;stroke:#FF736C;stroke-linecap:round;stroke-miterlimit:10;}
	.st32{display:inline;fill:none;stroke:#E4E8F1;stroke-width:1.5;stroke-linecap:round;stroke-miterlimit:10;}
	.st33{display:inline;fill:none;stroke:#1341A3;stroke-width:1.7;stroke-miterlimit:10;}
	.st34{display:inline;fill:#89D7F4;}
	.st35{fill:#ED6D63;}
	.st36{clip-path:url(#SVGID_18_);fill:#FDD7AD;}
	.st37{display:inline;fill:#3A3A3A;}
	.st38{display:inline;fill:none;stroke:#1341A3;stroke-miterlimit:10;}
	.st39{display:inline;fill:#C1434E;}
	.st40{display:inline;fill:#65B54E;}
	.st41{display:inline;fill:none;stroke:#559842;stroke-width:0.5;stroke-linecap:round;stroke-miterlimit:10;}
	.st42{fill:none;stroke:#E4E8F1;stroke-linecap:round;stroke-miterlimit:10;stroke-dasharray:2.0138,2.0138;}
	.st43{fill:#FDD7AD;stroke:#ED6D63;stroke-linecap:round;stroke-linejoin:round;stroke-miterlimit:10;}
	.st44{display:inline;fill:none;stroke:#EF5361;stroke-width:3;stroke-miterlimit:10;}
	.st45{display:inline;fill:none;stroke:#1341A3;stroke-width:3;stroke-miterlimit:10;}
	.st46{display:inline;fill:none;stroke:#E4E8F1;stroke-width:1.2;stroke-miterlimit:10;}
	.st47{display:inline;fill:none;stroke:#E4E8F1;stroke-width:1.2;stroke-linecap:round;stroke-miterlimit:10;}
	.st48{display:inline;fill:#1341A3;stroke:#E4E8F1;stroke-width:2;stroke-miterlimit:10;}
	.st49{display:inline;fill:none;stroke:#E4E8F1;stroke-width:2;stroke-linecap:round;stroke-miterlimit:10;}
	.st50{display:inline;fill:none;stroke:#1341A3;stroke-width:1.5;stroke-linecap:round;stroke-miterlimit:10;}
	.st51{fill:#FF9289;stroke:#ED6D63;stroke-width:0.7;stroke-miterlimit:10;}
	.st52{fill:none;stroke:#ED6D63;stroke-width:0.7;stroke-linecap:round;stroke-miterlimit:10;}
	.st53{fill:#FF9289;stroke:#ED6D63;stroke-miterlimit:10;}
	.st54{display:inline;fill:#FF9289;stroke:#ED6D63;stroke-miterlimit:10;}
	.st55{display:inline;fill:none;stroke:#E4E8F1;stroke-width:1.5;stroke-miterlimit:10;}
	.st56{display:inline;fill:none;stroke:#E4E8F1;stroke-width:1.5;stroke-linejoin:round;stroke-miterlimit:10;}
	.st57{display:inline;fill:none;stroke:#1341A3;stroke-linecap:round;stroke-miterlimit:10;}
	.st58{font-family:'Montserrat-Bold';}
	.st59{font-size:8.4097px;}
	.st60{font-size:6.761px;}
	.st61{font-size:5.5917px;}
	.st62{font-size:4.6914px;}
	
		.st63{display:inline;fill:none;stroke:#E4E8F1;stroke-width:1.5;stroke-linecap:round;stroke-linejoin:round;stroke-miterlimit:10;}
	.st64{display:inline;fill:none;stroke:#E4E8F1;stroke-miterlimit:10;}
	.st65{clip-path:url(#SVGID_21_);fill:none;stroke:#E4E8F1;stroke-width:1.5;stroke-linecap:round;stroke-miterlimit:10;}
	
		.st66{display:inline;fill:none;stroke:#1341A3;stroke-width:1.5;stroke-linecap:round;stroke-linejoin:round;stroke-miterlimit:10;}
	.st67{display:inline;fill:#1341A3;stroke:#89D7F4;stroke-width:1.5;stroke-miterlimit:10;}
	.st68{fill:#89D7F4;}
	.st69{display:inline;fill:none;stroke:#1341A3;stroke-width:2;stroke-miterlimit:10;}
	.st70{clip-path:url(#SVGID_23_);fill:#1341A3;}
	.st71{clip-path:url(#SVGID_25_);fill:none;stroke:#E4E8F1;stroke-linecap:round;stroke-miterlimit:10;}
	
		.st72{display:inline;fill:none;stroke:#1341A3;stroke-width:2.5;stroke-linecap:round;stroke-linejoin:round;stroke-miterlimit:10;}
	.st73{display:inline;fill:none;stroke:#1341A3;stroke-width:2.5;stroke-linecap:round;stroke-miterlimit:10;}
	.st74{clip-path:url(#SVGID_28_);fill:none;stroke:#E4E8F1;stroke-width:3;stroke-miterlimit:10;}
	.st75{display:inline;fill:#1341A3;stroke:#E4E8F1;stroke-width:2.5;stroke-miterlimit:10;}
	.st76{display:inline;fill:#E6EAF2;}
	.st77{display:inline;fill:none;stroke:#E6EAF2;stroke-width:1.5;stroke-linecap:round;stroke-miterlimit:10;}
	.st78{display:inline;fill:none;stroke:#E4E8F1;stroke-width:0.5;stroke-linecap:round;stroke-miterlimit:10;}
	.st79{display:inline;fill:none;stroke:#E4E8F1;stroke-width:0.8;stroke-linecap:round;stroke-miterlimit:10;}
	.st80{display:inline;fill:#D84B58;}
	.st81{display:inline;fill:#579B43;}
</style>
<g id="icon_1" class="st0">
	<g class="st1">
		<path class="st2" d="M11.9,23.3c0.4,0.1,0.8-0.2,0.8-0.6v-7.1c0,0,0-2.7,3.4-2.1c0.3,0.1,0.6-0.1,0.7-0.4c0.2-0.6,0.9-1.5,2.9-1.5
			c1.2,0,1.7,0.7,1.9,1.3c0.1,0.3,0.5,0.5,0.8,0.4c0.7-0.2,1.7-0.4,2.3,0.3c0.8,0.8,0.9,1.5,1,2.3c0,0.4,0.3,0.6,0.7,0.6
			c1.2-0.1,3.3-0.1,3.3,2.1v14c0,0,0,3.6-1.7,4.8c-0.2,0.1-0.3,0.3-0.3,0.6v10c0,0.4-0.3,0.7-0.7,0.7H16.3c-0.4,0-0.6-0.3-0.6-0.7
			v-9.8c0-0.3-0.2-0.5-0.5-0.6c-0.8-0.3-2.9-1.7-6.5-9l0,0c-0.1-0.1-2-4,0-5C9.9,23,11.1,23.1,11.9,23.3z"/>
		<path class="st3" d="M29.2,32.1c0,0-1,0-1-1c0-1,0-3-3-3s-3,2-3,2s0,1-1,2c-1,1-2,3-1,4s4,1,5,2s2,1,2,1v-1l0,0c1.3-1.3,2-3,2-4.8
			v-0.2V32.1z"/>
		<path class="st4" d="M21.7,13.6"/>
		<line class="st5" x1="21.7" y1="25.6" x2="21.7" y2="13.6"/>
		<line class="st5" x1="25.7" y1="26.6" x2="25.7" y2="16.6"/>
		<line class="st5" x1="16.7" y1="25.6" x2="16.7" y2="13.6"/>
		<line class="st5" x1="12.7" y1="28.6" x2="12.7" y2="16.6"/>
		<circle class="st3" cx="15.2" cy="31.1" r="0.5"/>
		<circle class="st3" cx="15.7" cy="29.6" r="0.5"/>
		<circle class="st3" cx="20.7" cy="28.6" r="0.5"/>
		<circle class="st3" cx="20.2" cy="31.1" r="1"/>
		<circle class="st3" cx="15.7" cy="34.6" r="1.5"/>
		<circle class="st3" cx="18.7" cy="34.6" r="0.5"/>
		<circle class="st3" cx="18.7" cy="37.6" r="0.5"/>
		<circle class="st3" cx="18.7" cy="40.6" r="0.5"/>
		<circle class="st3" cx="21.7" cy="41.6" r="0.5"/>
		<circle class="st3" cx="25.2" cy="40.1" r="1"/>
		<circle class="st3" cx="18.2" cy="44.1" r="2"/>
		<circle class="st3" cx="24.7" cy="45.6" r="0.5"/>
	</g>
</g>
<g id="icon_2" class="st0">
	<g class="st1">
		<path class="st6" d="M27.7,22.1c0,0-4.3,0.5-4.6,3.5s-0.3,7.2-0.3,7.2L20.6,33l0.3-6.7l0,0c0-0.2-0.2-3.7,2.8-5.6
			c1.7-1.1,4.4-1.1,4.4-1.1"/>
		<path class="st6" d="M12.3,19.6c0,0,3.6,0.9,5.3,2.9c1.3,1.5,1.2,3.5,1.2,5.8c0,1.6,0,3,0,4.7h-1.9v-6.3c0,0,0.2-2.3-2.2-3.7
			c-0.8-0.5-2.3-1-4.2-0.9"/>
		<path class="st7" d="M28.8,15.1c0,0,2.5-1,4.2,0.6c1.3,1.2,2.5,2.9,2.5,7.1s-3,5.4-3.6,5.7c-0.2,0.1-3.8,1.1-4.9-2.3
			c-0.5-1.5,0.2-4.6,0.2-4.6s0.1-0.9-0.3-2.1C26.3,18.2,26.6,16,28.8,15.1z"/>
		<path class="st7" d="M16.4,31.8h7c0,0,2.7,0.3,2.6,3.4s-1.8,4.1-1.8,4.1s-1.8,1.4-2,3.3C22,44.4,22,45.5,22,45.5h-4
			c0,0,0-2.3-0.1-2.9s-1-2.6-1.8-3.5c-0.4-0.4-2.1-2-1.9-4.5C14.3,32.9,16.4,31.8,16.4,31.8z"/>
		<path class="st7" d="M11.3,15.1c0,0-2.5-1-4.2,0.6c-1.4,1.2-2.5,2.9-2.5,7.1s3,5.4,3.6,5.7c0.1,0.1,3.8,1.1,4.9-2.3
			c0.5-1.5-0.1-4.6-0.1-4.6s-0.1-0.9,0.4-2.1C13.8,18.2,13.4,16,11.3,15.1z"/>
	</g>
</g>
<g id="icon_3" class="st0">
	<g class="st1">
		
			<rect x="9.8" y="24.5" transform="matrix(0.6787 -0.7344 0.7344 0.6787 -14.0331 25.008)" class="st8" width="23.5" height="8.1"/>
		
			<rect x="11.4" y="36.2" transform="matrix(0.6787 -0.7344 0.7344 0.6787 -23.8949 21.5676)" class="st8" width="2.6" height="3.8"/>
		<path class="st8" d="M12.3,38.6L12.3,38.6c0.2,0.2,0.2,0.4,0,0.6L6,46c-0.1,0.2-0.4,0.2-0.6,0l0,0c-0.2-0.2-0.2-0.4,0-0.6l6.3-6.8
			C11.8,38.4,12.1,38.4,12.3,38.6z"/>
		<path class="st8" d="M33.8,23.7l-8.4-7.8c-0.3-0.2-0.3-0.6,0-0.9l0,0c0.2-0.3,0.7-0.3,0.9,0l8.4,7.7c0.3,0.2,0.3,0.6,0,0.9l0,0
			C34.4,23.9,34,23.9,33.8,23.7z"/>
		<path class="st8" d="M35.2,19.5l-5.8-5.4c-0.3-0.3-0.3-0.7,0-1l0,0c0.3-0.3,0.7-0.3,1,0l5.9,5.4c0.3,0.3,0.3,0.7,0,1l0,0
			C36,19.8,35.5,19.8,35.2,19.5z"/>
		
			<rect x="30.7" y="15.6" transform="matrix(0.6787 -0.7344 0.7344 0.6787 -2.4617 28.9479)" class="st8" width="2.3" height="3.4"/>
		<path class="st9" d="M25.6,21.8l-1.8-1.7l0.7-0.7l1.8,1.7c0.2,0.2,0.2,0.5,0,0.7l0,0C26.1,22,25.8,22,25.6,21.8z"/>
		<path class="st9" d="M23.4,24.2l-1.9-1.7l0.6-0.7l1.8,1.7c0.2,0.2,0.2,0.5,0,0.7l0,0C23.9,24.4,23.6,24.4,23.4,24.2z"/>
		<path class="st9" d="M21.2,26.6l-1.9-1.7l0.6-0.7l1.9,1.7c0.2,0.2,0.2,0.5,0,0.7l0,0C21.7,26.8,21.4,26.8,21.2,26.6z"/>
		<path class="st9" d="M19,29l-1.9-1.7l0.6-0.7l1.9,1.7c0.2,0.2,0.2,0.5,0,0.7l0,0C19.5,29.2,19.2,29.2,19,29z"/>
		<path class="st9" d="M16.7,31.5l-1.9-1.7l0.6-0.7l1.9,1.7c0.2,0.2,0.2,0.5,0,0.7l0,0C17.2,31.6,16.9,31.6,16.7,31.5z"/>
		<path class="st9" d="M14.5,33.9l-1.9-1.7l0.6-0.7l1.9,1.7c0.2,0.2,0.2,0.5,0,0.7l0,0C15,34,14.7,34.1,14.5,33.9z"/>
	</g>
</g>
<g id="icon_4" class="st0">
	<g class="st1">
		<path class="st10" d="M15.3,14.5c0,0,1.3,0.1,2,0.1c1.1,0.1,7.9,0.8,8.3,8.5c0.4,7.2-3.3,9.4-4.4,10.9c-0.8,1-1.5,2-1,5
			c0.6,3.6-1.8,6.5-4.5,7s-8,0.3-8.8-5.5c-0.8-5.7-1.3-11.6-1.6-13.9c-0.4-3.2-0.1-8,3.6-10.4C11.9,14.2,14.8,14.5,15.3,14.5z"/>
		<path class="st4" d="M18.4,29.1c0,0,4.9-7.4-0.9-9.5c-4.4-1.6-6.6,0.6-7.6,3.1c-0.2,0.5-0.6,2-0.7,3.9c-0.2,2.5-0.1,5.9,1.3,8.6
			c2.5,4.9,5.1,2.1,5.1,2.1s2.4-2.9,0.6-7s-6.7-3.7-6.7-3.7"/>
		<line class="st11" x1="30.5" y1="22.4" x2="36.6" y2="19.1"/>
		<line class="st11" x1="32.5" y1="30.2" x2="40.5" y2="30.2"/>
		<line class="st11" x1="30.5" y1="37.3" x2="37.2" y2="41"/>
	</g>
</g>
<g id="icon_5" class="st0">
	<g class="st1">
		<path class="st8" d="M1.4,34.3L6.1,43l-1.9,1.2c0,0-0.9,0.7-1.4-0.3c-0.5-0.9-3.9-7-3.9-7s-0.5-0.6,0.3-1.2
			C0,35.2,1.4,34.3,1.4,34.3z"/>
		<path class="st8" d="M7.6,42.1l2.7-1.5l11.4,2.3c0,0,3.6,0.8,5.8,0s13-5.5,13-5.5s1.8-0.5,1.1-2.3c-0.7-1.7-2.5-1.1-2.5-1.1
			l-8.4,3.6c-0.1,0-0.2,0-0.2,0.1c-0.9,0.4-2.9,0.2-4.8,0c-2.1-0.1-7.2-0.4-7.2-0.4s-0.5,0-0.5-0.6c0.1-0.6,1.7-0.4,1.7-0.4l8.4,0.4
			c0,0,0.2,0,0.5-0.1c0.5-0.2,1.3-0.8,1.1-1.9c-0.2-1.6-1.2-2.1-2.7-2.1s-7.9-1.3-9.3-1.9c-1.3-0.5-3.6-1.7-5.9-1.4
			c-2.2,0.3-3.8,0.9-5.6,2c-1.9,1.1-3.4,2.1-3.4,2.1L7.6,42.1z"/>
		<path class="st8" d="M31.2,34.2v1.7l7.2-2.7c0,0-0.6-1-2.4-0.5C34.1,33.1,31.2,34.2,31.2,34.2z"/>
		<path class="st8" d="M30.7,33l4.5-1.3c0,0-0.7-0.6-2.9-0.2S29.8,32,29.8,32L30.7,33z"/>
		<path class="st12" d="M19.8,30.1c0,0,6.6,0.3,9.5-3.3S32.7,20,32.1,16c0,0-3.7-1.3-8.5,1c-2.4,1.2-6.1,3.9-5.8,11.4l3.8-2
			L19.8,30.1z"/>
		<path class="st12" d="M21.7,16.8c0,0-4.3,2.1-4.8,7.1c0,0-3-1.8-1.9-8.1C15,15.8,19.3,15.1,21.7,16.8z"/>
		<polygon class="st13" points="20.7,28.1 23.3,25.4 26.4,24.7 24,24.7 27.3,21 28.4,20.6 27.6,20.6 29.9,18.1 28.5,19.3 28.4,18.9 
			28.2,19.5 25.2,22.3 25,21 24.6,22.7 19.8,27.3 21.6,26.3 		"/>
	</g>
</g>
<g id="icon_6" class="st0">
	<path class="st14" d="M12.2,18.1c0,0,0.5,4.1,5.7,3.9c0,0,0.5-4.3,3.8-5.2c3.3-0.9,9,0.6,11.4,4.1c2.4,3.4,4.7,8.3-0.7,17.6
		c-4.1,7.2-15.8,8.8-18.1,5.3C13.8,43,13.9,42,13.9,42s-1.7,0.5-1.9,2.1c-0.2,1.5-0.6,1.6-0.9,1.6c-0.4,0-3.8,0-3.8,0
		s-0.8-0.4-0.6-1.5c0.2-1.2,1.4-6.9,6.8-7.3c3.1-0.3,3.9,0,4-3c0.1-2.6,0-6.4,0-6.4s-5.3,0.5-7.9-2.7s-2.9-7.1-2.9-7.1s0-1,0.9-1
		s3.7,0,3.7,0s0.6,0.1,0.7,1L12.2,18.1z"/>
	<path class="st15" d="M22.4,32.1c0,0,3.5,0.6,5.7-0.3c2.1-1,2.9-1.7,3.8-1.4c0.9,0.4,1.3,1.4,0.9,3.6c-0.4,2.2-3.9,7-8.8,8.9
		s-7.5,0.9-8.5-1.4c-0.4-0.9,0.1-2.1,2.3-3.2c2.2-1.1,1.9-2.8,1.8-3.8s-0.2-2.3,0.6-2.5C20.9,31.8,22.4,32.1,22.4,32.1z"/>
	<circle class="st14" cx="22.5" cy="35.4" r="0.9"/>
	<circle class="st14" cx="27.1" cy="36.3" r="0.4"/>
	<circle class="st14" cx="22.6" cy="38.5" r="0.4"/>
	<circle class="st14" cx="23.1" cy="41.2" r="0.3"/>
	<circle class="st14" cx="19.3" cy="40.9" r="0.5"/>
</g>
<g id="icon_7" class="st0">
	<g class="st1">
		<g>
			<g>
				<path id="SVGID_1_" class="st7" d="M20.8,18.9c0,0,4.1-3,8.2-2.8c4.1,0.2,7.4,2.1,8.7,5.5c1.4,3.4,0.7,8.1-4,14.2
					S20.8,48.9,20.8,48.9s-9.2-7.2-14.1-14.5S2.5,22.6,4.5,20.1s5.2-4.3,8.3-4C15.9,16.4,17.8,17,20.8,18.9z"/>
			</g>
			<g>
				<g>
					<g>
						<g>
							<g>
								<g>
									<g>
										<g>
											<defs>
												<path id="SVGID_2_" d="M20.8,18.9c0,0,4.1-3,8.2-2.8c4.1,0.2,7.4,2.1,8.7,5.5c1.4,3.4,0.7,8.1-4,14.2
													S20.8,48.9,20.8,48.9s-9.2-7.2-14.1-14.5S2.5,22.6,4.5,20.1s5.2-4.3,8.3-4C15.9,16.4,17.8,17,20.8,18.9z"/>
											</defs>
											<clipPath id="SVGID_4_">
												<use xlink:href="#SVGID_2_"  style="overflow:visible;"/>
											</clipPath>
											<polyline class="st16" points="5.2,33.4 11.6,33.4 14.2,31 17.9,36.3 23.1,27.1 27.6,33.5 36.3,33.4 											"/>
										</g>
									</g>
								</g>
							</g>
						</g>
					</g>
				</g>
			</g>
		</g>
	</g>
</g>
<g id="icon_8" class="st0">
	<path class="st17" d="M8.2,42v2.7c0,0-0.2,2.3,2.2,0.8c1.2-0.8,1.2-1.8,2.6-1.8s1-0.9,1.9-1.1c0.9-0.2,1-1.3,1-1.3s0.1-0.9,1.5-0.4
		c0.7,0.3,2-0.8,2.4-0.8c0.3-0.1,1.3-0.5,1.9,0c0.6,0.5,0,0.9,0.8,1.2c0.4,0.1,1.2-0.7,1.7-0.4s0.8,1.6,1.6,2.1s1.9,0.2,2.2,0.4
		s1.3,2.9,3.2,2.6c1.9-0.2,2-1.6,1.5-3.7c-0.5-2.1-8.6-8.5-8.6-8.5s-4-1.5-6.4,0.4C15.2,35.8,8.2,42,8.2,42z"/>
	<path class="st18" d="M27,17.7c0,0,5.5,3.8,6.8,11.5c0.9,5.4,0.9,8.9,0,11.9c-0.9,2.9-4,1.6-4.7,0.8S23.9,38,23.9,38
		s-3.1-2.4-2.6-6.4s1.8-11.8,1.8-11.8S23.6,15.7,27,17.7z"/>
	<path class="st18" d="M17.1,22l1.2-1.5c0,0,0.5-0.5,0.4-1.4s0-7,0-7s-0.1-0.5,0.8-0.5s1.6,0,1.6,0s0.3,0.2,0.3,0.6c0,0.5,0,7,0,7
		s0.2,1.9,1.8,2.3c1.6,0.5,2.1,2.7,2.1,2.7l-1,0.7l-1.5-0.3l-1.3-1.5c0,0-0.6-0.6-0.9-0.7s-0.8,0-1.3,0.4s-1.7,1.5-1.7,1.5l-0.7-1.6
		L17.1,22z"/>
	<path class="st18" d="M13.4,17.7c0,0-5.5,3.8-6.8,11.5c-0.9,5.4-0.9,8.9,0,11.9s4,1.6,4.7,0.8s5.2-3.9,5.2-3.9s3.1-2.4,2.6-6.4
		s-1.8-11.8-1.8-11.8S16.8,15.7,13.4,17.7z"/>
</g>
<g id="icon_9" class="st0">
	<path class="st14" d="M14.7,30.4c0,0,2.2-1.1,2.3-3.2c0.1-2.3-0.8-3.5-1.8-4.8s-2.4-5.9,0.6-7.9s6.1-1,7.2,0
		c0.6,0.6,2.5,3.3,1.3,6.5c-0.8,2.1-2.4,3.4-2.6,5s0.1,3.1,2.3,4.4l0.9,0.7H14.3L14.7,30.4z"/>
	<path class="st18" d="M29.6,34.1h-20c-1,0-1.9-0.8-1.9-1.9l0,0c0-1,0.8-1.9,1.9-1.9h20c1,0,1.9,0.8,1.9,1.9l0,0
		C31.4,33.3,30.6,34.1,29.6,34.1z"/>
	<path class="st18" d="M19.5,36.3L19.5,36.3c-0.8,0-1.5-0.7-1.5-1.5v-2.1c0-0.8,0.7-1.5,1.5-1.5l0,0c0.8,0,1.5,0.7,1.5,1.5v2.1
		C21.1,35.6,20.4,36.3,19.5,36.3z"/>
	<path class="st18" d="M15.8,33.7c0,0-2.6,3.6-1.2,7.3c1.4,3.8,4.2,4.2,4.9,4.2s5.5-0.6,5.5-6.8c0-2.3-1.6-4.9-1.6-4.9H26
		c0,0,1.4,1.2,2,3.4c0.5,1.8,1.1,5.1-1.9,8.9s-9.5,2.6-11.4,1.4c-2-1.4-4.4-3.9-4-8.6c0.3-3.4,2.6-5.5,2.6-5.5L15.8,33.7z"/>
</g>
<g id="icon_10" class="st0">
	<path class="st18" d="M15.8,49.4c0.1,0.9,0.9,0.7,1.3,0.7h9.4c0,0,0.7,0.3,0.7-1v-4.9c0-0.1,0-0.2,0-0.3c0.2-0.7,0.9-3.4,1.7-4.3
		c1.3-1.5,1.3-5.2,1.3-5.2l0.2-17.3c0,0-0.1-1.7-1.7-1.8c-1.6-0.1-1.7,1.5-1.7,1.5l-0.2,7.9c0,0-0.1,0.8-0.6,0.8
		c-0.6,0-0.7-0.6-0.6-1s0.1-11.3,0.1-11.3s-0.1-1.2-1.8-1.3s-1.6,1.7-1.6,1.7v10c0,0,0,0.8-0.6,0.7c-0.7,0-0.5-1.2-0.5-1.2V12
		c0,0-0.1-1.4-2-1.4s-1.8,2-1.8,2l-0.2,11.3c0,0,0,0.5-0.5,0.5s-0.4-1-0.4-1v-9c0,0,0-1.6-1.7-1.5c-1.1,0-1.3,0.8-1.3,1.6v8
		c0,0.2,0,0.3,0.1,0.5l0.3,0.8c0,0.1,0.1,0.2,0.1,0.3l2.5,3.5c0,0,0.5,0.6,0.9,0.5s3.8,0.6,5,1.1c1,0.5,2,0.7,2,0.7s0.9,0.4,0.5,1.5
		C24.5,32,23,31.7,23,31.7l-1.1-0.3v0.3l3.8,4.6c0,0,0.4,0.7-0.2,1.1c-0.6,0.4-1.1-0.2-1.1-0.2L22,34.1c0,0-0.5-0.1-0.4,0.3
		c0.1,0.5,3.3,4.1,3.3,4.1s0.3,0.6-0.2,1c-0.2,0.2-0.8,0.3-1.2-0.1c-0.3-0.3-3.1-4-3.1-4s-0.5-0.2-0.4,0.3l2.8,3.6
		c0,0,0.4,0.7,0,1.1c-0.4,0.4-0.9,0.2-1.3-0.3c-0.4-0.4-3.1-3.9-3.1-3.9s-0.5-0.2-0.5,0.3l2.2,2.8c0,0,0.4,0.6-0.1,1s-1,0.3-1.5-0.3
		c-0.5-0.5-4.2-5.5-4.8-6.3c-0.1-0.1-0.1-0.2-0.1-0.2C13.4,33.1,13,32,13,31.1c0-0.3-0.1-0.5-0.2-0.8l-3.3-4.4c0,0-1.1-1.2-2.6-0.3
		c-1.5,0.9-0.5,3-0.4,3.3s5.1,8,5.1,8s2,2.9,2.7,3.9c0.7,1.1,1.7,2.1,1.6,4.4c-0.1,1.7-0.1,2.9-0.1,3.5
		C15.8,48.8,15.8,49.4,15.8,49.4z"/>
</g>
<g id="icon_11" class="st0">
	<circle class="st18" cx="3.1" cy="33.4" r="3.3"/>
	<circle class="st18" cx="19.6" cy="16.4" r="3.4"/>
	<path class="st18" d="M16.3,18.7c0,0,1.3,2.3,3.6,2c2.2-0.3,3-1.8,3-1.8s1.2,0,1.6,0.5c0.4,0.4,0.7,0.5,1.1,1.8
		c0.4,1.3,1.5,4.8,1.5,4.8l4.3,1.7c0,0,0,0,0.1,0c0.3,0.1,2.1,1.1,2.2,1.2l-5.9,0.8l-2.5-0.9c0,0-0.6-0.2-1.1-1.6
		c-0.5-1.5-1.1-2.6-1.1-2.6l0.1,3.9l-6.5,0.1l-2.5-2.5l-0.1-2.9l-1.3,2.9l3.1,2.9c0,0,1.2,0.9,0.5,2.2c-0.7,1.3-2.7,0.2-2.7,0.2
		l-4-3.7c0,0-0.7-0.8,0-2.4s1.9-4.4,1.9-4.4s1-2.1,2.8-2.2C16.1,18.6,16.3,18.7,16.3,18.7z"/>
	<path class="st18" d="M9.4,33.6l-0.2,4.1l-1.7,4.6c0,0-0.9,2.2,0.9,2.4s2.1-0.9,2.3-1.5c0.2-0.6,1.5-4.6,1.5-4.6l0.2-2.6l0.6-2.5
		v3.6l6.6,0.1v6c0,0,0.1,1.6,1.8,1.6c2,0,10.8,0,10.8,0s1.3-0.3,1.1-1.8s-0.6-1.9-1.5-1.9s-8.3,0.1-8.3,0.1l0.1-6.4l17.6-2
		c0,0,1.9-0.4,1.5-2c-0.4-1.6-1.4-1.6-2.3-1.6c-0.9,0-17,2-17,2s0.1-1.5-1.2-1.6s-4.7,0-4.7,0s0.3,2.5-1.3,3.1
		c-1.6,0.6-2.6-0.1-3.6-1s-1.9-2-1.9-2h-2c0,0-1.5,0.4-1.6,1.6c-0.1,1.3,0,4.2,0,4.2s0.2,1.2,1.2,1.4L9.4,33.6z"/>
	<path class="st18" d="M13.2,38.2h2l1.2,3.4c0,0,0.7,2.5-0.7,3.1c-1.4,0.6-2.4-0.3-2.8-1.6s-0.4-1.9-0.4-1.9L13.2,38.2z"/>
	<polygon class="st18" points="24.4,35.8 27.4,35.8 25.6,40 24.4,40 	"/>
</g>
<g id="icon_12" class="st0">
	<path class="st19" d="M21,13.6c0,0-4,7.5-0.8,15.8s1.7,13.9-1.2,17.4"/>
	<path class="st19" d="M34.3,20.6c0,0-1.6,7.2-13.9,9.5c-8.9,1.6-10.7,4.4-13.9,8.7"/>
	<line class="st20" x1="21.1" y1="15" x2="33.5" y2="22.5"/>
	<line class="st20" x1="19.3" y1="18.8" x2="30.4" y2="25.4"/>
	<line class="st20" x1="19" y1="23.7" x2="26" y2="28.3"/>
	<line class="st20" x1="14.8" y1="32.2" x2="21.9" y2="36.3"/>
	<line class="st20" x1="10.4" y1="34.7" x2="21.6" y2="40.8"/>
	<line class="st20" x1="7.7" y1="37.7" x2="20.2" y2="45"/>
</g>
<g id="icon_13" class="st0">
	<g class="st1">
		<g>
			<path id="SVGID_3_" class="st8" d="M29.5,42.6L28.9,43c-3,2.1-7.1,1.4-9.3-1.5L9.3,26.9c-2.1-3-1.4-7.1,1.5-9.3l0.6-0.4
				c3-2.1,7.1-1.4,9.3,1.5l10.4,14.5C33.2,36.3,32.5,40.4,29.5,42.6z"/>
		</g>
		<g>
			<g>
				<g>
					<g>
						<g>
							<g>
								<g>
									<g>
										<defs>
											<path id="SVGID_6_" d="M21.8,45.5l-0.6-0.5c-2.8-2.3-3.1-6.5-0.8-9.4l11.7-13.6c2.3-2.8,6.5-3.1,9.4-0.8l0.6,0.5
												c2.8,2.3,3.1,6.5,0.8,9.4L31.3,44.7C29,47.6,24.8,47.9,21.8,45.5z"/>
										</defs>
										<clipPath id="SVGID_7_">
											<use xlink:href="#SVGID_6_"  style="overflow:visible;"/>
										</clipPath>
										
											<rect x="10.7" y="29.5" transform="matrix(0.814 -0.5809 0.5809 0.814 -18.3074 21.11)" class="st21" width="26.2" height="19.3"/>
									</g>
								</g>
							</g>
						</g>
					</g>
				</g>
			</g>
		</g>
	</g>
	<path class="st22" d="M12,21c0,0-2.2,1.2-0.4,3.9"/>
</g>
<g id="icon_14" class="st0">
	<path class="st17" d="M4.2,29.6h0.1h27.1l-7.7-4.3c0,0-1.9-0.9-3.4-0.3s-2.1,1.2-3,0.8c-1.2-0.6-2.1-0.8-2.1-0.8s-1.7-0.4-2.9,0.2
		C11,25.8,4.2,29.6,4.2,29.6z"/>
	<path class="st18" d="M31.4,29.6L24.9,35c0,0-2.1,1.5-4,1.3c-1.9-0.2-1.7-0.7-2.6-1c-0.8-0.3-1.4-0.3-2.5,0.4
		c-0.6,0.4-1.2,0.8-2.5,0.6s-2.6-1.2-3.6-2.1c-1-0.9-5.4-4.6-5.4-4.6L31.4,29.6z"/>
	<path class="st18" d="M32,20.1c0,0,0.1,2-1.7,2.3c0,0,1.6,0.1,1.7,2.1c0,0,0.1-2.1,1.8-2.1C33.8,22.4,32,22.1,32,20.1z"/>
	<path class="st18" d="M29,14c0,0,0.1,1.5-1.3,1.7c0,0,1.2,0.1,1.3,1.6c0,0,0.1-1.5,1.4-1.5C30.4,15.7,29.1,15.5,29,14z"/>
	<path class="st18" d="M33.7,9c0,0,0.1,2.1-1.8,2.3c0,0,1.7,0.1,1.8,2.2c0,0,0.1-2.1,1.9-2.1C35.6,11.4,33.8,11.1,33.7,9z"/>
	<g id="icon_3_1_" class="st1">
		<g>
			
				<rect x="28.8" y="36.7" transform="matrix(0.7214 -0.6925 0.6925 0.7214 -20.5163 32.8784)" class="st8" width="3.6" height="10.5"/>
			
				<rect x="25.7" y="37.1" transform="matrix(0.7214 -0.6925 0.6925 0.7214 -18.6987 28.8876)" class="st8" width="1.7" height="1.2"/>
			<path class="st8" d="M26.4,37.5L26.4,37.5c-0.1,0.1-0.2,0.1-0.3,0l-2.8-3c-0.1-0.1-0.1-0.2,0-0.3l0,0c0.1-0.1,0.2-0.1,0.3,0
				l2.8,3C26.4,37.3,26.4,37.4,26.4,37.5z"/>
			<path class="st8" d="M32.4,47.5l3.7-3.5c0.1-0.1,0.3-0.1,0.4,0l0,0c0.1,0.1,0.1,0.3,0,0.4l-3.7,3.5c-0.1,0.1-0.3,0.1-0.4,0l0,0
				C32.3,47.8,32.3,47.6,32.4,47.5z"/>
			<path class="st8" d="M34.2,48.2l2.6-2.5c0.1-0.1,0.3-0.1,0.4,0l0,0c0.1,0.1,0.1,0.3,0,0.4l-2.6,2.5c-0.1,0.1-0.3,0.1-0.4,0l0,0
				C34.1,48.6,34.1,48.4,34.2,48.2z"/>
			
				<rect x="34.5" y="46.3" transform="matrix(0.7214 -0.6925 0.6925 0.7214 -22.5803 37.4471)" class="st8" width="1.5" height="1"/>
			<path class="st9" d="M33.4,43.9l0.8-0.8l0.3,0.3l-0.8,0.8c-0.1,0.1-0.2,0.1-0.3,0l0,0C33.3,44.1,33.3,44,33.4,43.9z"/>
			<path class="st9" d="M32.4,42.8l0.8-0.7l0.3,0.3l-0.8,0.8c-0.1,0.1-0.2,0.1-0.3,0l0,0C32.3,43.1,32.3,42.9,32.4,42.8z"/>
			<path class="st9" d="M31.4,41.8l0.8-0.8l0.3,0.3l-0.8,0.8c-0.1,0.1-0.2,0.1-0.3,0l0,0C31.3,42,31.3,41.9,31.4,41.8z"/>
			<path class="st9" d="M30.4,40.8l0.8-0.8l0.3,0.3l-0.8,0.8c-0.1,0.1-0.2,0.1-0.3,0l0,0C30.3,41,30.3,40.8,30.4,40.8z"/>
			<path class="st9" d="M29.4,39.7l0.8-0.8l0.3,0.3L29.7,40c-0.1,0.1-0.2,0.1-0.3,0l0,0C29.3,39.9,29.3,39.8,29.4,39.7z"/>
			<path class="st9" d="M28.4,38.6l0.8-0.8l0.3,0.3l-0.8,0.8c-0.1,0.1-0.2,0.1-0.3,0l0,0C28.3,38.9,28.3,38.7,28.4,38.6z"/>
		</g>
	</g>
</g>
<g id="icon_15_1_" class="st0">
	<g class="st1">
		<g>
			<g>
				<path id="SVGID_5_" class="st7" d="M16.8,23.2c0,0,3.1-2.3,6.2-2.1c3.1,0.2,5.6,1.6,6.6,4.1s0.5,6.2-3,10.8
					c-3.6,4.6-9.8,9.9-9.8,9.9s-7-5.4-10.7-11s-3.2-9-1.7-10.9s3.9-3.3,6.3-3C13.1,21.3,14.5,21.8,16.8,23.2z"/>
			</g>
			<g>
				<g>
					<g>
						<g>
							<g>
								<g>
									<g>
										<g>
											<defs>
												<path id="SVGID_8_" d="M16.8,23.2c0,0,3.1-2.3,6.2-2.1c3.1,0.2,5.6,1.6,6.6,4.1s0.5,6.2-3,10.8
													c-3.6,4.6-9.8,9.9-9.8,9.9s-7-5.4-10.7-11s-3.2-9-1.7-10.9s3.9-3.3,6.3-3C13.1,21.3,14.5,21.8,16.8,23.2z"/>
											</defs>
											<clipPath id="SVGID_9_">
												<use xlink:href="#SVGID_8_"  style="overflow:visible;"/>
											</clipPath>
											<polyline class="st23" points="5,34.2 9.8,34.2 11.8,32.3 14.6,36.4 18.5,29.4 21.9,34.2 28.5,34.2 											"/>
										</g>
									</g>
								</g>
							</g>
						</g>
					</g>
				</g>
			</g>
		</g>
	</g>
	<path class="st18" d="M28.1,12L20,26c-0.4,0.7,0.1,1.6,0.9,1.6h16.3c0.8,0,1.4-0.9,0.9-1.6L30,12C29.6,11.3,28.6,11.3,28.1,12z"/>
	<path class="st24" d="M29.1,22.8L29.1,22.8c-0.3,0-0.6-0.3-0.6-0.6v-5.7c0-0.3,0.3-0.6,0.6-0.6l0,0c0.3,0,0.6,0.3,0.6,0.6v5.7
		C29.7,22.5,29.5,22.8,29.1,22.8z"/>
	<path class="st24" d="M29.1,25.7L29.1,25.7c-0.3,0-0.6-0.3-0.6-0.6v-0.3c0-0.3,0.3-0.6,0.6-0.6l0,0c0.3,0,0.6,0.3,0.6,0.6v0.3
		C29.7,25.4,29.5,25.7,29.1,25.7z"/>
</g>
<g id="icon_16" class="st0">
	<path class="st24" d="M25.3,17c0,0,4.1-0.9,6,0c2.3,1.1,4.1,3.9,2.8,8.7s-2.3,8.8-2.6,12.9c-0.4,4.1-3.3,6.8-5.2,7.1
		c-1.9,0.4-3.3-1.6-2.9-3.1c0.4-1.5,0.9-5.9,0.8-7c-0.2-2.1-1.2-3.8-2.9-3.8c-1.7,0-2.5,0.9-2.9,1.9c-0.4,1.1-1.1,5.2-0.6,7.1
		c0.4,1.9,0.2,4.7-1.6,4.8s-5.2-1.8-6.5-9.8s-2-9.8-2.3-10.9c-1-3.7,0-8.4,4.1-8.7c4.1-0.3,7.4,1.5,8.8,1.6
		C21.6,18.1,23.8,17.3,25.3,17z"/>
	<path class="st17" d="M17.9,21c0,0,2.4,1.3,3.4,0.9c1-0.5,3.2-1.7,5.8-0.4c2.6,1.3,2.6,2.8,2.6,2.8s0.8,2.8-0.6,5.1s-1,6.9-1,6.9
		s0.1,1.6-0.7,1.6c-0.7,0-1.2-1.5-1.2-1.8s-0.8-6-4.6-6.7s-4.5,2.9-5,4.2c-0.3,0.9-0.6,3.6-0.6,3.6s-0.2,1.3-0.9,1.2
		c-0.7-0.1-0.9-1.5-0.9-4.7s-1-3.6-1.5-5.5s-0.4-5.2,1.5-6.6C16,20.2,17.9,21,17.9,21z"/>
	<path class="st18" d="M6.4,11.3c0,0,0.1,2.1-1.8,2.3c0,0,1.7,0.1,1.8,2.2c0,0,0.1-2.1,1.9-2.1C8.3,13.6,6.5,13.4,6.4,11.3z"/>
	<path class="st18" d="M36.7,38.2c0,0,0.1,2.1-1.8,2.4c0,0,1.7,0.1,1.8,2.2c0,0,0.1-2.2,1.9-2.2C38.6,40.6,36.8,40.3,36.7,38.2z"/>
	<path class="st18" d="M38.6,11c0,0,0,1.1-0.9,1.3c0,0,0.9,0,0.9,1.2c0,0,0.1-1.2,1-1.2C39.6,12.3,38.6,12.1,38.6,11z"/>
</g>
<g id="icon_17" class="st0">
	<path class="st18" d="M19.7,14.8c0,0,5.2-0.8,8.3,1.3c3.1,2,5.1,4.2,5.6,7.4s-0.2,7.1-1.7,9.5s-2.4,3.9-2.6,4.3
		c-0.1,0.4-0.8,2.3-0.3,4.9s0.8,3,0.8,3l-14.3,0.3v-3c0,0-4.5,0.1-5.6-0.8c-1.1-0.9-1.1-1.9-0.8-2.5c0.2-0.6,0-0.7,0-0.8
		c0,0-0.6-0.3-0.6-0.9c0-0.4,0.4-0.5,0.4-0.5s-0.1-0.2-0.2-0.2c-0.1-0.1-0.6-0.2-0.6-0.7s0.3-2.6,0.3-2.6s-1.6-0.2-1.8-1.2
		c-0.1-1,0.7-2.2,1.1-2.7c0.4-0.5,2.1-2.5,2.1-2.5s-0.6-5,1.1-7.3S14.3,15.4,19.7,14.8z"/>
	<circle class="st24" cx="16.4" cy="29.4" r="1.1"/>
	<circle class="st24" cx="19.7" cy="30.8" r="0.6"/>
	<circle class="st24" cx="18.4" cy="33.3" r="0.7"/>
	<circle class="st24" cx="17" cy="35.8" r="1"/>
	<circle class="st24" cx="14.2" cy="33.3" r="0.6"/>
	<circle class="st24" cx="14" cy="30.7" r="0.6"/>
</g>
<g id="icon_18" class="st0">
	<path class="st18" d="M27,37.3H11.9c-1.1,0-2-0.9-2-2V15.7c0-1.1,0.9-2,2-2H27c1.1,0,2,0.9,2,2v19.6C29,36.4,28.1,37.3,27,37.3z"/>
	<path class="st24" d="M24.3,27.2h-9.6c-1.1,0-2-0.9-2-2v-6.9c0-1.1,0.9-2,2-2h9.6c1.1,0,2,0.9,2,2v6.9
		C26.3,26.4,25.4,27.2,24.3,27.2z"/>
	<path class="st24" d="M20.4,33.8h-2c-1,0-1.8-0.8-1.8-1.8l0,0c0-1,0.8-1.8,1.8-1.8h2c1,0,1.8,0.8,1.8,1.8l0,0
		C22.1,32.9,21.3,33.8,20.4,33.8z"/>
	<path class="st18" d="M19.8,41.9H19c-1.1,0-2-0.9-2-2v-3.3c0-1.1,0.9-2,2-2h0.8c1.1,0,2,0.9,2,2v3.3C21.8,40.9,20.9,41.9,19.8,41.9
		z"/>
	<path class="st18" d="M19.4,46.5L19.4,46.5c-0.3,0-0.5-0.2-0.5-0.5v-4.7c0-0.3,0.2-0.5,0.5-0.5l0,0c0.3,0,0.5,0.2,0.5,0.5V46
		C19.9,46.4,19.7,46.5,19.4,46.5z"/>
	<path class="st17" d="M27,20c0,0,1.9,1.4,2.9,3.1c0.8,1.5,1.1,4.5-1.9,5.2c-2.7,0.7-4.3-1.8-4.3-3C23.8,24.6,24,22.1,27,20z"/>
	<path class="st22" d="M28.5,23.4c0,0,1.6,2.3,0.3,3.6"/>
</g>
<g id="icon_19" class="st0">
	<g class="st1">
		<g>
			<path id="SVGID_10_" class="st8" d="M25,44H7.8c-1.1,0-2-0.9-2-2V20.9c0-1.1,0.9-2,2-2H25c1.1,0,2,0.9,2,2V42
				C27,43.1,26.1,44,25,44z"/>
		</g>
		<g>
			<g>
				<g>
					<g>
						<g>
							<g>
								<defs>
									<path id="SVGID_11_" d="M25,44H7.8c-1.1,0-2-0.9-2-2V20.9c0-1.1,0.9-2,2-2H25c1.1,0,2,0.9,2,2V42C27,43.1,26.1,44,25,44z"
										/>
								</defs>
								<clipPath id="SVGID_13_">
									<use xlink:href="#SVGID_11_"  style="overflow:visible;"/>
								</clipPath>
								<path class="st25" d="M20.9,22.5H12c-1,0-1.8-0.8-1.8-1.8v-1.3c0-1,0.8-1.8,1.8-1.8h8.9c1,0,1.8,0.8,1.8,1.8v1.3
									C22.6,21.7,21.9,22.5,20.9,22.5z"/>
							</g>
						</g>
					</g>
				</g>
			</g>
		</g>
	</g>
	<path class="st18" d="M16.8,20.8L16.2,21c-1.1,0-1.7,0.9-1.7-0.2v-3.3c0-1.1,0.9-2,2-2l0,0c1.1,0,2,0.9,2,2v3.3
		C18.4,21.9,17.8,20.8,16.8,20.8z"/>
	<path class="st24" d="M22.6,41.6H10.3c-1.1,0-2-0.9-2-2V23.9c0-1.1,0.9-2,2-2h12.4c1.1,0,2,0.9,2,2v15.7
		C24.6,40.7,23.7,41.6,22.6,41.6z"/>
	<path class="st18" d="M20.5,21.5h-8.2c-1,0-1.8-0.8-1.8-1.8v-0.5c0-1,0.8-1.8,1.8-1.8h8.2c1,0,1.8,0.8,1.8,1.8v0.5
		C22.3,20.7,21.5,21.5,20.5,21.5z"/>
	<path class="st24" d="M19.5,20.8h-6c-0.3,0-0.6-0.3-0.6-0.6l0,0c0-0.3,0.3-0.6,0.6-0.6h6c0.3,0,0.6,0.3,0.6,0.6l0,0
		C20.1,20.5,19.8,20.8,19.5,20.8z"/>
	<path class="st24" d="M16.6,17.8h-0.4c-0.2,0-0.4-0.2-0.4-0.4l0,0c0-0.2,0.2-0.4,0.4-0.4h0.4c0.2,0,0.4,0.2,0.4,0.4l0,0
		C17.1,17.6,16.9,17.8,16.6,17.8z"/>
	<path class="st18" d="M21,27.2h-8.5c-0.3,0-0.6-0.3-0.6-0.6l0,0c0-0.3,0.3-0.6,0.6-0.6H21c0.3,0,0.6,0.3,0.6,0.6l0,0
		C21.6,27,21.3,27.2,21,27.2z"/>
	<path class="st18" d="M21,30.6h-8.5c-0.3,0-0.6-0.3-0.6-0.6l0,0c0-0.3,0.3-0.6,0.6-0.6H21c0.3,0,0.6,0.3,0.6,0.6l0,0
		C21.6,30.3,21.3,30.6,21,30.6z"/>
	<path class="st18" d="M21,34h-8.5c-0.3,0-0.6-0.3-0.6-0.6l0,0c0-0.3,0.3-0.6,0.6-0.6H21c0.3,0,0.6,0.3,0.6,0.6l0,0
		C21.6,33.7,21.3,34,21,34z"/>
	<path class="st17" d="M28.1,34c0,0,1.7-0.8,3.3-0.5s3.5,1.7,3.2,5.9s-3,5.1-3.7,5.3c-0.7,0.1-1.9,0-2.7-0.3c-0.1,0-0.7,0.1-1,0.2
		c-0.2,0.1-2.1,0.6-3.7-1.4c-1.6-2-2.3-4.1-1.8-6.4s2.5-3.6,4.3-3.3C26.8,33.5,27.9,34,28.1,34z"/>
	<g class="st1">
		<g>
			<path id="SVGID_12_" class="st12" d="M33.4,28.4c0,0,0.1,2.3-0.9,3.3c-1.5,1.4-3.7,1-3.8,1c0,0-0.4-2.4,1.2-3.5
				C31.3,28.3,33.4,28.4,33.4,28.4z"/>
		</g>
		<g>
			<g>
				<g>
					<g>
						<g>
							<g>
								<defs>
									<path id="SVGID_14_" d="M33.4,28.4c0,0,0.1,2.3-0.9,3.3c-1.5,1.4-3.7,1-3.8,1c0,0-0.4-2.4,1.2-3.5
										C31.3,28.3,33.4,28.4,33.4,28.4z"/>
								</defs>
								<clipPath id="SVGID_15_">
									<use xlink:href="#SVGID_14_"  style="overflow:visible;"/>
								</clipPath>
								<polygon class="st26" points="34.2,27.8 28.3,32.9 30.3,33.7 35.1,30.5 								"/>
							</g>
						</g>
					</g>
				</g>
			</g>
		</g>
	</g>
</g>
<g id="icon_20" class="st0">
	<path class="st18" d="M20,14.3c0,0,6.5-0.4,8.1,5.3c0.2,0.7,0.1,3.8-0.4,5.2c0,0,0,0.3,0.5,0.2c0.5-0.1,1.4,0.1,0.8,1.9
		c-0.6,1.8-1.5,2.8-1.5,2.8s-0.7,0.1-0.7-0.2s-0.2,0.2-0.6,1.1c-0.4,0.9-0.8,2.5-2.2,3.9v1.9c0,0,0.1,1.7,2.1,2.6
		c2,0.9,3.4,1.4,4.4,1.4c1.1,0,6.4,2,7.3,4.1c0.4,0.8,0.6,1.4-0.7,1.5c-1.2,0-34.2,0-34.2,0s-1.1-0.1-0.1-1.4s2-3.4,7.3-4.2
		c0.6-0.1,5.9-1.3,6.2-3.1c0.3-1.7,0.1-2.6,0.1-2.6s-1.6-1.7-2.6-5.1c0,0-0.2-0.1-0.3,0.1c-0.1,0.2-0.9,0.2-1.5-1.1
		c-0.6-1.2-1.1-2.6-0.6-3.3c0.6-0.6,1.1-0.2,1.1-0.2s0.1,0,0.1-0.2s-0.9-4.4-0.3-5.9C12.8,17.3,14.4,14.7,20,14.3z"/>
	<path class="st17" d="M19.7,37.2c0,0,0.5-0.6,1.1-0.1c0,0,0.6-2.2,1.4-2.6c0.4-0.2,0.4,0.2,0.4,0.7s0.7,1.6,0.7,2.4
		c0,0.8-0.1,1.9-1.4,1.9c-0.6,0-1-0.3-1.1-0.5s-0.6-0.2-0.9,0c-0.4,0.2-1,1.1-2,0.2c-1-0.9-0.2-3.4-0.1-3.5c0-0.1,0.2-0.4,0.2-1.2
		c0-0.3,0.4-0.2,1,0.5C19.5,35.6,19.7,36.5,19.7,37.2z"/>
</g>
<g id="icon_21" class="st0">
	<path class="st24" d="M24.7,19.9c0,0,4.1-0.9,6,0c2.3,1.1,4.1,3.9,2.8,8.7s-2.3,8.8-2.6,12.9c-0.4,4.1-3.3,6.8-5.2,7.1
		c-1.9,0.4-3.3-1.6-2.9-3.1c0.4-1.5,0.9-5.9,0.8-7c-0.2-2.1-1.2-3.8-2.9-3.8c-1.7,0-2.5,0.9-2.9,1.9c-0.4,1.1-1.1,5.2-0.6,7.1
		c0.4,1.9,0.2,4.7-1.6,4.8s-5.2-1.8-6.5-9.8s-2-9.8-2.3-10.9c-1-3.7,0-8.4,4.1-8.7s7.4,1.5,8.8,1.6C21,21,23.2,20.2,24.7,19.9z"/>
	<path class="st17" d="M17.3,23.9c0,0,2.4,1.3,3.4,0.9c1-0.5,3.2-1.7,5.8-0.4c2.6,1.3,2.6,2.8,2.6,2.8s0.8,2.8-0.6,5.1s-1,6.9-1,6.9
		s0.1,1.6-0.7,1.6c-0.7,0-1.2-1.5-1.2-1.8s-0.8-6-4.6-6.7c-3.8-0.7-4.5,2.9-5,4.2c-0.3,0.9-0.6,3.6-0.6,3.6s-0.2,1.3-0.9,1.2
		c-0.7-0.1-0.9-1.5-0.9-4.7s-1-3.6-1.5-5.5s-0.4-5.2,1.5-6.6C15.4,23.1,17.3,23.9,17.3,23.9z"/>
	<path class="st18" d="M25.9,34.1L25.9,34.1c-0.3,0.1-0.7,0-0.8-0.3l-10-21.5c-0.1-0.3,0-0.7,0.3-0.8l0,0c0.3-0.1,0.7,0,0.8,0.3
		l10,21.5C26.3,33.6,26.2,34,25.9,34.1z"/>
	<path class="st24" d="M24.2,25.7l-3.7,1.7c-0.2,0.1-0.5,0-0.5-0.2l0,0c-0.1-0.2,0-0.5,0.2-0.5l3.7-1.7c0.2-0.1,0.5,0,0.5,0.2l0,0
		C24.5,25.4,24.4,25.6,24.2,25.7z"/>
	<path class="st24" d="M25.3,28l-3.7,1.7c-0.2,0.1-0.5,0-0.5-0.2l0,0c-0.1-0.2,0-0.5,0.2-0.5l3.7-1.7c0.2-0.1,0.5,0,0.5,0.2l0,0
		C25.6,27.7,25.5,27.9,25.3,28z"/>
	<path class="st24" d="M26.3,30.3L22.6,32c-0.2,0.1-0.5,0-0.5-0.2l0,0c-0.1-0.2,0-0.5,0.2-0.5l3.7-1.7c0.2-0.1,0.5,0,0.5,0.2l0,0
		C26.6,30,26.5,30.2,26.3,30.3z"/>
</g>
<g id="icon_22_1_" class="st0">
	<circle class="st18" cx="20" cy="22.4" r="6.3"/>
	<path class="st18" d="M7.6,44.1h25.1c0,0,1.5-11.3-4.9-13.4s-13.2-0.8-15-0.2s-4.1,1-4.9,7.5C7.6,42.1,7.6,44.1,7.6,44.1z"/>
	<path class="st24" d="M15.7,37.4v-0.7c0-0.8,0.7-1.5,1.5-1.5h6.2c0.8,0,1.5,0.7,1.5,1.5v0.7c0,0.8-0.7,1.5-1.5,1.5h-6.2
		C16.4,38.9,15.7,38.2,15.7,37.4z"/>
	<path class="st24" d="M20,32.4h0.7c0.8,0,1.5,0.7,1.5,1.5v6.2c0,0.8-0.7,1.5-1.5,1.5H20c-0.8,0-1.5-0.7-1.5-1.5v-6.2
		C18.5,33.1,19.2,32.4,20,32.4z"/>
</g>
<g id="icon_23" class="st0">
	<path class="st27" d="M26.2,14.7c-7.6,1.4-5.4,7-5.4,8.7s-0.5,1.7-0.6,2.6s1,1.2,1,1.2s-0.4,2.2-3.6,0.2s-8.2,0.5-8.9,0.5
		s0.6-2.6,0.6-2.6c-0.6-0.8-1.8-0.2-2.9,1.4c-1.3,1.9-1.1,4.2-0.9,4.3c0.2,0.1,3.8-0.1,5.5-0.5s2.5-0.5,2.2-0.1s-1.1,1.9-1.5,2.1
		c-0.5,0.2-8.5,9.1-1,12s12.8-0.7,14.8-2.3c2.2-1.8,5.9-4.4,7.2-6.5s0.4-5.3,0.2-6.4s1.6-3.9,2-6.4C35.3,20.4,33.8,13.3,26.2,14.7z"
		/>
	<path class="st28" d="M17.2,33.2c0,0,0.6,3.4-1.5,5"/>
	<path class="st28" d="M12.5,31.8c0,0,1.6-2.2,1.8-3.1"/>
	<path class="st28" d="M17.2,27.5c0,0-2.2,5.3,1.1,6.5s8.6,0.6,8.6,0.6"/>
	<path class="st28" d="M21,28c0,0,0.9,0.4,1.3,1.7"/>
	<path class="st28" d="M20.1,30.6c0,0,6.1-2.3,11-0.6"/>
	<path class="st28" d="M28.4,21.1c0,0,2.3-0.1,2,1.9s-1.3,3.5-3.4,1.9"/>
</g>
<g id="icon_24" class="st0">
	<path class="st29" d="M16.3,30.5c0,0-0.1-6.4-0.6-7.4c0,0,0.8-0.1,1-0.8c0,0,1.4,1.5,1.8,1.4s4.2-3.3,4.1-4.1S21,16.2,20.1,16
		c-0.8-0.2-0.8-0.8-2.6,0c-1.8,0.8-5.3,2.1-5.3,2.1s-1.8,0.7-2.3,2.6S6,35.4,6,35.4s-0.5,3.2,1.9,3.4c0,0,5.2,7.5,17.9,4.3
		c0,0,6.9,2.2,7.9,1.1c1.1-1.1,0.6-2.7,0.6-2.7l0.1-10.2c0,0-0.1-2.1-2-2.5c-1.9-0.5-5.8-0.9-7.8,1.5C24.5,30.3,19.3,28.1,16.3,30.5
		z"/>
	<path class="st30" d="M14.2,23.1c0,0,2.1,0.2,2.7-1.6"/>
	<path class="st30" d="M26.4,33.5c0,0-1.2-3.2-3.4-3.7"/>
	<path class="st31" d="M16.3,30c0,0,0,3.2-1.7,3.7"/>
	<path class="st31" d="M11.9,37c0,0,3.9,4.8,10.1,3.3"/>
</g>
<g id="icon_25" class="st0">
	<path class="st18" d="M21.2,47.9h-1.7c-4.3,0-7.9-3.5-7.9-7.9V19H29v21C29,44.3,25.5,47.9,21.2,47.9z"/>
	<path class="st18" d="M29.4,17.2H11c-0.7,0-1.3-0.6-1.3-1.3v-2.2c0-0.7,0.6-1.3,1.3-1.3h18.4c0.7,0,1.3,0.6,1.3,1.3v2.2
		C30.7,16.6,30.1,17.2,29.4,17.2z"/>
	<path class="st32" d="M16.7,39c0,0,0-7.1,3.7-7.1s3.7,4.9,3.7,7.1"/>
	<line class="st32" x1="16.9" y1="36.3" x2="23.8" y2="36.3"/>
	<path class="st32" d="M24,23.9c0,0,0,7.1-3.7,7.1s-3.7-4.9-3.7-7.1"/>
	<line class="st32" x1="23.8" y1="26.7" x2="16.9" y2="26.7"/>
</g>
<g id="icon_26" class="st0">
	<path class="st18" d="M24.3,23.6h-8.1c-1.3,0-2.4-1.1-2.4-2.4v-3.6c0-1.3,1.1-2.4,2.4-2.4h8.1c1.3,0,2.4,1.1,2.4,2.4v3.6
		C26.7,22.5,25.6,23.6,24.3,23.6z"/>
	<path class="st18" d="M33.7,44.9H6.8c-2.1,0-3.8-1.7-3.8-3.8V24c0-2.1,1.7-3.8,3.8-3.8h26.9c2.1,0,3.8,1.7,3.8,3.8v17.1
		C37.5,43.3,35.8,44.9,33.7,44.9z"/>
	<path class="st24" d="M13.3,33.3v-1.9c0-1.1,0.9-2.1,2.1-2.1h9.8c1.1,0,2.1,0.9,2.1,2.1v1.9c0,1.1-0.9,2.1-2.1,2.1h-9.8
		C14.2,35.4,13.3,34.4,13.3,33.3z"/>
	<path class="st24" d="M21.2,39.3h-1.9c-1.1,0-2.1-0.9-2.1-2.1v-9.8c0-1.1,0.9-2.1,2.1-2.1h1.9c1.1,0,2.1,0.9,2.1,2.1v9.8
		C23.3,38.4,22.4,39.3,21.2,39.3z"/>
	<rect x="13.7" y="19.5" class="st24" width="13" height="0.6"/>
	<path class="st24" d="M21.2,39.3h-1.9c-1.1,0-2.1-0.9-2.1-2.1v-9.8c0-1.1,0.9-2.1,2.1-2.1h1.9c1.1,0,2.1,0.9,2.1,2.1v9.8
		C23.3,38.4,22.4,39.3,21.2,39.3z"/>
</g>
<g id="icon_27" class="st0">
	<circle class="st18" cx="20" cy="22.4" r="6.3"/>
	<path class="st18" d="M7.6,44.1h25.1c0,0,1.5-11.3-4.9-13.4s-13.2-0.8-15-0.2c-1.8,0.6-4.1,1-4.9,7.5C7.6,42.1,7.6,44.1,7.6,44.1z"
		/>
	<path class="st24" d="M15.8,37.3v-0.7c0-0.8,0.7-1.5,1.5-1.5h6.2c0.8,0,1.5,0.7,1.5,1.5v0.7c0,0.8-0.7,1.5-1.5,1.5h-6.2
		C16.5,38.8,15.8,38.1,15.8,37.3z"/>
	<path class="st24" d="M20,32.4h0.7c0.8,0,1.5,0.7,1.5,1.5v6.2c0,0.8-0.7,1.5-1.5,1.5H20c-0.8,0-1.5-0.7-1.5-1.5v-6.2
		C18.5,33,19.2,32.4,20,32.4z"/>
</g>
<g id="icon_28" class="st0">
	<path class="st18" d="M30.1,28.6"/>
	<path class="st18" d="M27.3,15.5v29.3h5.2V21.3C32.5,21.3,32.1,16.8,27.3,15.5z"/>
	<polygon class="st24" points="30.1,28.6 32.5,29.7 32.5,27.3 	"/>
	<polygon class="st24" points="27.3,30.2 32.5,32.7 32.5,34.9 27.3,32.1 	"/>
	<polygon class="st24" points="27.3,33.9 32.5,36.6 32.5,38.6 27.3,35.9 	"/>
	<circle class="st33" cx="11.1" cy="19.9" r="3.2"/>
	<circle class="st33" cx="21" cy="19.7" r="3.2"/>
	<path class="st18" d="M13.4,23.1v12.8c0,0,0.7,7,2.6,8.9c0,0,2.9-4.2,2.7-9V23.2L17.3,20l-0.4,0.4V26L15,26.1v-6.2l-0.8-0.2
		L13.4,23.1z"/>
	<circle class="st24" cx="16" cy="28.8" r="0.9"/>
</g>
<g id="icon_29" class="st0">
	<path class="st18" d="M28.7,14.3c0,2.5-2,4.4-4.4,4.4c-2.5,0-4.4-2-4.4-4.4s2-4.4,4.4-4.4S28.7,11.8,28.7,14.3z"/>
	<path class="st18" d="M8,22.6l9-4.8c0,0,0.8-0.4,1.7,0s4.9,1.8,4.9,1.8s0.9,0,1.4,2c0.5,2.1,1.7,5.7,1.7,5.7l4.7,1.9
		c0,0,1.8,0.9,1.2,3s-3.4,1-3.4,1l-6-2.7c0,0-0.4-0.1-0.6-1.1c-0.2-1-1.2-4.1-1.2-4.1l-2.5,7.5l3.5,7l-0.5,9c0,0-0.3,1.6-2.1,1.6
		c-1.8,0-2.4-1.5-2.4-2.5c0.1-1,0.8-6.6,0.8-6.6L14.8,35l0.3,6.8l-1.6,6.8c0,0-0.6,1.9-2.8,1.4s-1.3-3.5-1.3-3.5l1.2-5.1L10,33.9
		l0.3-0.9l-3.6-8.2C6.8,25,6.4,23.4,8,22.6z"/>
	<polygon class="st34" points="12,25.7 13.1,27.7 14.8,24.2 	"/>
	<path class="st18" d="M28,32.3L31.7,49c0,0,0.2,1,1.3,0.7c1.1-0.2,0.6-1.5,0.6-1.5l-3.4-15.8L28,32.3z"/>
</g>
<g id="icon_30" class="st0">
	<g class="st1">
		<g>
			<path id="SVGID_16_" class="st35" d="M36.7,47.4h-33c-1.4,0-2.6-1.2-2.6-2.6v-7.5c0-1.4,1.2-2.6,2.6-2.6h33
				c1.4,0,2.6,1.2,2.6,2.6v7.5C39.3,46.2,38.1,47.4,36.7,47.4z"/>
		</g>
		<g>
			<g>
				<g>
					<g>
						<g>
							<defs>
								<path id="SVGID_17_" d="M36.7,47.4h-33c-1.4,0-2.6-1.2-2.6-2.6v-7.5c0-1.4,1.2-2.6,2.6-2.6h33c1.4,0,2.6,1.2,2.6,2.6v7.5
									C39.3,46.2,38.1,47.4,36.7,47.4z"/>
							</defs>
							<clipPath id="SVGID_18_">
								<use xlink:href="#SVGID_17_"  style="overflow:visible;"/>
							</clipPath>
							<rect x="-1.3" y="32.6" class="st36" width="41.5" height="5.3"/>
						</g>
					</g>
				</g>
			</g>
		</g>
	</g>
	<circle class="st34" cx="20.5" cy="38.1" r="3.9"/>
	<path class="st37" d="M18.3,29.4c0,0,1.8-14.4,7.6-16.5c0,0-3.9,9.4-3.4,16.1c0,0,1.2,0.7,1.2,2c0,1.5-0.6,3.1-3.2,3.1
		c-2.5,0-3.1-1.1-3.2-2.1C17.1,30.7,17.5,29.7,18.3,29.4z"/>
	<rect x="31.4" y="23.4" class="st18" width="1" height="6.1"/>
	<polyline class="st38" points="29.8,27.6 31.9,29.6 33.9,27.7 	"/>
	<rect x="8" y="23.4" class="st18" width="1" height="6.1"/>
	<polyline class="st38" points="6.3,27.6 8.4,29.6 10.5,27.7 	"/>
</g>
<g id="icon_31" class="st0">
	<ellipse transform="matrix(0.9934 -0.115 0.115 0.9934 -2.4786 1.4123)" class="st17" cx="11" cy="22.2" rx="10.7" ry="9.5"/>
	<ellipse class="st17" cx="31.7" cy="24.3" rx="8.4" ry="8.9"/>
	<ellipse transform="matrix(0.9708 -0.2398 0.2398 0.9708 -9.1272 5.5627)" class="st17" cx="18.3" cy="40.3" rx="10.2" ry="6.9"/>
	<ellipse transform="matrix(0.9554 -0.2952 0.2952 0.9554 -6.5852 4.5547)" class="st24" cx="11.8" cy="24.1" rx="6.4" ry="5.5"/>
	<ellipse transform="matrix(0.9666 -0.2564 0.2564 0.9666 -5.5001 8.5907)" class="st24" cx="30.2" cy="25.4" rx="5.2" ry="6.5"/>
	<ellipse transform="matrix(0.9359 -0.3522 0.3522 0.9359 -12.579 8.8344)" class="st24" cx="18" cy="39" rx="6.4" ry="3.7"/>
</g>
<g id="icon_32" class="st0">
	<path class="st39" d="M15.4,14.6c0,0,4.4-3.1,9.6,0l-0.9,4.7l-0.3,0.5L23.3,19c0,0-3.3-1-6.1,0l-1.5-2.3l-0.2-1.6L15.4,14.6z"/>
	<path class="st17" d="M15.8,14.3c0,0-0.6,0.2-1,0.9s-2.2,6.5-2.2,6.5s-0.3,2.1,0.2,2.7s3.4,4.5,3.4,4.5L7.3,40.5c0,0-1.1,1-0.4,2.2
		s3.2,4.1,3.2,4.1s0.6,0.7,1.6-0.3c1.1-1.1,8.4-11.3,8.4-11.3l8.1,10.9c0,0,0.8,0.8,1.6,0s3.8-3.9,3.8-3.9s0.4-0.8-0.4-1.5
		s-9.1-12.1-9.1-12.1s2.8-3.4,2.9-3.6c0.1-0.2,1-2.2,0.5-3.7s-2-6.1-2-6.1s-0.4-0.7-1.1-0.8c0,0-0.5,3.7-4.2,8.7
		C20.2,23,17.2,20.2,15.8,14.3z"/>
</g>
<g id="icon_33" class="st0">
	<path class="st24" d="M23.7,23.7L34,15.5c0,0,0.8-0.5,1.8-3.5s4.2-7.9,8.9-5.9s3.5,6.7,2.8,7.9s-4.2,3.3-6.5,4.3s-5.5,5.9-5.5,5.9
		L23.7,23.7z"/>
	<path class="st40" d="M21.2,24.1c0,0,3-2.5,2.5-8.7c-0.2-1.8,1.2-3.8,1.2-3.8S11.9,8.7,9,17.7c0,0-1.2-4.8-13.2-4
		c0,0,1.7,3,1.3,4.8c-0.5,1.8-0.3,5,1.3,6.4L21.2,24.1z"/>
	<path class="st41" d="M9.9,24.1c0,0,4-8.5,11.7-10.4"/>
	<path class="st41" d="M-1,15.9c0,0,6.4,3.2,9,8.2"/>
	<path class="st18" d="M-6.7,23.7H47c0,0,1.8-0.5,1.7,0.8c-0.2,1.3-1.5,18.6-19.4,24.7l-18.4,0.2c0,0-14.7-5-19.1-23.7
		C-8.4,25.9-8.9,23.9-6.7,23.7z"/>
	<ellipse class="st18" cx="20.2" cy="51.3" rx="12" ry="3.2"/>
	<path class="st41" d="M17.9,13.2c0,0-0.2,2.2-1,2.7"/>
	<path class="st41" d="M15.7,16.9c0,0,2.3-0.8,4.7-0.5"/>
	<path class="st41" d="M10.4,23.2c0,0,3.3-2.2,7.7-2"/>
	<path class="st41" d="M13,15.5c0,0,0.7,2.7,0,3.7"/>
	<path class="st41" d="M5.9,17.9c0,0-0.5,1.8,0.7,4.2"/>
	<path class="st41" d="M-0.5,18.2c0,0,1.3-0.3,3.2,0"/>
	<path class="st41" d="M1.2,22.2c0,0,4.5-0.3,6.2,1"/>
</g>
<g id="icon_34" class="st0">
	<path class="st18" d="M15.1,21.5h9.7c0,0,2,0,2.9,2.6s2,3.2,2,3.2l2.1,2.1c0,0,0.6,1.4-0.3,2.2c-0.9,0.8-2.1,0.6-2.5,0.3
		c-0.4-0.3-3.1-2.8-3.1-2.8l-1.2-2v5.5l2.7,9.6c0,0,0.8,2.3-1.4,2.9s-3.3-0.6-3.6-1.7c-0.2-1.1-2.7-8.3-2.7-8.3l-2.3,8.1
		c0,0-0.6,2.1-3.4,1.6c-2-0.4-1.4-3.3-1.4-3.3l2.4-8.7l0.1-5.6l-1.2,1.9l-3.2,3.3c0,0-1.3,1.1-2.5-0.2c-1.1-1.1,0.2-3,0.2-3l2.4-2.7
		l1.9-3.7C12.8,22.9,13.3,21.5,15.1,21.5z"/>
	<circle class="st18" cx="19.9" cy="18.7" r="4.4"/>
	<g class="st1">
		<circle class="st42" cx="20" cy="30.1" r="19.2"/>
	</g>
</g>
<g id="icon_35" class="st0">
	<path class="st18" d="M12,20.9c0,0,3.8-2.3,8.3-2.1l2.4-3c0,0,1.7-1.9,2.5,0.2l0.6,3.4c0,0,4.8,1.3,5.5,3.7l2.4-0.4
		c0,0,1.2-0.2,1.5,0.5S35,24.6,35,24.6l-1.4,2.1c0,0,1.3,7.2-2.2,10.6l1.1,4.3c0,0,0.4,1.5-0.2,2c-0.6,0.5-1.6,0.3-2.3-0.2
		c-0.7-0.6-3-2.3-3-2.3s-2.8,2.1-8.8,1.5l-2,2.1c0,0-0.6,0.6-1.5,0.4c-0.9-0.2-1-2.3-1-2.3l-0.1-1.7c0,0-2-0.5-3.8-2.7L6.3,39
		c0,0-2,0-0.8-2.4l1.6-2.7c0,0-1.6-5,0.4-8.3l-2.2-4.9c0,0-0.3-1.5,0.3-1.8s2,0.2,2,0.2L12,20.9z"/>
	<line class="st32" x1="13.5" y1="25.3" x2="17.1" y2="27.9"/>
	<line class="st32" x1="22.1" y1="27.7" x2="27" y2="25.3"/>
	<path class="st32" d="M16.2,35.8c0,0,1.4-2.3,4-2.1s3.6,2.7,3.6,2.7"/>
</g>
<g id="icon_36" class="st0">
	<g id="icon_23_1_" class="st1">
		<path class="st43" d="M24,17.5c-5.9,1.1-4.2,5.5-4.2,6.8s-0.4,1.3-0.5,2s0.8,0.9,0.8,0.9s-0.3,1.7-2.8,0.2c-2.5-1.6-6.4,0.4-7,0.4
			c-0.5,0,0.5-2,0.5-2c-0.5-0.6-1.4-0.2-2.3,1.1c-1,1.5-0.9,3.3-0.7,3.4c0.2,0.1,3-0.1,4.3-0.4s2-0.4,1.7-0.1
			c-0.2,0.3-0.9,1.5-1.2,1.6c-0.4,0.2-6.6,7.1-0.8,9.4c5.9,2.3,10-0.5,11.6-1.8c1.7-1.4,4.6-3.4,5.6-5.1c1-1.6,0.3-4.1,0.2-5
			c-0.2-0.9,1.2-3,1.6-5C31.1,21.9,30,16.4,24,17.5z"/>
		<path class="st5" d="M17,31.9c0,0,0.5,2.7-1.2,3.9"/>
		<path class="st5" d="M13.3,30.8c0,0,1.2-1.7,1.4-2.4"/>
		<path class="st5" d="M17,27.5c0,0-1.7,4.1,0.9,5.1c2.6,0.9,6.7,0.5,6.7,0.5"/>
		<path class="st5" d="M20,27.9c0,0,0.7,0.3,1,1.3"/>
		<path class="st5" d="M19.3,29.9c0,0,4.8-1.8,8.6-0.5"/>
		<path class="st5" d="M25.7,22.5c0,0,1.8-0.1,1.6,1.5s-1,2.7-2.7,1.5"/>
	</g>
	<circle class="st44" cx="20.2" cy="30.1" r="20.3"/>
	<line class="st44" x1="31.4" y1="14.6" x2="8.6" y2="45.9"/>
</g>
<g id="icon_37" class="st0">
	<circle class="st45" cx="23.8" cy="26.6" r="12.3"/>
	<circle class="st45" cx="16.6" cy="33.6" r="12.3"/>
	<path class="st45" d="M13,22.1"/>
	<path class="st18" d="M20.1,22.1l5.2,3l3.2,2.8l0.9,4.4c0,0-0.5,3.4-0.9,3.6c-0.4,0.2-1.1,1.7-1.1,1.7s-3.1,1.5-3.2,1.4
		c-0.1-0.2-5.3-2.9-5.3-2.9l-3.4-0.6L13,30.1l-1.6-5.4l1.2-2l2-0.9L20.1,22.1z"/>
</g>
<g id="icon_38" class="st0">
	<circle class="st18" cx="17.9" cy="14.1" r="3.9"/>
	<path class="st18" d="M14,18.2l7.4-0.1c0,0,2.5,0.3,3.5,4.1l-4,4.8l0.4,5l1.7,3.5l0.1,11.6c0,0,0.6,2.7-1.9,2.7
		c-2,0-2.2-1.5-2.2-2.5c0-1.1-0.1-13-0.1-13s-0.3-0.8-1.1-0.8c-0.8,0.1-0.9,1-0.9,1v13.8c0,0-0.1,1.5-2,1.6S12.7,48,12.7,48
		l-0.1-20.3l-1.7,4c0,0-0.5,1.8-2.7,1.1c-1.8-0.6-0.6-3.4-0.6-3.4l4.3-9.5C11.8,19.9,12.6,18.2,14,18.2z"/>
	<circle class="st24" cx="25.6" cy="29.3" r="7.6"/>
	<circle class="st14" cx="23.1" cy="30.8" r="3"/>
	
		<rect x="22.7" y="27.7" transform="matrix(0.2802 -0.9599 0.9599 0.2802 -12.9922 44.2442)" class="st24" width="0.7" height="6.2"/>
	<path class="st17" d="M27.7,33.8L27.7,33.8c-1,0-1.9-0.8-1.9-1.9v-5.6c0-1,0.8-1.9,1.9-1.9l0,0c1,0,1.9,0.8,1.9,1.9v5.6
		C29.6,33,28.8,33.8,27.7,33.8z"/>
	<rect x="25.9" y="28.8" class="st24" width="3.7" height="0.8"/>
</g>
<g id="icon_39" class="st0">
	<path class="st18" d="M13.6,14.9l12.7-0.1c0,0,1.9,9.2-6.1,9.2C13.2,24,13.6,19.6,13.6,14.9z"/>
	<polygon class="st18" points="15.3,37 24.7,37 26.2,44.4 28.1,44.4 28.1,46 11.7,46 11.7,44.1 13.8,44.1 	"/>
	<rect x="15.5" y="31.5" class="st18" width="9.1" height="3.5"/>
	<path class="st18" d="M16.8,25.3c0,0-1.6,0.5-1.4,4.1l-1.8,0.2l0.1,4c0,0-0.9-0.6-1.5-2.4l-1.8,0.6c0,0,1.4,3.1,2.1,3.7l1-0.8
		l-0.7,5.4c0,0-6.5-3.4-6.6-12.5c-0.1-5.4,5.5-9.8,5.5-9.8s0.2,3.1,1.6,4.4c0,0-1.5-0.3-2.8,3.3l1.7,0.8c0,0,0.5-2.3,1.8-3.1
		C13.8,23.2,15.3,24.9,16.8,25.3z"/>
	<path class="st18" d="M23.1,25.3c0,0,1.6,0.5,1.4,4.1l1.8,0.2l-0.1,4c0,0,0.9-0.6,1.5-2.4l1.8,0.6c0,0-1.4,3.1-2.1,3.7l-1-0.8
		l0.8,5.4c0,0,6.5-3.4,6.6-12.5c0.1-5.4-5.5-9.8-5.5-9.8s-0.2,3.1-1.6,4.4c0,0,1.5-0.3,2.8,3.3l-1.7,0.8c0,0-0.5-2.3-1.8-3.1
		C26,23.2,24.6,24.9,23.1,25.3z"/>
</g>
<g id="icon_40" class="st0">
	<circle class="st18" cx="20.1" cy="17.2" r="6.6"/>
	<path class="st18" d="M26,40.4c0,0,0-0.3-0.6-0.2c-0.6,0-4.7,0.4-6.6-3.9s-3.9-2.8-4-2.3c-0.1,0.4-0.1,1.4,0.3,2.9s1.1,3.4-0.1,3.5
		s-3.2,0.4-3.7,0.5c-0.5,0.2-1,0.5,0.1,1.1s2.7,1.1,4.2,1.2c1.6,0.1,6.6,0.1,7,2.6c0.3,2-1.3,3.5-3.8,3.8c-3.1,0.3-8.3-0.2-11.9-3.9
		c-3.6-3.6-2.2-8-1.7-9.4s3-8.5,6.5-11.2c0.9-0.6,1.8-1,3.9-1.1s10.8-0.1,10.8-0.1s3.8,0.4,6,4.6c2.3,4.2,3.2,6.8,3.2,6.8
		s0.6,2.2-0.1,3.6c-0.7,1.4-2.9,4.4-3.4,4.8c-0.4,0.4-3,3.4-6.8,2.1c-2-0.7-1.6-2.8-1.5-3.1c0.1-0.4,0.7-1.4,1.7-2
		C26.2,40.5,26,40.4,26,40.4z"/>
	<circle class="st34" cx="24.7" cy="34.7" r="4.6"/>
</g>
<g id="icon_41" class="st0">
	<path class="st18" d="M26.4,13.8c0,0-2.7,7.5-6.9,7.7S11.2,24,11.2,24s-0.3-2.9-2.3-4L9,16.2C9,16.1,16.6,10.5,26.4,13.8z"/>
	<path class="st18" d="M27.7,14c0,0-1.8,5.9-4.8,7.4c0,0,5.5,1,6.2,2.6c0,0,1-3.1,2.2-4.1l0.2-3.6C31.5,16.3,29.5,14.8,27.7,14z"/>
	<path class="st18" d="M7.7,12.7l0.2,7.8c0,0,2.1,2,2.2,4.8c0.1,2.7,0.1,7.1,0.1,7.1s-0.1,0.8-1.2,0.9c-1.1,0.1-1.3-1.5-1.3-1.5
		v-4.5c0,0-0.1-0.3-0.6-0.3s-0.6,0.3-0.6,0.5s0,6,0,6l3.2,6.1c0,0,0.4,1.2-0.5,1.8c-1,0.5-1.7-0.3-1.7-0.3l-4.6-8.5
		c0,0-0.2-0.6-0.2-2s0-18,0-18L7.7,12.7z"/>
	<path class="st18" d="M11.6,25.4l-0.1,7.2c0,0-0.3,2.3-2.9,2l2.2,4.5c0,0,0.7,2.1-0.3,2.6c0,0,4.1,6,8.9,6
		c4.9-0.1,8.8-3.1,10.5-5.8c0,0-1.1-1.5-0.1-3.2s2.3-4.2,2.3-4.2s-2.2,0.7-3.1-1.8v-7.4C28.9,25.3,20.3,19.1,11.6,25.4z"/>
	<path class="st22" d="M13.3,33.3c0,0,0.1,1.4,1.2,1.4c0.8,0,1.3-0.2,1.4-1.4"/>
	<path class="st22" d="M24.6,33.3c0,0,0.1,1.4,1.2,1.4c0.8,0,1.3-0.2,1.4-1.4"/>
	<polyline class="st22" points="19,34.3 19,36.8 21.4,36.8 	"/>
	<path class="st32" d="M15.5,39.4c0,0,2.1,2.9,4.6,2.8c2.4-0.1,4.5-2.7,4.5-2.8"/>
	<path class="st18" d="M32.9,12.6l-0.2,7.8c0,0-2.1,2-2.2,4.8s-0.1,7.1-0.1,7.1s0.1,0.8,1.2,0.9c1.1,0.1,1.3-1.5,1.3-1.5v-4.5
		c0,0,0.1-0.3,0.6-0.3s0.6,0.3,0.6,0.5s0,6,0,6l-3.2,6.1c0,0-0.4,1.2,0.5,1.8c0.9,0.5,1.6-0.2,1.6-0.3s4.6-8.5,4.6-8.5
		s0.2-0.6,0.2-2s0-18,0-18L32.9,12.6z"/>
</g>
<g id="icon_42" class="st0">
	<path class="st14" d="M13.5,23.1l-0.2,13c0,0,0.6,4.3-3.7,4.3S-3.9,42-6.3,51.5c-0.7,2.8-0.7,4.1-0.6,4.5c0.2,0.4,0,1.5,1.5,1.5
		c1.5,0,6.9,0,6.9,0s1.1-0.2,1.5-2c0.4-1.9,1.9-4.6,3.7-4.8c0,0-0.2,6.7,7.8,6.9c8,0.2,27.9-6.1,31.4-22.5c2.6-11.7,2-19.5-4.6-25.5
		c-6.7-6.1-15.1-7.2-19.7-6.3c-4.8,0.9-7.6,6.3-7.6,9.7c0,0-7.1,0.7-10.2-5.2C3,6,3,4.1,3,4.1s0-1.5-1.5-1.5s-6.7,0-6.7,0
		s-2,0.2-1.7,2.6C-6.5,7.6-4.1,20.3,5.6,22C9.5,22.9,12.8,23.1,13.5,23.1z"/>
</g>
<g id="icon_43" class="st0">
	<circle class="st18" cx="20.1" cy="14.2" r="5.1"/>
	<path class="st18" d="M12.1,23.3h16.2c0,0-0.9-2.8-3.8-2.9s-8.6,0-8.6,0S12.3,20.5,12.1,23.3z"/>
	<path class="st18" d="M31.2,42.9h-22c-1.6,0-2.8-1.3-2.8-2.8V27.2c0-1.6,1.3-2.8,2.8-2.8h22c1.6,0,2.8,1.3,2.8,2.8V40
		C34,41.5,32.7,42.9,31.2,42.9z"/>
	<path class="st18" d="M14.3,43.9h5.1v5.4c0,0-0.1,1.7-1.5,1.7s-2.1,0-2.1,0s-1.6-0.1-1.6-2.1C14.2,47.4,14.3,43.9,14.3,43.9z"/>
	<path class="st18" d="M20.8,43.9h5.1v5.4c0,0-0.1,1.7-1.5,1.7s-2.1,0-2.1,0s-1.6-0.3-1.6-2.1C20.8,47.4,20.8,43.9,20.8,43.9z"/>
	<path class="st24" d="M16.1,41.6l7.9-0.1c0,0-0.6-1.3-1.4-1.4c-0.9-0.1-1.6,0.1-2,0.6s-0.8,0.4-1.1,0.1c-0.3-0.4-1.3-0.8-1.9-0.7
		C17.1,40.4,16.1,41,16.1,41.6z"/>
	<path class="st46" d="M18.6,38.2l0.1-8.9c0,0-0.1-1.9,1.2-2c1.4-0.1,1.4,1.9,1.4,1.9v8.9"/>
	<path class="st47" d="M26.2,41.5c0,0-1-3.8-4.9-3.3"/>
	<path class="st47" d="M21.6,36.5H26c0,0,2.8-0.3,3.4-2.7"/>
	<path class="st47" d="M21.6,33.1h3.1c0,0,2.7-0.2,3.2-2.6"/>
	<path class="st22" d="M21.5,29.9l2.3-0.1h0.1c0.3-0.1,2-0.2,2.5-2.2"/>
	<path class="st47" d="M13.8,41.4c0,0,1-3.8,4.9-3.3"/>
	<path class="st47" d="M18.5,36.4h-4.4c0,0-2.8-0.3-3.4-2.7"/>
	<path class="st47" d="M18.6,33h-3.1c0,0-2.7-0.2-3.2-2.6"/>
	<path class="st22" d="M18.6,29.8l-2.3-0.1h-0.1c-0.3-0.1-2-0.2-2.5-2.2"/>
</g>
<g id="icon_44" class="st0">
	<path class="st48" d="M4.7,8.2c0,0,4.6-6,13.5-4.6c0,0,12.4-4,17.9,4.7c0,0,10,2.9,9.7,13c0,0,5.7,7.8,0.2,17.3
		c0,0-1.1,11.3-11.3,13.7c0,0-3.1,7.5-15.3,4.4c0,0-8.4,3.1-14.4-4.4c0,0-8-2.7-9.9-11.7c0,0-6.9-13,0.4-19.3
		C-4.6,21.1-4.4,11.8,4.7,8.2z"/>
	<path class="st49" d="M45.2,21.3c0,0-5.1-12.4-22.1,0.2"/>
	<path class="st49" d="M45.4,21.7c0,0,0.4,10.8-8.9,13.7"/>
	<path class="st49" d="M39,43.6c0,0,5.3-2.6,7.3-6"/>
	<path class="st49" d="M13.3,8.4c0,0,4.2-4.4,6.9-5.1"/>
	<path class="st49" d="M26.4,51.2c0,0,5.3,1.8,9.3,0.7"/>
	<path class="st49" d="M22.4,57.3c0,0-13.7-2.4-12-13.1c0.7-4,3.5-8.9,3.5-8.9s-6.7,2-9.7,0.2"/>
	<path class="st49" d="M-6.4,37c0,0,4,5.7,7.7,6.7"/>
	<path class="st49" d="M-6.1,23c0,0,5.7-8,23.7-1.1"/>
</g>
<g id="icon_45" class="st0">
	<g class="st1">
		<path class="st8" d="M20.8,21.5c-1.2,0-2.3,0.2-3.4,0.7c0.1,0.3,0.2,0.7,0.2,1c0,2.1-1.7,3.8-3.8,3.8c-0.4,0-0.8-0.1-1.1-0.2
			c-0.5,1.1-0.8,2.3-0.8,3.6c0,0.6,0.1,1.1,0.2,1.7c0.5-0.3,1.1-0.5,1.8-0.5c2,0,3.6,1.6,3.6,3.6c0,1.1-0.5,2.1-1.3,2.8
			c1.4,0.9,3,1.4,4.7,1.4c0.8,0,1.6-0.1,2.4-0.3c-0.6-0.8-1-1.8-1-2.9c0-2.5,2.1-4.6,4.6-4.6c1,0,2,0.3,2.7,0.9
			c0.2-0.7,0.2-1.3,0.2-2C29.7,25.5,25.7,21.5,20.8,21.5z"/>
	</g>
	<circle class="st18" cx="26.7" cy="36.2" r="2.9"/>
	<circle class="st18" cx="13.8" cy="35.2" r="1.9"/>
	<circle class="st18" cx="13.8" cy="23.3" r="2.1"/>
	<path class="st18" d="M27.9,22.8c0-0.1,0-0.3,0-0.4c0-2.8-2.3-5-5-5c-2,0-3.6,1.1-4.5,2.8c0.8-0.2,1.6-0.3,2.5-0.3
		C23.7,19.8,26.2,21,27.9,22.8z"/>
	<path class="st18" d="M33.9,21.8l-2.7,2.6c-0.5,0.5-1.3,0.2-1.5-0.4l-0.9-3.6l-0.9-3.6c-0.2-0.7,0.5-1.3,1.1-1.1l3.6,1l3.6,1
		c0.7,0.2,0.9,1,0.4,1.5L33.9,21.8z"/>
	<path class="st50" d="M33.9,21.8c0,0,5.7,6.5,1.2,15.6S20.7,46,20.7,46"/>
	<path class="st18" d="M6.6,38.5l2.7-2.6c0.5-0.5,1.3-0.2,1.5,0.4l0.9,3.6l0.9,3.6c0.2,0.7-0.5,1.3-1.1,1.1l-3.6-1l-3.6-1
		c-0.7-0.2-0.9-1-0.4-1.5L6.6,38.5z"/>
	<path class="st50" d="M6.6,38.5c0,0-5.4-7.8-1.3-15.6c5.3-10.3,14.4-8.7,14.4-8.7"/>
</g>
<g id="icon_46" class="st0">
	<path class="st18" d="M16.8,42.2H8.4c-0.6,0-1.2-0.5-1.2-1.2l0,0c0-0.6,0.5-1.2,1.2-1.2h8.4c0.6,0,1.2,0.5,1.2,1.2l0,0
		C17.9,41.6,17.4,42.2,16.8,42.2z"/>
	<path class="st18" d="M34.4,45.7H6.1c-0.6,0-1.1-0.5-1.1-1.1l0,0c0-0.6,0.5-1.1,1.1-1.1h28.3c0.6,0,1.1,0.5,1.1,1.1l0,0
		C35.5,45.2,35.1,45.7,34.4,45.7z"/>
	<path class="st18" d="M15.2,36l-3.9-2.4c-1-0.6-1.4-2-0.7-3l7.5-12.3c0.6-1,2-1.4,3-0.7L25,20c1,0.6,1.4,2,0.7,3l-7.5,12.3
		C17.6,36.4,16.2,36.7,15.2,36z"/>
	<path class="st18" d="M11.8,37.4L11.8,37.4c-0.7-0.4-0.8-1.2-0.5-1.7l1.5-2.5c0.3-0.6,1.1-0.8,1.7-0.4l0.1,0.1
		c0.6,0.3,0.8,1.1,0.4,1.7L13.5,37C13.1,37.4,12.4,37.6,11.8,37.4z"/>
	<path class="st18" d="M25.7,19l-3.8-2.3c-0.4-0.2-0.5-0.7-0.3-1.1l0.4-0.7c0.2-0.4,0.7-0.5,1.1-0.3l3.8,2.3
		c0.4,0.2,0.5,0.7,0.3,1.1l-0.4,0.7C26.6,19.1,26.1,19.2,25.7,19z"/>
	<path class="st50" d="M25.8,28.7c0,0,8,2.8,6.8,8.1c-0.9,4.1-3.1,7.1-3.1,7.1"/>
</g>
<g id="icon_47" class="st0">
	<path class="st18" d="M4,43.9l-3.3-6.1c-0.3-0.6-0.1-1.3,0.5-1.6l1.5-0.8l4.4,8l-1.7,0.9C4.9,44.5,4.3,44.3,4,43.9z"/>
	<path class="st18" d="M4.1,34.3l4.1,8.1l2.6-1.4l11.7,2.4c0,0,1.9,0.5,4.9-0.6s11.7-4.9,11.7-4.9s1.1-0.6,0.7-1.9s-1.4-1.3-2.5-0.9
		c-1.1,0.3-7.4,3.1-7.4,3.1s-0.9,0.4-2.5,0.4c-1.5,0-9.1-0.5-9.1-0.5s-0.4,0-0.4-0.6c0.1-0.6,1.3-0.4,1.3-0.4l8.1,0.3
		c0,0,1.5-0.2,1.5-1.7s-1-1.8-1.6-1.9c-0.6-0.1-5.8-0.2-12.8-3.1c-1.2-0.5-5,0.4-6.2,1.1C7,32.5,4.1,34.3,4.1,34.3z"/>
	<path class="st18" d="M30.2,35.2c0,0,0.1,1.1,0,1.4l6.5-2.4c0,0-0.4-1-2.1-0.5S30.2,35.2,30.2,35.2z"/>
	<path class="st18" d="M28.9,33.1l0.8,0.9l4.2-1.2c0,0-0.7-0.6-2.6-0.2C29.3,32.9,28.9,33.1,28.9,33.1z"/>
	<path class="st40" d="M32,15.9c0,0,1,12.1-11.6,11.5c0,0,2.1-4,7-6.2c0,0-6.6,0.5-10,9.5c0,0-0.2,0.5-0.7,0.4
		c-0.5-0.2-0.5-0.7-0.4-1.3c0.1-0.6,0.7-2.2,1.7-2.9c0,0-1.2-7.2,7.7-7.7C27.8,19.2,30.8,17.3,32,15.9z"/>
</g>
<g id="icon_48" class="st0">
	<path class="st17" d="M19.8,13.8h2.9v10c0,0,0,2.4,4.1,2.1l1.3,1.6l-1.5,0.2c0,0-2.5,0.4-3.3-0.5s-0.6,0.7-0.6,0.7v18.4h-3l-1-18.9
		c0,0-0.5,2.1-5.2,1.6l-0.6-1.3l0.2-0.4c0,0,2.3,0.6,5.3-0.8c1.1-0.5,1.1-4.1,1.1-4.1L19.8,13.8z"/>
	<path class="st18" d="M26.7,29.9c0,0-5.8,1.5-6.7-3.9V13.8h-2.7v15.3c0,0,0.5,1.9-3.6,2.2l-1.2,1.2l0.7,0.6l0.8,0.2l1.8-0.5
		c0,0,1.5-0.5,1.6,0.6c0,1,0,13.1,0,13.1l2.7-0.1V29.9c0,0,1.8,2.6,6.4,2.1l0.7-1.6L26.7,29.9z"/>
	<path class="st17" d="M28,18.9c0,0,3.6-1.6,5.9,1.1s3.6,10.7,0.9,15.9s-5.8,3.8-7.2,3.2c-1.5-0.6-2.5-3-1.9-4.8
		c0.5-1.8,1.1-3.4,1-4c-0.2-0.6-0.6-2.2-0.3-2.8c0.3-0.6,0.4-1.7,0.1-2c-0.3-0.3-1-1.1-1-1.9C25.5,22.9,25.3,20.5,28,18.9z"/>
	<path class="st17" d="M12.3,20.1c0,0-3.6-1.6-5.9,1.1S2.8,31.6,5.5,36.7s5.9,3.6,7.2,3.1s2.5-2.9,1.9-4.6s-1.1-3.3-1-3.9
		c0.2-0.6,0.6-2.1,0.3-2.7c-0.3-0.6-0.4-1.7-0.1-2s1-1.1,1-1.8S15,21.6,12.3,20.1z"/>
</g>
<g id="icon_49" class="st0">
	<g id="brain" class="st1">
		<path class="st51" d="M13.9,26.2c0,0-1.4-1.8,0.3-3.1c0,0,0.4-1.9,2.3-1.6c0,0,0.9-2.1,3-1.5c0,0,1.8-1.3,2.9,0
			c0,0,2.3-0.8,3.1,0.9c0,0,2.1,0.1,2.3,1.8c0,0,2.7,2.7-0.1,4.5L13.9,26.2z"/>
		<path class="st52" d="M14.6,22.2c0,0-0.8,1.4,0.5,2"/>
		<path class="st52" d="M16.8,20.9c0,0-1.3,2.7,1.7,3.2"/>
		<path class="st52" d="M19.5,25.2c0,0,2-2.8-1-3.6"/>
		<path class="st52" d="M21.8,22.4c0,0,0,1.4-1.6,1.5"/>
		<path class="st52" d="M21.7,19.6c0,0.1,1.1,0.2,1.3,2.3"/>
		<path class="st52" d="M22.3,25.9c0,0,0.2-2,2.4-1.9"/>
		<path class="st52" d="M26.7,25.6c0,0-1.9-0.1-1.9-2.2"/>
		<path class="st52" d="M16.5,25.3c0,0,0.1,1,0.9,1.2"/>
		<path class="st53" d="M13.9,26.3c0,0-1.7,1.5-0.2,3.1c0,0,0.1,1.9,2,1.9c0,0,0.6,2.2,2.8,1.9c0,0,1.6,1.5,2.9,0.4
			c0,0,2.2,1.1,3.2-0.4c0,0,2.1,0.1,2.5-1.5c0,0,3.1-2.3,0.5-4.5L13.9,26.3z"/>
		<path class="st5" d="M14.1,30.3c0,0-0.6-1.5,0.8-1.9"/>
		<path class="st5" d="M16.1,32c0,0-0.9-2.8,2.2-3"/>
		<path class="st5" d="M19.3,28.1c0,0,1.6,3-1.5,3.4"/>
		<path class="st5" d="M21.1,31.2c0,0,0.2-1.3-1.4-1.7"/>
		<path class="st5" d="M20.7,34c0-0.1,1.1,0,1.6-2.1"/>
		<path class="st5" d="M22.2,27.8c0,0-0.1,2,2.1,2.2"/>
		<path class="st5" d="M26.4,28.6c0,0-1.9-0.1-2.1,1.9"/>
		<path class="st5" d="M17.7,27.6c0,0,0.2-1,1.1-1"/>
		<path class="st5" d="M24.3,28.5c0,0,0.4-1.2,1.4-1.5"/>
	</g>
	<path class="st18" d="M16.8,16.7c-4.9,0.7-6.5,2.7-8.2,4.9c-1.7,2.3-1.1,7.3-1.1,7.3s-1.7,2-2.1,2.5s-1.2,1.7-1.1,2.7
		c0.2,1,1.8,1.2,1.8,1.2s-0.2,2.1-0.2,2.6s0.5,0.6,0.6,0.7c0.1,0,0.2,0.2,0.2,0.2s-0.4,0.1-0.4,0.5c0,0.6,0.6,0.9,0.6,0.9
		c0,0.1,0.2,0.2,0,0.8c-0.3,0.6-0.3,1.6,0.8,2.5c1.1,0.9,5.6,0.8,5.6,0.8v3L27.6,47c0,0-0.3-0.4-0.8-3s0.2-4.5,0.3-4.9
		c0.2-0.4,1.1-1.9,2.6-4.3c1-1.6,1.6-3.9,1.8-6.2c-0.1,0-0.2,0-0.2,0C23.4,28.1,17.2,22.9,16.8,16.7z"/>
	<path class="st18" d="M17.1,16.5c0,0,5.1,8.7,19,5.1C36.1,21.6,30.4,6,17.1,16.5z"/>
</g>
<g id="icon_50" class="st0">
	<path class="st54" d="M20.2,15.6c0,0,3.4-3.1,6.2,0.1c0,0,3.9,0.5,3.5,4.4c0,0,4.4,1.5,3.5,5.9c0,0,2.8,3.5,0.5,5.9
		c0,0,1.9,4.6-1.3,6.4c0,0,0,4.3-3.3,4.9c0,0-5.1,5.9-9.1,0.4L20.2,15.6z"/>
	<path class="st28" d="M28.5,16.6c0,0-3-1.4-4,1.4"/>
	<path class="st28" d="M31.5,20.9c0,0-5.6-2.2-6.3,3.9"/>
	<path class="st28" d="M23,26.9c0,0,5.9,3.6,7.1-2.6"/>
	<path class="st28" d="M29,31c0,0-2.7,0.2-3.2-3"/>
	<path class="st28" d="M34.8,30.6c-0.1,0-0.2,2.2-4.5,2.9"/>
	<path class="st28" d="M22,32.6c0,0,4.1,0,4.2,4.5"/>
	<path class="st28" d="M23.2,41.4c0,0,0-3.9,4.1-4.1"/>
	<path class="st28" d="M22.5,20.7c0,0-2,0.3-2.3,2"/>
	<path class="st54" d="M20.1,15.6c0,0-3.4-3.1-6.2,0.1c0,0-3.9,0.5-3.5,4.4c0,0-4.4,1.5-3.5,5.9c0,0-2.8,3.5-0.5,5.9
		c0,0-1.9,4.6,1.3,6.4c0,0,0,4.3,3.3,4.9c0,0,5.1,5.9,9.1,0.4V15.6z"/>
	<path class="st28" d="M11.9,16.6c0,0,3-1.4,4,1.4"/>
	<path class="st28" d="M8.9,20.9c0,0,5.6-2.2,6.3,3.9"/>
	<path class="st28" d="M17.2,26.9c0,0-5.9,3.6-7.1-2.6"/>
	<path class="st28" d="M11.2,31c0,0,2.7,0.2,3.2-3"/>
	<path class="st28" d="M5.5,30.6c0.1,0,0.2,2.2,4.5,2.9"/>
	<path class="st28" d="M18.3,32.6c0,0-4.1,0-4.2,4.5"/>
	<path class="st28" d="M17.1,41.4c0,0,0-3.9-4.1-4.1"/>
	<path class="st28" d="M17.9,23.6c0,0,2,0.3,2.3,2"/>
	<path class="st28" d="M17,37c0,0,2.5,0.6,3.1,2.6"/>
</g>
<g id="icon_51" class="st0">
	<circle class="st18" cx="20.2" cy="30.1" r="19.5"/>
	<circle class="st55" cx="20" cy="30.5" r="5.4"/>
	<path class="st56" d="M17.3,25.2l-3.5-6.4c0,0,6.8-3.2,12-0.1l-3.4,6.5"/>
	<path class="st56" d="M25.8,30.4l7.3,0.1c0,0-0.5,7.5-5.7,10.5l-4-6.1"/>
	<path class="st56" d="M16.5,35.2l-4.2,6c0,0-5.9-4.7-5.4-10.7l7.3,0.2"/>
</g>
<g id="icon_52" class="st0">
	<path class="st18" d="M30.7,43.8h-21c-1.8,0-3.3-1.5-3.3-3.3V19.7c0-1.8,1.5-3.3,3.3-3.3h20.9c1.8,0,3.3,1.5,3.3,3.3v20.7
		C34,42.3,32.5,43.8,30.7,43.8z"/>
	<path class="st24" d="M15.3,26.9h10.2l3.6-5.1c0,0-8.7-7.6-17.5,0.1L15.3,26.9z"/>
	<path class="st17" d="M20.1,30.3c0,0,1.4-2.1,4.1-1.4c2.8,0.8,3.1,2.9,3.1,2.9s1,5.7-6.9,9.8c0,0-8.1-2.9-7.5-9.2
		c0.2-2.5,2.1-3.7,3.1-3.8C17.2,28.6,18.9,28.7,20.1,30.3z"/>
	<circle class="st38" cx="20.2" cy="26.4" r="2"/>
	<line class="st57" x1="23" y1="21.5" x2="21.2" y2="24.5"/>
	<path class="st18" d="M20,37.7L20,37.7c-0.4,0-0.7-0.3-0.7-0.7v-3.5c0-0.4,0.3-0.7,0.7-0.7l0,0c0.4,0,0.7,0.3,0.7,0.7V37
		C20.8,37.4,20.4,37.7,20,37.7z"/>
	<path class="st18" d="M22.5,35.2L22.5,35.2c0,0.4-0.3,0.7-0.7,0.7h-3.5c-0.4,0-0.7-0.3-0.7-0.7l0,0c0-0.4,0.3-0.7,0.7-0.7h3.5
		C22.2,34.5,22.5,34.8,22.5,35.2z"/>
</g>
<g id="icon_53" class="st0">
	<path class="st18" d="M34.9,22.8l-0.8,2.7c0,0-0.6,1.6-2.9,1.6s-3.7-0.6-3.9,1c-0.3,1.6-1,5.3-5.7,5.7c0,0-0.3,0.3,0.2,0.4
		c0.5,0.1,2.5-0.1,3.4-0.6s2,0.2,2.6,1.6c0.6,1.4,0.9,1.6,1.2,1.5c0.3,0,1.5-0.3,1.8,0s0.7,0.9-0.4,1.6c-1.1,0.8-2.2,0.5-2.9-0.3
		s-1.1-1.1-1.5-1.2c-0.4-0.1-1.4,0-1.5,0.9s-1.6,4.1-5.3,3.7c-3.6-0.4-5.5-2-6.2-4.7s0.5-5.5,0.8-6.3c0.4-1.4,0.3-2-0.2-2.8
		s-1.4-0.6-1.7-3.1c-0.4-2.4,1.6-4.8,3.1-5.7c0,0,1.6-1.1,3.4-0.7s3.3,1.2,4.4,2.5c1.3,1.4,1.2,3.4,0.1,5c-0.2,0.3-0.3,0.5-0.1,0.8
		s0.5,1.9-0.6,2.2c-1.1,0.3-2.3,0.3-2.6,0.7c-0.3,0.4-0.1,0.7,0.3,1s1.1,0.4,1.2,0.4s0-0.4,0-0.7c0-0.3,0.6-0.6,1.1-0.1
		c0.5,0.5,0.9,1,0.6,1.7c-0.2,0.7-0.4,0.4,0.1,0.5c0.4,0.1,0.2-0.2,0.7-0.4c0.4-0.2,0.7-0.2,0.8-0.5c0.2-0.3,1.1-3.5,1.4-3.9
		c0.3-0.4,0.6-1.7,4.2-2.6c1.8-0.4,1.9-1.4,1.6-3c-0.3-1.2-0.9-3.4-1.2-4.4c-2.8-2.2-6.4-3.6-10.2-3.6c-9.1,0-16.4,7.4-16.4,16.4
		c0,9.1,7.4,16.4,16.4,16.4s16.4-7.2,16.4-16.3C36.6,27.5,36,25,34.9,22.8z"/>
</g>
<g id="icon_54" class="st0">
	<path class="st18" d="M6.7,19.3c0,0,0.9-2.1,2.9-1.4s2.1,2.3,2,3.5s0.3,3.1,0.3,3.1s1.1,2.2,2.3,0.4c1.5-2.2,5.4-7.9,5.4-7.9
		s1.4-2,3.5-0.8c2.1,1.1,0.6,3.6,0.6,3.6l-3,6l6.9-6.4c0,0,2.1-1.4,3.5,0.5s-0.4,3.5-0.4,3.5l-5.8,6.2l5.6-2.8c0,0,2.3-0.8,3.1,1
		s-0.1,2.9-0.6,3.3s-6.8,4.6-6.8,4.6l4-0.9c0,0,2.6-0.5,3,1.6s-0.9,2.8-1.6,3C31,39.7,19.4,44,19.4,44s-5.3,1.9-9.6-2
		c-3.8-3.4-3.2-9.5-3.2-9.5S6.4,19.9,6.7,19.3z"/>
	<circle class="st24" cx="12.5" cy="32.7" r="1.4"/>
	<circle class="st24" cx="20.1" cy="32.7" r="1.4"/>
	<path class="st22" d="M11,35.9c0,0,1.2,4,4.9,4.1s5.1-2.6,5.5-4"/>
</g>
<g id="icon_55" class="st0">
	<path class="st18" d="M30.5,45.7H9.9c-2.1,0-3.7-1.7-3.7-3.7V18.3c0-2.1,1.7-3.7,3.7-3.7h20.5c2.1,0,3.7,1.7,3.7,3.7v23.6
		C34.2,44,32.5,45.7,30.5,45.7z"/>
	<text transform="matrix(1 0 0 1 17.4409 23.8884)" class="st24 st58 st59">E</text>
	<text transform="matrix(1 0 0 1 14.0879 30.3695)" class="st24 st58 st60">F</text>
	<text transform="matrix(1 0 0 1 22.3232 30.3695)" class="st24 st58 st60">P</text>
	<text transform="matrix(1 0 0 1 24.3819 36.0818)" class="st24 st58 st61">Z</text>
	<text transform="matrix(1 0 0 1 18.0877 36.0818)" class="st24 st58 st61">O</text>
	<text transform="matrix(1 0 0 1 12.4407 36.0818)" class="st24 st58 st61">T</text>
	<text transform="matrix(1 0 0 1 10.6763 41.4934)" class="st24 st58 st62">L</text>
	<text transform="matrix(1 0 0 1 15.7939 41.4934)" class="st24 st58 st62">P</text>
	<text transform="matrix(1 0 0 1 20.6175 41.4934)" class="st24 st58 st62">E</text>
	<text transform="matrix(1 0 0 1 25.9116 41.4934)" class="st24 st58 st62">D</text>
</g>
<g id="icon_56" class="st0">
	<path class="st18" d="M11.5,42.8l-6.2-6.7l14.6-13.4c1.9-1.7,4.8-1.6,6.5,0.3l0,0c1.7,1.9,1.6,4.8-0.3,6.5L11.5,42.8z"/>
	
		<rect x="19.2" y="27.8" transform="matrix(0.7362 -0.6768 0.6768 0.7362 -14.0802 21.089)" class="st24" width="1.6" height="1.6"/>
	
		<rect x="19.2" y="27.8" transform="matrix(0.7362 -0.6768 0.6768 0.7362 -14.0802 21.089)" class="st24" width="1.6" height="1.6"/>
	
		<rect x="16.7" y="30.1" transform="matrix(0.7362 -0.6768 0.6768 0.7362 -16.2959 20.0038)" class="st24" width="1.6" height="1.6"/>
	
		<rect x="14.3" y="28.7" transform="matrix(0.7362 -0.6768 0.6768 0.7362 -18.5325 19.0539)" class="st24" width="1.7" height="9.2"/>
	<polyline class="st50" points="26.1,23.2 32.4,17.4 35.1,17.5 	"/>
</g>
<g id="icon_57" class="st0">
	<path class="st18" d="M15,45.9l0.1-1.7c0-0.3,0.4-0.5,0.6-0.3l1.4,0.9l1.4,0.9c0.3,0.2,0.2,0.6,0,0.7L17,47.1l-1.5,0.8
		c-0.3,0.2-0.6,0-0.6-0.4L15,45.9z"/>
	<path class="st50" d="M15.4,45.9c0,0-12.8-2.3-13.7-13.7c-0.3-9.8,6.2-14.6,6.2-14.6"/>
	<path class="st24" d="M24,20.7c0,0,3-0.7,4.4,0c1.7,0.8,3,2.9,2.1,6.4s-1.7,6.5-1.9,9.5c-0.3,3-2.4,5-3.8,5.2
		c-1.4,0.3-2.4-1.2-2.1-2.3c0.3-1.1,0.7-4.3,0.6-5.1c-0.1-1.5-0.9-2.8-2.1-2.8c-1.2,0-1.8,0.7-2.1,1.4c-0.3,0.8-0.8,3.8-0.4,5.2
		c0.3,1.4,0.1,3.5-1.2,3.5c-1.3,0.1-3.8-1.3-4.8-7.2c-1-5.9-1.5-7.2-1.7-8c-0.7-2.7,0-6.2,3-6.4s5.4,1.1,6.5,1.2
		C21.3,21.5,22.9,20.9,24,20.7z"/>
	<path class="st17" d="M18.6,23.6c0,0,1.8,1,2.5,0.7c0.7-0.4,2.4-1.2,4.3-0.3c1.9,1,1.9,2.1,1.9,2.1s0.6,2.1-0.4,3.7
		c-1,1.7-0.7,5.1-0.7,5.1s0.1,1.2-0.5,1.2c-0.5,0-0.9-1.1-0.9-1.3s-0.6-4.4-3.4-4.9S18.1,32,17.7,33c-0.2,0.7-0.4,2.6-0.4,2.6
		s-0.1,1-0.7,0.9c-0.5-0.1-0.7-1.1-0.7-3.5s-0.7-2.6-1.1-4s-0.3-3.8,1.1-4.9C17.2,23,18.6,23.6,18.6,23.6z"/>
	<path class="st18" d="M24.4,14.3V16c0,0.3-0.3,0.5-0.6,0.4l-1.5-0.8l-1.5-0.8c-0.3-0.1-0.3-0.6,0-0.7l1.4-0.9l1.4-0.9
		c0.3-0.2,0.6,0,0.6,0.3L24.4,14.3z"/>
	<path class="st50" d="M24,14.3c0,0,12.9,1.5,14.6,12.8c1,9.8-5.2,15-5.2,15"/>
</g>
<g id="icon_58" class="st0">
	<path class="st24" d="M22,17.7c0,0,3.6-0.8,5.3,0c2,1,3.6,3.5,2.5,7.7s-2,7.8-2.3,11.5c-0.4,3.6-2.9,6.1-4.6,6.3
		c-1.7,0.4-2.9-1.4-2.6-2.8c0.4-1.3,0.8-5.3,0.7-6.2c-0.2-1.9-1.1-3.4-2.6-3.4s-2.2,0.8-2.6,1.7c-0.4,1-1,4.6-0.5,6.3
		c0.4,1.7,0.2,4.2-1.4,4.3s-4.6-1.6-5.8-8.7s-1.8-8.7-2-9.7c-0.9-3.3,0-7.5,3.6-7.7c3.6-0.3,6.6,1.3,7.8,1.4
		C18.7,18.7,20.7,17.9,22,17.7z"/>
	<path class="st17" d="M15.4,21.2c0,0,2.1,1.2,3,0.8c0.9-0.4,2.8-1.5,5.2-0.4c2.3,1.2,2.3,2.5,2.3,2.5s0.7,2.5-0.5,4.5
		s-0.9,6.1-0.9,6.1s0.1,1.4-0.6,1.4c-0.6,0-1.1-1.3-1.1-1.6s-0.7-5.3-4.1-6s-4,2.6-4.4,3.7c-0.3,0.8-0.5,3.2-0.5,3.2
		s-0.2,1.2-0.8,1.1c-0.6-0.1-0.8-1.3-0.8-4.2c0-2.8-0.9-3.2-1.3-4.9c-0.4-1.7-0.4-4.6,1.3-5.9C13.7,20.5,15.4,21.2,15.4,21.2z"/>
	<circle class="st18" cx="28.5" cy="34.9" r="6.2"/>
	<path class="st24" d="M28.8,38.4h-0.9c-0.5,0-0.9-0.4-0.9-0.9v-5.1c0-0.5,0.4-0.9,0.9-0.9h0.9c0.5,0,0.9,0.4,0.9,0.9v5.1
		C29.7,38,29.3,38.4,28.8,38.4z"/>
	<path class="st24" d="M25,35.4v-0.9c0-0.5,0.4-0.9,0.9-0.9H31c0.5,0,0.9,0.4,0.9,0.9v0.9c0,0.5-0.4,0.9-0.9,0.9h-5.1
		C25.4,36.3,25,35.9,25,35.4z"/>
</g>
<g id="icon_59">
	<path class="st8" d="M15.2,1.9h14l-7.2,15.2c0,0,3.1,2.8,2.4,6.1c-0.6,3.1-2.1,5.1-7.2,4.5c-2.1-0.3-4.6-2.8-5.4-3
		C11.3,24.6,9.7,24,8,24.1c-1.6,0.3-6.1-0.4-6.1-6.7c0-4.6,4.6-7,8.6-5.7L15.2,1.9z"/>
	<path class="st8" d="M11.2,58.3h13.6l-3-13c0,0,4.8-1.9,3.4-7.5c-1.3-5.5-7.6-4.2-8.6-3.7c-1,0.6-1.9,1.6-4.5,1
		c-2.5-0.6-5.7-0.6-7.3,1.9c-1.3,2.1-1.3,7.8,4,9.5L11.2,58.3z"/>
	<path class="st8" d="M37.7,31.9h-3.1c-0.9,0-1.6-0.7-1.6-1.6l0,0c0-0.9,0.7-1.6,1.6-1.6h3.1c0.9,0,1.6,0.7,1.6,1.6l0,0
		C39.4,31.1,38.6,31.9,37.7,31.9z"/>
	<path class="st8" d="M35.2,23.2l-2.2,2.2c-0.6,0.6-1.6,0.6-2.2,0l0,0c-0.6-0.6-0.6-1.6,0-2.2l2.2-2.2c0.6-0.6,1.6-0.6,2.2,0l0,0
		C35.8,21.6,35.8,22.6,35.2,23.2z"/>
	<path class="st8" d="M32.6,39.2l-2.1-2.4c-0.6-0.6-0.6-1.6,0.1-2.2l0,0c0.6-0.6,1.6-0.6,2.2,0.1l2.1,2.4c0.6,0.6,0.6,1.6-0.1,2.2
		l0,0C34.3,39.9,33.2,39.8,32.6,39.2z"/>
</g>
<g id="icon_60" class="st0">
	<circle class="st18" cx="16.2" cy="20" r="3.8"/>
	<circle class="st18" cx="30.6" cy="36.3" r="4.3"/>
	<path class="st18" d="M2.4,43.8v1.8c0,0,0,0.5,0.6,0.5s22.6,0,22.6,0S24.1,45,24,44.6L4,44.4C3.9,44.4,3,44.5,2.4,43.8z"/>
	<path class="st18" d="M24.3,43.4l1.6,1.5c0,0,0.5,1,2.1,1s9,0,9,0s1.1-0.5,1.1-1.9s-1-2-2.4-2s-7.3,0-7.3,0s-5-5.6-5.9-5.7H3.7
		c0,0-1.2,0-1.3,1.2c-0.1,1.1,0,4.5,0,4.5s0,1.5,1,1.5S24.3,43.4,24.3,43.4z"/>
	<path class="st18" d="M13.2,35c0,0,0.8-1.7,1.9-2.3s1.1-2,1-2.3l1.9,1.8l6,2.6c0,0,1.5,0.4,1.9-0.7c0.4-1.2,0.2-1.8-0.6-2.2
		c-0.8-0.4-5.5-2.1-5.5-2.1l-4.1-4c0,0-0.8-0.6-1.8-0.8c-0.9-0.2-2.5-0.4-2.5-0.4s-1.3-0.2-1.9,1.3s-3.6,8.6-3.6,8.6
		s-0.4,0.9,0.2,0.9s6.6,0,6.6,0S13.1,35.4,13.2,35z"/>
	<path class="st18" d="M11.5,18.7c0,0,0.5-2.3,2.9-3.2c0,0-0.5-1.6-2.7-1.3s-1.8,2.8-1.6,3.1C10.2,17.6,10.6,18.5,11.5,18.7z"/>
</g>
<g id="icon_61" class="st0">
	<path class="st18" d="M19.7,14.5c0,0,5.3-0.8,8.5,1.3c3.2,2,5.2,4.3,5.7,7.6s-0.2,7.3-1.7,9.7c-1.5,2.5-2.5,4-2.7,4.4
		c-0.1,0.4-0.8,2.4-0.3,5c0.5,2.7,0.8,3.1,0.8,3.1l-14.6,0.3v-3.1c0,0-4.6,0.1-5.7-0.8c-1.1-0.9-1.1-1.9-0.8-2.6
		c0.2-0.6,0-0.7,0-0.8c0,0-0.6-0.3-0.6-0.9c0-0.4,0.4-0.5,0.4-0.5S8.6,37,8.5,37c-0.1-0.1-0.6-0.2-0.6-0.7s0.3-2.7,0.3-2.7
		s-1.6-0.2-1.8-1.2c-0.1-1,0.7-2.3,1.1-2.8S9.6,27,9.6,27s-0.6-5.1,1.1-7.5C12.5,17.2,14.2,15.1,19.7,14.5z"/>
	<path class="st17" d="M6.7,33.1c0,0,1.7-3.3,4.1-4.6c2.4-1.4,5.5-0.9,6.8-0.5s3.9,2.2,7.1,1.1c0.9-0.3,2.9-1.3,3.1-1.7
		c0,0,0.8-0.2,0.9,0.4c0.1,0.7-0.4,1.4-1.6,2.4c-1.2,1-1.9,5-3.8,15.5h-1.7c0,0,0.2-8.6-1.6-11.8c-1.7-3.1-4.7-7.2-12.5-0.6
		l-0.2,0.2L6.7,33.1z"/>
</g>
<g id="icon_62" class="st0">
	<circle class="st18" cx="20.3" cy="31.4" r="13"/>
	<circle class="st18" cx="9.1" cy="32.2" r="4.6"/>
	<circle class="st18" cx="31.3" cy="32.2" r="4.6"/>
	<rect x="23.3" y="16.5" class="st18" width="1.8" height="4.4"/>
	<rect x="19.3" y="15.8" class="st18" width="1.8" height="4.4"/>
	<rect x="15.3" y="16.6" class="st18" width="1.8" height="4.4"/>
	<path class="st63" d="M13.8,29.8h12.7c0,0,0.8,9.3-6,9.4C12.5,39.2,13.7,30.1,13.8,29.8z"/>
	<polyline class="st64" points="17.9,30.2 17.9,33.4 22.2,33.4 22.2,30.1 	"/>
</g>
<g id="icon_63" class="st0">
	<g class="st1">
		<g>
			<circle id="SVGID_19_" class="st8" cx="20.3" cy="31.9" r="12.2"/>
		</g>
		<g>
			<g>
				<g>
					<defs>
						<circle id="SVGID_20_" cx="20.3" cy="31.9" r="12.2"/>
					</defs>
					<clipPath id="SVGID_21_">
						<use xlink:href="#SVGID_20_"  style="overflow:visible;"/>
					</clipPath>
					<path class="st65" d="M23,19.6c0,0,3,5.4-0.6,7.1s-6.2-0.3-6.7-3.6"/>
				</g>
			</g>
		</g>
	</g>
	<path class="st18" d="M9.3,34.6H7.5c-1.4,0-2.6-1.2-2.6-2.6l0,0c0-1.4,1.2-2.6,2.6-2.6h1.8c1.4,0,2.6,1.2,2.6,2.6l0,0
		C11.9,33.4,10.7,34.6,9.3,34.6z"/>
	<path class="st18" d="M32.9,34.6h-1.8c-1.4,0-2.6-1.2-2.6-2.6l0,0c0-1.4,1.2-2.6,2.6-2.6h1.8c1.4,0,2.6,1.2,2.6,2.6l0,0
		C35.5,33.4,34.3,34.6,32.9,34.6z"/>
	<path class="st66" d="M15.5,16.1c0,0,0,3.8,4.2,4.9c0,0-8.1,1.3-9-4"/>
	<path class="st32" d="M23.8,32.3c0,0,0.2-2.3,2.1-2.3s2.6,2,2.6,2"/>
	<path class="st32" d="M12,32.3c0,0,0.2-2.3,2.1-2.3s2.6,2,2.6,2"/>
	<path class="st32" d="M16.4,37.3c0,0,1.6,2.2,3.8,2.1c2.7-0.1,3.7-2.1,3.7-2.1"/>
</g>
<g id="icon_64" class="st0">
	<circle class="st45" cx="19.9" cy="37.7" r="8"/>
	<ellipse class="st67" cx="20.2" cy="31.1" rx="11.5" ry="4.3"/>
	<g class="st1">
		<path class="st8" d="M22.3,32c0,0-3.2-0.1-4-0.1c-1.3,0-2.2-1.3-2.2-3.2c0-1-1-2.9-1.4-3.5c-1.3-2-1.7-4.2-1.1-6.6
			c0.4-2,2.8-4.9,6.5-5h0.2c3.6,0,6.1,2.3,6.9,4.5c0.7,2,0.5,6.1-1.4,7.8c-1.6,1.4-2,4-2,4.3C23.6,31.5,22.8,32,22.3,32L22.3,32
			L22.3,32z"/>
		<path class="st68" d="M20.4,14.4c3.4,0,5.6,2.2,6.2,4c0.7,1.8,0.4,5.6-1.1,6.9c-1.5,1.4-2.1,3.7-2.3,4.8c-0.1,1.1-0.9,1.2-0.9,1.2
			s-3.2-0.1-4-0.1s-1.4-0.9-1.4-2.4s-1.5-3.9-1.5-3.9c-1.5-2.3-1.4-4.5-1-6c0.4-1.6,2.3-4.3,5.8-4.4C20.3,14.4,20.4,14.4,20.4,14.4
			 M20.4,12.9c-0.1,0-0.2,0-0.2,0C16,13,13.4,16.2,13,18.4c-0.6,2.6-0.2,5,1.2,7.2c0.5,0.8,1.3,2.4,1.3,3.1c0,2.7,1.5,3.9,2.9,3.9
			c0.6,0,3.1,0.1,4,0.1h0.1h0.1c0.7-0.1,2-0.7,2.2-2.5c0.1-0.9,0.6-2.8,1.8-3.8c2.2-1.9,2.4-6.4,1.6-8.6
			C27.2,15.5,24.4,12.9,20.4,12.9L20.4,12.9z"/>
	</g>
</g>
<g id="icon_65" class="st0">
	<path class="st17" d="M20.1,17.4c0,0,1.6-2.4,4.6-1.6c3.1,0.9,3.5,3.3,3.5,3.3s1.2,6.5-7.9,11.1c0,0-9.2-3.3-8.6-10.4
		c0.3-2.8,2.4-4.2,3.6-4.3C16.8,15.4,18.7,15.6,20.1,17.4z"/>
	<path class="st18" d="M27.2,44.7h-14c-3,0-5.4-2.4-5.4-5.4l0,0c0-3,2.4-5.4,5.4-5.4h14c3,0,5.4,2.4,5.4,5.4l0,0
		C32.6,42.3,30.2,44.7,27.2,44.7z"/>
	<rect x="19.3" y="33.8" class="st24" width="1.8" height="10.9"/>
</g>
<g id="icon_66" class="st0">
	<path class="st18" d="M31,44H9.4c-0.5,0-0.8-0.4-0.8-0.8l0,0c0-0.5,0.4-0.8,0.8-0.8H31c0.5,0,0.8,0.4,0.8,0.8l0,0
		C31.8,43.6,31.5,44,31,44z"/>
	<path class="st18" d="M27.7,43.9h-15c-1.3,0-2.4-1.1-2.4-2.4l0,0c0-1.3,1.1-2.4,2.4-2.4h14.9c1.3,0,2.4,1.1,2.4,2.4l0,0
		C30.1,42.8,29,43.9,27.7,43.9z"/>
	<path class="st18" d="M19.4,37.6H9.5c-0.5,0-0.9-0.4-0.9-0.9l0,0c0-0.5,0.4-0.9,0.9-0.9h9.9c0.5,0,0.9,0.4,0.9,0.9l0,0
		C20.3,37.2,19.9,37.6,19.4,37.6z"/>
	<rect x="13.6" y="37.1" class="st18" width="4.8" height="2.7"/>
	<path class="st18" d="M20.7,33.1l-5.9-5.8l8.1-8.2c0.6-0.6,1.5-0.6,2.1,0l3.8,3.7c0.6,0.6,0.6,1.5,0,2.1L20.7,33.1z"/>
	
		<rect x="17.3" y="23.9" transform="matrix(0.7032 -0.711 0.711 0.7032 -15.6995 21.5839)" class="st18" width="1.4" height="11.4"/>
	<rect x="27.4" y="17.2" transform="matrix(0.7032 -0.711 0.711 0.7032 -4.654 26.4668)" class="st18" width="3.9" height="3.2"/>
	<path class="st18" d="M14.7,29.9l3.1,3.2c0,0-1.9,0.6-2.8-0.4C14.2,31.7,14.5,30.8,14.7,29.9z"/>
	<path class="st69" d="M27,29.6c0,0,2.5,3.3,1,7.3"/>
</g>
<g id="icon_67" class="st0">
	<path class="st18" d="M25.1,35.4v6l1.3,0.1c0,0,1.1-0.4,1.1-1.4s0-3.8,0-3.8s-0.4-1-1.2-1C25.4,35.4,25.1,35.4,25.1,35.4z"/>
	<path class="st18" d="M19,34l3.7-0.1c0,0,0.7-0.1,0.8,1s0.2,6.9,0.2,6.9s0.1,1.3-0.9,1.4S11.2,43,11.2,43s-0.7,0.3-1-2.1
		c-0.3-2.4-2-15.6-2-15.6s-0.1-0.9,0.9-1.1s6.9-1.6,6.9-1.6s1.4-0.3,1.6,1.1C17.8,25.3,19,34,19,34z"/>
	<path class="st18" d="M8.7,22.6l7.4-1.7l-0.3-3.2c0,0,0-0.9-1.4-0.6s-5.4,1-5.4,1s-0.8,0.2-0.7,1.3S8.7,22.6,8.7,22.6z"/>
	<path class="st18" d="M31.4,38.5h-1.7c-0.4,0-0.8-0.4-0.8-0.8l0,0c0-0.4,0.4-0.8,0.8-0.8h1.7c0.4,0,0.8,0.4,0.8,0.8l0,0
		C32.2,38.2,31.8,38.5,31.4,38.5z"/>
	<path class="st18" d="M31.5,34.9l-1.6,0.6c-0.4,0.2-0.9,0-1-0.4l0,0c-0.2-0.4,0-0.9,0.4-1l1.6-0.6c0.4-0.2,0.9,0,1,0.4l0,0
		C32.1,34.3,31.9,34.7,31.5,34.9z"/>
	<path class="st18" d="M30.9,42.1l-1.6-0.6c-0.4-0.1-0.6-0.6-0.5-1l0,0c0.1-0.4,0.6-0.6,1-0.5l1.6,0.6c0.4,0.1,0.6,0.6,0.5,1l0,0
		C31.7,42,31.3,42.2,30.9,42.1z"/>
	<path class="st24" d="M8.5,27.4l0.2,1.5l4.8-1.1c0,0,0.6-0.3,0.4-1s-1.1-0.4-1.1-0.4L8.5,27.4z"/>
	<path class="st24" d="M8.9,30.3l0.2,1.5l4.9-1.1c0,0,0.6-0.3,0.4-1s-1.1-0.4-1.1-0.4L8.9,30.3z"/>
</g>
<g id="icon_68" class="st0">
	<path class="st18" d="M14.4,23.4c0,0,5-3.2,10.2-1.1s4.5,5.6,4.2,7.1S27.3,32.3,27,35c-0.1,1.2,0.3,3,0.7,3.7s0.8,5.7-2.3,7.1
		c-3.8,1.7-6.5,0-8.3-3.4c-1.9-3.3-4.7-10.8-5-12.7C11.9,27.8,11.8,24.9,14.4,23.4z"/>
	<circle class="st18" cx="12.2" cy="19.9" r="2.9"/>
	<circle class="st18" cx="17.1" cy="17.1" r="2.9"/>
	<circle class="st18" cx="22.9" cy="16.5" r="2.9"/>
	<circle class="st18" cx="28.2" cy="18.4" r="2.9"/>
	<path class="st24" d="M20.4,26.3c0,0,0.9-1.3,2.6-0.9c1.7,0.5,1.9,1.9,1.9,1.9s0.6,3.6-4.4,6.1c0,0-5.1-1.8-4.7-5.8
		c0.1-1.6,1.3-2.3,2-2.4C18.6,25.2,19.7,25.3,20.4,26.3z"/>
</g>
<g id="icon_69" class="st0">
	<path class="st24" d="M23.4,18.2c0,0,3-0.6,4.3,0c1.7,0.8,3,2.8,2,6.3s-1.7,6.3-1.9,9.3c-0.3,3-2.4,4.9-3.7,5.1
		c-1.4,0.3-2.4-1.2-2.1-2.2c0.3-1.1,0.6-4.2,0.6-5c-0.1-1.5-0.9-2.7-2.1-2.7s-1.8,0.6-2.1,1.4c-0.3,0.8-0.8,3.7-0.4,5.1
		c0.3,1.4,0.1,3.4-1.2,3.5s-3.7-1.3-4.7-7.1s-1.4-7.1-1.7-7.8c-0.7-2.7,0-6,3-6.3s5.3,1.1,6.3,1.2C20.8,19,22.4,18.4,23.4,18.2z"/>
	<path class="st17" d="M18.1,21c0,0,1.7,0.9,2.4,0.6c0.7-0.4,2.3-1.2,4.2-0.3c1.9,0.9,1.9,2,1.9,2s0.6,2-0.4,3.7s-0.7,5-0.7,5
		s0.1,1.2-0.5,1.2c-0.5,0-0.9-1.1-0.9-1.3c0-0.2-0.6-4.3-3.3-4.8s-3.2,2.1-3.6,3c-0.2,0.6-0.4,2.6-0.4,2.6s-0.1,0.9-0.6,0.9
		c-0.5-0.1-0.6-1.1-0.6-3.4s-0.7-2.6-1.1-4s-0.3-3.7,1.1-4.8C16.7,20.5,18.1,21,18.1,21z"/>
	<path class="st14" d="M8.6,32.1c0,0,1.4-0.2,2.4,3.1c1,3.6,4,5.4,4.9,5.6c0.9,0.2,3.7,0.9,4.1-1.6c0.5-2.5,0.3-1.6,0.3-1.6
		s0.1,2.7,1.4,3.1c1.3,0.4,3.7,0.5,5.3-1.2s2.8-4.8,2.9-5.6c0-0.8,0.4-1.9,2.1-2s1.6,2,1.6,2.6s0,6.9,0,6.9s0.1,1-1.2,1
		s-24.8,0-24.8,0s-0.8-0.2-0.8-0.9s0-8.2,0-8.2S7,32.1,8.6,32.1z"/>
	<circle class="st34" cx="20" cy="25.3" r="0.8"/>
	<circle class="st34" cx="24.6" cy="29" r="0.8"/>
	<circle class="st34" cx="16.5" cy="27.6" r="0.8"/>
</g>
<g id="icon_70" class="st0">
	<path class="st18" d="M30.5,45.1H9.9c-1.1,0-2-0.9-2-2v-14c0-1.1,0.9-2,2-2h20.6c1.1,0,2,0.9,2,2V43C32.6,44.2,31.7,45.1,30.5,45.1
		z"/>
	<path class="st18" d="M18.8,15.6c0.8-0.6,2-0.6,2.8,0l8.7,6.3l5.5,4c1.6,1.1,0.6,3.3-1.4,3.3H20.2H6c-2,0-3-2.2-1.4-3.3l5.5-4
		L18.8,15.6z"/>
	<path class="st24" d="M21,40.2h-1.7c-0.6,0-1.1-0.5-1.1-1.1v-9.9c0-0.6,0.5-1.1,1.1-1.1H21c0.6,0,1.1,0.5,1.1,1.1v9.9
		C22.2,39.7,21.7,40.2,21,40.2z"/>
	<path class="st24" d="M26.3,33.2v1.7c0,0.6-0.5,1.1-1.1,1.1h-10c-0.6,0-1.1-0.5-1.1-1.1v-1.7c0-0.6,0.5-1.1,1.1-1.1h10
		C25.8,32,26.3,32.5,26.3,33.2z"/>
</g>
<g id="icon_71" class="st0">
	<circle class="st18" cx="16.5" cy="17.2" r="3.3"/>
	<path class="st18" d="M17.6,30.5v-6.9c0,0-0.5-1.5-1.5-1.7s-1.7-0.1-2.6,0.9c-1,1-4,3.9-4,3.9S8,28.1,9,29.4
		c1.1,1.3,3.5,3.8,3.5,3.8s-2.4,7.9-2.6,8.3c-0.2,0.4-0.9,1.7-1.1,1.9s-0.6,1.5,0.6,2.4c1.1,0.9,2.5,0.6,3.1-0.2s3.2-5.3,4.1-10.3
		l5.5-0.1v3.6c0,0-0.1,1.1,0.5,1c0.6,0,3.7-0.1,3.7-0.1s0.4-0.1,0.3-1.4c-0.1-1.4,0-6.1,0-6.1s-0.3-1.6-1.9-1.7
		C22.9,30.5,17.6,30.5,17.6,30.5z"/>
	<path class="st18" d="M17,46.3l14-0.1c0,0,0.8-0.2,0.7-1.1c-0.1-0.9-0.3-5.3-5.9-5.6l-4,0.1c0,0-5,0.2-5.7,5.2
		C16.1,45.7,16.3,46.2,17,46.3z"/>
</g>
<g id="icon_72" class="st0">
	<g class="st1">
		<g>
			<g>
				<g>
					<defs>
						<path id="SVGID_22_" d="M8.9,23.9l0.3,9.9c0,0,0.7,5.4,5.3,9.2s5.1,3.3,5.4,3.3s2.8,0,6.5-4.3s4.8-7.2,4.8-9.4
							s0.4-8.8,0.4-8.8s1.2-1.5,1.5-2.1s1.7-4.1-2-6.4s-16.2-1.6-17.4-1.5S8.9,13.7,7.3,18c-0.7,1.9-0.2,3.3,0.6,4.4
							C8.6,23.6,8.9,23.9,8.9,23.9z"/>
					</defs>
					<clipPath id="SVGID_23_">
						<use xlink:href="#SVGID_22_"  style="overflow:visible;"/>
					</clipPath>
					<path class="st70" d="M8.9,23.7l0.3,9.9c0,0,0.7,5.4,5.3,9.2s5.1,3.3,5.4,3.3s2.8,0,6.5-4.3s4.8-7.2,4.8-9.4s0.4-8.8,0.4-8.8
						s1.2-1.5,1.5-2.1c0.2-0.6,1.7-4.1-2-6.4s-16.2-1.6-17.4-1.5s-4.8-0.1-6.4,4.2c-0.7,1.9-0.2,3.3,0.6,4.4
						C8.6,23.3,8.9,23.7,8.9,23.7z"/>
				</g>
			</g>
		</g>
		<g>
			<g>
				<g>
					<defs>
						<path id="SVGID_24_" d="M8.9,23.9l0.3,9.9c0,0,0.7,5.4,5.3,9.2s5.1,3.3,5.4,3.3s2.8,0,6.5-4.3s4.8-7.2,4.8-9.4
							s0.4-8.8,0.4-8.8s1.2-1.5,1.5-2.1s1.7-4.1-2-6.4s-16.2-1.6-17.4-1.5S8.9,13.7,7.3,18c-0.7,1.9-0.2,3.3,0.6,4.4
							C8.6,23.6,8.9,23.9,8.9,23.9z"/>
					</defs>
					<clipPath id="SVGID_25_">
						<use xlink:href="#SVGID_24_"  style="overflow:visible;"/>
					</clipPath>
					<path class="st71" d="M8.7,24.6c0,0,6.1-3.7,11.2-3.5c5.5,0.2,9.1,1.7,11.6,3.6"/>
				</g>
			</g>
		</g>
	</g>
	<path class="st18" d="M8,25.6l-0.1,6.9c0,0-2,0-2.1-2.3s0-3.3,0-3.3S6.2,25.4,8,25.6z"/>
	<path class="st18" d="M32.4,25.7l0.1,6.9c0,0,2,0,2.1-2.3s0-3.3,0-3.3S34.2,25.5,32.4,25.7z"/>
	<line class="st22" x1="13.4" y1="25.5" x2="16.5" y2="25.5"/>
	<line class="st22" x1="23.7" y1="25.5" x2="26.7" y2="25.5"/>
	<polyline class="st22" points="19,31.1 19.1,36 21.4,35.9 	"/>
	<line class="st22" x1="18.1" y1="39.4" x2="21.9" y2="39.4"/>
	<line class="st22" x1="20" y1="41.5" x2="20" y2="44.2"/>
	<polyline class="st22" points="18.3,43 20,44.6 21.6,43.3 	"/>
	<path class="st22" d="M12.5,28.1c0,0,0.5,2.1,2.4,2.2c1.9,0,2.5-2.1,2.5-2.1"/>
	<path class="st22" d="M22.9,28.1c0,0,0.5,2.1,2.4,2.2c1.9,0,2.5-2.1,2.5-2.1"/>
	<path class="st22" d="M16.9,35.4c0,0-0.3,2.4-3.1,2.7"/>
	<polyline class="st22" points="14.1,36.4 13.6,38.1 14.9,39.3 	"/>
	<path class="st22" d="M16.6,32.1c0,0-1.9,3.2-5.6,1.5"/>
	<polyline class="st22" points="11.8,32.4 10.8,33.4 11.2,35.2 	"/>
	<path class="st22" d="M23.4,35.2c0,0,0.3,2.4,3.1,2.7"/>
	<polyline class="st22" points="26.2,36.2 26.6,37.9 25.4,39.2 	"/>
	<path class="st22" d="M23.6,32c0,0,1.9,3.2,5.6,1.5"/>
	<polyline class="st22" points="28.4,32.3 29.4,33.4 29,35.2 	"/>
	<line class="st22" x1="30.3" y1="19.9" x2="28.8" y2="22.7"/>
	<line class="st22" x1="25.2" y1="18.3" x2="24.3" y2="21.2"/>
	<line class="st22" x1="20" y1="17.8" x2="20" y2="20.8"/>
	<line class="st22" x1="15" y1="18.3" x2="15.9" y2="21.3"/>
	<line class="st22" x1="9.8" y1="20.2" x2="11.2" y2="22.8"/>
</g>
<g id="icon_73" class="st0">
	<path class="st18" d="M20.3,15.7l12.8,3.7c0,0,1.3,0,1.2,1.7s-0.4,17.3-14,23.5c0,0-13.5-5.2-14.1-23.7c0,0-0.1-1.1,1.3-1.5
		C8.9,18.9,20.3,15.7,20.3,15.7z"/>
	<path class="st24" d="M21.4,36.1h-1.9c-0.8,0-1.4-0.6-1.4-1.4V24.6c0-0.8,0.6-1.4,1.4-1.4h1.9c0.8,0,1.4,0.6,1.4,1.4v10.1
		C22.7,35.5,22.1,36.1,21.4,36.1z"/>
	<path class="st24" d="M26.9,28.6v1.9c0,0.8-0.6,1.4-1.4,1.4H15.4c-0.8,0-1.4-0.6-1.4-1.4v-1.9c0-0.8,0.6-1.4,1.4-1.4h10.1
		C26.3,27.2,26.9,27.8,26.9,28.6z"/>
</g>
<g id="icon_74" class="st0">
	<path class="st18" d="M19.7,13.7c0,0,5.6-0.9,8.9,1.4c3.3,2.1,5.5,4.5,6,7.9s-0.2,7.6-1.8,10.2s-2.6,4.2-2.8,4.6
		c-0.1,0.4-0.9,2.5-0.3,5.3c0.5,2.8,0.9,3.2,0.9,3.2l-15.4,0.3v-3.2c0,0-4.8,0.1-6-0.9s-1.2-2-0.9-2.7c0.2-0.6,0-0.8,0-0.9
		c0,0-0.6-0.3-0.6-1c0-0.4,0.4-0.5,0.4-0.5S8,37.2,7.9,37.2c-0.1-0.1-0.6-0.2-0.6-0.8c0-0.5,0.3-2.8,0.3-2.8s-1.7-0.2-1.9-1.3
		c-0.1-1.1,0.8-2.4,1.2-2.9c0.4-0.5,2.3-2.7,2.3-2.7s-0.6-5.4,1.2-7.8S13.9,14.4,19.7,13.7z"/>
	<path class="st32" d="M22.3,25.5c-0.3,0.1,0,2.8,2.6,1.7c1.6-0.7,2-3.7-0.2-4.8c-1.9-1-4.4-1.2-5.6,1.4c-1.3,2.7,0.2,5.1,1.6,6
		s6,2,8-1.7c2-3.8,1-7.6-1.7-8.8c-1.3-0.6-8.6-4-11.5,5"/>
</g>
<g id="icon_75" class="st0">
	<circle class="st18" cx="20.5" cy="24.9" r="9.5"/>
	<polygon class="st18" points="11.5,22.7 7.6,24.8 12.7,27.9 	"/>
	<path class="st18" d="M6.3,44.7l27.2,0.1c0,0,1.6,0.1,1.2-2.1c-0.4-2.3-1.7-6.5-8.3-6.6c-6.6,0-13.8,0-13.8,0s-6.7,0.1-7.2,7.3
		C5.5,44.3,5.6,44.7,6.3,44.7z"/>
	<rect x="16" y="24" class="st24" width="1.8" height="1.9"/>
	<rect x="19.3" y="24" class="st24" width="1.8" height="1.9"/>
	<rect x="22.7" y="24" class="st24" width="1.8" height="1.9"/>
</g>
<g id="icon_77" class="st0">
	<path class="st18" d="M21.4,28.1H19V16.2c0-0.7,0.5-1.2,1.2-1.2l0,0c0.7,0,1.2,0.5,1.2,1.2C21.4,16.2,21.4,28.1,21.4,28.1z"/>
	<path class="st18" d="M18.1,29.5c0,0,1.2-0.8,1.7-0.8c0.6,0,1.1-0.1,2.6,0.8l0.3-1.4l-1.6-0.6l-1.8-0.1c0,0-1.2,0.6-1.5,0.7
		c-0.2,0.2-0.1,1.2-0.1,1.2L18.1,29.5z"/>
	<path class="st18" d="M24.8,19.1c0,0,3.2-1.2,7,4.1c3.3,4.7,5,9.5,3.6,17.4c-0.7,3.6-0.8,5-2.6,4.6s-7.4-2.7-7.9-3
		s-2.8-1.4-2.6-5.1c0.2-3.7,0-13.5,0-13.5S22.6,19.4,24.8,19.1z"/>
	<line class="st22" x1="24.3" y1="29.6" x2="32.1" y2="33.7"/>
	<line class="st22" x1="26.6" y1="30.4" x2="30" y2="27.9"/>
	<line class="st22" x1="27.9" y1="27.6" x2="28.2" y2="29"/>
	<line class="st22" x1="31.3" y1="33.1" x2="32.6" y2="31.8"/>
	<polyline class="st22" points="28.9,32.5 29,35.3 30.6,36.9 	"/>
	<line class="st22" x1="27.5" y1="36.7" x2="29" y2="35.3"/>
	<path class="st18" d="M15.6,19.1c0,0-3.2-1.2-7,4.1c-3.3,4.7-5,9.5-3.6,17.4c0.7,3.6,0.8,5,2.6,4.6s7.4-2.7,7.9-3
		c0.5-0.4,2.8-1.4,2.6-5.1c-0.2-3.7,0-13.5,0-13.5S17.8,19.5,15.6,19.1z"/>
	<line class="st22" x1="16.1" y1="29.7" x2="8.3" y2="33.8"/>
	<line class="st22" x1="13.8" y1="30.4" x2="10.4" y2="28"/>
	<line class="st22" x1="12.5" y1="27.7" x2="12.2" y2="29.1"/>
	<line class="st22" x1="9.1" y1="33.1" x2="7.8" y2="31.9"/>
	<polyline class="st22" points="11.5,32.6 11.4,35.3 9.8,37 	"/>
	<line class="st22" x1="12.9" y1="36.8" x2="11.4" y2="35.3"/>
</g>
<g id="icon_78" class="st0">
	<path class="st18" d="M8.8,1.4l23.5-0.2c0,0,3.5,17-11.3,17C8.1,18.2,8.8,10.1,8.8,1.4z"/>
	<polygon class="st18" points="11.9,42.3 29.3,42.3 32.1,56 35.6,56 35.6,59 5.3,59 5.3,55.5 9.2,55.5 	"/>
	<rect x="12.3" y="32.1" class="st18" width="16.8" height="6.5"/>
	<path class="st18" d="M14.7,20.6c0,0-3,0.9-2.6,7.6l-3.3,0.4L9,36c0,0-1.7-1.1-2.8-4.4l-3.3,1.1c0,0,2.6,5.7,3.9,6.9L8.6,38L7.3,48
		c0,0-12-6.3-12.2-23.1C-5.1,14.9,5.3,6.8,5.3,6.8s0.4,5.7,3,8.1c0,0-2.8-0.6-5.2,6.1l3.1,1.5c0,0,0.9-4.3,3.3-5.7
		C9.2,16.8,11.9,19.9,14.7,20.6z"/>
	<path class="st18" d="M26.4,20.6c0,0,3,0.9,2.6,7.6l3.3,0.4L32.1,36c0,0,1.7-1.1,2.8-4.4l3.3,1.1c0,0-2.6,5.7-3.9,6.9L32.5,38
		L34,48c0,0,12-6.3,12.2-23.1C46.4,14.9,36,6.8,36,6.8s-0.4,5.7-3,8.1c0,0,2.8-0.6,5.2,6.1l-3.1,1.5c0,0-0.9-4.3-3.3-5.7
		C31.8,16.8,29.2,19.9,26.4,20.6z"/>
</g>
<g id="icon_86" class="st0">
	<path class="st18" d="M-4.4,54.3h-1.8c-0.9,0-1.6-0.7-1.6-1.6V23c0-0.9,0.7-1.6,1.6-1.6h1.8c0.9,0,1.6,0.7,1.6,1.6v29.7
		C-2.8,53.6-3.5,54.3-4.4,54.3z"/>
	<rect x="-3.8" y="40.6" class="st18" width="52" height="5"/>
	<path class="st18" d="M46.4,54.3h-1.2c-1.1,0-1.8-0.9-1.8-1.8v-6.8c0-1.1,0.9-1.8,1.8-1.8h1.2c1.1,0,1.8,0.9,1.8,1.8v6.8
		C48.2,53.4,47.3,54.3,46.4,54.3z"/>
	<circle class="st18" cx="11.3" cy="20.8" r="5"/>
	<circle class="st18" cx="5.3" cy="32.4" r="5"/>
	<path class="st18" d="M10.6,41.1l8-16.2c0,0,1.1-2.7,4.3-1.4c3.2,1.2,19.6,7.7,19.6,7.7s5.3,2.1,5.5,6.8V44L10.6,41.1z"/>
	<path class="st17" d="M40,17.4c0,0,1.1-1.6,2.8-1.1c2,0.5,2.1,2.1,2.1,2.1s0.7,4.1-5,7.1c0,0-5.9-2.1-5.5-6.6
		c0.2-1.8,1.6-2.7,2.3-2.7C37.8,16.2,39.1,16.4,40,17.4z"/>
	<path class="st17" d="M36.6,6.8c0,0,0.7-1.2,2.1-0.7c1.4,0.4,1.6,1.6,1.6,1.6s0.5,3-3.7,5.3c0,0-4.5-1.6-4.1-5c0.2-1.4,1.1-2,1.8-2
		C35,5.9,35.9,5.9,36.6,6.8z"/>
	<path class="st17" d="M27.5,13.5c0,0,0.7-1.2,2.1-0.7c1.4,0.4,1.6,1.6,1.6,1.6s0.5,3-3.7,5.3c0,0-4.5-1.6-4.1-5
		c0.2-1.4,1.1-2,1.8-2C25.9,12.6,26.8,12.6,27.5,13.5z"/>
</g>
<g id="icon_88" class="st0">
	<path class="st18" d="M9.2,57.3L9.2,57.3c-7.6,0-14-6.4-14-14V16.8c0-7.6,6.4-14,14-14l0,0c7.6,0,14,6.4,14,14v26.5
		C23.2,51.1,16.8,57.3,9.2,57.3z"/>
	<rect x="-4.8" y="28.9" class="st24" width="28" height="3.4"/>
	<polyline class="st72" points="29.3,24 36.3,24 30.2,30.6 37.2,30.6 	"/>
	<polyline class="st72" points="37.6,10.9 44.4,10.9 38.2,17.4 45.2,17.4 	"/>
</g>
<g id="icon_89" class="st0">
	<path class="st18" d="M-1.3,11.1l5.1-4.2C4.8,6,6.4,6.2,7.3,7.2l10.9,12.8c0.9,1.1,0.7,2.6-0.4,3.5l-5.1,4.2
		c-1.1,0.9-2.6,0.7-3.5-0.4L-1.7,14.6C-2.6,13.4-2.4,12-1.3,11.1z"/>
	<path class="st18" d="M-1.7,1.9L-1.7,1.9C-1,1.4,0.1,1.4,0.6,2.1l4,4.8c0.5,0.7,0.5,1.8-0.2,2.3l0,0C3.8,9.7,2.7,9.7,2.2,9l-4-4.8
		C-2.4,3.7-2.4,2.6-1.7,1.9z"/>
	<path class="st18" d="M-5.2,4.9L-5.2,4.9c0.7-0.5,1.8-0.5,2.3,0.2l4,4.8c0.5,0.7,0.5,1.8-0.2,2.3l0,0c-0.7,0.5-1.8,0.5-2.3-0.2
		l-4-4.8C-5.9,6.7-5.9,5.6-5.2,4.9z"/>
	<path class="st18" d="M30.5,27.8c0,0-0.7,4-6,8.4s-8.4,5.6-11.4,4.4c-3-1.4-4.4-2.3-5.3-3.7c-0.9-1.4-1.9-3.2-2.1-4
		c-0.2-0.7-0.4-1.9,2.1-4c2.5-2.1,5.3-4.4,5.3-4.4l7.9-6.9c0,0,1.4-1.1,3.9,0.5c2.5,1.6,3,1.9,3.5,2.8c0.7,1.6,2.1,4.4,2.1,4.4
		S30.7,26.8,30.5,27.8z"/>
	<path class="st73" d="M34.7,31.2c0,0-1.2,15.5-18,14.8"/>
	<path class="st73" d="M41.4,32.2c0,0-3,21.3-24.8,20.2"/>
	<path class="st73" d="M47.1,32c0,0-1.6,26-31.2,26.6"/>
</g>
<g id="icon_90" class="st0">
	<circle class="st18" cx="3.7" cy="33.4" r="6.1"/>
	<path class="st18" d="M-5.5,57.7h18.6c0,0,1.7,0.4,1.7-3.1c0.2-3.3,0.2-5.9,0.2-5.9s-0.7-6.3-9.2-6.3c-3.5,0-6.8,0.2-6.8,0.2
		s-6.3,0.4-6.3,7s0,7.2,0,7.2S-7.2,57.7-5.5,57.7z"/>
	<circle class="st18" cx="37.4" cy="33.4" r="6.1"/>
	<path class="st18" d="M28.2,57.7h18.6c0,0,1.7,0.4,1.7-3.1c0.2-3.3,0.2-5.9,0.2-5.9s-0.7-6.3-9.2-6.3c-3.5,0-6.8,0.2-6.8,0.2
		s-6.3,0.4-6.3,7s0,7.2,0,7.2S26.5,57.7,28.2,57.7z"/>
	<ellipse class="st18" cx="20.5" cy="12.4" rx="14.2" ry="10"/>
	<path class="st18" d="M8.9,17.9L7.4,22c0,0-0.6,2.2,0.2,2.4c0.9,0.2,1.8-0.2,2.9-1.1c1.1-0.9,3.7-2.6,3.7-2.6L8.9,17.9z"/>
	<path class="st18" d="M26.7,20.9l4.8,3.1c0,0,0.9,0.7,1.8,0.4c0.9-0.4,0.2-2.2,0.2-2.6c0-0.4-1.5-4.4-1.5-4.4L26.7,20.9z"/>
	<path class="st24" d="M24.3,9.8h-8.1c-0.6,0-0.9-0.4-0.9-0.9l0,0c0-0.6,0.4-0.9,0.9-0.9h8.1c0.6,0,0.9,0.4,0.9,0.9l0,0
		C25.3,9.4,24.9,9.8,24.3,9.8z"/>
	<path class="st24" d="M25.6,13.3H14.9c-0.6,0-0.9-0.4-0.9-0.9l0,0c0-0.6,0.4-0.9,0.9-0.9h10.7c0.6,0,0.9,0.4,0.9,0.9l0,0
		C26.5,12.9,26.2,13.3,25.6,13.3z"/>
	<path class="st24" d="M24.3,16.4h-8.1c-0.6,0-0.9-0.4-0.9-0.9l0,0c0-0.6,0.4-0.9,0.9-0.9h8.1c0.6,0,0.9,0.4,0.9,0.9l0,0
		C25.3,16.1,24.9,16.4,24.3,16.4z"/>
</g>
<g id="icon_91" class="st0">
	<path class="st18" d="M6.5,58.5l10.7-0.2c0,0,1.8-3,5.4-2.8c1.8,0,2.4-0.2,2.6-1.8c0-1.8,0.2-3.4,0.2-3.4s-0.2-0.8-2.2-1
		c-2.2-0.2-2.8-1.4-3-1.8L6.7,44c0,0-1.6,1.8-3.8,1.6c-2.2-0.2-3.2-0.8-3.4,1.2c-0.2,2-0.6,4.6-0.6,4.6s-0.8,2,2.6,2.6
		c3.4,0.6,3.8,1.6,3.6,2.8C4.9,57.9,5.7,58.5,6.5,58.5z"/>
	<path class="st18" d="M7.3,41L21,44c0,0,1.2-0.8,2.4-0.4s3.8,0.6,4-0.4s0.8-3.8,0.8-3.8s-0.2-1.4-1.4-1.6c-1.2-0.2-2.6-0.6-3-2.4
		l-13.1-6c0,0-1,1.6-2.8,1c-1.6-0.6-4-1.6-4.6,0.4c-0.6,1.8-1.4,4.8-1.4,4.8s-0.2,2.2,1.8,2.2C5.3,37.8,7.1,39,7.3,41z"/>
	<path class="st18" d="M12,26.5l12.5,5.4c0,0,1.4,0,2.2,0.2c0.8,0,2.4,1,2.8,1.2c0.4,0.2,1.8-0.2,2.4-1.2c0.6-1,1.6-2.4,1.6-2.4
		s0.4-1.2-0.8-2.2c-1.2-1-2.4-1.2-3-3.4C29.1,21.9,19,16,19,16s-2.2,1.2-4,0.2s-2.4-2.2-3.6-0.6c-1.2,1.6-3.2,4.4-3.2,4.4
		s-0.8,1.8,0.8,2.8C10.6,23.7,12.4,24.1,12,26.5z"/>
	<path class="st18" d="M20.6,13l10.9,8.1c0,0,2.4,0.2,3.6,1.4c1.2,1.2,2.2,1.4,3.4,0.4c1.2-1,3-3.2,3-3.2s0.6-1.2-0.6-2.6
		c-1.2-1.4-3-2.4-1.8-5c0.4-0.8,0-1.2-0.4-1.4s-6.8-6.2-6.8-6.2s-1.2-1.2-3.2-0.4S24.6,2,24.6,2s-1-0.8-2.2,0.2c-1.2,1-4.2,4-4.2,4
		s-1,1.2,0.2,2.6c1.2,1.4,2.6,1.8,2.4,4C20.6,13,20.6,13,20.6,13z"/>
	<path class="st24" d="M15,52.7l-6.4-1c-1-0.2-1.8-1.2-1.6-2.2l0,0c0.2-1,1.2-1.8,2.2-1.6l6.4,1c1,0.2,1.8,1.2,1.6,2.2l0,0
		C17.2,52.1,16.2,52.9,15,52.7z"/>
	<path class="st24" d="M17.6,39.6l-6.2-1.8c-1-0.4-1.6-1.4-1.4-2.4l0,0c0.4-1,1.4-1.6,2.4-1.4l6.2,1.8c1,0.4,1.6,1.4,1.4,2.4l0,0
		C19.8,39.4,18.8,40,17.6,39.6z"/>
	<path class="st24" d="M30.5,16.7l-4.8-4.4c-0.8-0.8-0.8-2-0.2-2.8l0,0c0.8-0.8,2-0.8,2.8-0.2l4.8,4.4c0.8,0.8,0.8,2,0.2,2.8l0,0
		C32.5,17.5,31.3,17.5,30.5,16.7z"/>
	<path class="st24" d="M22.4,28.1l-5.6-3.2c-1-0.6-1.2-1.8-0.8-2.8l0,0c0.6-1,1.8-1.2,2.8-0.8l5.6,3.2c1,0.6,1.2,1.8,0.8,2.8l0,0
		C24.6,28.3,23.4,28.7,22.4,28.1z"/>
</g>
<g id="icon_92" class="st0">
	<ellipse class="st18" cx="20.2" cy="30.1" rx="28" ry="28.4"/>
	<path class="st24" d="M2.3,12.8c0,0,5.5-4.5,10.6-2.4s7.3,7.3,4.7,13S7.2,28.7,5.8,28.1C4.3,27.3-5.4,22.4,2.3,12.8z"/>
	<path class="st24" d="M-0.5,32.8c0,0,8.3-7.5,15.8,2.2c4.9,6.5-2,13.2-3.5,13.6c-2,0.4-9.3,2-13-5.1C-4.2,38.8-1.8,33.8-0.5,32.8z"
		/>
	<path class="st24" d="M25.1,26.5c0,0,15.4-0.2,16.3,0c1.2,0.2,3.2,1.8,2,5.7c-1.2,3.9-6.3,8.9-11.2,8.3c-5.1-0.6-10-6.5-9.8-11
		C22.6,27.3,23.7,26.5,25.1,26.5z"/>
	<path class="st24" d="M25.1,25c0,0,15.4,0.2,16.3,0c1-0.2,3.2-1.8,2-5.7c-1-3.7-6.3-8.9-11.2-8.3c-5.1,0.6-10,6.5-9.8,11
		C22.8,24.2,23.9,25,25.1,25z"/>
	<circle class="st24" cx="17.8" cy="7.1" r="2.2"/>
	<circle class="st24" cx="-3.4" cy="27.5" r="2.2"/>
	<circle class="st24" cx="25.7" cy="47.2" r="2.2"/>
	<circle class="st24" cx="37.1" cy="43.1" r="2"/>
	<circle class="st24" cx="19.8" cy="52.9" r="2.2"/>
	<circle class="st18" cx="9.2" cy="17.9" r="3"/>
	<circle class="st18" cx="7.2" cy="38.4" r="3"/>
	<path class="st20" d="M29.3,25.4c0,0-0.6-6.9,3.5-7.5s4.5,4.1,4.5,7.3s0.6,7.1-1.6,8.5c-2.6,1.8-6.5,0.6-6.5-3.7
		C29.3,25.8,29.3,25.4,29.3,25.4z"/>
</g>
<g id="icon_93" class="st0">
	<g class="st1">
		<g>
			<circle id="SVGID_26_" class="st8" cx="20.2" cy="30.1" r="27.8"/>
		</g>
		<g>
			<g>
				<defs>
					<circle id="SVGID_27_" cx="20.2" cy="30.1" r="27.8"/>
				</defs>
				<clipPath id="SVGID_28_">
					<use xlink:href="#SVGID_27_"  style="overflow:visible;"/>
				</clipPath>
				<line class="st74" x1="37.9" y1="8" x2="1.6" y2="51.6"/>
			</g>
		</g>
	</g>
	<path class="st75" d="M10.2,38.5l1.5,6.2h17l1.5-5.7c0,0,5.7-4.6,5.8-9.5c0-5.8-2.2-11.9-8.4-15.2c-6.8-3.7-14.6-1.6-18.6,2.6
		C6.1,19.5,0.7,29.7,10.2,38.5z"/>
	<rect x="10.3" y="25.2" class="st24" width="3.3" height="6.9"/>
	<rect x="26.2" y="25.2" class="st24" width="3.3" height="6.9"/>
	<rect x="18.4" y="31.9" class="st24" width="3.3" height="3.3"/>
	<rect x="15.3" y="40.3" class="st24" width="3.1" height="4.9"/>
	<rect x="21.7" y="40.3" class="st24" width="3.1" height="4.9"/>
</g>
<g id="icon_94" class="st0">
	<path class="st18" d="M1.4,2.1h37.1c0,0,3.4-0.2,3.4,3.4c0,4.6,1.2,12.4,1.6,13.8c0.4,1.4,1.6,12.5,1.6,19.4s3.2,9.7,3.4,14
		c0.2,4.2,1.2,5.7-1.8,5.7c-3,0-53.4,0-53.4,0s-2.5-0.2-1.4-5.8c1.2-5.7,3-8.1,3.5-15.4c0.4-3.9-0.2-14.1,1.4-18.7
		c1.6-4.8,1.9-12.7,1.9-13.6C-1.1,3.7-1.1,2.1,1.4,2.1z"/>
	<path class="st76" d="M21,7.6h-1.8c-0.9,0-1.6-0.7-1.6-1.6l0,0c0-0.9,0.7-1.6,1.6-1.6H21c0.9,0,1.6,0.7,1.6,1.6l0,0
		C22.6,6.9,21.9,7.6,21,7.6z"/>
	<rect x="18.7" y="46.8" class="st76" width="3.4" height="11.3"/>
	<path class="st77" d="M27,33.2L24.3,36v7.6c0,0,0.2,3.9-3.5,3.9c-3.4,0-4.6-1.8-4.6-3.2c0-1.4,0-8.8,0-8.8l-2.5-2.3"/>
</g>
<g id="icon_95" class="st0">
	<path class="st18" d="M6.6,2.8l12.5-0.4c0,0,2.8-0.6,2.2,3.7c-0.6,4.3-3.4,29.3-3.5,30.8s0,7.1,4.5,8.6c4.5,1.5,16.4,6.7,15.1,9.3
		c-1.3,2.6-3.9,3.2-6.5,2.4c-2.8-0.6-13.1-4.1-21.5-1.5C5.2,57.2,2.8,53.3,3,51c0.2-2.1,2.8-5.6,3.2-7.3c0.2-1.7,0.6-4.3-0.4-9
		C4.9,30.3,2.3,13.7,3.2,8.4C4.1,3.4,4.3,2.8,6.6,2.8z"/>
	<path class="st22" d="M13.3,9c0,0-5.2,4.7-4.5,14c0.7,9.3,3.9,9,3.7,18.3c-0.2,6.2-0.9,8.8-0.9,8.8"/>
	<path class="st22" d="M12.9,43.6c0,0,2.2,5.8,5,7.8"/>
	<path class="st22" d="M10.7,13.9c0,0,3.4,3.5,3.4,8s1.9,7.5,1.9,7.5"/>
	<path class="st22" d="M5.1,15.4c0,0,0.7,6.2,3.5,9"/>
	<path class="st78" d="M10.5,31c0,0-0.7,4.5-1.3,6.7"/>
	<path class="st79" d="M15.1,47.3c0,0,8.2,0.7,11.2,2.8"/>
	<path class="st78" d="M22.1,49.2c0,0-0.2,3.2,2.6,4.5"/>
	<path class="st78" d="M25.8,49.9c0,0,0.4,2.6,2.6,2.6"/>
</g>
<g id="icon_96" class="st0">
	<path class="st18" d="M1.2,2.2h37.2c0,0,3.6-0.4,2.5,3.3c-0.4,1-0.8,10.7,1.9,16.7c2.7,5.9,5.4,14.4,2.3,29.5
		c-1.1,5.7-1.5,6.1-4.6,6.3c-3.1,0-41.8,0-41.8,0s-2.3,0.6-3.1-3.1s-3.8-20.9,0-30.5C-3,20.9-1.7,15-1.5,10.8s-0.2-7.3-0.2-7.3
		S-1.5,2.2,1.2,2.2z"/>
	<path class="st32" d="M15.5,32.4c0,0-0.8,19.3,4,19.3s4.4-19,4.4-19"/>
	<path class="st32" d="M31.6,39.9c0,0-2.1,5.7-7.9,5.2"/>
	<rect x="18.2" y="51" class="st24" width="2.7" height="6.9"/>
	<circle class="st17" cx="16.3" cy="45.1" r="3.3"/>
	<circle class="st17" cx="23.6" cy="39.5" r="4.4"/>
	<circle class="st80" cx="23.4" cy="39.7" r="2.3"/>
</g>
<g id="icon_97" class="st0">
	<path class="st18" d="M-2.5,52.5L-2.5,52.5c-6.3-6.3-6.1-16.3,0-22.6L20.4,7.3C26.6,1,36.7,1.2,43,7.3l0,0c6.3,6.3,6.1,16.3,0,22.6
		L20.2,52.5C13.9,58.8,3.6,58.6-2.5,52.5z"/>
	
		<rect x="17.5" y="13.9" transform="matrix(0.7098 -0.7044 0.7044 0.7098 -15.1909 22.8717)" class="st24" width="5.3" height="31.9"/>
	<path class="st81" d="M17.5,43.9c0,0,1,13.5,12.9,13.7c12,0.2,13.5-11,13.3-13.7c0,0,0.6-1.5-1.5-1.5c-1.9,0-6.5,1.3-8,3.4
		l-5.7,2.9l-2.1-3.8c0,0-3-2.3-7.4-2.5C19.2,42.2,17.5,41.8,17.5,43.9z"/>
	<path class="st40" d="M31.2,37.5c0,0,9.7,8.6,0.4,19.2c0,0-1,1-1.7,0.2s-8.7-9.9-0.4-19.2C29.5,37.7,30.2,36.5,31.2,37.5z"/>
</g>
<g id="icon_98" class="st0">
	<circle class="st18" cx="20" cy="8.7" r="6.8"/>
	<path class="st18" d="M5,48.9l10-3.9L3.2,40.8c0,0-3.1-0.9-4.1,1.7c-1.1,3,1.5,4.4,1.8,4.6C1.5,47.5,5,48.9,5,48.9z"/>
	<path class="st18" d="M26.1,56.1l7.7-3.1c0,0,1.5,3.3-0.6,4.4C31.4,58.7,29.4,58.3,26.1,56.1z"/>
	<path class="st18" d="M39.9,46.9L10,58c-1.7,0.6-3.5-0.2-4.2-1.8v-0.2c-0.6-1.7,0.2-3.5,1.8-4.2l29.9-11.1c1.7-0.6,3.5,0.2,4.2,1.8
		v0.2C42.3,44.5,41.6,46.4,39.9,46.9z"/>
	<path class="st18" d="M13,27.7l0.2,12.7l7.2,3l7-3V27.5l3.9,7.4c0,0,1.1,2.4,2.8,2.4c1.7,0,12.4-0.2,12.4-0.2s2.6-0.2,2.4-3.5
		c0-3.5-3.3-3.3-3.3-3.3l-8.7,0.2L31,18.7c0,0-0.9-2.8-4.6-2.8s-12.9,0.2-12.9,0.2s-2.8,0-4.2,3.3C8,22.8,4.1,30.1,4.1,30.1h-10
		c0,0-2.2,0-2.4,3.3s2.4,3.7,3.3,3.7c0.7,0,11.1-0.2,11.1-0.2s2.2,0,3.5-2.6C10.8,31.8,13,27.7,13,27.7z"/>
</g>
</svg>
